<svg xmlns="http://www.w3.org/2000/svg" width="360" height="360" viewBox="0 0 360 360">
  <g id="Trazado_25" data-name="Trazado 25" fill="none" stroke-linecap="round" stroke-dasharray="0 38">
    <path d="M180,0A180,180,0,1,1,0,180,180,180,0,0,1,180,0Z" stroke="none"/>
    <path d="M 180 0 C 181.1105194091797 0.00042724609375 182.0054931640625 0.895721435546875 182.0054473876953 2.00006103515625 C 182.0054016113281 3.1046142578125 181.1099548339844 4 180.0054016113281 4 L 180 4 C 178.8954467773438 4 178 3.10455322265625 178 1.99993896484375 C 178 0.8953857421875 178.8954467773438 0 180 0 C 180 0 180 0 180 0 Z M 217.3117523193359 3.916534423828125 C 217.4499969482422 3.916534423828125 217.5903625488281 3.930938720703125 217.7310028076172 3.9609375 C 217.7312774658203 3.96099853515625 217.7315368652344 3.9610595703125 217.7318115234375 3.96112060546875 C 217.7318115234375 3.96112060546875 217.734375 3.961669921875 217.734375 3.961669921875 C 217.7350311279297 3.9617919921875 217.7356872558594 3.961944580078125 217.7363433837891 3.96209716796875 C 218.816650390625 4.1925048828125 219.5055541992188 5.255035400390625 219.2751007080078 6.335296630859375 C 219.0446472167969 7.41552734375 217.9821166992188 8.1044921875 216.90185546875 7.874053955078125 L 216.8966064453125 7.872955322265625 C 215.8162994384766 7.642486572265625 215.1273498535156 6.5799560546875 215.3578033447266 5.49969482421875 C 215.5582122802734 4.560089111328125 216.3881378173828 3.91650390625 217.3117523193359 3.916534423828125 Z M 252.9613342285156 15.59063720703125 C 253.2356567382812 15.59063720703125 253.5144653320312 15.64736938476562 253.7808532714844 15.76724243164062 C 253.7825012207031 15.76800537109375 253.7842102050781 15.76873779296875 253.7858581542969 15.76950073242188 C 254.7931518554688 16.22274780273438 255.2423095703125 17.40670776367188 254.7890472412109 18.41400146484375 C 254.3357849121094 19.4212646484375 253.1517639160156 19.87042236328125 252.1444396972656 19.41720581054688 L 252.1395568847656 19.41500854492188 C 251.1322479248047 18.96176147460938 250.68310546875 17.77774047851562 251.1363525390625 16.77044677734375 C 251.4696960449219 16.029541015625 252.1983642578125 15.59060668945312 252.9613342285156 15.59063720703125 Z M 285.3543090820312 34.51092529296875 C 285.7654418945312 34.51095581054688 286.1802673339844 34.63726806640625 286.5369262695312 34.89938354492188 C 286.5369262695312 34.89938354492188 286.5487976074219 34.90811157226562 286.5487976074219 34.90811157226562 C 287.432861328125 35.56393432617188 287.6210632324219 36.81173706054688 286.96826171875 37.69931030273438 C 286.3137512207031 38.589111328125 285.0618896484375 38.77987670898438 284.1720581054688 38.12545776367188 L 284.1677551269531 38.12225341796875 C 283.2779541015625 37.46780395507812 283.0870971679688 36.21591186523438 283.7415466308594 35.32611083984375 C 284.1335754394531 34.7930908203125 284.7398071289062 34.51089477539062 285.3543090820312 34.51092529296875 Z M 313.0780334472656 59.78521728515625 C 313.62939453125 59.78524780273438 314.1784057617188 60.01199340820312 314.5735473632812 60.45651245117188 C 314.5744323730469 60.45751953125 314.5753784179688 60.45849609375 314.5762634277344 60.45953369140625 C 314.5762634277344 60.45953369140625 314.5762939453125 60.45956420898438 314.5762939453125 60.45956420898438 C 314.5765991210938 60.45989990234375 314.576904296875 60.46026611328125 314.5772094726562 60.46060180664062 C 315.31103515625 61.28616333007812 315.2367553710938 62.55026245117188 314.4111633300781 63.28408813476562 C 313.5856018066406 64.0179443359375 312.3214416503906 63.94357299804688 311.5875854492188 63.1180419921875 L 311.583984375 63.11404418945312 C 310.8501586914062 62.28851318359375 310.9244995117188 61.02435302734375 311.7500610351562 60.29043579101562 C 312.1310424804688 59.95175170898438 312.6054077148438 59.78521728515625 313.0780334472656 59.78521728515625 Z M 334.9214172363281 90.28439331054688 C 335.6148071289062 90.28445434570312 336.2886962890625 90.64566040039062 336.6579895019531 91.28939819335938 C 336.6607666015625 91.2943115234375 336.6645812988281 91.301025390625 336.6673583984375 91.30593872070312 C 337.2097778320312 92.26611328125 336.8724975585938 93.48452758789062 335.9129028320312 94.02899169921875 C 334.9521789550781 94.57412719726562 333.7315063476562 94.23715209960938 333.1864013671875 93.27645874023438 L 333.1837463378906 93.27178955078125 C 332.6386413574219 92.31109619140625 332.9755554199219 91.09039306640625 333.9362487792969 90.54525756835938 C 334.2479553222656 90.36837768554688 334.5869140625 90.28436279296875 334.9214172363281 90.28439331054688 Z M 349.8789672851562 124.6844635009766 C 350.7297973632812 124.6845092773438 351.518798828125 125.2318725585938 351.7867431640625 126.0867004394531 C 351.7872924804688 126.0884552001953 351.787841796875 126.0901947021484 351.7883911132812 126.0919494628906 C 352.1188354492188 127.1459045410156 351.5322875976562 128.2682037353516 350.4783020019531 128.5986022949219 C 349.42431640625 128.9290771484375 348.302001953125 128.3424377441406 347.9715576171875 127.2884521484375 L 347.9699401855469 127.2833557128906 C 347.6394958496094 126.2293548583984 348.2261047363281 125.1070556640625 349.2800598144531 124.7765960693359 C 349.4792175292969 124.7141571044922 349.6807250976562 124.6844635009766 349.8789672851562 124.6844635009766 Z M 357.2448425292969 161.4664459228516 C 358.2631530761719 161.4665374755859 359.1327514648438 162.2405853271484 359.2330932617188 163.2729339599609 C 359.2341613769531 163.2847747802734 359.2341918945312 163.2849884033203 359.2352905273438 163.2968444824219 C 359.3317260742188 164.3933563232422 358.5234985351562 165.362548828125 357.4263610839844 165.4635467529297 C 356.3263854980469 165.5645751953125 355.3526611328125 164.7552490234375 355.2513427734375 163.6553497314453 L 355.2508850097656 163.6499938964844 C 355.1495971679688 162.550048828125 355.9591369628906 161.5762939453125 357.0591125488281 161.4750061035156 C 357.1215209960938 161.4692535400391 357.183349609375 161.4664306640625 357.2448425292969 161.4664459228516 Z M 356.7733459472656 198.9883117675781 C 356.8511962890625 198.9883117675781 356.929931640625 198.9928436279297 357.0091552734375 199.0021514892578 C 358.1044006347656 199.1307983398438 358.8885192871094 200.1215209960938 358.7627563476562 201.2165069580078 C 358.7620849609375 201.2223815917969 358.762451171875 201.2191619873047 358.7617492675781 201.2250518798828 C 358.7616577148438 201.2257843017578 358.7615661621094 201.2265167236328 358.7615051269531 201.2272491455078 C 358.6326599121094 202.3242950439453 357.6388549804688 203.1089172363281 356.5418395996094 202.9802551269531 C 355.4447937011719 202.8513488769531 354.6599426269531 201.8575439453125 354.7888488769531 200.7605438232422 L 354.7894592285156 200.7552032470703 C 354.9089965820312 199.7374114990234 355.7730407714844 198.98828125 356.7733459472656 198.9883117675781 Z M 348.4841918945312 235.5709838867188 C 348.6985473632812 235.5709991455078 348.9166870117188 235.6057434082031 349.130859375 235.6788940429688 C 350.1761474609375 236.0360107421875 350.7340087890625 237.1727905273438 350.3768920898438 238.2180480957031 C 350.3766479492188 238.2187652587891 350.3764038085938 238.219482421875 350.3761901855469 238.2201843261719 C 350.3761901855469 238.2201843261719 350.3737182617188 238.2273864746094 350.3737182617188 238.2273864746094 C 350.0150146484375 239.2699584960938 348.8798522949219 239.8259124755859 347.8359375 239.4692993164062 C 346.7907104492188 239.1121520996094 346.2328491210938 237.975341796875 346.5899353027344 236.9300537109375 L 346.5917053222656 236.9250030517578 C 346.8756408691406 236.0939178466797 347.6523742675781 235.5709228515625 348.4841918945312 235.5709838867188 Z M 332.6656188964844 269.5827026367188 C 333.0164184570312 269.5827331542969 333.3717346191406 269.675048828125 333.6942443847656 269.8689575195312 C 334.6408996582031 270.4381103515625 334.9469604492188 271.6668395996094 334.3778076171875 272.6134948730469 C 334.377685546875 272.6137084960938 334.3775634765625 272.6139221191406 334.3774108886719 272.6141357421875 C 334.3774108886719 272.6141357421875 334.3760986328125 272.6163330078125 334.3760986328125 272.6163330078125 C 334.3758850097656 272.6166687011719 334.3757019042969 272.6169738769531 334.3755187988281 272.6173095703125 C 334.3726196289062 272.6221313476562 334.3771667480469 272.6145324707031 334.374267578125 272.619384765625 C 333.8047790527344 273.5650939941406 332.5765991210938 273.8706665039062 331.6304016113281 273.3017578125 C 330.6837463378906 272.7325439453125 330.3777465820312 271.5037536621094 330.9468994140625 270.5570983886719 L 330.9496459960938 270.552490234375 C 331.3248901367188 269.9283752441406 331.98681640625 269.5827026367188 332.6656188964844 269.5827026367188 Z M 310.061279296875 299.5253601074219 C 310.5505676269531 299.5253601074219 311.0409851074219 299.7038269042969 311.4266052246094 300.0643005371094 C 312.2320556640625 300.8172302246094 312.2760620117188 302.0795593261719 311.5260314941406 302.8866577148438 C 311.522216796875 302.8907470703125 311.5213928222656 302.8916320800781 311.5175476074219 302.895751953125 C 310.76318359375 303.7021179199219 309.498046875 303.7444763183594 308.6913452148438 302.9903564453125 C 307.8844604492188 302.2360534667969 307.841796875 300.970458984375 308.5960998535156 300.1635131835938 L 308.5997619628906 300.1596069335938 C 308.9935607910156 299.7383117675781 309.5267333984375 299.5253601074219 310.061279296875 299.5253601074219 Z M 281.709228515625 324.0973815917969 C 282.3409423828125 324.097412109375 282.9625854492188 324.3959655761719 283.3514099121094 324.9533996582031 C 283.9827575683594 325.8585815429688 283.7615661621094 327.1038818359375 282.8575134277344 327.7362976074219 C 282.8529052734375 327.739501953125 282.8503112792969 327.7413330078125 282.8456726074219 327.7445373535156 C 281.9401245117188 328.3721618652344 280.6968383789062 328.1491394042969 280.066162109375 327.2448120117188 C 279.4342651367188 326.3388366699219 279.6564331054688 325.0921630859375 280.5624084472656 324.4602661132812 L 280.5668029785156 324.4571533203125 C 280.9153442382812 324.2140502929688 281.314208984375 324.0973510742188 281.709228515625 324.0973815917969 Z M 248.8516998291016 342.1944580078125 C 249.6329956054688 342.1944885253906 250.375244140625 342.6552429199219 250.6965942382812 343.4207458496094 C 251.1242065429688 344.439208984375 250.6452026367188 345.6114501953125 249.6267395019531 346.0390014648438 C 249.6264190673828 346.0391540527344 249.6260986328125 346.0392761230469 249.6257629394531 346.0394287109375 C 249.6257629394531 346.0394287109375 249.6224822998047 346.0408020019531 249.6224822998047 346.0408020019531 C 249.6222076416016 346.0409240722656 249.6219177246094 346.0410461425781 249.6216430664062 346.0411376953125 C 248.6031646728516 346.4686889648438 247.4309997558594 345.9896850585938 247.0034484863281 344.9712524414062 C 246.5758972167969 343.9527587890625 247.0549011230469 342.7805480957031 248.0733489990234 342.3529357910156 L 248.0783081054688 342.3508911132812 C 248.3312377929688 342.2446899414062 248.5935516357422 342.1944274902344 248.8516998291016 342.1944580078125 Z M 212.9239959716797 352.9615783691406 C 213.867919921875 352.9616394042969 214.7079315185547 353.6328430175781 214.8876953125 354.5943603515625 C 215.0906524658203 355.6798400878906 214.3754730224609 356.7243347167969 213.2901763916016 356.9277038574219 C 213.2844085693359 356.9287719726562 213.2930450439453 356.9271545410156 213.2872924804688 356.92822265625 C 213.2861785888672 356.9284362792969 213.2850646972656 356.9286193847656 213.2839508056641 356.9288635253906 C 212.1981658935547 357.1318664550781 211.1534881591797 356.416259765625 210.9505004882812 355.3305053710938 C 210.7474975585938 354.2447509765625 211.4631500244141 353.2000122070312 212.5489044189453 352.9970092773438 L 212.5541534423828 352.9960021972656 C 212.6784057617188 352.9727783203125 212.802001953125 352.9615783691406 212.9239959716797 352.9615783691406 Z M 175.513427734375 355.944580078125 C 175.5301208496094 355.944580078125 175.5470123291016 355.9447937011719 175.5637969970703 355.9451904296875 L 175.5691986083984 355.9453430175781 C 176.6734008789062 355.97265625 177.5464477539062 356.889892578125 177.5191955566406 357.994140625 C 177.4918975830078 359.098388671875 176.5755157470703 359.9714050292969 175.4703979492188 359.944091796875 C 175.4695587158203 359.944091796875 175.4687042236328 359.9440612792969 175.4678497314453 359.9440612792969 C 175.4678497314453 359.9440612792969 175.4563446044922 359.9437561035156 175.4563446044922 359.9437561035156 C 174.3561706542969 359.9119873046875 173.4877166748047 358.99658203125 173.5149536132812 357.8952026367188 C 173.5418395996094 356.8077392578125 174.4317169189453 355.9444885253906 175.513427734375 355.944580078125 Z M 138.3109893798828 351.0916442871094 C 138.4654541015625 351.0916442871094 138.6224975585938 351.1096801757812 138.779296875 351.1473083496094 L 138.7845458984375 351.1485595703125 C 139.858642578125 351.40625 140.5204467773438 352.4859008789062 140.2627563476562 353.5599975585938 C 140.0050506591797 354.634033203125 138.9254913330078 355.2958679199219 137.8513488769531 355.0381469726562 C 137.8511657714844 355.0381164550781 137.8509979248047 355.0380554199219 137.8508148193359 355.0380249023438 C 137.8508148193359 355.0380249023438 137.8475494384766 355.0372314453125 137.8475494384766 355.0372314453125 C 137.8470306396484 355.037109375 137.8465118408203 355.0369873046875 137.8459930419922 355.036865234375 C 136.7718963623047 354.7791442871094 136.110107421875 353.6994934082031 136.3678436279297 352.6254577636719 C 136.5879669189453 351.7081604003906 137.4074096679688 351.0915832519531 138.3109893798828 351.0916442871094 Z M 102.9751586914062 338.5166931152344 C 103.2657165527344 338.5166931152344 103.5608825683594 338.5802917480469 103.8402404785156 338.714599609375 L 103.8450927734375 338.7169494628906 C 104.8406066894531 339.1954956054688 105.2597045898438 340.3905029296875 104.7811431884766 341.385986328125 C 104.3026123046875 342.3815002441406 103.107666015625 342.8005981445312 102.1120910644531 342.3219909667969 C 102.1119079589844 342.3218994140625 102.1116943359375 342.3218078613281 102.1114807128906 342.3217163085938 C 102.1063537597656 342.3192443847656 102.1054992675781 342.31884765625 102.1003723144531 342.3163757324219 C 101.1097412109375 341.8356323242188 100.6936950683594 340.6438598632812 101.171142578125 339.6506042480469 C 101.5154418945312 338.9344787597656 102.2303771972656 338.5166625976562 102.9751586914062 338.5166931152344 Z M 71.06924438476562 318.7863464355469 C 71.49713134765625 318.786376953125 71.92843627929688 318.9231262207031 72.2928466796875 319.2055053710938 L 72.29708862304688 319.2088012695312 C 73.17025756835938 319.8853454589844 73.32958984375 321.1416625976562 72.65304565429688 322.0148010253906 C 71.97787475585938 322.8861083984375 70.7254638671875 323.046630859375 69.85256958007812 322.3749389648438 C 69.84811401367188 322.3714904785156 69.8489990234375 322.3721923828125 69.84457397460938 322.3687133789062 C 69.84396362304688 322.3682861328125 69.8433837890625 322.3678283691406 69.84280395507812 322.3673400878906 C 68.96963500976562 321.6907958984375 68.810302734375 320.4345397949219 69.48690795898438 319.5614624023438 C 69.88107299804688 319.0527038574219 70.471923828125 318.7862854003906 71.06924438476562 318.7863464355469 Z M 43.98251342773438 292.8255004882812 C 44.55084228515625 292.8255615234375 45.11553955078125 293.0665283203125 45.5111083984375 293.5346069335938 L 45.51455688476562 293.5386962890625 C 46.2275390625 294.3823547363281 46.12161254882812 295.6442565917969 45.2779541015625 296.3572387695312 C 44.4368896484375 297.0680541992188 43.18011474609375 296.9649047851562 42.46597290039062 296.1283264160156 C 42.45870971679688 296.1197204589844 42.45675659179688 296.117431640625 42.44949340820312 296.1088256835938 C 41.74356079101562 295.2651977539062 41.85140991210938 294.0087585449219 42.69253540039062 293.2979431152344 C 43.06814575195312 292.9805603027344 43.52645874023438 292.825439453125 43.98251342773438 292.8255004882812 Z M 22.9111328125 261.7865905761719 C 23.62539672851562 261.78662109375 24.31646728515625 262.1702270507812 24.67669677734375 262.8441467285156 L 24.67926025390625 262.8489074707031 C 25.199951171875 263.8230590820312 24.83233642578125 265.0348510742188 23.85824584960938 265.5556030273438 C 22.88601684570312 266.0752563476562 21.67715454101562 265.710205078125 21.15475463867188 264.740478515625 C 21.152099609375 264.7354736328125 21.14779663085938 264.7274169921875 21.14511108398438 264.722412109375 C 20.63015747070312 263.7495422363281 20.99835205078125 262.54248046875 21.97006225585938 262.0231323242188 C 22.270263671875 261.8626708984375 22.59295654296875 261.7865905761719 22.9111328125 261.7865905761719 Z M 8.83544921875 227.0186767578125 C 9.705657958984375 227.0187377929688 10.50640869140625 227.5912017822266 10.75750732421875 228.4694976806641 L 10.75894165039062 228.4747009277344 C 11.06256103515625 229.5366973876953 10.44769287109375 230.643798828125 9.385711669921875 230.9474029541016 C 8.326904296875 231.2500152587891 7.223358154296875 230.6398773193359 6.915771484375 229.5837860107422 C 6.9141845703125 229.5782318115234 6.91131591796875 229.5681457519531 6.90972900390625 229.5625915527344 C 6.61029052734375 228.5024871826172 7.224822998046875 227.3992004394531 8.2847900390625 227.0962066650391 C 8.468505859375 227.043701171875 8.6534423828125 227.0186614990234 8.83544921875 227.0186767578125 Z M 2.404083251953125 190.0623626708984 C 3.44775390625 190.0624542236328 4.327056884765625 190.8723297119141 4.397735595703125 191.928955078125 L 4.398101806640625 191.9342956542969 C 4.47186279296875 193.0364074707031 3.638214111328125 193.9896545410156 2.536102294921875 194.0634002685547 C 1.43402099609375 194.1371917724609 0.480804443359375 193.3035430908203 0.40704345703125 192.2014465332031 C 0.40692138671875 192.2000122070312 0.4068603515625 192.1985931396484 0.40673828125 192.1971588134766 C 0.406341552734375 192.1911926269531 0.4066162109375 192.1950836181641 0.406219482421875 192.1891174316406 C 0.33636474609375 191.0899353027344 1.1688232421875 190.1405029296875 2.268646240234375 190.06689453125 C 2.314117431640625 190.0638580322266 2.35919189453125 190.0623626708984 2.404083251953125 190.0623626708984 Z M 3.800811767578125 152.5640869140625 C 3.89508056640625 152.5640869140625 3.990570068359375 152.5707550048828 4.08660888671875 152.5845031738281 C 5.17999267578125 152.7409515380859 5.939605712890625 153.754150390625 5.783203125 154.8475952148438 L 5.782440185546875 154.8529052734375 C 5.626007080078125 155.9463348388672 4.612762451171875 156.7060699462891 3.51934814453125 156.5495452880859 C 2.42596435546875 156.3931427001953 1.666290283203125 155.3799438476562 1.82275390625 154.2865447998047 C 1.82281494140625 154.2861022949219 1.8228759765625 154.2856597900391 1.82293701171875 154.2852172851562 C 1.823760986328125 154.2793884277344 1.8238525390625 154.2788696289062 1.824676513671875 154.2730255126953 C 1.970794677734375 153.2797698974609 2.8243408203125 152.5640563964844 3.800811767578125 152.5640869140625 Z M 13.0194091796875 116.2030181884766 C 13.24996948242188 116.2030487060547 13.484619140625 116.2432250976562 13.7135009765625 116.3279571533203 C 14.74935913085938 116.7114562988281 15.2781982421875 117.8621063232422 14.89474487304688 118.89794921875 L 14.89285278320312 118.9029998779297 C 14.5093994140625 119.9388275146484 13.35870361328125 120.4677429199219 12.32290649414062 120.0842437744141 C 11.28704833984375 119.7008056640625 10.75814819335938 118.5502014160156 11.14166259765625 117.5143432617188 C 11.1417236328125 117.5141143798828 11.14181518554688 117.5138702392578 11.14190673828125 117.5136413574219 C 11.14190673828125 117.5136413574219 11.14346313476562 117.5094299316406 11.14346313476562 117.5094299316406 C 11.14349365234375 117.5093536376953 11.14352416992188 117.50927734375 11.1435546875 117.5092010498047 C 11.44229125976562 116.7022247314453 12.2064208984375 116.2029418945312 13.0194091796875 116.2030181884766 Z M 29.697265625 82.6024169921875 C 30.06439208984375 82.60244750976562 30.43597412109375 82.70346069335938 30.76870727539062 82.91510009765625 C 31.70074462890625 83.50790405273438 31.97573852539062 84.74398803710938 31.38296508789062 85.67605590820312 L 31.38003540039062 85.68060302734375 C 30.78732299804688 86.61257934570312 29.55117797851562 86.88763427734375 28.619140625 86.29486083984375 C 27.6893310546875 85.70352172851562 27.413330078125 84.47195434570312 28.00057983398438 83.54067993164062 C 28.00057983398438 83.54067993164062 28.005615234375 83.53280639648438 28.005615234375 83.53280639648438 C 28.00607299804688 83.53207397460938 28.00650024414062 83.5313720703125 28.0069580078125 83.5306396484375 C 28.0069580078125 83.5306396484375 28.00714111328125 83.53036499023438 28.00714111328125 83.53036499023438 C 28.00735473632812 83.530029296875 28.007568359375 83.52969360351562 28.0078125 83.52935791015625 C 28.38897705078125 82.93002319335938 29.0360107421875 82.60238647460938 29.697265625 82.6024169921875 Z M 53.04287719726562 53.23666381835938 C 53.54891967773438 53.23666381835938 54.05526733398438 53.42752075195312 54.4447021484375 53.81024169921875 C 55.23251342773438 54.58450317382812 55.24343872070312 55.85079956054688 54.46920776367188 56.63861083984375 L 54.4654541015625 56.64239501953125 C 53.69119262695312 57.43023681640625 52.42495727539062 57.44119262695312 51.6370849609375 56.6669921875 C 50.84930419921875 55.89276123046875 50.83828735351562 54.62649536132812 51.612548828125 53.83871459960938 C 51.61306762695312 53.83819580078125 51.61358642578125 53.837646484375 51.61407470703125 53.83712768554688 C 51.61407470703125 53.83712768554688 51.62167358398438 53.82940673828125 51.62167358398438 53.82940673828125 C 52.0125732421875 53.4345703125 52.52755737304688 53.23666381835938 53.04287719726562 53.23666381835938 Z M 81.99774169921875 29.38284301757812 C 82.64682006835938 29.38290405273438 83.28359985351562 29.69839477539062 83.668212890625 30.28045654296875 C 84.277099609375 31.20205688476562 84.02371215820312 32.4427490234375 83.10214233398438 33.05169677734375 L 83.09765625 33.05465698242188 C 82.17608642578125 33.66360473632812 80.93533325195312 33.41015625 80.32638549804688 32.4886474609375 C 79.71871948242188 31.56900024414062 79.96975708007812 30.33157348632812 80.88662719726562 29.72128295898438 C 80.89132690429688 29.71817016601562 80.88943481445312 29.71942138671875 80.89413452148438 29.71630859375 C 80.89508056640625 29.7156982421875 80.89602661132812 29.71505737304688 80.89700317382812 29.71444702148438 C 81.23651123046875 29.4901123046875 81.61917114257812 29.3828125 81.99774169921875 29.38284301757812 Z M 115.3036804199219 12.12106323242188 C 116.1034851074219 12.12112426757812 116.8588714599609 12.6043701171875 117.1672058105469 13.3944091796875 C 117.56884765625 14.42333984375 117.060302734375 15.58309936523438 116.0312957763672 15.98471069335938 L 116.0263061523438 15.98666381835938 C 114.9973907470703 16.38827514648438 113.8376159667969 15.87973022460938 113.4359436035156 14.85079956054688 C 113.0343017578125 13.82183837890625 113.5428466796875 12.662109375 114.5717926025391 12.260498046875 C 114.572021484375 12.26040649414062 114.5722351074219 12.26031494140625 114.5724639892578 12.26022338867188 C 114.5724639892578 12.26022338867188 114.5757141113281 12.25897216796875 114.5757141113281 12.25897216796875 C 114.5761260986328 12.25881958007812 114.5765380859375 12.2586669921875 114.5769500732422 12.25851440429688 C 114.81591796875 12.16522216796875 115.0617370605469 12.12103271484375 115.3036804199219 12.12106323242188 Z M 151.4990539550781 2.269317626953125 C 152.4635620117188 2.2694091796875 153.3129272460938 2.96893310546875 153.4710998535156 3.951812744140625 C 153.6466064453125 5.0423583984375 152.9048461914062 6.068695068359375 151.8143005371094 6.24420166015625 L 151.8090057373047 6.24505615234375 C 150.7186279296875 6.4205322265625 149.6921081542969 5.67889404296875 149.5165557861328 4.588287353515625 C 149.3413391113281 3.499542236328125 150.0803375244141 2.47479248046875 151.1678771972656 2.296783447265625 C 151.1678771972656 2.296783447265625 151.1775360107422 2.29522705078125 151.1775360107422 2.29522705078125 C 151.1779327392578 2.295166015625 151.1783447265625 2.29510498046875 151.1787567138672 2.2950439453125 C 151.2864532470703 2.2777099609375 151.3933715820312 2.269317626953125 151.4990539550781 2.269317626953125 Z" stroke="none" fill="#000a33"/>
  </g>
</svg>
