<?xml version="1.0" encoding="UTF-8"?><svg xmlns="http://www.w3.org/2000/svg" viewBox="0 0 848.2 334.92"><defs><style>.e{fill:#fff;}</style></defs><g id="a"/><g id="b"><g id="c"><g id="d"><g><rect class="e" x="262.75" y="3" width="54.79" height="225.17"/><circle class="e" cx="467.66" cy="115.59" r="115.59"/><polygon class="e" points="760.38 3 710.09 3 655.3 3 605.01 3 605.01 57.79 655.3 57.79 655.3 228.17 710.09 228.17 710.09 57.79 760.38 57.79 760.38 3"/><rect class="e" x="793.41" y="3" width="54.79" height="225.17"/><polygon class="e" points="114.07 117.15 0 3.08 .07 231.15 0 231.22 228.14 231.22 228.14 3.08 114.07 117.15"/></g><g><path class="e" d="M0,292.34H17.21c4.65,0,8.66,.84,12.03,2.51,3.37,1.68,5.95,4.09,7.75,7.24,1.79,3.15,2.69,6.9,2.69,11.24s-.89,8.15-2.66,11.32c-1.77,3.17-4.35,5.6-7.72,7.27-3.37,1.68-7.4,2.51-12.09,2.51H0v-42.11Zm16.44,33.24c4.1,0,7.16-1.01,9.2-3.05s3.05-5.09,3.05-9.2c0-8.08-4.08-12.12-12.24-12.12h-5.32v24.36h5.32Z"/><path class="e" d="M73.33,325.75h-18.69l-3.73,8.69h-11.12l19.69-42.11h8.75l19.75,42.11h-10.94l-3.73-8.69Zm-3.61-8.34l-5.74-13.31-5.74,13.31h11.47Z"/><path class="e" d="M94.38,301.33h-12.54v-8.99h36.31v8.99h-12.54v33.12h-11.24v-33.12Z"/><path class="e" d="M145.54,325.75h-18.69l-3.73,8.69h-11.12l19.69-42.11h8.75l19.75,42.11h-10.94l-3.73-8.69Zm-3.61-8.34l-5.74-13.31-5.74,13.31h11.47Z"/><path class="e" d="M188.8,332.29c-3.02-1.75-5.33-4.25-6.95-7.48-1.62-3.23-2.42-7.06-2.42-11.47s.81-8.18,2.42-11.41c1.62-3.23,3.93-5.72,6.95-7.45,3.02-1.73,6.55-2.6,10.62-2.6,2.88,0,5.55,.44,8.01,1.33,2.46,.89,4.54,2.18,6.24,3.87l-2.13,4.49c-1.97-1.62-3.91-2.79-5.82-3.52-1.91-.73-3.99-1.09-6.24-1.09-4.38,0-7.76,1.42-10.14,4.26-2.39,2.84-3.58,6.88-3.58,12.12s1.19,9.35,3.58,12.21c2.38,2.86,5.77,4.29,10.14,4.29,2.25,0,4.33-.36,6.24-1.09,1.91-.73,3.85-1.9,5.82-3.52l2.13,4.49c-1.7,1.7-3.78,2.99-6.24,3.87-2.46,.89-5.14,1.33-8.01,1.33-4.06,0-7.6-.88-10.62-2.63Z"/><path class="e" d="M228.36,332.29c-2.94-1.75-5.2-4.25-6.8-7.48-1.6-3.23-2.39-7.04-2.39-11.41s.79-8.24,2.37-11.47c1.58-3.23,3.84-5.72,6.8-7.45,2.96-1.73,6.43-2.6,10.41-2.6s7.5,.87,10.44,2.6c2.94,1.74,5.19,4.22,6.77,7.45,1.58,3.23,2.37,7.04,2.37,11.41s-.79,8.24-2.37,11.47c-1.58,3.23-3.84,5.73-6.8,7.48-2.96,1.75-6.43,2.63-10.41,2.63s-7.44-.88-10.38-2.63Zm20.22-6.65c2.35-2.88,3.52-6.98,3.52-12.3s-1.17-9.35-3.52-12.21c-2.35-2.86-5.63-4.29-9.85-4.29s-7.49,1.43-9.82,4.29c-2.33,2.86-3.49,6.93-3.49,12.21s1.17,9.42,3.52,12.3c2.35,2.88,5.61,4.32,9.79,4.32s7.5-1.44,9.85-4.32Z"/><path class="e" d="M301.24,292.34v42.11h-4.67l-24.13-31.82v31.82h-5.74v-42.11h4.61l24.19,31.87v-31.87h5.74Z"/><path class="e" d="M315.88,333.62c-2.7-.87-5.04-2.17-7.01-3.9l2.19-4.49c2.05,1.66,4.18,2.86,6.39,3.61,2.21,.75,4.69,1.12,7.45,1.12,3.15,0,5.6-.59,7.33-1.77,1.73-1.18,2.6-2.86,2.6-5.03,0-1.81-.81-3.18-2.42-4.11-1.62-.93-4.18-1.78-7.69-2.57-3.35-.71-6.09-1.53-8.22-2.45-2.13-.93-3.8-2.17-5.03-3.73-1.22-1.56-1.83-3.56-1.83-6s.65-4.6,1.95-6.48c1.3-1.87,3.14-3.33,5.53-4.38,2.38-1.04,5.13-1.57,8.25-1.57s5.73,.45,8.31,1.36c2.58,.91,4.74,2.19,6.48,3.84l-2.19,4.49c-1.93-1.62-3.92-2.81-5.97-3.58-2.05-.77-4.24-1.15-6.56-1.15-3.04,0-5.42,.64-7.16,1.92-1.74,1.28-2.6,3.03-2.6,5.23,0,1.89,.76,3.33,2.28,4.32,1.52,.99,3.95,1.87,7.3,2.66,3.51,.79,6.35,1.62,8.52,2.48,2.17,.87,3.9,2.05,5.2,3.55,1.3,1.5,1.95,3.43,1.95,5.8s-.65,4.57-1.95,6.39c-1.3,1.81-3.16,3.22-5.59,4.23-2.42,1.01-5.27,1.51-8.55,1.51s-6.26-.43-8.96-1.3Z"/><path class="e" d="M352.61,330.54c-2.9-2.92-4.35-7.19-4.35-12.83v-25.37h5.97v25.78c0,3.9,.94,6.85,2.81,8.84,1.87,1.99,4.64,2.99,8.31,2.99s6.38-1.01,8.25-3.02c1.87-2.01,2.81-4.95,2.81-8.81v-25.78h6.03v25.37c0,5.64-1.45,9.92-4.35,12.83-2.9,2.92-7.15,4.38-12.74,4.38s-9.85-1.46-12.74-4.38Z"/><path class="e" d="M391.96,292.34h6.09v37.02h20.46v5.09h-26.55v-42.11Z"/><path class="e" d="M427.21,297.43h-14.25v-5.09h34.65v5.09h-14.25v37.02h-6.15v-37.02Z"/><path class="e" d="M453.23,292.34h6.09v42.11h-6.09v-42.11Z"/><path class="e" d="M503.67,292.34v42.11h-4.67l-24.13-31.82v31.82h-5.74v-42.11h4.61l24.19,31.87v-31.87h5.74Z"/><path class="e" d="M547.61,312.09v19.87c-1.77,.91-4.01,1.63-6.71,2.16-2.7,.53-5.45,.8-8.25,.8-4.26,0-7.94-.86-11.06-2.57-3.11-1.72-5.49-4.19-7.13-7.42-1.64-3.23-2.45-7.1-2.45-11.59s.82-8.24,2.45-11.47c1.64-3.23,3.98-5.71,7.04-7.42,3.06-1.72,6.65-2.57,10.79-2.57,2.96,0,5.69,.44,8.19,1.33,2.5,.89,4.64,2.16,6.42,3.81l-2.19,4.55c-2.01-1.66-3.98-2.84-5.91-3.55-1.93-.71-4.08-1.06-6.45-1.06-4.57,0-8.05,1.4-10.44,4.2-2.39,2.8-3.58,6.86-3.58,12.18s1.22,9.63,3.67,12.45c2.44,2.82,6.05,4.23,10.82,4.23,3.19,0,6.27-.47,9.23-1.42v-11.83h-9.82v-4.67h15.38Z"/><path class="e" d="M577.56,333.62c-2.7-.87-5.04-2.17-7.01-3.9l2.19-4.49c2.05,1.66,4.18,2.86,6.39,3.61,2.21,.75,4.69,1.12,7.45,1.12,3.15,0,5.6-.59,7.33-1.77,1.73-1.18,2.6-2.86,2.6-5.03,0-1.81-.81-3.18-2.42-4.11-1.62-.93-4.18-1.78-7.69-2.57-3.35-.71-6.09-1.53-8.22-2.45-2.13-.93-3.8-2.17-5.03-3.73-1.22-1.56-1.83-3.56-1.83-6s.65-4.6,1.95-6.48c1.3-1.87,3.14-3.33,5.53-4.38,2.38-1.04,5.13-1.57,8.25-1.57s5.73,.45,8.31,1.36c2.58,.91,4.74,2.19,6.48,3.84l-2.19,4.49c-1.93-1.62-3.92-2.81-5.97-3.58-2.05-.77-4.24-1.15-6.56-1.15-3.04,0-5.42,.64-7.16,1.92-1.74,1.28-2.6,3.03-2.6,5.23,0,1.89,.76,3.33,2.28,4.32,1.52,.99,3.95,1.87,7.3,2.66,3.51,.79,6.35,1.62,8.52,2.48,2.17,.87,3.9,2.05,5.2,3.55,1.3,1.5,1.95,3.43,1.95,5.8s-.65,4.57-1.95,6.39c-1.3,1.81-3.16,3.22-5.59,4.23-2.42,1.01-5.27,1.51-8.55,1.51s-6.26-.43-8.96-1.3Z"/><path class="e" d="M610.17,292.34h27.32v4.97h-21.29v13.25h20.11v4.97h-20.11v13.96h21.29v4.97h-27.32v-42.11Z"/><path class="e" d="M678.89,334.45h-6.45l-5.26-14.02c-.55-1.5-1.36-2.53-2.43-3.1-1.06-.57-2.52-.86-4.37-.86h-9.23v17.98h-6.03v-42.11h17.33c4.61,0,8.15,1.03,10.62,3.08,2.46,2.05,3.7,4.99,3.7,8.81,0,2.76-.73,5.11-2.19,7.04-1.46,1.93-3.53,3.29-6.21,4.08,2.44,.43,4.22,2.17,5.32,5.2l5.2,13.9Zm-17.15-22.89c3.07,0,5.36-.6,6.86-1.8,1.5-1.2,2.25-3.01,2.25-5.41s-.74-4.19-2.22-5.35c-1.48-1.16-3.77-1.74-6.89-1.74h-10.59v14.31h10.59Z"/><path class="e" d="M722.95,292.34l-18.57,42.11h-5.15l-18.57-42.11h6.39l14.78,34.42,14.84-34.42h6.27Z"/><path class="e" d="M727.62,292.34h6.09v42.11h-6.09v-42.11Z"/><path class="e" d="M751.42,332.29c-3.02-1.75-5.33-4.25-6.95-7.48-1.62-3.23-2.42-7.06-2.42-11.47s.81-8.18,2.42-11.41c1.62-3.23,3.93-5.72,6.95-7.45,3.02-1.73,6.55-2.6,10.62-2.6,2.88,0,5.55,.44,8.01,1.33,2.46,.89,4.54,2.18,6.24,3.87l-2.13,4.49c-1.97-1.62-3.91-2.79-5.82-3.52-1.91-.73-3.99-1.09-6.24-1.09-4.38,0-7.76,1.42-10.14,4.26-2.39,2.84-3.58,6.88-3.58,12.12s1.19,9.35,3.58,12.21c2.38,2.86,5.77,4.29,10.14,4.29,2.25,0,4.33-.36,6.24-1.09,1.91-.73,3.85-1.9,5.82-3.52l2.13,4.49c-1.69,1.7-3.78,2.99-6.24,3.87-2.46,.89-5.14,1.33-8.01,1.33-4.06,0-7.6-.88-10.62-2.63Z"/><path class="e" d="M783.98,292.34h27.32v4.97h-21.29v13.25h20.11v4.97h-20.11v13.96h21.29v4.97h-27.32v-42.11Z"/><path class="e" d="M823.15,333.62c-2.7-.87-5.04-2.17-7.01-3.9l2.19-4.49c2.05,1.66,4.18,2.86,6.39,3.61,2.21,.75,4.69,1.12,7.45,1.12,3.15,0,5.6-.59,7.33-1.77,1.73-1.18,2.6-2.86,2.6-5.03,0-1.81-.81-3.18-2.43-4.11-1.62-.93-4.18-1.78-7.69-2.57-3.35-.71-6.09-1.53-8.22-2.45-2.13-.93-3.8-2.17-5.03-3.73-1.22-1.56-1.83-3.56-1.83-6s.65-4.6,1.95-6.48c1.3-1.87,3.14-3.33,5.53-4.38,2.38-1.04,5.13-1.57,8.25-1.57s5.73,.45,8.31,1.36c2.58,.91,4.74,2.19,6.48,3.84l-2.19,4.49c-1.93-1.62-3.92-2.81-5.97-3.58-2.05-.77-4.24-1.15-6.56-1.15-3.04,0-5.42,.64-7.16,1.92-1.74,1.28-2.6,3.03-2.6,5.23,0,1.89,.76,3.33,2.28,4.32,1.52,.99,3.95,1.87,7.3,2.66,3.51,.79,6.35,1.62,8.52,2.48,2.17,.87,3.9,2.05,5.2,3.55,1.3,1.5,1.95,3.43,1.95,5.8s-.65,4.57-1.95,6.39c-1.3,1.81-3.16,3.22-5.59,4.23-2.43,1.01-5.27,1.51-8.55,1.51s-6.26-.43-8.96-1.3Z"/></g></g></g></g></svg>