<?xml version="1.0" encoding="utf-8"?>
<!-- Generator: Adobe Illustrator 26.3.1, SVG Export Plug-In . SVG Version: 6.00 Build 0)  -->
<svg version="1.1" id="Capa_1" xmlns="http://www.w3.org/2000/svg" xmlns:xlink="http://www.w3.org/1999/xlink" x="0px" y="0px"
	 viewBox="0 0 848.2 334.9" style="enable-background:new 0 0 848.2 334.9;" xml:space="preserve">
<style type="text/css">
	.st0{fill:#000A33;}
</style>
<g id="a">
</g>
<g id="b">
	<g id="c">
		<g id="d">
			<g>
				<rect x="262.8" y="3" class="st0" width="54.8" height="225.2"/>
				<circle class="st0" cx="467.7" cy="115.6" r="115.6"/>
				<polygon class="st0" points="760.4,3 710.1,3 655.3,3 605,3 605,57.8 655.3,57.8 655.3,228.2 710.1,228.2 710.1,57.8 
					760.4,57.8 				"/>
				<rect x="793.4" y="3" class="st0" width="54.8" height="225.2"/>
				<polygon class="st0" points="114.1,117.2 0,3.1 0.1,231.1 0,231.2 228.1,231.2 228.1,3.1 				"/>
			</g>
			<g>
				<path class="st0" d="M0,292.3h17.2c4.6,0,8.7,0.8,12,2.5c3.4,1.7,6,4.1,7.8,7.2c1.8,3.1,2.7,6.9,2.7,11.2s-0.9,8.1-2.7,11.3
					s-4.3,5.6-7.7,7.3c-3.4,1.7-7.4,2.5-12.1,2.5H0V292.3L0,292.3z M16.4,325.6c4.1,0,7.2-1,9.2-3s3-5.1,3-9.2
					c0-8.1-4.1-12.1-12.2-12.1h-5.3v24.4L16.4,325.6L16.4,325.6z"/>
				<path class="st0" d="M73.3,325.8H54.6l-3.7,8.7H39.8l19.7-42.1h8.8L88,334.4H77L73.3,325.8L73.3,325.8z M69.7,317.4L64,304.1
					l-5.7,13.3H69.7L69.7,317.4z"/>
				<path class="st0" d="M94.4,301.3H81.8v-9h36.3v9h-12.5v33.1H94.4L94.4,301.3L94.4,301.3z"/>
				<path class="st0" d="M145.5,325.8h-18.7l-3.7,8.7H112l19.7-42.1h8.8l19.8,42.1h-10.9L145.5,325.8L145.5,325.8z M141.9,317.4
					l-5.7-13.3l-5.7,13.3H141.9L141.9,317.4z"/>
				<path class="st0" d="M188.8,332.3c-3-1.8-5.3-4.2-6.9-7.5s-2.4-7.1-2.4-11.5s0.8-8.2,2.4-11.4c1.6-3.2,3.9-5.7,6.9-7.5
					s6.6-2.6,10.6-2.6c2.9,0,5.6,0.4,8,1.3c2.5,0.9,4.5,2.2,6.2,3.9l-2.1,4.5c-2-1.6-3.9-2.8-5.8-3.5c-1.9-0.7-4-1.1-6.2-1.1
					c-4.4,0-7.8,1.4-10.1,4.3c-2.4,2.8-3.6,6.9-3.6,12.1s1.2,9.4,3.6,12.2c2.4,2.9,5.8,4.3,10.1,4.3c2.2,0,4.3-0.4,6.2-1.1
					s3.9-1.9,5.8-3.5l2.1,4.5c-1.7,1.7-3.8,3-6.2,3.9c-2.5,0.9-5.1,1.3-8,1.3C195.4,334.9,191.8,334,188.8,332.3L188.8,332.3z"/>
				<path class="st0" d="M228.4,332.3c-2.9-1.8-5.2-4.2-6.8-7.5s-2.4-7-2.4-11.4s0.8-8.2,2.4-11.5s3.8-5.7,6.8-7.5s6.4-2.6,10.4-2.6
					s7.5,0.9,10.4,2.6c2.9,1.7,5.2,4.2,6.8,7.5s2.4,7,2.4,11.4s-0.8,8.2-2.4,11.5c-1.6,3.2-3.8,5.7-6.8,7.5s-6.4,2.6-10.4,2.6
					S231.3,334,228.4,332.3L228.4,332.3z M248.6,325.6c2.4-2.9,3.5-7,3.5-12.3s-1.2-9.4-3.5-12.2s-5.6-4.3-9.9-4.3s-7.5,1.4-9.8,4.3
					c-2.3,2.9-3.5,6.9-3.5,12.2s1.2,9.4,3.5,12.3c2.4,2.9,5.6,4.3,9.8,4.3S246.2,328.5,248.6,325.6z"/>
				<path class="st0" d="M301.2,292.3v42.1h-4.7l-24.1-31.8v31.8h-5.7v-42.1h4.6l24.2,31.9v-31.9L301.2,292.3L301.2,292.3z"/>
				<path class="st0" d="M315.9,333.6c-2.7-0.9-5-2.2-7-3.9l2.2-4.5c2,1.7,4.2,2.9,6.4,3.6c2.2,0.8,4.7,1.1,7.5,1.1
					c3.1,0,5.6-0.6,7.3-1.8c1.7-1.2,2.6-2.9,2.6-5c0-1.8-0.8-3.2-2.4-4.1c-1.6-0.9-4.2-1.8-7.7-2.6c-3.4-0.7-6.1-1.5-8.2-2.5
					c-2.1-0.9-3.8-2.2-5-3.7c-1.2-1.6-1.8-3.6-1.8-6s0.6-4.6,2-6.5c1.3-1.9,3.1-3.3,5.5-4.4c2.4-1,5.1-1.6,8.2-1.6s5.7,0.5,8.3,1.4
					c2.6,0.9,4.7,2.2,6.5,3.8l-2.2,4.5c-1.9-1.6-3.9-2.8-6-3.6s-4.2-1.1-6.6-1.1c-3,0-5.4,0.6-7.2,1.9s-2.6,3-2.6,5.2
					c0,1.9,0.8,3.3,2.3,4.3c1.5,1,4,1.9,7.3,2.7c3.5,0.8,6.4,1.6,8.5,2.5c2.2,0.9,3.9,2,5.2,3.5c1.3,1.5,2,3.4,2,5.8s-0.6,4.6-2,6.4
					c-1.3,1.8-3.2,3.2-5.6,4.2c-2.4,1-5.3,1.5-8.5,1.5S318.6,334.5,315.9,333.6L315.9,333.6z"/>
				<path class="st0" d="M352.6,330.5c-2.9-2.9-4.4-7.2-4.4-12.8v-25.4h6v25.8c0,3.9,0.9,6.9,2.8,8.8s4.6,3,8.3,3s6.4-1,8.2-3
					c1.9-2,2.8-5,2.8-8.8v-25.8h6v25.4c0,5.6-1.5,9.9-4.4,12.8c-2.9,2.9-7.1,4.4-12.7,4.4S355.5,333.5,352.6,330.5z"/>
				<path class="st0" d="M392,292.3h6.1v37h20.5v5.1H392V292.3L392,292.3z"/>
				<path class="st0" d="M427.2,297.4H413v-5.1h34.6v5.1h-14.2v37h-6.1V297.4z"/>
				<path class="st0" d="M453.2,292.3h6.1v42.1h-6.1V292.3L453.2,292.3z"/>
				<path class="st0" d="M503.7,292.3v42.1H499l-24.1-31.8v31.8h-5.7v-42.1h4.6l24.2,31.9v-31.9L503.7,292.3L503.7,292.3z"/>
				<path class="st0" d="M547.6,312.1V332c-1.8,0.9-4,1.6-6.7,2.2s-5.5,0.8-8.2,0.8c-4.3,0-7.9-0.9-11.1-2.6
					c-3.1-1.7-5.5-4.2-7.1-7.4s-2.5-7.1-2.5-11.6s0.8-8.2,2.5-11.5c1.6-3.2,4-5.7,7-7.4c3.1-1.7,6.7-2.6,10.8-2.6
					c3,0,5.7,0.4,8.2,1.3c2.5,0.9,4.6,2.2,6.4,3.8l-2.2,4.5c-2-1.7-4-2.8-5.9-3.5s-4.1-1.1-6.5-1.1c-4.6,0-8,1.4-10.4,4.2
					c-2.4,2.8-3.6,6.9-3.6,12.2s1.2,9.6,3.7,12.5c2.4,2.8,6,4.2,10.8,4.2c3.2,0,6.3-0.5,9.2-1.4v-11.8h-9.8v-4.7L547.6,312.1
					L547.6,312.1z"/>
				<path class="st0" d="M577.6,333.6c-2.7-0.9-5-2.2-7-3.9l2.2-4.5c2,1.7,4.2,2.9,6.4,3.6s4.7,1.1,7.5,1.1c3.2,0,5.6-0.6,7.3-1.8
					c1.7-1.2,2.6-2.9,2.6-5c0-1.8-0.8-3.2-2.4-4.1c-1.6-0.9-4.2-1.8-7.7-2.6c-3.3-0.7-6.1-1.5-8.2-2.5c-2.1-0.9-3.8-2.2-5-3.7
					c-1.2-1.6-1.8-3.6-1.8-6s0.7-4.6,2-6.5c1.3-1.9,3.1-3.3,5.5-4.4c2.4-1,5.1-1.6,8.2-1.6s5.7,0.5,8.3,1.4c2.6,0.9,4.7,2.2,6.5,3.8
					l-2.2,4.5c-1.9-1.6-3.9-2.8-6-3.6s-4.2-1.1-6.6-1.1c-3,0-5.4,0.6-7.2,1.9s-2.6,3-2.6,5.2c0,1.9,0.8,3.3,2.3,4.3
					c1.5,1,4,1.9,7.3,2.7c3.5,0.8,6.3,1.6,8.5,2.5c2.2,0.9,3.9,2,5.2,3.5s2,3.4,2,5.8s-0.7,4.6-2,6.4c-1.3,1.8-3.2,3.2-5.6,4.2
					c-2.4,1-5.3,1.5-8.5,1.5S580.3,334.5,577.6,333.6L577.6,333.6z"/>
				<path class="st0" d="M610.2,292.3h27.3v5h-21.3v13.2h20.1v5h-20.1v14h21.3v5h-27.3V292.3L610.2,292.3z"/>
				<path class="st0" d="M678.9,334.5h-6.5l-5.3-14c-0.5-1.5-1.4-2.5-2.4-3.1c-1.1-0.6-2.5-0.9-4.4-0.9h-9.2v18h-6v-42.1h17.3
					c4.6,0,8.2,1,10.6,3.1c2.5,2,3.7,5,3.7,8.8c0,2.8-0.7,5.1-2.2,7c-1.5,1.9-3.5,3.3-6.2,4.1c2.4,0.4,4.2,2.2,5.3,5.2L678.9,334.5z
					 M661.7,311.6c3.1,0,5.4-0.6,6.9-1.8c1.5-1.2,2.2-3,2.2-5.4s-0.7-4.2-2.2-5.4s-3.8-1.7-6.9-1.7h-10.6v14.3L661.7,311.6
					L661.7,311.6z"/>
				<path class="st0" d="M723,292.3l-18.6,42.1h-5.2l-18.6-42.1h6.4l14.8,34.4l14.8-34.4L723,292.3L723,292.3z"/>
				<path class="st0" d="M727.6,292.3h6.1v42.1h-6.1V292.3L727.6,292.3z"/>
				<path class="st0" d="M751.4,332.3c-3-1.8-5.3-4.2-7-7.5s-2.4-7.1-2.4-11.5s0.8-8.2,2.4-11.4c1.6-3.2,3.9-5.7,7-7.5
					s6.5-2.6,10.6-2.6c2.9,0,5.5,0.4,8,1.3c2.5,0.9,4.5,2.2,6.2,3.9l-2.1,4.5c-2-1.6-3.9-2.8-5.8-3.5c-1.9-0.7-4-1.1-6.2-1.1
					c-4.4,0-7.8,1.4-10.1,4.3c-2.4,2.8-3.6,6.9-3.6,12.1s1.2,9.4,3.6,12.2c2.4,2.9,5.8,4.3,10.1,4.3c2.2,0,4.3-0.4,6.2-1.1
					s3.8-1.9,5.8-3.5l2.1,4.5c-1.7,1.7-3.8,3-6.2,3.9c-2.5,0.9-5.1,1.3-8,1.3C758,334.9,754.4,334,751.4,332.3L751.4,332.3z"/>
				<path class="st0" d="M784,292.3h27.3v5H790v13.2h20.1v5H790v14h21.3v5H784V292.3L784,292.3z"/>
				<path class="st0" d="M823.2,333.6c-2.7-0.9-5-2.2-7-3.9l2.2-4.5c2,1.7,4.2,2.9,6.4,3.6s4.7,1.1,7.5,1.1c3.2,0,5.6-0.6,7.3-1.8
					c1.7-1.2,2.6-2.9,2.6-5c0-1.8-0.8-3.2-2.4-4.1s-4.2-1.8-7.7-2.6c-3.3-0.7-6.1-1.5-8.2-2.5c-2.1-0.9-3.8-2.2-5-3.7
					c-1.2-1.6-1.8-3.6-1.8-6s0.7-4.6,2-6.5c1.3-1.9,3.1-3.3,5.5-4.4c2.4-1,5.1-1.6,8.2-1.6s5.7,0.5,8.3,1.4c2.6,0.9,4.7,2.2,6.5,3.8
					l-2.2,4.5c-1.9-1.6-3.9-2.8-6-3.6s-4.2-1.1-6.6-1.1c-3,0-5.4,0.6-7.2,1.9s-2.6,3-2.6,5.2c0,1.9,0.8,3.3,2.3,4.3
					c1.5,1,4,1.9,7.3,2.7c3.5,0.8,6.3,1.6,8.5,2.5c2.2,0.9,3.9,2,5.2,3.5s2,3.4,2,5.8s-0.7,4.6-2,6.4c-1.3,1.8-3.2,3.2-5.6,4.2
					c-2.4,1-5.3,1.5-8.5,1.5S825.8,334.5,823.2,333.6L823.2,333.6z"/>
			</g>
		</g>
	</g>
</g>
</svg>
