<?xml version="1.0" encoding="utf-8"?>
<!-- Generator: Adobe Illustrator 25.3.1, SVG Export Plug-In . SVG Version: 6.00 Build 0)  -->
<svg version="1.1" id="Layer_1" xmlns="http://www.w3.org/2000/svg" xmlns:xlink="http://www.w3.org/1999/xlink" x="0px" y="0px"
	 viewBox="0 0 50 50" style="enable-background:new 0 0 50 50;" xml:space="preserve">
<style type="text/css">
	.st0{fill:#FFFFFF;}
</style>
<path id="Twitter-12_1_" class="st0" d="M49,10.1c-1.8,0.8-3.7,1.3-5.7,1.6c2.1-1.2,3.6-3.2,4.3-5.5c-1.9,1.1-4,2-6.2,2.4
	c-3.7-4-10-4.2-13.9-0.4c-2,1.9-3.1,4.5-3.1,7.2c0,0.8,0.1,1.5,0.3,2.2c-8-0.4-15.3-4.1-20.3-10.2c-2.6,4.5-1.3,10.2,3,13.1
	c-1.6,0-3.1-0.5-4.5-1.2v0.1c0,4.7,3.3,8.7,7.9,9.6c-1.4,0.4-3,0.4-4.4,0.2c1.3,4,5,6.8,9.2,6.8c-3.5,2.7-7.8,4.2-12.2,4.2
	c-0.8,0-1.6,0-2.3-0.1c4.5,2.9,9.8,4.4,15.1,4.4c18.1,0,28-15,28-28c0-0.4,0-0.9,0-1.3C46,13.8,47.7,12.1,49,10.1z"/>
</svg>
