<?xml version="1.0" standalone="no"?>
<!DOCTYPE svg PUBLIC "-//W3C//DTD SVG 1.1//EN" "http://www.w3.org/Graphics/SVG/1.1/DTD/svg11.dtd" >
<svg xmlns="http://www.w3.org/2000/svg" xmlns:xlink="http://www.w3.org/1999/xlink" version="1.1">
<metadata>
Created by FontForge 20170731 at Mon Jan 17 17:38:49 2022
 By Aleksey,,,
(c) 2021, Copyright by Pangram Pangram Foundry. All rights reserved.
</metadata>
<defs>
<font id="PPNeueMontreal-Italic" horiz-adv-x="0" >
  <font-face 
    font-family="PP Neue Montreal"
    font-weight="400"
    font-style="italic"
    font-stretch="normal"
    units-per-em="2048"
    panose-1="2 11 5 4 1 1 1 1 1 4"
    ascent="1638"
    descent="-410"
    x-height="1044"
    cap-height="1464"
    bbox="-487 -475 4387 1925"
    underline-thickness="122"
    underline-position="-183"
    slope="-11"
    unicode-range="U+000D-1F150"
  />
<missing-glyph horiz-adv-x="1024" 
d="M102 -362v1826h820v-1826h-820zM205 -260h614v1622h-614v-1622z" />
    <glyph glyph-name="f_f" unicode="ff" horiz-adv-x="1107" 
d="M115 901l26 143h148l26 142q17 87 46 145.5t70 89.5t86.5 43.5t107.5 12.5q36 0 106 -11l-26 -139q-62 6 -84 6q-72 0 -99 -29t-43 -110l-28 -150h346l26 142q17 87 46 145.5t70 89.5t86.5 43.5t107.5 12.5q36 0 106 -11l-27 -139q-62 6 -84 6q-72 0 -98.5 -29
t-42.5 -110l-29 -150h199l-27 -143h-200l-174 -901h-164l176 901h-346l-174 -901h-164l176 901h-145z" />
    <glyph glyph-name="f_f_i" unicode="ffi" horiz-adv-x="1472" 
d="M115 901l26 143h148l26 142q17 87 46 145.5t70 89.5t86.5 43.5t107.5 12.5q36 0 106 -11l-26 -139q-62 6 -84 6q-72 0 -99 -29t-43 -110l-28 -150h346l26 142q17 87 46 145.5t70 89.5t86.5 43.5t107.5 12.5q36 0 106 -11l-27 -139q-62 6 -84 6q-72 0 -98.5 -29
t-42.5 -110l-29 -150h199l-27 -143h-200l-174 -901h-164l176 901h-346l-174 -901h-164l176 901h-145zM1358 1444h196l-38 -197h-197zM1296 1044h164l-203 -1044h-163z" />
    <glyph glyph-name="f_i" unicode="fi" horiz-adv-x="970" 
d="M248 0h-164l176 901h-145l26 143h148l26 142q17 87 46 145.5t70 89.5t86.5 43.5t107.5 12.5q36 0 106 -11l-26 -139q-62 6 -84 6q-72 0 -99 -29t-43 -110l-28 -150h198l-26 -143h-201zM856 1444h197l-39 -197h-197zM795 1044h163l-202 -1044h-164z" />
    <glyph glyph-name="f_l" unicode="fl" horiz-adv-x="968" 
d="M248 0h-164l176 901h-145l26 143h148l26 142q17 87 46 145.5t70 89.5t86.5 43.5t107.5 12.5q36 0 106 -11l-26 -139q-62 6 -84 6q-72 0 -99 -29t-43 -110l-28 -150h198l-26 -143h-201zM874 1464h164l-284 -1464h-164z" />
    <glyph glyph-name=".notdef" horiz-adv-x="1024" 
d="M102 -362v1826h820v-1826h-820zM205 -260h614v1622h-614v-1622z" />
    <glyph glyph-name=".null" 
 />
    <glyph glyph-name="nonmarkingreturn" horiz-adv-x="682" 
 />
    <glyph glyph-name="CR" unicode="&#xd;" horiz-adv-x="471" 
 />
    <glyph glyph-name="space" unicode=" " horiz-adv-x="471" 
 />
    <glyph glyph-name="exclam" unicode="!" horiz-adv-x="442" 
d="M311 1464h185l-82 -420l-170 -667h-103l88 667zM59 197h197l-39 -197h-197z" />
    <glyph glyph-name="quotedbl" unicode="&#x22;" horiz-adv-x="673" 
d="M289 1464h164l-117 -499h-123zM586 1464h164l-117 -499h-123z" />
    <glyph glyph-name="numbersign" unicode="#" horiz-adv-x="1226" 
d="M1090 567l-52 -143h-243l-166 -424h-144l166 424h-245l-166 -424h-144l166 424h-196l53 143h198l123 316h-221l51 143h228l151 389h144l-152 -389h246l151 389h144l-152 -389h211l-53 -143h-215l-123 -316h240zM461 567h246l122 316h-245z" />
    <glyph glyph-name="dollar" unicode="$" horiz-adv-x="1220" 
d="M422 -207l35 184q-216 27 -328.5 156.5t-85.5 335.5h174q-13 -144 50.5 -229.5t219.5 -104.5l101 512q-66 28 -111.5 50t-100 58.5t-87.5 74.5t-55.5 93t-22.5 119q0 174 145 282t375 108h8l29 145h119l-31 -156q174 -29 267 -141t69 -305h-174q18 245 -193 291l-96 -498
q49 -19 82 -33t77 -36.5t73 -43t60.5 -50.5t50 -62.5t30.5 -75t12 -90.5q0 -182 -147.5 -294t-391.5 -112l-34 -178h-119zM391 1053q3 -83 60.5 -136.5t169.5 -103.5l88 463q-149 -2 -235 -61t-83 -162zM936 360q0 87 -57.5 138.5t-180.5 103.5l-92 -473q167 4 248.5 66.5
t81.5 164.5z" />
    <glyph glyph-name="percent" unicode="%" horiz-adv-x="1705" 
d="M432 633q-134 0 -204 84t-70 219q0 99 30 191t82.5 162t131 112.5t169.5 42.5q134 0 204.5 -84t70.5 -219q0 -133 -50.5 -248.5t-146.5 -187.5t-217 -72zM274 0l1063 1415h164l-1063 -1415h-164zM440 772q79 0 140 57t90.5 139.5t29.5 170.5q0 78 -34.5 122t-102.5 44
q-79 0 -140 -57t-90.5 -139.5t-29.5 -170.5q0 -78 34.5 -122t102.5 -44zM1214 -29q-134 0 -204 84t-70 219q0 133 50.5 248.5t146.5 187.5t217 72q134 0 204 -84t70 -219q0 -133 -50.5 -248.5t-146.5 -187.5t-217 -72zM1223 111q79 0 140 57t90.5 139t29.5 170
q0 78 -34.5 122t-102.5 44q-79 0 -140.5 -57t-91 -139.5t-29.5 -170.5q0 -77 34.5 -121t103.5 -44z" />
    <glyph glyph-name="ampersand" unicode="&#x26;" horiz-adv-x="1251" 
d="M1026 713h164q-89 -268 -229 -443l167 -270h-194l-90 143q-197 -172 -434 -172q-182 0 -280.5 91t-98.5 241q0 72 26 138t64 115t96.5 97t109 79t115.5 65q-55 92 -81.5 163.5t-26.5 145.5q0 163 112 275t289 112q146 0 223.5 -80t77.5 -207q0 -60 -20 -113.5t-51 -94.5
t-84 -83.5t-104 -74t-126 -72.5l230 -369q76 117 145 314zM502 1128q0 -104 88 -258q140 73 209 145.5t69 162.5q0 72 -41 114.5t-122 42.5q-95 0 -149 -59t-54 -148zM201 336q0 -96 57 -148.5t162 -52.5q204 0 348 131l-260 424q-71 -40 -121 -75t-95 -78.5t-68 -94
t-23 -106.5z" />
    <glyph glyph-name="quotesingle" unicode="'" horiz-adv-x="376" 
d="M289 1464h164l-117 -499h-123z" />
    <glyph glyph-name="parenleft" unicode="(" horiz-adv-x="663" 
d="M653 1546h144q-240 -314 -348.5 -598t-108.5 -598q0 -276 111 -590h-144q-147 256 -147 594q0 309 131.5 630.5t361.5 561.5z" />
    <glyph glyph-name="parenright" unicode=")" horiz-adv-x="663" 
d="M59 -240h-143q240 314 348.5 598t108.5 598q0 276 -111 590h144q147 -256 147 -594q0 -308 -131.5 -630t-362.5 -562z" />
    <glyph glyph-name="asterisk" unicode="*" horiz-adv-x="874" 
d="M940 1155l-291 -82l131 -221l-112 -74l-133 232l-222 -232l-94 74l217 221l-256 82l64 111l258 -78l51 276h135l-53 -276l283 78z" />
    <glyph glyph-name="plus" unicode="+" horiz-adv-x="1187" 
d="M524 586h-383l31 162h383l78 395h164l-78 -395h383l-31 -162h-383l-78 -396h-164z" />
    <glyph glyph-name="comma" unicode="," horiz-adv-x="411" 
d="M-51 -260l20 102q58 19 85.5 52.5t39.5 105.5h-94l39 197h197l-39 -197q-8 -40 -17.5 -69.5t-27.5 -62t-43.5 -55.5t-66 -42.5t-93.5 -30.5z" />
    <glyph glyph-name="hyphen" unicode="-" horiz-adv-x="712" 
d="M98 604h549l-33 -164h-548z" />
    <glyph glyph-name="period" unicode="." horiz-adv-x="401" 
d="M39 197h197l-39 -197h-197z" />
    <glyph glyph-name="slash" unicode="/" horiz-adv-x="837" 
d="M-61 0l876 1464h164l-877 -1464h-163z" />
    <glyph glyph-name="zero" unicode="0" horiz-adv-x="1310" 
d="M557 -29q-113 0 -197.5 37.5t-135.5 107t-76 161t-25 204.5q0 185 50.5 358.5t140 307.5t223 215.5t288.5 81.5q113 0 198 -38t136 -107t76 -160.5t25 -204.5q0 -185 -49 -357t-137 -307.5t-222.5 -217t-294.5 -81.5zM569 135q95 0 178.5 47t143.5 126t103.5 181t65 215
t21.5 226q0 165 -61.5 257.5t-206.5 92.5q-95 0 -178.5 -47t-143.5 -126t-103.5 -181t-65 -215t-21.5 -226q0 -165 61.5 -257.5t206.5 -92.5z" />
    <glyph glyph-name="one" unicode="1" horiz-adv-x="688" 
d="M578 1415h143l-275 -1415h-184l211 1079q-51 -41 -125.5 -55t-183.5 -14l31 153q121 3 198 34t116 81.5t69 136.5z" />
    <glyph glyph-name="two" unicode="2" horiz-adv-x="1159" 
d="M369 920h-189q19 108 67.5 202t121.5 166.5t176.5 114t224.5 41.5q182 0 290.5 -91.5t108.5 -258.5q0 -65 -20.5 -127t-45.5 -107.5t-78 -96t-85.5 -78t-102 -69t-94 -55t-93.5 -48.5q-14 -7 -21 -11q-161 -83 -259.5 -160t-142.5 -174v-4h748l-33 -164h-981
q40 197 171.5 342t369.5 270q29 15 77.5 39.5t78 40t72 39t69.5 43t59.5 46t52 53t38 59t26.5 70t8 79.5q0 43 -10 76.5t-34.5 62.5t-71 44.5t-113.5 15.5q-313 0 -385 -360z" />
    <glyph glyph-name="three" unicode="3" horiz-adv-x="1226" 
d="M397 991h-192q33 201 183.5 327t383.5 126q198 0 312 -90.5t114 -241.5q0 -124 -76.5 -218.5t-206.5 -141.5v-7q109 -33 159 -104.5t50 -187.5q0 -100 -36.5 -187t-105.5 -153t-177.5 -104t-243.5 -38q-272 0 -406.5 142t-86.5 366h192q-31 -162 43.5 -253t269.5 -91
q186 0 271.5 81.5t85.5 215.5q0 125 -69 175t-199 50h-132l31 164h144q134 0 218.5 76t84.5 193q0 190 -252 190q-309 0 -359 -289z" />
    <glyph glyph-name="four" unicode="4" horiz-adv-x="1189" 
d="M838 0h-185l64 332h-682l33 164l860 919h184l-178 -919h194l-32 -164h-195zM879 1155l-617 -659h488z" />
    <glyph glyph-name="five" unicode="5" horiz-adv-x="1173" 
d="M709 950q183 0 283 -102t100 -275q0 -118 -45 -227t-123.5 -192t-195 -133t-251.5 -50q-118 0 -209 38t-142 100.5t-71 139.5t-6 159h189q-5 -56 6 -103.5t38.5 -86.5t79.5 -61t125 -22q123 0 220.5 60.5t147.5 155.5t50 204q0 231 -243 231q-222 0 -349 -133h-196
l297 762h772l-33 -164h-623l-168 -428v-4q138 131 347 131z" />
    <glyph glyph-name="six" unicode="6" horiz-adv-x="1232" 
d="M324 721l4 -2q73 102 180.5 153.5t232.5 51.5q184 0 292 -106t108 -290q0 -150 -71.5 -277t-204 -203.5t-298.5 -76.5q-219 0 -335.5 129t-116.5 379q0 149 31.5 292t93 264t145.5 213t195.5 144t236.5 52q195 0 299 -112.5t88 -274.5h-188q6 107 -50.5 165t-181.5 58
q-75 0 -139.5 -28.5t-113.5 -77.5t-89 -118t-67 -145.5t-47 -165.5zM573 135q164 0 267.5 110t103.5 271q0 123 -66.5 183.5t-189.5 60.5q-164 0 -273.5 -99.5t-109.5 -261.5q0 -124 69.5 -194t198.5 -70z" />
    <glyph glyph-name="seven" unicode="7" horiz-adv-x="1091" 
d="M240 1415h981l-27 -143q-284 -206 -524 -570t-305 -702h-195q33 170 123.5 361.5t207.5 357t243 304t239 224.5l2 4h-776z" />
    <glyph glyph-name="eight" unicode="8" horiz-adv-x="1234" 
d="M516 -29q-209 0 -336 90.5t-127 268.5q0 74 26 140t65 111.5t89 82t95 56.5t86 30v4q-158 88 -158 266q0 176 145.5 300t376.5 124q187 0 298.5 -86t111.5 -246q0 -129 -71 -224t-193 -140v-5q206 -78 206 -286q0 -96 -43 -184t-120 -155t-194 -107t-257 -40zM684 834
q144 0 232 71t88 185q0 96 -66.5 143t-183.5 47q-155 0 -234.5 -74t-79.5 -180q0 -93 63 -142.5t181 -49.5zM547 135q178 0 287.5 89.5t109.5 226.5q0 110 -79 164.5t-222 54.5q-185 0 -294 -90t-109 -226q0 -219 307 -219z" />
    <glyph glyph-name="nine" unicode="9" horiz-adv-x="1226" 
d="M981 694l-4 2q-73 -102 -181 -153t-233 -51q-184 0 -291.5 105.5t-107.5 289.5q0 150 71.5 277t203.5 203.5t298 76.5q219 0 336 -129t117 -379q0 -187 -50.5 -361.5t-140.5 -308.5t-223.5 -214.5t-288.5 -80.5q-195 0 -299 112.5t-88 274.5h189q-6 -107 50 -165t181 -58
q93 0 170 42.5t131.5 119t92.5 169t63 204.5zM731 1280q-164 0 -267.5 -110t-103.5 -271q0 -123 66.5 -183.5t189.5 -60.5q164 0 273.5 99.5t109.5 261.5q0 124 -69.5 194t-198.5 70z" />
    <glyph glyph-name="colon" unicode=":" horiz-adv-x="425" 
d="M172 821h197l-39 -196h-197zM51 197h197l-39 -197h-197z" />
    <glyph glyph-name="semicolon" unicode=";" horiz-adv-x="425" 
d="M172 821h197l-39 -196h-197zM-39 -260l21 102q58 19 85 52.5t39 105.5h-94l39 197h197l-39 -197q-8 -40 -17.5 -69.5t-27.5 -62t-43.5 -55.5t-66 -42.5t-93.5 -30.5z" />
    <glyph glyph-name="less" unicode="&#x3c;" horiz-adv-x="1112" 
d="M1026 1077l-33 -176l-751 -272l-2 -4l647 -275l-31 -151l-766 348l35 184z" />
    <glyph glyph-name="equal" unicode="=" horiz-adv-x="1169" 
d="M201 893h911l-29 -162h-911zM141 604h912l-29 -162h-911z" />
    <glyph glyph-name="greater" unicode="&#x3e;" horiz-adv-x="1112" 
d="M86 199l33 176l751 272l2 4l-647 275l31 151l766 -348l-35 -184z" />
    <glyph glyph-name="question" unicode="?" horiz-adv-x="1079" 
d="M365 375q15 79 42.5 146t55 110.5t73.5 88t76 67.5t84 61q10 7 49.5 34t57 40.5t49.5 43.5t47 55t28 62.5t13 77.5q0 79 -57 123.5t-162 44.5q-66 0 -123.5 -17.5t-110 -55.5t-89.5 -106.5t-52 -160.5h-184q36 223 190 363.5t381 140.5q186 0 289.5 -87.5t103.5 -236.5
q0 -40 -9 -78t-21 -67t-34 -59t-39.5 -49.5t-47 -43.5t-45.5 -36t-46.5 -32.5t-39.5 -27.5q-9 -6 -27 -19q-105 -72 -148 -118q-91 -98 -120 -264h-184zM328 197h196l-39 -197h-196z" />
    <glyph glyph-name="at" unicode="@" horiz-adv-x="1814" 
d="M1319 162q-182 0 -238 166h-4q-129 -158 -315 -158q-134 0 -208.5 87.5t-74.5 246.5q0 112 40.5 215.5t107 177.5t155.5 118t183 44q103 0 170.5 -53t81.5 -132h4l57 170h145l-166 -514q-35 -104 -13.5 -164.5t95.5 -60.5q79 0 147 68t107 181t39 241q0 252 -151.5 387
t-405.5 135q-173 0 -327.5 -61t-269 -169t-181 -266t-66.5 -344q0 -260 144 -405.5t432 -145.5q193 0 356 62l29 -117q-182 -88 -420 -88q-327 0 -507.5 179.5t-180.5 508.5q0 207 79.5 391.5t214 315t318.5 206.5t387 76q328 0 512.5 -175t184.5 -464q0 -175 -61 -326.5
t-168 -242t-232 -90.5zM797 313q95 0 177 58.5t127.5 150.5t45.5 191q0 102 -50 152t-132 50q-138 0 -241 -121.5t-103 -279.5q0 -95 44 -148t132 -53z" />
    <glyph glyph-name="A" unicode="A" horiz-adv-x="1349" 
d="M967 367h-645l-201 -367h-195l826 1464h206l261 -1464h-195zM414 530h524l-111 764h-4z" />
    <glyph glyph-name="B" unicode="B" horiz-adv-x="1320" 
d="M31 0l284 1464h582q203 0 313.5 -81t110.5 -230q0 -126 -78 -225.5t-217 -141.5v-6q223 -48 223 -280q0 -216 -165 -358t-422 -142h-631zM381 852h426q153 0 238 74t85 196q0 91 -52 134.5t-165 43.5h-446zM248 164h438q174 0 275.5 90t101.5 231q0 102 -56.5 152.5
t-160.5 50.5h-498z" />
    <glyph glyph-name="C" unicode="C" horiz-adv-x="1484" 
d="M1305 981q0 71 -20.5 132t-63 110.5t-114 77.5t-165.5 28q-182 0 -328.5 -99t-227.5 -270.5t-81 -381.5q0 -443 400 -443q89 0 166.5 23.5t133 61.5t99 90.5t70.5 106t43 111.5h188q-72 -249 -265.5 -403t-455.5 -154q-263 0 -413 159t-150 441q0 148 41.5 287.5
t119 253.5t180.5 200t233 133.5t270 47.5q106 0 196 -28t152.5 -77t104.5 -114t59.5 -139.5t11.5 -153.5h-184z" />
    <glyph glyph-name="D" unicode="D" horiz-adv-x="1415" 
d="M31 0l284 1464h502q561 0 561 -557q0 -185 -60 -351.5t-164.5 -289t-253.5 -194.5t-318 -72h-551zM467 1300l-219 -1136h360q167 0 301.5 100t208.5 268.5t74 370.5q0 95 -18.5 163.5t-63 123.5t-126 82.5t-200.5 27.5h-317z" />
    <glyph glyph-name="E" unicode="E" horiz-adv-x="1228" 
d="M379 840h731l-33 -164h-731l-98 -512h854l-33 -164h-1038l284 1464h1014l-33 -164h-829z" />
    <glyph glyph-name="F" unicode="F" horiz-adv-x="1179" 
d="M375 825h653l-31 -163h-653l-129 -662h-184l284 1464h994l-33 -164h-809z" />
    <glyph glyph-name="G" unicode="G" horiz-adv-x="1531" 
d="M1298 1022q0 151 -92 229t-264 78q-183 0 -330.5 -104.5t-228 -279t-80.5 -380.5q0 -430 371 -430q207 0 370.5 129.5t204.5 333.5h-477l31 164h661l-147 -762h-123l-20 207h-5q-110 -120 -231.5 -178t-282.5 -58q-265 0 -401.5 152.5t-136.5 425.5q0 149 40 290.5
t117 259t180.5 206.5t238.5 138.5t284 49.5q129 0 229.5 -37.5t162 -103t91.5 -149.5t27 -181h-189z" />
    <glyph glyph-name="H" unicode="H" horiz-adv-x="1417" 
d="M315 1464h185l-121 -622h782l121 622h184l-284 -1464h-185l131 678h-782l-131 -678h-184z" />
    <glyph glyph-name="I" unicode="I" horiz-adv-x="450" 
d="M315 1464h185l-285 -1464h-184z" />
    <glyph glyph-name="J" unicode="J" horiz-adv-x="993" 
d="M866 406q-19 -98 -54 -174t-92.5 -136.5t-145 -92.5t-201.5 -32q-102 0 -175.5 27t-114 71.5t-60 107t-19 128t15.5 141.5l9 41h184l-8 -41q-19 -98 -18 -167t48 -106.5t150 -37.5q62 0 111 17.5t80.5 45t55 70.5t36 83.5t22.5 94.5l199 1018h184z" />
    <glyph glyph-name="K" unicode="K" horiz-adv-x="1339" 
d="M31 0l284 1464h185l-152 -778l889 778h219l-692 -604l453 -860h-209l-381 739l-322 -280l-90 -459h-184z" />
    <glyph glyph-name="L" unicode="L" horiz-adv-x="1126" 
d="M315 1464h185l-252 -1300h768l-33 -164h-952z" />
    <glyph glyph-name="M" unicode="M" horiz-adv-x="1691" 
d="M31 0l284 1464h252l221 -1224h5l675 1224h273l-285 -1464h-184l233 1204h-4l-676 -1204h-163l-209 1204h-4l-234 -1204h-184z" />
    <glyph glyph-name="N" unicode="N" horiz-adv-x="1411" 
d="M31 0l284 1464h222l497 -1202h8l234 1202h184l-284 -1464h-222l-497 1202h-8l-234 -1202h-184z" />
    <glyph glyph-name="O" unicode="O" horiz-adv-x="1619" 
d="M713 -29q-276 0 -435 163t-159 431q0 184 67 354.5t182 296.5t277.5 201.5t343.5 75.5q276 0 435 -163t159 -431q0 -184 -67 -354.5t-182 -296.5t-277.5 -201.5t-343.5 -75.5zM727 135q146 0 272.5 63t213 168t135.5 244t49 289q0 93 -24 169.5t-73.5 136t-132 92
t-192.5 32.5q-146 0 -272.5 -63t-213 -168t-135.5 -244t-49 -289q0 -93 24 -169.5t73.5 -136t132 -92t192.5 -32.5z" />
    <glyph glyph-name="P" unicode="P" horiz-adv-x="1241" 
d="M31 0l284 1464h564q95 0 168.5 -17.5t132 -56t89.5 -107.5t31 -165q0 -220 -154 -363t-403 -143h-409l-119 -612h-184zM367 776h407q155 0 247.5 93.5t92.5 236.5q0 105 -55.5 149.5t-200.5 44.5h-391z" />
    <glyph glyph-name="Q" unicode="Q" horiz-adv-x="1617" 
d="M713 -29q-276 0 -435 163t-159 431q0 184 67 354.5t182 296.5t277.5 201.5t343.5 75.5q276 0 435 -163t159 -431q0 -207 -82.5 -393t-228.5 -318l135 -165l-133 -109l-139 172q-200 -115 -422 -115zM727 135q164 0 305 80l-170 209l133 108l172 -215q109 107 169.5 260
t60.5 322q0 93 -24 169.5t-73.5 136t-132 92t-192.5 32.5q-146 0 -272.5 -63t-213 -168t-135.5 -244t-49 -289q0 -93 24 -169.5t73.5 -136t132 -92t192.5 -32.5z" />
    <glyph glyph-name="R" unicode="R" horiz-adv-x="1325" 
d="M31 0l284 1464h568q216 0 327 -88.5t111 -251.5t-97 -287.5t-251 -158.5v-6q64 -13 103 -55t52 -99.5t14.5 -124t-6.5 -131.5t-15 -119t-6.5 -90t15.5 -41l-2 -12h-198q-7 11 -7.5 42.5t10 75.5t16 96t11.5 105t-3.5 102t-29 87t-65 61t-112.5 23h-420l-115 -592h-184z
M467 1300l-105 -544h396q168 0 271.5 97t103.5 247q0 104 -68.5 152t-230.5 48h-367z" />
    <glyph glyph-name="S" unicode="S" horiz-adv-x="1294" 
d="M737 842q74 -25 117.5 -41t99.5 -40t87.5 -45t66 -51.5t52 -64t29 -77.5t11.5 -97q0 -145 -73 -249t-200.5 -155t-297.5 -51q-182 0 -318 61.5t-206 178.5t-58 274h180q-1 -170 105 -260t301 -90q114 0 197 27t133.5 91t50.5 161q0 37 -7.5 65t-28.5 53t-46 43.5t-73 40
t-95.5 39t-126.5 43.5q-90 30 -152 56.5t-115 60t-84 71t-48 86.5t-17 111q0 100 43 179t118 129t173.5 76t212.5 26q250 0 383.5 -114.5t112.5 -342.5h-181q8 149 -71.5 221t-259.5 72q-71 0 -130 -11t-109 -35.5t-78.5 -70t-28.5 -108.5q0 -30 6 -54.5t16 -44t32 -37.5
t43.5 -31.5t62 -30.5t76 -30t95.5 -34z" />
    <glyph glyph-name="T" unicode="T" horiz-adv-x="1241" 
d="M426 0l252 1300h-488l33 164h1159l-32 -164h-488l-252 -1300h-184z" />
    <glyph glyph-name="U" unicode="U" horiz-adv-x="1327" 
d="M1217 487q-22 -114 -71 -205.5t-127.5 -162.5t-196.5 -109.5t-267 -38.5q-271 0 -389 140t-72 376l191 977h184l-190 -977q-36 -186 37 -269t259 -83q387 0 457 352l191 977h184z" />
    <glyph glyph-name="V" unicode="V" horiz-adv-x="1294" 
d="M211 1464h201l170 -1276h2l667 1276h197l-797 -1464h-200z" />
    <glyph glyph-name="W" unicode="W" horiz-adv-x="1912" 
d="M231 1464h195l59 -1200h4l535 1200h213l98 -1200h4l512 1200h195l-647 -1464h-205l-94 1255h-4l-561 -1255h-205z" />
    <glyph glyph-name="X" unicode="X" horiz-adv-x="1265" 
d="M573 754l-325 710h205l245 -581h2l478 581h208l-614 -712l350 -752h-204l-269 616h-2l-495 -616h-224z" />
    <glyph glyph-name="Y" unicode="Y" horiz-adv-x="1292" 
d="M203 1464h194l283 -723h4l567 723h203l-702 -864l-117 -600h-184l116 600z" />
    <glyph glyph-name="Z" unicode="Z" horiz-adv-x="1282" 
d="M295 1464h1077l-33 -164l-1112 -1132v-4h914l-33 -164h-1139l33 164l1112 1132v4h-852z" />
    <glyph glyph-name="bracketleft" unicode="[" horiz-adv-x="647" 
d="M375 1546h387l-31 -164h-203l-282 -1458h203l-33 -164h-387z" />
    <glyph glyph-name="backslash" unicode="\" horiz-adv-x="837" 
d="M236 1464h163l283 -1464h-164z" />
    <glyph glyph-name="bracketright" unicode="]" horiz-adv-x="647" 
d="M324 -240h-387l30 164h203l283 1458h-203l33 164h387z" />
    <glyph glyph-name="asciicircum" unicode="^" horiz-adv-x="968" 
d="M586 1464h164l249 -563h-176l-178 414h-2l-336 -414h-190z" />
    <glyph glyph-name="underscore" unicode="_" horiz-adv-x="1146" 
d="M-86 -135h1065l-33 -164h-1065z" />
    <glyph glyph-name="grave" unicode="`" horiz-adv-x="446" 
d="M340 1485l66 -275h-134l-127 275h195z" />
    <glyph glyph-name="a" unicode="a" horiz-adv-x="1079" 
d="M319 -29q-149 0 -229 71.5t-80 203.5q0 68 23.5 121.5t62 90.5t101 66.5t128 48.5t154.5 37q175 35 222 51q101 35 121 103q5 20 5 43q0 61 -44 93t-154 32q-131 0 -203.5 -51t-101.5 -166h-168q38 170 162 265t325 95q192 0 280.5 -88.5t55.5 -257.5l-96 -493
q-13 -57 -5 -90t48 -33q11 0 35 4l-23 -107q-52 -20 -98 -20q-69 0 -102.5 38t-30.5 124h-7q-143 -181 -381 -181zM367 115q147 0 254.5 80t136.5 223l30 151q-32 -31 -73.5 -44.5t-175.5 -41.5q-68 -15 -110 -25t-88.5 -24.5t-72 -29.5t-48.5 -35.5t-32.5 -47t-9.5 -59.5
q0 -147 189 -147z" />
    <glyph glyph-name="b" unicode="b" horiz-adv-x="1148" 
d="M213 135h-12l-27 -135h-164l285 1464h164l-107 -549h6q147 158 361 158q172 0 274.5 -110t102.5 -314q0 -141 -45.5 -267t-123.5 -216t-187 -142.5t-232 -52.5q-211 0 -295 164zM678 930q-112 0 -207.5 -72t-150 -190.5t-54.5 -253.5q0 -143 66 -221t190 -78
q170 0 289 149t119 371q0 295 -252 295z" />
    <glyph glyph-name="c" unicode="c" horiz-adv-x="1089" 
d="M895 662q12 130 -49 199t-189 69t-230 -75t-156 -193.5t-54 -253.5q0 -60 14.5 -111t44 -93t82 -65.5t123.5 -23.5q77 0 141.5 25t107 65.5t69 84t39.5 89.5h163q-46 -179 -193.5 -293.5t-336.5 -114.5q-196 0 -308 114t-112 308q0 180 78 335.5t221 250t318 94.5
q193 0 297.5 -116t89.5 -295h-160z" />
    <glyph glyph-name="d" unicode="d" horiz-adv-x="1148" 
d="M936 909h10l109 555h164l-285 -1464h-164l25 129h-4q-147 -158 -361 -158q-172 0 -274.5 110t-102.5 314q0 141 45.5 267t123.5 216t187 142.5t232 52.5q211 0 295 -164zM471 115q135 0 242.5 101t148.5 257l17 82q4 50 4 76q0 143 -66 221t-190 78q-170 0 -289 -149
t-119 -371q0 -295 252 -295z" />
    <glyph glyph-name="e" unicode="e" horiz-adv-x="1128" 
d="M481 -31q-208 0 -318 116t-110 323q0 186 79.5 338.5t221 240.5t316.5 88q205 0 306 -104.5t101 -284.5q0 -80 -24 -207h-828q-2 -23 -2 -69q0 -145 64 -221t207 -76q74 0 138 21.5t106 56t68 67t40 64.5h170q-76 -162 -211.5 -257.5t-323.5 -95.5zM655 934
q-153 0 -256 -83t-147 -228h651q16 88 -3.5 157t-82 111.5t-162.5 42.5z" />
    <glyph glyph-name="f" unicode="f" horiz-adv-x="600" 
d="M248 0h-164l176 901h-145l26 143h148l26 142q17 87 46 145.5t70 89.5t86.5 43.5t107.5 12.5q36 0 106 -11l-26 -139q-62 6 -84 6q-72 0 -99 -29t-43 -110l-28 -150h198l-26 -143h-201z" />
    <glyph glyph-name="g" unicode="g" horiz-adv-x="1150" 
d="M788 90l25 127h-4q-142 -164 -363 -164q-174 0 -278.5 103.5t-104.5 310.5q0 165 74.5 304t206.5 220.5t291 81.5q214 0 311 -158h4l25 129h164l-189 -968q-42 -219 -183 -332t-355 -113q-194 0 -310.5 92t-109.5 238h160q0 -186 260 -186q315 0 376 315zM647 930
q-123 0 -219.5 -65.5t-146.5 -169.5t-50 -224q0 -129 62.5 -201.5t189.5 -72.5q122 0 216.5 68t143 177t48.5 236q0 252 -244 252z" />
    <glyph glyph-name="h" unicode="h" horiz-adv-x="1077" 
d="M842 688q22 111 -20 177.5t-163 66.5q-127 0 -227.5 -79.5t-130.5 -197.5l-127 -655h-164l285 1464h164l-107 -553q62 74 159 119t216 45q157 0 236 -101.5t43 -285.5l-134 -688h-163z" />
    <glyph glyph-name="i" unicode="i" horiz-adv-x="391" 
d="M276 1444h197l-39 -197h-196zM215 1044h164l-203 -1044h-164z" />
    <glyph glyph-name="j" unicode="j" horiz-adv-x="387" 
d="M276 1444h197l-39 -197h-196zM-123 -369q-44 0 -106 11l26 139q53 -6 82 -6q47 0 75.5 36t45.5 123l215 1110h164l-219 -1126q-29 -149 -106.5 -218t-176.5 -69z" />
    <glyph glyph-name="k" unicode="k" horiz-adv-x="1019" 
d="M10 0l285 1464h164l-168 -860l561 440h209l-486 -378l326 -666h-190l-262 565l-195 -149l-80 -416h-164z" />
    <glyph glyph-name="l" unicode="l" horiz-adv-x="389" 
d="M295 1464h164l-285 -1464h-164z" />
    <glyph glyph-name="m" unicode="m" horiz-adv-x="1619" 
d="M10 0l203 1044h164l-25 -131q133 162 338 162q110 0 169.5 -45t74.5 -139h4q156 184 379 184q150 0 210.5 -89.5t28.5 -256.5l-141 -729h-164l133 688q12 70 10.5 124t-38 87t-109.5 33q-123 0 -212.5 -83t-112.5 -198l-127 -651h-164l133 688q12 70 11 124t-37.5 87
t-110.5 33q-125 0 -214.5 -85t-115.5 -214l-123 -633h-164z" />
    <glyph glyph-name="n" unicode="n" horiz-adv-x="1077" 
d="M10 0l203 1044h164l-27 -133h2q62 74 159 119t216 45q157 0 236 -101.5t43 -285.5l-134 -688h-163l133 688q22 111 -20 177.5t-163 66.5q-128 0 -229 -81t-129 -200l-127 -651h-164z" />
    <glyph glyph-name="o" unicode="o" horiz-adv-x="1136" 
d="M453 -29q-192 0 -298 112t-106 300q0 186 80 343.5t226.5 252t328.5 94.5q192 0 297.5 -111.5t105.5 -299.5q0 -139 -47 -265.5t-129.5 -220.5t-201.5 -149.5t-256 -55.5zM475 115q130 0 234 76.5t158.5 197t54.5 256.5q0 129 -65.5 207t-194.5 78q-130 0 -234 -77
t-158.5 -197.5t-54.5 -256.5q0 -129 65.5 -206.5t194.5 -77.5z" />
    <glyph glyph-name="p" unicode="p" horiz-adv-x="1148" 
d="M213 135h-12l-97 -497h-163l274 1406h164l-25 -129h4q147 158 361 158q172 0 274.5 -110t102.5 -314q0 -141 -45.5 -267t-123.5 -216t-187 -142.5t-232 -52.5q-211 0 -295 164zM678 930q-136 0 -244 -103t-147 -260l-15 -71q-6 -41 -6 -82q0 -143 66 -221t190 -78
q170 0 289 149t119 371q0 295 -252 295z" />
    <glyph glyph-name="q" unicode="q" horiz-adv-x="1148" 
d="M700 -362l97 491h-6q-147 -158 -361 -158q-172 0 -274.5 110t-102.5 314q0 141 45.5 267t123.5 216t187 142.5t232 52.5q211 0 295 -164h12l27 135h164l-275 -1406h-164zM471 115q142 0 253 112.5t146 278.5l2 16q11 64 11 109q0 143 -66 221t-190 78q-170 0 -289 -149
t-119 -371q0 -295 252 -295z" />
    <glyph glyph-name="r" unicode="r" horiz-adv-x="702" 
d="M213 1044h164l-39 -196h4q65 109 144 165t194 56q44 0 82 -6l-33 -160q-34 6 -63 6q-143 0 -248 -98.5t-135 -251.5l-109 -559h-164z" />
    <glyph glyph-name="s" unicode="s" horiz-adv-x="991" 
d="M543 608q49 -15 77 -24t70.5 -26t67 -32.5t53.5 -39.5t44.5 -50t26.5 -62.5t11 -78.5q0 -155 -119 -239.5t-309 -84.5q-213 0 -334 103.5t-121 267.5h162q0 -97 73.5 -162t225.5 -65q119 0 187.5 43t68.5 131q0 33 -13 59t-30 42.5t-55.5 33.5t-65 25.5t-82.5 25.5
q-143 42 -195 67q-147 70 -161 206q-2 15 -2 32q0 98 56 165.5t143 97.5t198 30q195 0 301.5 -96t106.5 -234h-164q0 34 -12.5 65t-39.5 59.5t-77 45.5t-117 17q-102 0 -167.5 -36.5t-65.5 -111.5q0 -46 32.5 -77t69 -46t127.5 -42q19 -6 29 -9z" />
    <glyph glyph-name="t" unicode="t" horiz-adv-x="628" 
d="M143 1044h154l68 349h163l-67 -349h205l-29 -143h-205l-123 -629q-15 -76 7 -107.5t94 -31.5q28 0 90 6l-29 -139q-64 -10 -113 -10q-62 0 -105.5 14t-75.5 47.5t-37.5 89.5t7.5 140l121 620h-153z" />
    <glyph glyph-name="u" unicode="u" horiz-adv-x="1077" 
d="M236 367q-22 -114 18 -183t152 -69q139 0 241.5 81.5t130.5 215.5l123 632h164l-203 -1044h-164l25 125h-4q-61 -65 -156 -109.5t-213 -44.5q-77 0 -135 21.5t-99.5 69t-52 123.5t8.5 186l131 673h164z" />
    <glyph glyph-name="v" unicode="v" horiz-adv-x="972" 
d="M119 1044h176l121 -880h2l456 880h181l-578 -1044h-186z" />
    <glyph glyph-name="w" unicode="w" horiz-adv-x="1521" 
d="M129 1044h180l51 -860h5l397 860h178l61 -860h5l409 860h182l-536 -1044h-174l-68 848h-4l-395 -848h-182z" />
    <glyph glyph-name="x" unicode="x" horiz-adv-x="1048" 
d="M145 1044h197l207 -399h4l342 399h195l-467 -509l303 -535h-197l-227 426h-4l-385 -426h-195l510 535z" />
    <glyph glyph-name="y" unicode="y" horiz-adv-x="1026" 
d="M344 10l-223 1034h180l158 -845h4l471 845h180l-625 -1075q-113 -192 -207.5 -264t-215.5 -72q-39 0 -101 11l27 139q53 -6 74 -6q174 0 278 233z" />
    <glyph glyph-name="z" unicode="z" horiz-adv-x="966" 
d="M-16 123l739 774l2 4h-555l27 143h786l-18 -98l-764 -799v-4h630l-28 -143h-844z" />
    <glyph glyph-name="braceleft" unicode="{" horiz-adv-x="647" 
d="M111 735q67 -1 102.5 50.5t52.5 142.5l43 221q20 103 47.5 173.5t60.5 114.5t81.5 68t100 32.5t126.5 8.5h39l-33 -164h-39q-79 0 -124 -42t-66 -148l-62 -318q-29 -150 -164 -219v-4q51 -36 72.5 -87t5.5 -134l-61 -307q-22 -113 7.5 -156t109.5 -43h39l-33 -164h-39
q-73 0 -121.5 9t-87 34.5t-54.5 71t-15.5 117t20.5 174.5l41 211q9 53 10 96.5t-22 70.5t-70 27z" />
    <glyph glyph-name="bar" unicode="|" horiz-adv-x="499" 
d="M371 1524h143l-346 -1786h-143z" />
    <glyph glyph-name="braceright" unicode="}" horiz-adv-x="647" 
d="M588 571q-68 1 -103.5 -50.5t-52.5 -141.5l-43 -221q-20 -103 -47.5 -173.5t-60.5 -115t-81.5 -68.5t-100 -32.5t-126.5 -8.5h-39l33 164h39q79 0 124.5 42.5t66.5 148.5l61 317q29 150 164 219v4q-51 36 -72.5 87.5t-5.5 134.5l62 307q22 113 -7.5 155.5t-109.5 42.5
h-39l33 164h39q73 0 121.5 -9t87 -34.5t54.5 -70.5t15.5 -116.5t-20.5 -174.5l-41 -211q-9 -53 -10 -96.5t22 -71t70 -27.5z" />
    <glyph glyph-name="asciitilde" unicode="~" horiz-adv-x="845" 
d="M100 553q21 106 84 174t146 68q52 0 97 -22t79.5 -44t60.5 -22q40 0 64.5 28t30.5 60h143q-21 -106 -84 -174t-146 -68q-51 0 -96 22t-80 44t-61 22q-40 0 -64 -28t-30 -60h-144z" />
    <glyph glyph-name="uni00A0" unicode="&#xa0;" horiz-adv-x="471" 
 />
    <glyph glyph-name="exclamdown" unicode="&#xa1;" horiz-adv-x="442" 
d="M215 1001l39 197h197l-39 -197h-197zM-25 -266l82 420l170 667h103l-88 -667l-82 -420h-185z" />
    <glyph glyph-name="cent" unicode="&#xa2;" horiz-adv-x="1103" 
d="M940 877q12 124 -42.5 193t-172.5 75l-158 -813q67 6 124 33t94.5 66t61.5 80t36 83h164q-45 -173 -184.5 -287t-321.5 -121l-35 -176h-123l35 185q-152 28 -237 137t-85 276q0 254 150.5 448t384.5 226l31 164h122l-30 -160q174 -12 267 -126t79 -283h-160zM262 623
q0 -106 45 -183t139 -102l154 792q-101 -27 -179 -104t-118.5 -182t-40.5 -221z" />
    <glyph glyph-name="sterling" unicode="&#xa3;" horiz-adv-x="1169" 
d="M782 719l-28 -154h-287q-14 -111 -79.5 -216t-160.5 -165v-4q4 2 31 15t41 18.5t40 14t51 12.5t52 4q48 0 90 -14.5t68.5 -31.5t66 -31.5t83.5 -14.5q59 0 113.5 23t125.5 69l49 -150q-92 -62 -160 -92.5t-151 -30.5q-61 0 -115.5 19.5t-89 43t-83.5 43t-101 19.5
q-54 0 -107.5 -21t-150.5 -75l-72 135q102 58 182.5 184.5t92.5 245.5h-170l28 154h127q-1 5 -8 31t-9 35.5t-7 32.5t-7 38.5t-4 37t-2 42.5q0 95 36.5 184t103 158.5t168.5 111.5t223 42q104 0 183.5 -25t127 -69t75 -105t28.5 -132.5t-13 -150.5h-184q62 318 -234 318
q-147 0 -238 -88t-91 -228q0 -41 5.5 -77t19 -89.5t16.5 -66.5h325z" />
    <glyph glyph-name="currency" unicode="&#xa4;" horiz-adv-x="1036" 
d="M483 297q-139 0 -233 82l-158 -133l-72 86l162 135q-37 67 -37 162q0 179 127 319l-106 131l104 86l105 -129q120 76 250 76q137 0 231 -82l158 133l73 -86l-163 -135q37 -70 37 -164q0 -176 -123 -315l104 -129l-104 -88l-105 129q-118 -78 -250 -78zM498 440
q130 0 213.5 97t83.5 233q0 101 -50.5 150t-136.5 49q-130 0 -214.5 -96.5t-84.5 -231.5q0 -102 51 -151.5t138 -49.5z" />
    <glyph glyph-name="yen" unicode="&#xa5;" horiz-adv-x="1191" 
d="M1022 385l-25 -123h-358l-51 -262h-185l52 262h-359l25 123h356l23 117h-357l23 123h334l-287 780h195l223 -676h4l485 676h203l-590 -780h334l-23 -123h-360l-22 -117h360z" />
    <glyph glyph-name="brokenbar" unicode="&#xa6;" horiz-adv-x="499" 
d="M371 1524h143l-141 -738h-144zM174 502h143l-149 -764h-143z" />
    <glyph glyph-name="section" unicode="&#xa7;" horiz-adv-x="1224" 
d="M487 -387q-75 0 -136.5 14.5t-103.5 40.5t-74 61t-46 75t-19.5 84t3.5 87h163q-9 -100 45.5 -159.5t172.5 -59.5q112 0 175.5 53t63.5 138q0 42 -15.5 78.5t-46.5 67.5t-60 52.5t-72 47.5l-88 55q-45 28 -63.5 40t-54.5 35.5t-50.5 34.5t-41 31.5t-37 32.5t-28 31.5
t-23.5 35t-14.5 35.5t-11 40.5t-2.5 43.5q0 112 72 199t194 121q-57 77 -57 184q0 159 113.5 262t299.5 103q110 0 191.5 -32t123.5 -85t57.5 -115.5t4.5 -130.5h-164q9 100 -45 159.5t-172 59.5q-112 0 -175.5 -52.5t-63.5 -137.5q0 -43 10.5 -75t38 -61.5t57.5 -51
t88 -58.5l88 -55q61 -38 89 -56t71.5 -48t62 -48t43.5 -44.5t35 -49.5t17.5 -52.5t7.5 -62.5q0 -112 -72 -198.5t-194 -120.5q57 -77 57 -185q0 -159 -114 -261.5t-300 -102.5zM674 307q11 -7 69 -47q91 9 143 59.5t52 126.5q0 25 -5 45t-21.5 42t-32 37.5t-53.5 42
t-67 45.5t-91 57l-109 67q-20 12 -70 47q-91 -9 -142.5 -59.5t-51.5 -126.5q0 -70 51 -117t219 -151z" />
    <glyph glyph-name="dieresis" unicode="&#xa8;" horiz-adv-x="700" 
d="M264 1444h197l-39 -197h-197zM584 1444h196l-39 -197h-196z" />
    <glyph glyph-name="copyright" unicode="&#xa9;" horiz-adv-x="1714" 
d="M786 -29q-304 0 -485.5 168t-181.5 471q0 144 43 278t124 243t190.5 190.5t250 126.5t295.5 45q304 0 486 -168t182 -471q0 -180 -68 -342.5t-186 -281.5t-287.5 -189t-362.5 -70zM799 98q166 0 306.5 60.5t235.5 164t148 241.5t53 292q0 248 -138.5 379t-393.5 131
q-165 0 -306 -60.5t-236 -164t-148.5 -241.5t-53.5 -292q0 -247 139.5 -378.5t393.5 -131.5zM819 272q-166 0 -255 95.5t-89 265.5q0 151 67 279t185 204t260 76q163 0 251 -95t77 -235h-144q1 19 -2.5 40t-16 49t-33.5 49.5t-60.5 37t-91.5 15.5q-153 0 -248.5 -117.5
t-95.5 -290.5q0 -111 49.5 -172t167.5 -61q68 0 121.5 21t85 54t48.5 61t25 56h144q-39 -145 -157 -238.5t-288 -93.5z" />
    <glyph glyph-name="ordfeminine" unicode="&#xaa;" horiz-adv-x="872" 
d="M340 625q-106 0 -164.5 56t-58.5 157q0 120 87 182t259 96q48 9 73.5 14.5t61.5 15t55 19.5t38.5 24t27.5 33t8 42q0 90 -139 90q-89 0 -136.5 -38t-66.5 -118h-158q29 131 125.5 206t255.5 75q152 0 219.5 -72t38.5 -217l-69 -356q-8 -45 2 -64.5t45 -19.5h18l-18 -97
q-58 -14 -96 -14q-120 0 -115 123h-2q-114 -137 -291 -137zM403 756q103 0 177 59.5t94 157.5l20 98q-30 -21 -54.5 -29t-131.5 -32q-45 -10 -70 -16t-56 -16t-47 -20t-31.5 -24.5t-21.5 -33.5t-6 -44q0 -100 127 -100z" />
    <glyph glyph-name="guillemotleft" unicode="&#xab;" horiz-adv-x="942" 
d="M61 424l37 194l473 330l-36 -198l-357 -242v-4l262 -240l-34 -172zM412 424l37 194l473 330l-37 -198l-357 -242v-4l263 -240l-35 -172z" />
    <glyph glyph-name="logicalnot" unicode="&#xac;" horiz-adv-x="1187" 
d="M838 651h-664l33 164h848l-103 -520h-184z" />
    <glyph glyph-name="uni00AD" unicode="&#xad;" horiz-adv-x="712" 
d="M98 604h549l-33 -164h-548z" />
    <glyph glyph-name="registered" unicode="&#xae;" horiz-adv-x="1122" 
d="M582 506q-185 0 -305.5 110.5t-120.5 292.5q0 159 71.5 293t203 214.5t294.5 80.5q185 0 305.5 -110.5t120.5 -292.5q0 -159 -71.5 -293t-203 -214.5t-294.5 -80.5zM582 586q211 0 344 143t133 361q0 148 -90 237.5t-244 89.5q-211 0 -344 -143t-133 -361
q0 -148 90 -237.5t244 -89.5zM397 729l107 547h196q191 0 191 -146q0 -57 -40 -98t-108 -55l-2 -4q38 -6 58 -32.5t21 -58.5t0.5 -65.5t-3.5 -55t8 -26.5l-2 -6h-129q-8 9 -4 30t5 49.5t-0.5 54t-20.5 43.5t-56 18h-53l-39 -195h-129zM586 1028h57q58 0 91.5 22.5t33.5 63.5
q0 36 -25 48t-73 12h-58z" />
    <glyph glyph-name="macron" unicode="&#xaf;" horiz-adv-x="692" 
d="M250 1391h528l-28 -144h-529z" />
    <glyph glyph-name="degree" unicode="&#xb0;" horiz-adv-x="794" 
d="M467 879q-130 0 -196 75t-66 181q0 146 114.5 252t266.5 106q130 0 196 -75t66 -181q0 -146 -114.5 -252t-266.5 -106zM489 1001q93 0 159.5 66.5t66.5 159.5q0 65 -40 104t-112 39q-93 0 -159 -66t-66 -159q0 -65 39.5 -104.5t111.5 -39.5z" />
    <glyph glyph-name="plusminus" unicode="&#xb1;" horiz-adv-x="1187" 
d="M537 643h-383l30 162h383l78 395h164l-78 -395h383l-31 -162h-383l-77 -395h-164zM57 145h930l-31 -161h-929z" />
    <glyph glyph-name="twosuperior" unicode="&#xb2;" horiz-adv-x="768" 
d="M387 1278h-158q27 143 123.5 230t245.5 87q115 0 181.5 -52.5t66.5 -153.5q0 -50 -19 -97.5t-44.5 -81t-66.5 -67.5t-69 -52.5t-67 -41.5q-106 -63 -154.5 -98t-75.5 -72v-2h395l-26 -134h-613q7 36 18 67.5t28.5 59.5t33 50t42 45t43.5 37.5t49 35t48 30.5t52 30t49 28
q107 63 158 116t51 122q0 98 -105 98q-154 0 -186 -184z" />
    <glyph glyph-name="threesuperior" unicode="&#xb3;" horiz-adv-x="839" 
d="M492 739q-164 0 -242.5 83.5t-50.5 224.5h159q-16 -86 15 -130.5t121 -44.5t139 41.5t49 110.5q0 57 -34.5 80.5t-102.5 23.5h-64l23 121h59q76 0 119 36t43 93q0 99 -113 99q-75 0 -119 -38t-55 -102h-157q21 117 119 195t241 78q118 0 184 -54.5t66 -148.5
q0 -151 -162 -209v-2q119 -41 119 -168q0 -126 -99 -207.5t-257 -81.5z" />
    <glyph glyph-name="acute" unicode="&#xb4;" horiz-adv-x="446" 
d="M395 1485h195l-197 -275h-133z" />
    <glyph glyph-name="mu" unicode="&#xb5;" horiz-adv-x="1089" 
d="M-59 -362l274 1406h164l-131 -677q-48 -252 178 -252q135 0 237.5 85t127.5 212l122 632h164l-203 -1044h-163l24 125h-4q-56 -63 -146 -108.5t-192 -45.5q-141 0 -209 82l-80 -415h-163z" />
    <glyph glyph-name="paragraph" unicode="&#xb6;" horiz-adv-x="1140" 
d="M596 686h-94q-163 0 -245.5 71t-82.5 206q0 222 133 361.5t346 139.5h537l-285 -1464h-143l252 1300h-156l-252 -1300h-143z" />
    <glyph glyph-name="periodcentered" unicode="&#xb7;" horiz-adv-x="401" 
d="M121 610h196l-38 -196h-197z" />
    <glyph glyph-name="cedilla" unicode="&#xb8;" horiz-adv-x="595" 
d="M311 0l-116 -113l-2 -4q71 10 122.5 -16t51.5 -86q0 -82 -69 -134.5t-177 -52.5q-117 0 -207 64l53 51q78 -31 137 -31q54 0 86.5 26t32.5 67q0 47 -69 47q-48 0 -86 -15l-19 39l160 158h102z" />
    <glyph glyph-name="onesuperior" unicode="&#xb9;" horiz-adv-x="544" 
d="M479 1577h131l-161 -832h-160l114 590q-47 -32 -182 -32l25 129q200 3 233 145z" />
    <glyph glyph-name="ordmasculine" unicode="&#xba;" horiz-adv-x="899" 
d="M463 625q-151 0 -233.5 87t-82.5 242q0 102 37 197.5t101 168t157.5 116t198.5 43.5q151 0 233 -87.5t82 -242.5q0 -137 -62 -256.5t-176.5 -193.5t-254.5 -74zM487 758q91 0 164.5 55.5t111.5 141t38 178.5q0 99 -46.5 156t-138.5 57q-91 0 -164.5 -56t-111 -141
t-37.5 -178q0 -99 46 -156t138 -57z" />
    <glyph glyph-name="guillemotright" unicode="&#xbb;" horiz-adv-x="942" 
d="M881 616l-37 -194l-473 -330l37 199l356 241v5l-262 239l35 172zM530 616l-36 -194l-474 -330l37 199l357 241v5l-262 239l34 172z" />
    <glyph glyph-name="onequarter" unicode="&#xbc;" horiz-adv-x="1656" 
d="M457 1464h131l-162 -831h-160l115 590q-49 -33 -182 -33l24 129q201 3 234 145zM1270 1464h188l-1212 -1464h-189zM1374 0h-162l35 184h-387l31 154l481 493h162l-98 -514h118l-26 -133h-119zM1337 643l-317 -326h254z" />
    <glyph glyph-name="onehalf" unicode="&#xbd;" horiz-adv-x="1658" 
d="M457 1464h131l-162 -831h-160l115 590q-49 -33 -182 -33l24 129q201 3 234 145zM1270 1464h188l-1212 -1464h-189zM1133 535h-158q27 143 123 230t245 87q115 0 181.5 -53t66.5 -154q0 -50 -19 -97.5t-44.5 -81t-66.5 -67.5t-69 -52.5t-67 -41.5q-104 -62 -153 -97.5
t-76 -72.5v-2h395l-27 -133h-612q7 36 18 67.5t28.5 59.5t33 50t41.5 45t43 37.5t49.5 35t48 30t51.5 30.5t49 28q107 63 158 116t51 122q0 98 -104 98q-154 0 -186 -184z" />
    <glyph glyph-name="threequarters" unicode="&#xbe;" horiz-adv-x="1951" 
d="M467 616q-164 0 -242.5 83.5t-50.5 224.5h160q-16 -86 14.5 -130t120.5 -44t139 41t49 110q0 57 -34.5 81t-102.5 24h-63l22 120h60q76 0 118.5 36t42.5 93q0 99 -112 99q-75 0 -119 -38t-55 -102h-158q21 117 119 195t241 78q118 0 184 -54.5t66 -148.5
q0 -152 -161 -209v-2q118 -41 118 -168q0 -126 -99 -207.5t-257 -81.5zM1606 1464h188l-1212 -1464h-189zM1669 0h-162l35 184h-387l31 154l481 493h162l-98 -514h118l-26 -133h-119zM1632 643l-317 -326h254z" />
    <glyph glyph-name="questiondown" unicode="&#xbf;" horiz-adv-x="1079" 
d="M782 999h-196l39 197h196zM743 821q-15 -79 -42.5 -146t-55 -110.5t-73.5 -88t-76 -67.5t-84 -61q-10 -7 -49.5 -34t-57 -40.5t-49.5 -43.5t-47 -55t-28 -62.5t-13 -77.5q0 -79 57 -123.5t162 -44.5q66 0 123.5 17.5t110 55.5t89.5 106.5t52 160.5h184
q-36 -223 -190 -363.5t-381 -140.5q-186 0 -289.5 87.5t-103.5 236.5q0 40 9 78t21 67t34 59t39.5 49.5t47 43.5t45.5 36t46.5 32.5t39.5 27.5q108 75 137 100q103 90 142 230q9 33 16 71h184z" />
    <glyph glyph-name="Agrave" unicode="&#xc0;" horiz-adv-x="1349" 
d="M870 1905l66 -275h-133l-127 275h194zM967 367h-645l-201 -367h-195l826 1464h206l261 -1464h-195zM414 530h524l-111 764h-4z" />
    <glyph glyph-name="Aacute" unicode="&#xc1;" horiz-adv-x="1349" 
d="M956 1905h195l-197 -275h-133zM967 367h-645l-201 -367h-195l826 1464h206l261 -1464h-195zM414 530h524l-111 764h-4z" />
    <glyph glyph-name="Acircumflex" unicode="&#xc2;" horiz-adv-x="1349" 
d="M606 1630l242 275h184l135 -275h-163l-72 187h-4l-152 -187h-170zM967 367h-645l-201 -367h-195l826 1464h206l261 -1464h-195zM414 530h524l-111 764h-4z" />
    <glyph glyph-name="Atilde" unicode="&#xc3;" horiz-adv-x="1349" 
d="M604 1655q19 96 73 144t116 48q56 0 134.5 -36.5t100.5 -36.5q49 0 62 69h122q-19 -96 -71.5 -144t-116.5 -48q-56 0 -135 36.5t-101 36.5q-50 0 -61 -69h-123zM967 367h-645l-201 -367h-195l826 1464h206l261 -1464h-195zM414 530h524l-111 764h-4z" />
    <glyph glyph-name="Adieresis" unicode="&#xc4;" horiz-adv-x="1349" 
d="M668 1864h196l-39 -197h-196zM987 1864h197l-39 -197h-197zM967 367h-645l-201 -367h-195l826 1464h206l261 -1464h-195zM414 530h524l-111 764h-4z" />
    <glyph glyph-name="Aring" unicode="&#xc5;" horiz-adv-x="1349" 
d="M868 1567q-67 0 -107 40.5t-40 104.5q0 89 63.5 151t153.5 62q68 0 108.5 -40.5t40.5 -104.5q0 -90 -64 -151.5t-155 -61.5zM885 1647q47 0 81.5 35.5t34.5 82.5q0 37 -21 58.5t-56 21.5q-49 0 -83 -33t-34 -86q0 -35 20 -57t58 -22zM967 367h-645l-201 -367h-195
l826 1464h206l261 -1464h-195zM414 530h524l-111 764h-4z" />
    <glyph glyph-name="AE" unicode="&#xc6;" horiz-adv-x="1988" 
d="M1139 840h731l-33 -164h-731l-98 -512h854l-33 -164h-1038l71 367h-530l-213 -367h-201l889 1464h1282l-33 -164h-829zM864 1294l-440 -764h469l149 764h-178z" />
    <glyph glyph-name="Ccedilla" unicode="&#xc7;" horiz-adv-x="1484" 
d="M1305 981q0 71 -20.5 132t-63 110.5t-114 77.5t-165.5 28q-182 0 -328.5 -99t-227.5 -270.5t-81 -381.5q0 -443 400 -443q89 0 166.5 23.5t133 61.5t99 90.5t70.5 106t43 111.5h188q-70 -243 -257.5 -396.5t-440.5 -160.5l-89 -84l-2 -4q71 10 123 -16t52 -86
q0 -82 -69 -134.5t-177 -52.5q-117 0 -207 64l53 51q77 -31 137 -31q54 0 86.5 26t32.5 67q0 47 -69 47q-48 0 -86 -15l-19 39l135 133q-230 23 -358.5 179.5t-128.5 416.5q0 148 41.5 287.5t119 253.5t180.5 200t233 133.5t270 47.5q106 0 196 -28t152.5 -77t104.5 -114
t59.5 -139.5t11.5 -153.5h-184z" />
    <glyph glyph-name="Egrave" unicode="&#xc8;" horiz-adv-x="1228" 
d="M831 1905l66 -275h-133l-127 275h194zM379 840h731l-33 -164h-731l-98 -512h854l-33 -164h-1038l284 1464h1014l-33 -164h-829z" />
    <glyph glyph-name="Eacute" unicode="&#xc9;" horiz-adv-x="1228" 
d="M918 1905h194l-197 -275h-133zM379 840h731l-33 -164h-731l-98 -512h854l-33 -164h-1038l284 1464h1014l-33 -164h-829z" />
    <glyph glyph-name="Ecircumflex" unicode="&#xca;" horiz-adv-x="1228" 
d="M567 1630l242 275h184l135 -275h-163l-72 187h-4l-152 -187h-170zM379 840h731l-33 -164h-731l-98 -512h854l-33 -164h-1038l284 1464h1014l-33 -164h-829z" />
    <glyph glyph-name="Edieresis" unicode="&#xcb;" horiz-adv-x="1228" 
d="M629 1864h196l-39 -197h-196zM948 1864h197l-39 -197h-197zM379 840h731l-33 -164h-731l-98 -512h854l-33 -164h-1038l284 1464h1014l-33 -164h-829z" />
    <glyph glyph-name="Igrave" unicode="&#xcc;" horiz-adv-x="450" 
d="M424 1905l65 -275h-133l-127 275h195zM315 1464h185l-285 -1464h-184z" />
    <glyph glyph-name="Iacute" unicode="&#xcd;" horiz-adv-x="450" 
d="M510 1905h195l-197 -275h-133zM315 1464h185l-285 -1464h-184z" />
    <glyph glyph-name="Icircumflex" unicode="&#xce;" horiz-adv-x="450" 
d="M160 1630l241 275h185l135 -275h-164l-72 187h-4l-151 -187h-170zM315 1464h185l-285 -1464h-184z" />
    <glyph glyph-name="Idieresis" unicode="&#xcf;" horiz-adv-x="450" 
d="M221 1864h197l-39 -197h-197zM541 1864h196l-39 -197h-196zM315 1464h185l-285 -1464h-184z" />
    <glyph glyph-name="Eth" unicode="&#xd0;" horiz-adv-x="1486" 
d="M102 0l134 686h-144l27 143h145l123 635h502q561 0 561 -557q0 -185 -60.5 -351.5t-164.5 -289t-253.5 -194.5t-318.5 -72h-551zM915 829l-28 -143h-467l-101 -522h361q167 0 301.5 100t208.5 268.5t74 370.5q0 95 -18.5 163.5t-63 123.5t-126 82.5t-200.5 27.5h-317
l-90 -471h466z" />
    <glyph glyph-name="Ntilde" unicode="&#xd1;" horiz-adv-x="1411" 
d="M639 1655q19 96 72.5 144t115.5 48q56 0 135 -36.5t101 -36.5q48 0 61 69h123q-19 -96 -71.5 -144t-116.5 -48q-56 0 -135 36.5t-101 36.5q-50 0 -61 -69h-123zM31 0l284 1464h222l497 -1202h8l234 1202h184l-284 -1464h-222l-497 1202h-8l-234 -1202h-184z" />
    <glyph glyph-name="Ograve" unicode="&#xd2;" horiz-adv-x="1619" 
d="M1010 1905l65 -275h-133l-127 275h195zM713 -29q-276 0 -435 163t-159 431q0 184 67 354.5t182 296.5t277.5 201.5t343.5 75.5q276 0 435 -163t159 -431q0 -184 -67 -354.5t-182 -296.5t-277.5 -201.5t-343.5 -75.5zM727 135q146 0 272.5 63t213 168t135.5 244t49 289
q0 93 -24 169.5t-73.5 136t-132 92t-192.5 32.5q-146 0 -272.5 -63t-213 -168t-135.5 -244t-49 -289q0 -93 24 -169.5t73.5 -136t132 -92t192.5 -32.5z" />
    <glyph glyph-name="Oacute" unicode="&#xd3;" horiz-adv-x="1619" 
d="M1096 1905h194l-196 -275h-133zM713 -29q-276 0 -435 163t-159 431q0 184 67 354.5t182 296.5t277.5 201.5t343.5 75.5q276 0 435 -163t159 -431q0 -184 -67 -354.5t-182 -296.5t-277.5 -201.5t-343.5 -75.5zM727 135q146 0 272.5 63t213 168t135.5 244t49 289
q0 93 -24 169.5t-73.5 136t-132 92t-192.5 32.5q-146 0 -272.5 -63t-213 -168t-135.5 -244t-49 -289q0 -93 24 -169.5t73.5 -136t132 -92t192.5 -32.5z" />
    <glyph glyph-name="Ocircumflex" unicode="&#xd4;" horiz-adv-x="1619" 
d="M745 1630l242 275h184l136 -275h-164l-72 187h-4l-152 -187h-170zM713 -29q-276 0 -435 163t-159 431q0 184 67 354.5t182 296.5t277.5 201.5t343.5 75.5q276 0 435 -163t159 -431q0 -184 -67 -354.5t-182 -296.5t-277.5 -201.5t-343.5 -75.5zM727 135q146 0 272.5 63
t213 168t135.5 244t49 289q0 93 -24 169.5t-73.5 136t-132 92t-192.5 32.5q-146 0 -272.5 -63t-213 -168t-135.5 -244t-49 -289q0 -93 24 -169.5t73.5 -136t132 -92t192.5 -32.5z" />
    <glyph glyph-name="Otilde" unicode="&#xd5;" horiz-adv-x="1619" 
d="M743 1655q19 96 73 144t116 48q56 0 134.5 -36.5t100.5 -36.5q49 0 62 69h123q-19 -96 -72 -144t-117 -48q-56 0 -134.5 36.5t-100.5 36.5q-29 0 -43.5 -21.5t-18.5 -47.5h-123zM713 -29q-276 0 -435 163t-159 431q0 184 67 354.5t182 296.5t277.5 201.5t343.5 75.5
q276 0 435 -163t159 -431q0 -184 -67 -354.5t-182 -296.5t-277.5 -201.5t-343.5 -75.5zM727 135q146 0 272.5 63t213 168t135.5 244t49 289q0 93 -24 169.5t-73.5 136t-132 92t-192.5 32.5q-146 0 -272.5 -63t-213 -168t-135.5 -244t-49 -289q0 -93 24 -169.5t73.5 -136
t132 -92t192.5 -32.5z" />
    <glyph glyph-name="Odieresis" unicode="&#xd6;" horiz-adv-x="1619" 
d="M807 1864h197l-39 -197h-197zM1126 1864h197l-39 -197h-197zM713 -29q-276 0 -435 163t-159 431q0 184 67 354.5t182 296.5t277.5 201.5t343.5 75.5q276 0 435 -163t159 -431q0 -184 -67 -354.5t-182 -296.5t-277.5 -201.5t-343.5 -75.5zM727 135q146 0 272.5 63t213 168
t135.5 244t49 289q0 93 -24 169.5t-73.5 136t-132 92t-192.5 32.5q-146 0 -272.5 -63t-213 -168t-135.5 -244t-49 -289q0 -93 24 -169.5t73.5 -136t132 -92t192.5 -32.5z" />
    <glyph glyph-name="multiply" unicode="&#xd7;" horiz-adv-x="1187" 
d="M135 356l369 310l-248 309l139 117l248 -310l371 310l94 -117l-371 -309l250 -310l-139 -116l-250 309l-369 -309z" />
    <glyph glyph-name="Oslash" unicode="&#xd8;" horiz-adv-x="1617" 
d="M2 82l193 162q-76 140 -76 321q0 184 67 354.5t182 296.5t277.5 201.5t343.5 75.5q301 0 463 -195l186 158l62 -70l-195 -163q78 -138 78 -324q0 -184 -67 -354.5t-182 -296.5t-277.5 -201.5t-343.5 -75.5q-151 0 -270 51.5t-197 145.5l-189 -158zM305 565
q0 -117 35 -200l975 819q-106 145 -340 145q-146 0 -272.5 -63t-213 -168t-135.5 -244t-49 -289zM727 135q146 0 272.5 63t213 168t135.5 244t49 289q0 113 -35 203l-979 -817q111 -150 344 -150z" />
    <glyph glyph-name="Ugrave" unicode="&#xd9;" horiz-adv-x="1327" 
d="M842 1905l65 -275h-133l-127 275h195zM1217 487q-22 -114 -71 -205.5t-127.5 -162.5t-196.5 -109.5t-267 -38.5q-271 0 -389 140t-72 376l191 977h184l-190 -977q-36 -186 37 -269t259 -83q387 0 457 352l191 977h184z" />
    <glyph glyph-name="Uacute" unicode="&#xda;" horiz-adv-x="1327" 
d="M928 1905h194l-196 -275h-133zM1217 487q-22 -114 -71 -205.5t-127.5 -162.5t-196.5 -109.5t-267 -38.5q-271 0 -389 140t-72 376l191 977h184l-190 -977q-36 -186 37 -269t259 -83q387 0 457 352l191 977h184z" />
    <glyph glyph-name="Ucircumflex" unicode="&#xdb;" horiz-adv-x="1327" 
d="M578 1630l241 275h185l135 -275h-164l-72 187h-4l-151 -187h-170zM1217 487q-22 -114 -71 -205.5t-127.5 -162.5t-196.5 -109.5t-267 -38.5q-271 0 -389 140t-72 376l191 977h184l-190 -977q-36 -186 37 -269t259 -83q387 0 457 352l191 977h184z" />
    <glyph glyph-name="Udieresis" unicode="&#xdc;" horiz-adv-x="1327" 
d="M639 1864h197l-39 -197h-197zM958 1864h197l-39 -197h-196zM1217 487q-22 -114 -71 -205.5t-127.5 -162.5t-196.5 -109.5t-267 -38.5q-271 0 -389 140t-72 376l191 977h184l-190 -977q-36 -186 37 -269t259 -83q387 0 457 352l191 977h184z" />
    <glyph glyph-name="Yacute" unicode="&#xdd;" horiz-adv-x="1292" 
d="M911 1905h195l-197 -275h-133zM203 1464h194l283 -723h4l567 723h203l-702 -864l-117 -600h-184l116 600z" />
    <glyph glyph-name="Thorn" unicode="&#xde;" horiz-adv-x="1251" 
d="M31 0l284 1464h185l-47 -245h370q97 0 172 -17t134.5 -55t91.5 -106.5t32 -163.5q0 -219 -155 -364.5t-404 -145.5h-407l-72 -367h-184zM420 1055l-103 -525h418q153 0 242.5 92.5t89.5 237.5q0 105 -56.5 150t-189.5 45h-401z" />
    <glyph glyph-name="germandbls" unicode="&#xdf;" horiz-adv-x="1067" 
d="M377 1032l-201 -1032h-164l203 1044q43 224 170 336.5t322 112.5q164 0 255 -76.5t91 -216.5q0 -147 -96 -249.5t-232 -139.5v-4q131 -42 192.5 -118t61.5 -208q0 -97 -33.5 -188t-94 -163t-156 -115.5t-210.5 -43.5q-82 0 -186 29l29 143q75 -32 153 -32
q149 0 236.5 107t87.5 257q0 65 -18.5 114t-46.5 76.5t-67.5 45t-74.5 23t-74 5.5h-61l29 144h55q144 0 239 83.5t95 209.5q0 174 -203 174q-132 0 -200.5 -77t-100.5 -241z" />
    <glyph glyph-name="agrave" unicode="&#xe0;" horiz-adv-x="1079" 
d="M680 1485l65 -275h-133l-127 275h195zM319 -29q-149 0 -229 71.5t-80 203.5q0 68 23.5 121.5t62 90.5t101 66.5t128 48.5t154.5 37q175 35 222 51q101 35 121 103q5 20 5 43q0 61 -44 93t-154 32q-131 0 -203.5 -51t-101.5 -166h-168q38 170 162 265t325 95
q192 0 280.5 -88.5t55.5 -257.5l-96 -493q-13 -57 -5 -90t48 -33q11 0 35 4l-23 -107q-52 -20 -98 -20q-69 0 -102.5 38t-30.5 124h-7q-143 -181 -381 -181zM367 115q147 0 254.5 80t136.5 223l30 151q-32 -31 -73.5 -44.5t-175.5 -41.5q-68 -15 -110 -25t-88.5 -24.5
t-72 -29.5t-48.5 -35.5t-32.5 -47t-9.5 -59.5q0 -147 189 -147z" />
    <glyph glyph-name="aacute" unicode="&#xe1;" horiz-adv-x="1079" 
d="M766 1485h195l-197 -275h-133zM319 -29q-149 0 -229 71.5t-80 203.5q0 68 23.5 121.5t62 90.5t101 66.5t128 48.5t154.5 37q175 35 222 51q101 35 121 103q5 20 5 43q0 61 -44 93t-154 32q-131 0 -203.5 -51t-101.5 -166h-168q38 170 162 265t325 95q192 0 280.5 -88.5
t55.5 -257.5l-96 -493q-13 -57 -5 -90t48 -33q11 0 35 4l-23 -107q-52 -20 -98 -20q-69 0 -102.5 38t-30.5 124h-7q-143 -181 -381 -181zM367 115q147 0 254.5 80t136.5 223l30 151q-32 -31 -73.5 -44.5t-175.5 -41.5q-68 -15 -110 -25t-88.5 -24.5t-72 -29.5t-48.5 -35.5
t-32.5 -47t-9.5 -59.5q0 -147 189 -147z" />
    <glyph glyph-name="acircumflex" unicode="&#xe2;" horiz-adv-x="1079" 
d="M416 1210l241 275h185l135 -275h-164l-72 187h-4l-151 -187h-170zM319 -29q-149 0 -229 71.5t-80 203.5q0 68 23.5 121.5t62 90.5t101 66.5t128 48.5t154.5 37q175 35 222 51q101 35 121 103q5 20 5 43q0 61 -44 93t-154 32q-131 0 -203.5 -51t-101.5 -166h-168
q38 170 162 265t325 95q192 0 280.5 -88.5t55.5 -257.5l-96 -493q-13 -57 -5 -90t48 -33q11 0 35 4l-23 -107q-52 -20 -98 -20q-69 0 -102.5 38t-30.5 124h-7q-143 -181 -381 -181zM367 115q147 0 254.5 80t136.5 223l30 151q-32 -31 -73.5 -44.5t-175.5 -41.5
q-68 -15 -110 -25t-88.5 -24.5t-72 -29.5t-48.5 -35.5t-32.5 -47t-9.5 -59.5q0 -147 189 -147z" />
    <glyph glyph-name="atilde" unicode="&#xe3;" horiz-adv-x="1079" 
d="M414 1235q19 96 72.5 144t115.5 48q56 0 135 -36.5t101 -36.5q48 0 61 69h123q-19 -96 -71.5 -144t-116.5 -48q-56 0 -135 37t-101 37q-50 0 -61 -70h-123zM319 -29q-149 0 -229 71.5t-80 203.5q0 68 23.5 121.5t62 90.5t101 66.5t128 48.5t154.5 37q175 35 222 51
q101 35 121 103q5 20 5 43q0 61 -44 93t-154 32q-131 0 -203.5 -51t-101.5 -166h-168q38 170 162 265t325 95q192 0 280.5 -88.5t55.5 -257.5l-96 -493q-13 -57 -5 -90t48 -33q11 0 35 4l-23 -107q-52 -20 -98 -20q-69 0 -102.5 38t-30.5 124h-7q-143 -181 -381 -181z
M367 115q147 0 254.5 80t136.5 223l30 151q-32 -31 -73.5 -44.5t-175.5 -41.5q-68 -15 -110 -25t-88.5 -24.5t-72 -29.5t-48.5 -35.5t-32.5 -47t-9.5 -59.5q0 -147 189 -147z" />
    <glyph glyph-name="adieresis" unicode="&#xe4;" horiz-adv-x="1079" 
d="M477 1444h197l-39 -197h-197zM797 1444h196l-39 -197h-196zM319 -29q-149 0 -229 71.5t-80 203.5q0 68 23.5 121.5t62 90.5t101 66.5t128 48.5t154.5 37q175 35 222 51q101 35 121 103q5 20 5 43q0 61 -44 93t-154 32q-131 0 -203.5 -51t-101.5 -166h-168q38 170 162 265
t325 95q192 0 280.5 -88.5t55.5 -257.5l-96 -493q-13 -57 -5 -90t48 -33q11 0 35 4l-23 -107q-52 -20 -98 -20q-69 0 -102.5 38t-30.5 124h-7q-143 -181 -381 -181zM367 115q147 0 254.5 80t136.5 223l30 151q-32 -31 -73.5 -44.5t-175.5 -41.5q-68 -15 -110 -25
t-88.5 -24.5t-72 -29.5t-48.5 -35.5t-32.5 -47t-9.5 -59.5q0 -147 189 -147z" />
    <glyph glyph-name="aring" unicode="&#xe5;" horiz-adv-x="1079" 
d="M678 1147q-67 0 -107.5 40.5t-40.5 104.5q0 89 64 151t154 62q68 0 108.5 -40.5t40.5 -104.5q0 -90 -64 -151.5t-155 -61.5zM694 1227q47 0 82 36t35 83q0 36 -21.5 57.5t-56.5 21.5q-49 0 -83 -32.5t-34 -85.5q0 -36 20 -58t58 -22zM319 -29q-149 0 -229 71.5t-80 203.5
q0 68 23.5 121.5t62 90.5t101 66.5t128 48.5t154.5 37q175 35 222 51q101 35 121 103q5 20 5 43q0 61 -44 93t-154 32q-131 0 -203.5 -51t-101.5 -166h-168q38 170 162 265t325 95q192 0 280.5 -88.5t55.5 -257.5l-96 -493q-13 -57 -5 -90t48 -33q11 0 35 4l-23 -107
q-52 -20 -98 -20q-69 0 -102.5 38t-30.5 124h-7q-143 -181 -381 -181zM367 115q147 0 254.5 80t136.5 223l30 151q-32 -31 -73.5 -44.5t-175.5 -41.5q-68 -15 -110 -25t-88.5 -24.5t-72 -29.5t-48.5 -35.5t-32.5 -47t-9.5 -59.5q0 -147 189 -147z" />
    <glyph glyph-name="ae" unicode="&#xe6;" horiz-adv-x="1847" 
d="M354 -29q-170 0 -257 70t-87 205q0 68 23.5 121.5t62 90.5t101 66.5t128 48.5t154.5 37q175 35 222 51q101 35 121 103q5 20 5 43q0 61 -43 93t-153 32q-132 0 -204 -51t-101 -166h-168q35 162 156.5 261t330.5 99q274 0 326 -168q81 80 188.5 124t229.5 44
q205 0 306 -104.5t101 -284.5q0 -80 -24 -207h-828q-2 -23 -2 -69q0 -146 63.5 -221.5t206.5 -75.5q74 0 138 21.5t106 56t68.5 67t40.5 64.5h170q-76 -162 -211.5 -257.5t-323.5 -95.5q-147 0 -246.5 60t-144.5 172q-152 -230 -455 -230zM1374 934q-153 0 -256 -83
t-147 -228h651q16 88 -3.5 157t-82 111.5t-162.5 42.5zM367 115q93 0 173 32t140 102t80 169l20 104q1 13 11 51q-33 -31 -78.5 -47t-173.5 -43q-81 -17 -129.5 -30t-98 -31.5t-74.5 -40t-41 -52t-16 -71.5q0 -143 187 -143z" />
    <glyph glyph-name="ccedilla" unicode="&#xe7;" horiz-adv-x="1089" 
d="M895 662q12 130 -49 199t-189 69t-230 -75t-156 -193.5t-54 -253.5q0 -60 14.5 -111t44 -93t82 -65.5t123.5 -23.5q77 0 141.5 25t107 65.5t69 84t39.5 89.5h163q-43 -168 -177 -280.5t-310 -125.5l-88 -86l-2 -4q71 10 122.5 -16t51.5 -86q0 -82 -69 -134.5t-177 -52.5
q-117 0 -207 64l54 51q78 -31 137 -31q54 0 86.5 26t32.5 67q0 47 -70 47q-48 0 -86 -15l-18 39l133 131q-171 17 -267 129t-96 291q0 180 78 335.5t221 250t318 94.5q193 0 297.5 -116t89.5 -295h-160z" />
    <glyph glyph-name="egrave" unicode="&#xe8;" horiz-adv-x="1128" 
d="M707 1489l65 -275h-133l-127 275h195zM481 -31q-208 0 -318 116t-110 323q0 186 79.5 338.5t221 240.5t316.5 88q205 0 306 -104.5t101 -284.5q0 -80 -24 -207h-828q-2 -23 -2 -69q0 -145 64 -221t207 -76q74 0 138 21.5t106 56t68 67t40 64.5h170
q-76 -162 -211.5 -257.5t-323.5 -95.5zM655 934q-153 0 -256 -83t-147 -228h651q16 88 -3.5 157t-82 111.5t-162.5 42.5z" />
    <glyph glyph-name="eacute" unicode="&#xe9;" horiz-adv-x="1128" 
d="M793 1489h194l-196 -275h-134zM481 -31q-208 0 -318 116t-110 323q0 186 79.5 338.5t221 240.5t316.5 88q205 0 306 -104.5t101 -284.5q0 -80 -24 -207h-828q-2 -23 -2 -69q0 -145 64 -221t207 -76q74 0 138 21.5t106 56t68 67t40 64.5h170q-76 -162 -211.5 -257.5
t-323.5 -95.5zM655 934q-153 0 -256 -83t-147 -228h651q16 88 -3.5 157t-82 111.5t-162.5 42.5z" />
    <glyph glyph-name="ecircumflex" unicode="&#xea;" horiz-adv-x="1128" 
d="M442 1214l242 275h184l136 -275h-164l-72 187h-4l-152 -187h-170zM481 -31q-208 0 -318 116t-110 323q0 186 79.5 338.5t221 240.5t316.5 88q205 0 306 -104.5t101 -284.5q0 -80 -24 -207h-828q-2 -23 -2 -69q0 -145 64 -221t207 -76q74 0 138 21.5t106 56t68 67t40 64.5
h170q-76 -162 -211.5 -257.5t-323.5 -95.5zM655 934q-153 0 -256 -83t-147 -228h651q16 88 -3.5 157t-82 111.5t-162.5 42.5z" />
    <glyph glyph-name="edieresis" unicode="&#xeb;" horiz-adv-x="1128" 
d="M504 1448h196l-38 -197h-197zM823 1448h197l-39 -197h-197zM481 -31q-208 0 -318 116t-110 323q0 186 79.5 338.5t221 240.5t316.5 88q205 0 306 -104.5t101 -284.5q0 -80 -24 -207h-828q-2 -23 -2 -69q0 -145 64 -221t207 -76q74 0 138 21.5t106 56t68 67t40 64.5h170
q-76 -162 -211.5 -257.5t-323.5 -95.5zM655 934q-153 0 -256 -83t-147 -228h651q16 88 -3.5 157t-82 111.5t-162.5 42.5z" />
    <glyph glyph-name="igrave" unicode="&#xec;" horiz-adv-x="391" 
d="M313 1485l66 -275h-133l-127 275h194zM215 1044h164l-203 -1044h-164z" />
    <glyph glyph-name="iacute" unicode="&#xed;" horiz-adv-x="391" 
d="M399 1485h195l-197 -275h-133zM215 1044h164l-203 -1044h-164z" />
    <glyph glyph-name="icircumflex" unicode="&#xee;" horiz-adv-x="391" 
d="M49 1210l242 275h184l135 -275h-164l-71 187h-4l-152 -187h-170zM215 1044h164l-203 -1044h-164z" />
    <glyph glyph-name="idieresis" unicode="&#xef;" horiz-adv-x="391" 
d="M111 1444h196l-39 -197h-196zM430 1444h197l-39 -197h-197zM215 1044h164l-203 -1044h-164z" />
    <glyph glyph-name="eth" unicode="&#xf0;" horiz-adv-x="1165" 
d="M967 891q-21 165 -150 328l-352 -91l-4 123l264 68q-63 63 -178 145h209q70 -45 129 -104l301 76l6 -123l-219 -56q149 -213 149 -497q0 -127 -29 -246t-85 -217.5t-132.5 -172.5t-177.5 -115.5t-215 -41.5q-202 0 -316 117.5t-114 323.5q0 174 78.5 327t217 245.5
t302.5 92.5q232 0 316 -182zM489 111q124 0 228 71t162.5 187.5t58.5 248.5q0 148 -75 234t-214 86q-185 0 -306.5 -146.5t-121.5 -361.5q0 -150 67 -234.5t201 -84.5z" />
    <glyph glyph-name="ntilde" unicode="&#xf1;" horiz-adv-x="1077" 
d="M395 1235q19 96 73 144t116 48q56 0 134.5 -36.5t100.5 -36.5q49 0 62 69h123q-19 -96 -72 -144t-117 -48q-56 0 -134.5 37t-100.5 37q-28 0 -43 -22t-19 -48h-123zM10 0l203 1044h164l-27 -133h2q62 74 159 119t216 45q157 0 236 -101.5t43 -285.5l-134 -688h-163
l133 688q22 111 -20 177.5t-163 66.5q-128 0 -229 -81t-129 -200l-127 -651h-164z" />
    <glyph glyph-name="ograve" unicode="&#xf2;" horiz-adv-x="1136" 
d="M692 1485l66 -275h-133l-127 275h194zM453 -29q-192 0 -298 112t-106 300q0 186 80 343.5t226.5 252t328.5 94.5q192 0 297.5 -111.5t105.5 -299.5q0 -139 -47 -265.5t-129.5 -220.5t-201.5 -149.5t-256 -55.5zM475 115q130 0 234 76.5t158.5 197t54.5 256.5
q0 129 -65.5 207t-194.5 78q-130 0 -234 -77t-158.5 -197.5t-54.5 -256.5q0 -129 65.5 -206.5t194.5 -77.5z" />
    <glyph glyph-name="oacute" unicode="&#xf3;" horiz-adv-x="1136" 
d="M778 1485h195l-197 -275h-133zM453 -29q-192 0 -298 112t-106 300q0 186 80 343.5t226.5 252t328.5 94.5q192 0 297.5 -111.5t105.5 -299.5q0 -139 -47 -265.5t-129.5 -220.5t-201.5 -149.5t-256 -55.5zM475 115q130 0 234 76.5t158.5 197t54.5 256.5q0 129 -65.5 207
t-194.5 78q-130 0 -234 -77t-158.5 -197.5t-54.5 -256.5q0 -129 65.5 -206.5t194.5 -77.5z" />
    <glyph glyph-name="ocircumflex" unicode="&#xf4;" horiz-adv-x="1136" 
d="M428 1210l242 275h184l135 -275h-164l-71 187h-4l-152 -187h-170zM453 -29q-192 0 -298 112t-106 300q0 186 80 343.5t226.5 252t328.5 94.5q192 0 297.5 -111.5t105.5 -299.5q0 -139 -47 -265.5t-129.5 -220.5t-201.5 -149.5t-256 -55.5zM475 115q130 0 234 76.5
t158.5 197t54.5 256.5q0 129 -65.5 207t-194.5 78q-130 0 -234 -77t-158.5 -197.5t-54.5 -256.5q0 -129 65.5 -206.5t194.5 -77.5z" />
    <glyph glyph-name="otilde" unicode="&#xf5;" horiz-adv-x="1136" 
d="M426 1235q19 96 72.5 144t115.5 48q56 0 135 -36.5t101 -36.5q48 0 61 69h123q-19 -96 -71.5 -144t-116.5 -48q-56 0 -135 37t-101 37q-50 0 -61 -70h-123zM453 -29q-192 0 -298 112t-106 300q0 186 80 343.5t226.5 252t328.5 94.5q192 0 297.5 -111.5t105.5 -299.5
q0 -139 -47 -265.5t-129.5 -220.5t-201.5 -149.5t-256 -55.5zM475 115q130 0 234 76.5t158.5 197t54.5 256.5q0 129 -65.5 207t-194.5 78q-130 0 -234 -77t-158.5 -197.5t-54.5 -256.5q0 -129 65.5 -206.5t194.5 -77.5z" />
    <glyph glyph-name="odieresis" unicode="&#xf6;" horiz-adv-x="1136" 
d="M489 1444h197l-39 -197h-196zM809 1444h197l-39 -197h-197zM453 -29q-192 0 -298 112t-106 300q0 186 80 343.5t226.5 252t328.5 94.5q192 0 297.5 -111.5t105.5 -299.5q0 -139 -47 -265.5t-129.5 -220.5t-201.5 -149.5t-256 -55.5zM475 115q130 0 234 76.5t158.5 197
t54.5 256.5q0 129 -65.5 207t-194.5 78q-130 0 -234 -77t-158.5 -197.5t-54.5 -256.5q0 -129 65.5 -206.5t194.5 -77.5z" />
    <glyph glyph-name="divide" unicode="&#xf7;" horiz-adv-x="1187" 
d="M610 1108h197l-39 -197h-197zM172 750h930l-31 -162h-930zM477 426h197l-39 -197h-197z" />
    <glyph glyph-name="oslash" unicode="&#xf8;" horiz-adv-x="1202" 
d="M25 -20l-56 71l154 129q-41 87 -41 203q0 186 80 343.5t226.5 252t328.5 94.5q206 0 313 -129l146 121l57 -72l-154 -129q41 -87 41 -202q0 -186 -80 -343.5t-226.5 -252.5t-328.5 -95q-206 0 -315 131zM248 399q0 -55 12 -102l641 539q-65 94 -207 94q-130 0 -234 -77
t-158 -197.5t-54 -256.5zM508 115q130 0 234 76.5t158 197t54 256.5q0 55 -12 105l-643 -539q70 -96 209 -96z" />
    <glyph glyph-name="ugrave" unicode="&#xf9;" horiz-adv-x="1077" 
d="M641 1485l66 -275h-134l-127 275h195zM236 367q-22 -114 18 -183t152 -69q139 0 241.5 81.5t130.5 215.5l123 632h164l-203 -1044h-164l25 125h-4q-61 -65 -156 -109.5t-213 -44.5q-77 0 -135 21.5t-99.5 69t-52 123.5t8.5 186l131 673h164z" />
    <glyph glyph-name="uacute" unicode="&#xfa;" horiz-adv-x="1077" 
d="M727 1485h195l-197 -275h-133zM236 367q-22 -114 18 -183t152 -69q139 0 241.5 81.5t130.5 215.5l123 632h164l-203 -1044h-164l25 125h-4q-61 -65 -156 -109.5t-213 -44.5q-77 0 -135 21.5t-99.5 69t-52 123.5t8.5 186l131 673h164z" />
    <glyph glyph-name="ucircumflex" unicode="&#xfb;" horiz-adv-x="1077" 
d="M377 1210l241 275h185l135 -275h-164l-72 187h-4l-151 -187h-170zM236 367q-22 -114 18 -183t152 -69q139 0 241.5 81.5t130.5 215.5l123 632h164l-203 -1044h-164l25 125h-4q-61 -65 -156 -109.5t-213 -44.5q-77 0 -135 21.5t-99.5 69t-52 123.5t8.5 186l131 673h164z
" />
    <glyph glyph-name="udieresis" unicode="&#xfc;" horiz-adv-x="1077" 
d="M438 1444h197l-39 -197h-197zM758 1444h196l-39 -197h-196zM236 367q-22 -114 18 -183t152 -69q139 0 241.5 81.5t130.5 215.5l123 632h164l-203 -1044h-164l25 125h-4q-61 -65 -156 -109.5t-213 -44.5q-77 0 -135 21.5t-99.5 69t-52 123.5t8.5 186l131 673h164z" />
    <glyph glyph-name="yacute" unicode="&#xfd;" horiz-adv-x="1026" 
d="M709 1485h194l-196 -275h-134zM344 10l-223 1034h180l158 -845h4l471 845h180l-625 -1075q-113 -192 -207.5 -264t-215.5 -72q-39 0 -101 11l27 139q53 -6 74 -6q174 0 278 233z" />
    <glyph glyph-name="thorn" unicode="&#xfe;" horiz-adv-x="1148" 
d="M213 135h-12l-97 -497h-163l354 1826h164l-107 -549h6q147 158 361 158q172 0 274.5 -110t102.5 -314q0 -141 -45.5 -267t-123.5 -216t-187 -142.5t-232 -52.5q-211 0 -295 164zM678 930q-142 0 -251.5 -110t-145.5 -275l-7 -27q-8 -47 -8 -104q0 -143 66 -221t190 -78
q170 0 289 149t119 371q0 295 -252 295z" />
    <glyph glyph-name="ydieresis" unicode="&#xff;" horiz-adv-x="1026" 
d="M420 1444h196l-38 -197h-197zM739 1444h197l-39 -197h-197zM344 10l-223 1034h180l158 -845h4l471 845h180l-625 -1075q-113 -192 -207.5 -264t-215.5 -72q-39 0 -101 11l27 139q53 -6 74 -6q174 0 278 233z" />
    <glyph glyph-name="Amacron" unicode="&#x100;" horiz-adv-x="1349" 
d="M657 1810h529l-29 -143h-528zM967 367h-645l-201 -367h-195l826 1464h206l261 -1464h-195zM414 530h524l-111 764h-4z" />
    <glyph glyph-name="amacron" unicode="&#x101;" horiz-adv-x="1079" 
d="M467 1391h528l-28 -144h-529zM319 -29q-149 0 -229 71.5t-80 203.5q0 68 23.5 121.5t62 90.5t101 66.5t128 48.5t154.5 37q175 35 222 51q101 35 121 103q5 20 5 43q0 61 -44 93t-154 32q-131 0 -203.5 -51t-101.5 -166h-168q38 170 162 265t325 95q192 0 280.5 -88.5
t55.5 -257.5l-96 -493q-13 -57 -5 -90t48 -33q11 0 35 4l-23 -107q-52 -20 -98 -20q-69 0 -102.5 38t-30.5 124h-7q-143 -181 -381 -181zM367 115q147 0 254.5 80t136.5 223l30 151q-32 -31 -73.5 -44.5t-175.5 -41.5q-68 -15 -110 -25t-88.5 -24.5t-72 -29.5t-48.5 -35.5
t-32.5 -47t-9.5 -59.5q0 -147 189 -147z" />
    <glyph glyph-name="Abreve" unicode="&#x102;" horiz-adv-x="1349" 
d="M877 1610q-114 0 -171.5 69t-35.5 205h123q-11 -81 11 -116t87 -35q138 0 176 151h123q-31 -133 -115 -203.5t-198 -70.5zM967 367h-645l-201 -367h-195l826 1464h206l261 -1464h-195zM414 530h524l-111 764h-4z" />
    <glyph glyph-name="abreve" unicode="&#x103;" horiz-adv-x="1079" 
d="M686 1190q-114 0 -171.5 69t-35.5 205h123q-11 -81 11 -116t87 -35q139 0 177 151h122q-31 -133 -115 -203.5t-198 -70.5zM319 -29q-149 0 -229 71.5t-80 203.5q0 68 23.5 121.5t62 90.5t101 66.5t128 48.5t154.5 37q175 35 222 51q101 35 121 103q5 20 5 43q0 61 -44 93
t-154 32q-131 0 -203.5 -51t-101.5 -166h-168q38 170 162 265t325 95q192 0 280.5 -88.5t55.5 -257.5l-96 -493q-13 -57 -5 -90t48 -33q11 0 35 4l-23 -107q-52 -20 -98 -20q-69 0 -102.5 38t-30.5 124h-7q-143 -181 -381 -181zM367 115q147 0 254.5 80t136.5 223l30 151
q-32 -31 -73.5 -44.5t-175.5 -41.5q-68 -15 -110 -25t-88.5 -24.5t-72 -29.5t-48.5 -35.5t-32.5 -47t-9.5 -59.5q0 -147 189 -147z" />
    <glyph glyph-name="Aogonek" unicode="&#x104;" horiz-adv-x="1349" 
d="M967 367h-645l-201 -367h-195l826 1464h206l261 -1464h-19q-172 -118 -172 -188q0 -24 18.5 -38t47.5 -14q50 0 104 21l-24 -123q-68 -20 -138 -20q-78 0 -118.5 31.5t-40.5 86.5q0 75 60.5 140.5t139.5 103.5h-53zM414 530h524l-111 764h-4z" />
    <glyph glyph-name="aogonek" unicode="&#x105;" horiz-adv-x="1079" 
d="M319 -29q-149 0 -229 71.5t-80 203.5q0 68 23.5 121.5t62 90.5t101 66.5t128 48.5t154.5 37q175 35 222 51q101 35 121 103q5 20 5 43q0 61 -44 93t-154 32q-131 0 -203.5 -51t-101.5 -166h-168q38 170 162 265t325 95q192 0 280.5 -88.5t55.5 -257.5l-96 -493
q-13 -57 -5 -90t48 -33q11 0 35 4l-23 -107q-4 -1 -11.5 -4t-11.5 -4q-172 -118 -172 -188q0 -24 18.5 -38t47.5 -14q50 0 104 21l-24 -123q-68 -20 -137 -20q-78 0 -119 31.5t-41 86.5q0 72 57.5 136.5t134.5 103.5q-83 25 -77 154h-7q-143 -181 -381 -181zM367 115
q147 0 254.5 80t136.5 223l30 151q-32 -31 -73.5 -44.5t-175.5 -41.5q-68 -15 -110 -25t-88.5 -24.5t-72 -29.5t-48.5 -35.5t-32.5 -47t-9.5 -59.5q0 -147 189 -147z" />
    <glyph glyph-name="Cacute" unicode="&#x106;" horiz-adv-x="1484" 
d="M1067 1905h195l-197 -275h-133zM1305 981q0 71 -20.5 132t-63 110.5t-114 77.5t-165.5 28q-182 0 -328.5 -99t-227.5 -270.5t-81 -381.5q0 -443 400 -443q89 0 166.5 23.5t133 61.5t99 90.5t70.5 106t43 111.5h188q-72 -249 -265.5 -403t-455.5 -154q-263 0 -413 159
t-150 441q0 148 41.5 287.5t119 253.5t180.5 200t233 133.5t270 47.5q106 0 196 -28t152.5 -77t104.5 -114t59.5 -139.5t11.5 -153.5h-184z" />
    <glyph glyph-name="cacute" unicode="&#x107;" horiz-adv-x="1089" 
d="M774 1485h195l-197 -275h-133zM895 662q12 130 -49 199t-189 69t-230 -75t-156 -193.5t-54 -253.5q0 -60 14.5 -111t44 -93t82 -65.5t123.5 -23.5q77 0 141.5 25t107 65.5t69 84t39.5 89.5h163q-46 -179 -193.5 -293.5t-336.5 -114.5q-196 0 -308 114t-112 308
q0 180 78 335.5t221 250t318 94.5q193 0 297.5 -116t89.5 -295h-160z" />
    <glyph glyph-name="Ccircumflex" unicode="&#x108;" horiz-adv-x="1484" 
d="M717 1630l241 275h185l135 -275h-164l-72 187h-4l-151 -187h-170zM1305 981q0 71 -20.5 132t-63 110.5t-114 77.5t-165.5 28q-182 0 -328.5 -99t-227.5 -270.5t-81 -381.5q0 -443 400 -443q89 0 166.5 23.5t133 61.5t99 90.5t70.5 106t43 111.5h188q-72 -249 -265.5 -403
t-455.5 -154q-263 0 -413 159t-150 441q0 148 41.5 287.5t119 253.5t180.5 200t233 133.5t270 47.5q106 0 196 -28t152.5 -77t104.5 -114t59.5 -139.5t11.5 -153.5h-184z" />
    <glyph glyph-name="ccircumflex" unicode="&#x109;" horiz-adv-x="1089" 
d="M424 1210l242 275h184l135 -275h-164l-71 187h-5l-151 -187h-170zM895 662q12 130 -49 199t-189 69t-230 -75t-156 -193.5t-54 -253.5q0 -60 14.5 -111t44 -93t82 -65.5t123.5 -23.5q77 0 141.5 25t107 65.5t69 84t39.5 89.5h163q-46 -179 -193.5 -293.5t-336.5 -114.5
q-196 0 -308 114t-112 308q0 180 78 335.5t221 250t318 94.5q193 0 297.5 -116t89.5 -295h-160z" />
    <glyph glyph-name="Cdotaccent" unicode="&#x10a;" horiz-adv-x="1484" 
d="M944 1864h197l-39 -197h-197zM1305 981q0 71 -20.5 132t-63 110.5t-114 77.5t-165.5 28q-182 0 -328.5 -99t-227.5 -270.5t-81 -381.5q0 -443 400 -443q89 0 166.5 23.5t133 61.5t99 90.5t70.5 106t43 111.5h188q-72 -249 -265.5 -403t-455.5 -154q-263 0 -413 159
t-150 441q0 148 41.5 287.5t119 253.5t180.5 200t233 133.5t270 47.5q106 0 196 -28t152.5 -77t104.5 -114t59.5 -139.5t11.5 -153.5h-184z" />
    <glyph glyph-name="cdotaccent" unicode="&#x10b;" horiz-adv-x="1089" 
d="M651 1444h197l-39 -197h-197zM895 662q12 130 -49 199t-189 69t-230 -75t-156 -193.5t-54 -253.5q0 -60 14.5 -111t44 -93t82 -65.5t123.5 -23.5q77 0 141.5 25t107 65.5t69 84t39.5 89.5h163q-46 -179 -193.5 -293.5t-336.5 -114.5q-196 0 -308 114t-112 308
q0 180 78 335.5t221 250t318 94.5q193 0 297.5 -116t89.5 -295h-160z" />
    <glyph glyph-name="Ccaron" unicode="&#x10c;" horiz-adv-x="1484" 
d="M770 1905h158l76 -187h4l145 187h178l-241 -275h-185zM1305 981q0 71 -20.5 132t-63 110.5t-114 77.5t-165.5 28q-182 0 -328.5 -99t-227.5 -270.5t-81 -381.5q0 -443 400 -443q89 0 166.5 23.5t133 61.5t99 90.5t70.5 106t43 111.5h188q-72 -249 -265.5 -403
t-455.5 -154q-263 0 -413 159t-150 441q0 148 41.5 287.5t119 253.5t180.5 200t233 133.5t270 47.5q106 0 196 -28t152.5 -77t104.5 -114t59.5 -139.5t11.5 -153.5h-184z" />
    <glyph glyph-name="ccaron" unicode="&#x10d;" horiz-adv-x="1089" 
d="M477 1485h158l76 -187h4l145 187h178l-241 -275h-185zM895 662q12 130 -49 199t-189 69t-230 -75t-156 -193.5t-54 -253.5q0 -60 14.5 -111t44 -93t82 -65.5t123.5 -23.5q77 0 141.5 25t107 65.5t69 84t39.5 89.5h163q-46 -179 -193.5 -293.5t-336.5 -114.5
q-196 0 -308 114t-112 308q0 180 78 335.5t221 250t318 94.5q193 0 297.5 -116t89.5 -295h-160z" />
    <glyph glyph-name="Dcaron" unicode="&#x10e;" horiz-adv-x="1415" 
d="M528 1905h158l76 -187h4l145 187h179l-242 -275h-184zM31 0l284 1464h502q561 0 561 -557q0 -185 -60 -351.5t-164.5 -289t-253.5 -194.5t-318 -72h-551zM467 1300l-219 -1136h360q167 0 301.5 100t208.5 268.5t74 370.5q0 95 -18.5 163.5t-63 123.5t-126 82.5
t-200.5 27.5h-317z" />
    <glyph glyph-name="dcaron" unicode="&#x10f;" horiz-adv-x="1325" 
d="M936 909h10l109 555h164l-285 -1464h-164l25 129h-4q-147 -158 -361 -158q-172 0 -274.5 110t-102.5 314q0 141 45.5 267t123.5 216t187 142.5t232 52.5q211 0 295 -164zM1348 1464h192l-188 -393h-127zM471 115q135 0 242.5 101t148.5 257l17 82q4 50 4 76
q0 143 -66 221t-190 78q-170 0 -289 -149t-119 -371q0 -295 252 -295z" />
    <glyph glyph-name="Dcroat" unicode="&#x110;" horiz-adv-x="1486" 
d="M102 0l134 686h-144l27 143h145l123 635h502q561 0 561 -557q0 -185 -60.5 -351.5t-164.5 -289t-253.5 -194.5t-318.5 -72h-551zM915 829l-28 -143h-467l-101 -522h361q167 0 301.5 100t208.5 268.5t74 370.5q0 95 -18.5 163.5t-63 123.5t-126 82.5t-200.5 27.5h-317
l-90 -471h466z" />
    <glyph glyph-name="dcroat" unicode="&#x111;" horiz-adv-x="1148" 
d="M936 909h10l58 293h-310l25 123h309l27 139h164l-27 -139h137l-24 -123h-138l-233 -1202h-164l25 129h-4q-147 -158 -361 -158q-172 0 -274.5 110t-102.5 314q0 141 45.5 267t123.5 216t187 142.5t232 52.5q211 0 295 -164zM471 115q135 0 242.5 101t148.5 257l17 82
q4 50 4 76q0 143 -66 221t-190 78q-170 0 -289 -149t-119 -371q0 -295 252 -295z" />
    <glyph glyph-name="Emacron" unicode="&#x112;" horiz-adv-x="1228" 
d="M618 1810h529l-29 -143h-528zM379 840h731l-33 -164h-731l-98 -512h854l-33 -164h-1038l284 1464h1014l-33 -164h-829z" />
    <glyph glyph-name="emacron" unicode="&#x113;" horiz-adv-x="1128" 
d="M494 1395h528l-29 -144h-528zM481 -31q-208 0 -318 116t-110 323q0 186 79.5 338.5t221 240.5t316.5 88q205 0 306 -104.5t101 -284.5q0 -80 -24 -207h-828q-2 -23 -2 -69q0 -145 64 -221t207 -76q74 0 138 21.5t106 56t68 67t40 64.5h170q-76 -162 -211.5 -257.5
t-323.5 -95.5zM655 934q-153 0 -256 -83t-147 -228h651q16 88 -3.5 157t-82 111.5t-162.5 42.5z" />
    <glyph glyph-name="Edotaccent" unicode="&#x116;" horiz-adv-x="1228" 
d="M795 1864h196l-39 -197h-196zM379 840h731l-33 -164h-731l-98 -512h854l-33 -164h-1038l284 1464h1014l-33 -164h-829z" />
    <glyph glyph-name="edotaccent" unicode="&#x117;" horiz-adv-x="1128" 
d="M670 1448h196l-39 -197h-196zM481 -31q-208 0 -318 116t-110 323q0 186 79.5 338.5t221 240.5t316.5 88q205 0 306 -104.5t101 -284.5q0 -80 -24 -207h-828q-2 -23 -2 -69q0 -145 64 -221t207 -76q74 0 138 21.5t106 56t68 67t40 64.5h170q-76 -162 -211.5 -257.5
t-323.5 -95.5zM655 934q-153 0 -256 -83t-147 -228h651q16 88 -3.5 157t-82 111.5t-162.5 42.5z" />
    <glyph glyph-name="Eogonek" unicode="&#x118;" horiz-adv-x="1228" 
d="M379 840h731l-33 -164h-731l-98 -512h854l-33 -164h-22q-173 -119 -173 -188q0 -24 18.5 -38t47.5 -14q50 0 104 21l-24 -123q-68 -20 -137 -20q-78 0 -119 31.5t-41 86.5q0 75 61 140.5t140 103.5h-893l284 1464h1014l-33 -164h-829z" />
    <glyph glyph-name="eogonek" unicode="&#x119;" horiz-adv-x="1128" 
d="M489 -362q-78 0 -118.5 31.5t-40.5 86.5q0 61 41 116.5t104 96.5q-204 1 -313 117.5t-109 321.5q0 186 79.5 338.5t221 240.5t316.5 88q205 0 306 -104.5t101 -284.5q0 -80 -24 -207h-828q-2 -23 -2 -69q0 -145 64 -221t207 -76q74 0 138 21.5t106 56t68 67t40 64.5h170
q-59 -126 -154.5 -213t-224.5 -121q-156 -108 -156 -176q0 -24 18.5 -38t47.5 -14q50 0 104 21l-24 -123q-68 -20 -138 -20zM655 934q-153 0 -256 -83t-147 -228h651q16 88 -3.5 157t-82 111.5t-162.5 42.5z" />
    <glyph glyph-name="Ecaron" unicode="&#x11a;" horiz-adv-x="1228" 
d="M621 1905h157l76 -187h4l146 187h178l-242 -275h-184zM379 840h731l-33 -164h-731l-98 -512h854l-33 -164h-1038l284 1464h1014l-33 -164h-829z" />
    <glyph glyph-name="ecaron" unicode="&#x11b;" horiz-adv-x="1128" 
d="M496 1489h157l76 -186h4l146 186h178l-242 -275h-184zM481 -31q-208 0 -318 116t-110 323q0 186 79.5 338.5t221 240.5t316.5 88q205 0 306 -104.5t101 -284.5q0 -80 -24 -207h-828q-2 -23 -2 -69q0 -145 64 -221t207 -76q74 0 138 21.5t106 56t68 67t40 64.5h170
q-76 -162 -211.5 -257.5t-323.5 -95.5zM655 934q-153 0 -256 -83t-147 -228h651q16 88 -3.5 157t-82 111.5t-162.5 42.5z" />
    <glyph glyph-name="Gcircumflex" unicode="&#x11c;" horiz-adv-x="1531" 
d="M702 1630l242 275h184l136 -275h-164l-72 187h-4l-152 -187h-170zM1298 1022q0 151 -92 229t-264 78q-183 0 -330.5 -104.5t-228 -279t-80.5 -380.5q0 -430 371 -430q207 0 370.5 129.5t204.5 333.5h-477l31 164h661l-147 -762h-123l-20 207h-5q-110 -120 -231.5 -178
t-282.5 -58q-265 0 -401.5 152.5t-136.5 425.5q0 149 40 290.5t117 259t180.5 206.5t238.5 138.5t284 49.5q129 0 229.5 -37.5t162 -103t91.5 -149.5t27 -181h-189z" />
    <glyph glyph-name="gcircumflex" unicode="&#x11d;" horiz-adv-x="1150" 
d="M408 1210l241 275h185l135 -275h-164l-72 187h-4l-151 -187h-170zM788 90l25 127h-4q-142 -164 -363 -164q-174 0 -278.5 103.5t-104.5 310.5q0 165 74.5 304t206.5 220.5t291 81.5q214 0 311 -158h4l25 129h164l-189 -968q-42 -219 -183 -332t-355 -113
q-194 0 -310.5 92t-109.5 238h160q0 -186 260 -186q315 0 376 315zM647 930q-123 0 -219.5 -65.5t-146.5 -169.5t-50 -224q0 -129 62.5 -201.5t189.5 -72.5q122 0 216.5 68t143 177t48.5 236q0 252 -244 252z" />
    <glyph glyph-name="Gbreve" unicode="&#x11e;" horiz-adv-x="1531" 
d="M973 1610q-114 0 -171.5 69t-35.5 205h123q-11 -81 11 -116t87 -35q138 0 176 151h123q-31 -133 -115 -203.5t-198 -70.5zM1298 1022q0 151 -92 229t-264 78q-183 0 -330.5 -104.5t-228 -279t-80.5 -380.5q0 -430 371 -430q207 0 370.5 129.5t204.5 333.5h-477l31 164
h661l-147 -762h-123l-20 207h-5q-110 -120 -231.5 -178t-282.5 -58q-265 0 -401.5 152.5t-136.5 425.5q0 149 40 290.5t117 259t180.5 206.5t238.5 138.5t284 49.5q129 0 229.5 -37.5t162 -103t91.5 -149.5t27 -181h-189z" />
    <glyph glyph-name="gbreve" unicode="&#x11f;" horiz-adv-x="1150" 
d="M678 1190q-114 0 -171.5 69t-35.5 205h123q-11 -81 11 -116t87 -35q138 0 176 151h123q-31 -133 -115 -203.5t-198 -70.5zM788 90l25 127h-4q-142 -164 -363 -164q-174 0 -278.5 103.5t-104.5 310.5q0 165 74.5 304t206.5 220.5t291 81.5q214 0 311 -158h4l25 129h164
l-189 -968q-42 -219 -183 -332t-355 -113q-194 0 -310.5 92t-109.5 238h160q0 -186 260 -186q315 0 376 315zM647 930q-123 0 -219.5 -65.5t-146.5 -169.5t-50 -224q0 -129 62.5 -201.5t189.5 -72.5q122 0 216.5 68t143 177t48.5 236q0 252 -244 252z" />
    <glyph glyph-name="Gdotaccent" unicode="&#x120;" horiz-adv-x="1531" 
d="M930 1864h196l-39 -197h-196zM1298 1022q0 151 -92 229t-264 78q-183 0 -330.5 -104.5t-228 -279t-80.5 -380.5q0 -430 371 -430q207 0 370.5 129.5t204.5 333.5h-477l31 164h661l-147 -762h-123l-20 207h-5q-110 -120 -231.5 -178t-282.5 -58q-265 0 -401.5 152.5
t-136.5 425.5q0 149 40 290.5t117 259t180.5 206.5t238.5 138.5t284 49.5q129 0 229.5 -37.5t162 -103t91.5 -149.5t27 -181h-189z" />
    <glyph glyph-name="gdotaccent" unicode="&#x121;" horiz-adv-x="1150" 
d="M635 1444h196l-38 -197h-197zM788 90l25 127h-4q-142 -164 -363 -164q-174 0 -278.5 103.5t-104.5 310.5q0 165 74.5 304t206.5 220.5t291 81.5q214 0 311 -158h4l25 129h164l-189 -968q-42 -219 -183 -332t-355 -113q-194 0 -310.5 92t-109.5 238h160q0 -186 260 -186
q315 0 376 315zM647 930q-123 0 -219.5 -65.5t-146.5 -169.5t-50 -224q0 -129 62.5 -201.5t189.5 -72.5q122 0 216.5 68t143 177t48.5 236q0 252 -244 252z" />
    <glyph glyph-name="uni0122" unicode="&#x122;" horiz-adv-x="1531" 
d="M1298 1022q0 151 -92 229t-264 78q-183 0 -330.5 -104.5t-228 -279t-80.5 -380.5q0 -430 371 -430q207 0 370.5 129.5t204.5 333.5h-477l31 164h661l-147 -762h-123l-20 207h-5q-110 -120 -231.5 -178t-282.5 -58q-265 0 -401.5 152.5t-136.5 425.5q0 149 40 290.5
t117 259t180.5 206.5t238.5 138.5t284 49.5q129 0 229.5 -37.5t162 -103t91.5 -149.5t27 -181h-189zM571 -100h197l-31 -160q-16 -81 -71.5 -133.5t-165.5 -77.5l16 82q58 15 84 43t35 86h-94z" />
    <glyph glyph-name="uni0123" unicode="&#x123;" horiz-adv-x="1150" 
d="M795 1210h-197l35 181q19 94 77.5 151.5t166.5 85.5l-19 -94q-59 -18 -86 -48.5t-37 -94.5h94zM788 90l25 127h-4q-142 -164 -363 -164q-174 0 -278.5 103.5t-104.5 310.5q0 165 74.5 304t206.5 220.5t291 81.5q214 0 311 -158h4l25 129h164l-189 -968
q-42 -219 -183 -332t-355 -113q-194 0 -310.5 92t-109.5 238h160q0 -186 260 -186q315 0 376 315zM647 930q-123 0 -219.5 -65.5t-146.5 -169.5t-50 -224q0 -129 62.5 -201.5t189.5 -72.5q122 0 216.5 68t143 177t48.5 236q0 252 -244 252z" />
    <glyph glyph-name="Hcircumflex" unicode="&#x124;" horiz-adv-x="1417" 
d="M643 1630l242 275h184l135 -275h-164l-71 187h-4l-152 -187h-170zM315 1464h185l-121 -622h782l121 622h184l-284 -1464h-185l131 678h-782l-131 -678h-184z" />
    <glyph glyph-name="hcircumflex" unicode="&#x125;" horiz-adv-x="1077" 
d="M111 1538l241 274h185l135 -274h-164l-72 186h-4l-151 -186h-170zM842 688q22 111 -20 177.5t-163 66.5q-127 0 -227.5 -79.5t-130.5 -197.5l-127 -655h-164l285 1464h164l-107 -553q62 74 159 119t216 45q157 0 236 -101.5t43 -285.5l-134 -688h-163z" />
    <glyph glyph-name="Hbar" unicode="&#x126;" horiz-adv-x="1458" 
d="M356 1464h185l-43 -225h782l43 225h184l-43 -225h146l-29 -143h-145l-213 -1096h-185l131 678h-782l-131 -678h-184l213 1096h-142l29 143h141zM420 842h782l49 254h-782z" />
    <glyph glyph-name="hbar" unicode="&#x127;" horiz-adv-x="1077" 
d="M842 688q22 111 -20 177.5t-163 66.5q-127 0 -227.5 -79.5t-130.5 -197.5l-127 -655h-164l234 1202h-123l24 123h123l27 139h164l-27 -139h324l-25 -123h-323l-56 -291q62 74 159 119t216 45q157 0 236 -101.5t43 -285.5l-134 -688h-163z" />
    <glyph glyph-name="Itilde" unicode="&#x128;" horiz-adv-x="450" 
d="M158 1655q19 96 72.5 144t115.5 48q56 0 135 -36.5t101 -36.5q48 0 61 69h123q-19 -96 -71.5 -144t-116.5 -48q-56 0 -135 36.5t-101 36.5q-50 0 -61 -69h-123zM315 1464h185l-285 -1464h-184z" />
    <glyph glyph-name="itilde" unicode="&#x129;" horiz-adv-x="391" 
d="M47 1235q19 96 73 144t116 48q56 0 134.5 -36.5t100.5 -36.5q48 0 61 69h123q-19 -96 -71.5 -144t-116.5 -48q-56 0 -135 37t-101 37q-50 0 -61 -70h-123zM215 1044h164l-203 -1044h-164z" />
    <glyph glyph-name="Imacron" unicode="&#x12a;" horiz-adv-x="450" 
d="M211 1810h528l-28 -143h-529zM315 1464h185l-285 -1464h-184z" />
    <glyph glyph-name="imacron" unicode="&#x12b;" horiz-adv-x="391" 
d="M100 1391h529l-29 -144h-528zM215 1044h164l-203 -1044h-164z" />
    <glyph glyph-name="Iogonek" unicode="&#x12e;" horiz-adv-x="450" 
d="M49 -362q-78 0 -119 31.5t-41 86.5q0 75 61 140.5t140 103.5h-59l284 1464h185l-285 -1464h-2q-172 -118 -172 -188q0 -24 18 -38t47 -14q51 0 105 21l-25 -123q-68 -20 -137 -20z" />
    <glyph glyph-name="iogonek" unicode="&#x12f;" horiz-adv-x="391" 
d="M276 1444h197l-39 -197h-196zM-2 -362q-78 0 -119 31.5t-41 86.5q0 75 61 140.5t140 103.5h-27l203 1044h164l-203 -1044h-14q-172 -118 -172 -188q0 -24 18 -38t47 -14q51 0 105 21l-25 -123q-68 -20 -137 -20z" />
    <glyph glyph-name="Idotaccent" unicode="&#x130;" horiz-adv-x="450" 
d="M387 1864h197l-39 -197h-197zM315 1464h185l-285 -1464h-184z" />
    <glyph glyph-name="dotlessi" unicode="&#x131;" horiz-adv-x="391" 
d="M215 1044h164l-203 -1044h-164z" />
    <glyph glyph-name="Jcircumflex" unicode="&#x134;" horiz-adv-x="993" 
d="M733 1630l242 275h184l135 -275h-164l-71 187h-4l-152 -187h-170zM866 406q-19 -98 -54 -174t-92.5 -136.5t-145 -92.5t-201.5 -32q-102 0 -175.5 27t-114 71.5t-60 107t-19 128t15.5 141.5l9 41h184l-8 -41q-19 -98 -18 -167t48 -106.5t150 -37.5q62 0 111 17.5t80.5 45
t55 70.5t36 83.5t22.5 94.5l199 1018h184z" />
    <glyph glyph-name="jcircumflex" unicode="&#x135;" horiz-adv-x="387" 
d="M49 1210l242 275h184l135 -275h-164l-71 187h-4l-152 -187h-170zM-123 -369q-44 0 -106 11l26 139q53 -6 82 -6q47 0 75.5 36t45.5 123l215 1110h164l-219 -1126q-29 -149 -106.5 -218t-176.5 -69z" />
    <glyph glyph-name="uni0136" unicode="&#x136;" horiz-adv-x="1339" 
d="M31 0l284 1464h185l-152 -778l889 778h219l-692 -604l453 -860h-209l-381 739l-322 -280l-90 -459h-184zM506 -100h196l-30 -160q-16 -81 -72 -133.5t-166 -77.5l17 82q57 15 83 43t35 86h-94z" />
    <glyph glyph-name="uni0137" unicode="&#x137;" horiz-adv-x="1019" 
d="M10 0l285 1464h164l-168 -860l561 440h209l-486 -378l326 -666h-190l-262 565l-195 -149l-80 -416h-164zM317 -100h197l-31 -160q-16 -81 -71.5 -133.5t-165.5 -77.5l16 82q58 15 84 43t35 86h-94z" />
    <glyph glyph-name="kgreenlandic" unicode="&#x138;" horiz-adv-x="1019" 
d="M10 0l203 1044h164l-92 -473l598 473h209l-506 -401l315 -643h-190l-252 543l-213 -170l-72 -373h-164z" />
    <glyph glyph-name="Lacute" unicode="&#x139;" horiz-adv-x="1126" 
d="M510 1905h195l-197 -275h-133zM315 1464h185l-252 -1300h768l-33 -164h-952z" />
    <glyph glyph-name="lacute" unicode="&#x13a;" horiz-adv-x="389" 
d="M461 1812h194l-196 -274h-133zM295 1464h164l-285 -1464h-164z" />
    <glyph glyph-name="uni013B" unicode="&#x13b;" horiz-adv-x="1126" 
d="M315 1464h185l-252 -1300h768l-33 -164h-952zM389 -100h197l-31 -160q-16 -81 -72 -133.5t-166 -77.5l17 82q58 15 84 43t35 86h-95z" />
    <glyph glyph-name="uni013C" unicode="&#x13c;" horiz-adv-x="389" 
d="M295 1464h164l-285 -1464h-164zM-27 -100h197l-31 -160q-16 -81 -71.5 -133.5t-165.5 -77.5l16 82q58 15 84 43t35 86h-94z" />
    <glyph glyph-name="Lcaron" unicode="&#x13d;" horiz-adv-x="1126" 
d="M315 1464h185l-252 -1300h768l-33 -164h-952zM784 1464h193l-189 -393h-126z" />
    <glyph glyph-name="lcaron" unicode="&#x13e;" horiz-adv-x="565" 
d="M295 1464h164l-285 -1464h-164zM588 1464h192l-188 -393h-127z" />
    <glyph glyph-name="Lslash" unicode="&#x141;" horiz-adv-x="1126" 
d="M-37 381l31 168l164 104l157 811h185l-131 -678l397 254l-31 -168l-399 -254l-88 -454h768l-33 -164h-952l94 483z" />
    <glyph glyph-name="lslash" unicode="&#x142;" horiz-adv-x="528" 
d="M33 535l30 157l173 109l129 663h163l-106 -544l174 108l-31 -158l-174 -108l-147 -762h-164l125 643z" />
    <glyph glyph-name="Nacute" unicode="&#x143;" horiz-adv-x="1411" 
d="M991 1905h195l-197 -275h-133zM31 0l284 1464h222l497 -1202h8l234 1202h184l-284 -1464h-222l-497 1202h-8l-234 -1202h-184z" />
    <glyph glyph-name="nacute" unicode="&#x144;" horiz-adv-x="1077" 
d="M748 1485h194l-197 -275h-133zM10 0l203 1044h164l-27 -133h2q62 74 159 119t216 45q157 0 236 -101.5t43 -285.5l-134 -688h-163l133 688q22 111 -20 177.5t-163 66.5q-128 0 -229 -81t-129 -200l-127 -651h-164z" />
    <glyph glyph-name="uni0145" unicode="&#x145;" horiz-adv-x="1411" 
d="M31 0l284 1464h222l497 -1202h8l234 1202h184l-284 -1464h-222l-497 1202h-8l-234 -1202h-184zM485 -100h197l-31 -160q-16 -81 -71.5 -133.5t-165.5 -77.5l16 82q58 15 84 43t35 86h-94z" />
    <glyph glyph-name="uni0146" unicode="&#x146;" horiz-adv-x="1077" 
d="M10 0l203 1044h164l-27 -133h2q62 74 159 119t216 45q157 0 236 -101.5t43 -285.5l-134 -688h-163l133 688q22 111 -20 177.5t-163 66.5q-128 0 -229 -81t-129 -200l-127 -651h-164zM324 -100h196l-31 -160q-16 -81 -71.5 -133.5t-165.5 -77.5l16 82q58 15 84 43t35 86
h-94z" />
    <glyph glyph-name="Ncaron" unicode="&#x147;" horiz-adv-x="1411" 
d="M694 1905h158l76 -187h4l145 187h178l-241 -275h-185zM31 0l284 1464h222l497 -1202h8l234 1202h184l-284 -1464h-222l-497 1202h-8l-234 -1202h-184z" />
    <glyph glyph-name="ncaron" unicode="&#x148;" horiz-adv-x="1077" 
d="M451 1485h157l76 -187h4l146 187h178l-242 -275h-184zM10 0l203 1044h164l-27 -133h2q62 74 159 119t216 45q157 0 236 -101.5t43 -285.5l-134 -688h-163l133 688q22 111 -20 177.5t-163 66.5q-128 0 -229 -81t-129 -200l-127 -651h-164z" />
    <glyph glyph-name="Eng" unicode="&#x14a;" horiz-adv-x="1411" 
d="M741 -365q-66 0 -110 13l26 143q268 -31 310 170l-514 1241h-4l-234 -1202h-184l284 1464h226l495 -1206h4l236 1206h184l-284 -1464q-19 -96 -60 -168t-99.5 -114t-127 -62.5t-148.5 -20.5z" />
    <glyph glyph-name="eng" unicode="&#x14b;" horiz-adv-x="1075" 
d="M10 0l203 1044h164l-27 -133h2q62 74 159 119t216 45q157 0 236 -101.5t43 -285.5l-148 -760q-29 -149 -105.5 -208.5t-191.5 -59.5q-69 0 -121 12l29 144q108 -8 160.5 18t68.5 111l144 743q22 111 -20 177.5t-163 66.5q-128 0 -229 -81t-129 -200l-127 -651h-164z" />
    <glyph glyph-name="Omacron" unicode="&#x14c;" horiz-adv-x="1619" 
d="M797 1810h528l-29 -143h-528zM713 -29q-276 0 -435 163t-159 431q0 184 67 354.5t182 296.5t277.5 201.5t343.5 75.5q276 0 435 -163t159 -431q0 -184 -67 -354.5t-182 -296.5t-277.5 -201.5t-343.5 -75.5zM727 135q146 0 272.5 63t213 168t135.5 244t49 289
q0 93 -24 169.5t-73.5 136t-132 92t-192.5 32.5q-146 0 -272.5 -63t-213 -168t-135.5 -244t-49 -289q0 -93 24 -169.5t73.5 -136t132 -92t192.5 -32.5z" />
    <glyph glyph-name="omacron" unicode="&#x14d;" horiz-adv-x="1136" 
d="M479 1391h529l-29 -144h-528zM453 -29q-192 0 -298 112t-106 300q0 186 80 343.5t226.5 252t328.5 94.5q192 0 297.5 -111.5t105.5 -299.5q0 -139 -47 -265.5t-129.5 -220.5t-201.5 -149.5t-256 -55.5zM475 115q130 0 234 76.5t158.5 197t54.5 256.5q0 129 -65.5 207
t-194.5 78q-130 0 -234 -77t-158.5 -197.5t-54.5 -256.5q0 -129 65.5 -206.5t194.5 -77.5z" />
    <glyph glyph-name="Ohungarumlaut" unicode="&#x150;" horiz-adv-x="1619" 
d="M999 1905h195l-240 -275h-133zM1290 1905h195l-240 -275h-133zM713 -29q-276 0 -435 163t-159 431q0 184 67 354.5t182 296.5t277.5 201.5t343.5 75.5q276 0 435 -163t159 -431q0 -184 -67 -354.5t-182 -296.5t-277.5 -201.5t-343.5 -75.5zM727 135q146 0 272.5 63
t213 168t135.5 244t49 289q0 93 -24 169.5t-73.5 136t-132 92t-192.5 32.5q-146 0 -272.5 -63t-213 -168t-135.5 -244t-49 -289q0 -93 24 -169.5t73.5 -136t132 -92t192.5 -32.5z" />
    <glyph glyph-name="ohungarumlaut" unicode="&#x151;" horiz-adv-x="1136" 
d="M682 1485h195l-240 -275h-133zM973 1485h194l-239 -275h-133zM453 -29q-192 0 -298 112t-106 300q0 186 80 343.5t226.5 252t328.5 94.5q192 0 297.5 -111.5t105.5 -299.5q0 -139 -47 -265.5t-129.5 -220.5t-201.5 -149.5t-256 -55.5zM475 115q130 0 234 76.5t158.5 197
t54.5 256.5q0 129 -65.5 207t-194.5 78q-130 0 -234 -77t-158.5 -197.5t-54.5 -256.5q0 -129 65.5 -206.5t194.5 -77.5z" />
    <glyph glyph-name="OE" unicode="&#x152;" horiz-adv-x="2271" 
d="M580 -29q-216 0 -340.5 154t-124.5 416q0 179 60.5 351.5t163.5 305t250.5 214t309.5 81.5q336 0 395 -356l64 327h1014l-33 -164h-830l-88 -460h731l-32 -164h-731l-99 -512h854l-33 -164h-1038l64 328q-101 -166 -245.5 -261.5t-311.5 -95.5zM635 135q104 0 196.5 44.5
t161.5 120.5t119.5 175t76 211.5t25.5 226.5q0 216 -89 316t-238 100q-163 0 -298.5 -106.5t-211.5 -283.5t-76 -382q0 -197 81.5 -309.5t252.5 -112.5z" />
    <glyph glyph-name="oe" unicode="&#x153;" horiz-adv-x="1986" 
d="M453 -29q-192 0 -298 112t-106 300q0 186 80 343.5t226.5 252t328.5 94.5q139 0 234 -59.5t137 -167.5q85 108 206.5 168.5t266.5 60.5q205 0 306 -104.5t101 -284.5q0 -80 -24 -207h-828q-2 -23 -2 -69q0 -145 64 -221t207 -76q74 0 138 21.5t106 56t68 67t40 64.5h170
q-76 -162 -211.5 -257.5t-323.5 -95.5q-153 0 -254 63.5t-143 182.5q-88 -114 -213.5 -179t-275.5 -65zM1513 934q-153 0 -256 -83t-147 -228h651q16 88 -3.5 157t-82 111.5t-162.5 42.5zM475 115q130 0 234 76.5t158.5 197t54.5 256.5q0 129 -65.5 207t-194.5 78
q-130 0 -234 -77t-158.5 -197.5t-54.5 -256.5q0 -129 65.5 -206.5t194.5 -77.5z" />
    <glyph glyph-name="Racute" unicode="&#x154;" horiz-adv-x="1325" 
d="M905 1905h195l-197 -275h-133zM31 0l284 1464h568q216 0 327 -88.5t111 -251.5t-97 -287.5t-251 -158.5v-6q64 -13 103 -55t52 -99.5t14.5 -124t-6.5 -131.5t-15 -119t-6.5 -90t15.5 -41l-2 -12h-198q-7 11 -7.5 42.5t10 75.5t16 96t11.5 105t-3.5 102t-29 87t-65 61
t-112.5 23h-420l-115 -592h-184zM467 1300l-105 -544h396q168 0 271.5 97t103.5 247q0 104 -68.5 152t-230.5 48h-367z" />
    <glyph glyph-name="racute" unicode="&#x155;" horiz-adv-x="702" 
d="M592 1485h194l-196 -275h-133zM213 1044h164l-39 -196h4q65 109 144 165t194 56q44 0 82 -6l-33 -160q-34 6 -63 6q-143 0 -248 -98.5t-135 -251.5l-109 -559h-164z" />
    <glyph glyph-name="uni0156" unicode="&#x156;" horiz-adv-x="1325" 
d="M31 0l284 1464h568q216 0 327 -88.5t111 -251.5t-97 -287.5t-251 -158.5v-6q64 -13 103 -55t52 -99.5t14.5 -124t-6.5 -131.5t-15 -119t-6.5 -90t15.5 -41l-2 -12h-198q-7 11 -7.5 42.5t10 75.5t16 96t11.5 105t-3.5 102t-29 87t-65 61t-112.5 23h-420l-115 -592h-184z
M467 1300l-105 -544h396q168 0 271.5 97t103.5 247q0 104 -68.5 152t-230.5 48h-367zM440 -100h197l-31 -160q-16 -81 -71.5 -133.5t-165.5 -77.5l16 82q58 15 84 43t35 86h-94z" />
    <glyph glyph-name="uni0157" unicode="&#x157;" horiz-adv-x="702" 
d="M213 1044h164l-39 -196h4q65 109 144 165t194 56q44 0 82 -6l-33 -160q-34 6 -63 6q-143 0 -248 -98.5t-135 -251.5l-109 -559h-164zM-27 -100h197l-31 -160q-16 -81 -71.5 -133.5t-165.5 -77.5l16 82q58 15 84 43t35 86h-94z" />
    <glyph glyph-name="Rcaron" unicode="&#x158;" horiz-adv-x="1325" 
d="M608 1905h158l76 -187h4l145 187h178l-241 -275h-185zM31 0l284 1464h568q216 0 327 -88.5t111 -251.5t-97 -287.5t-251 -158.5v-6q64 -13 103 -55t52 -99.5t14.5 -124t-6.5 -131.5t-15 -119t-6.5 -90t15.5 -41l-2 -12h-198q-7 11 -7.5 42.5t10 75.5t16 96t11.5 105
t-3.5 102t-29 87t-65 61t-112.5 23h-420l-115 -592h-184zM467 1300l-105 -544h396q168 0 271.5 97t103.5 247q0 104 -68.5 152t-230.5 48h-367z" />
    <glyph glyph-name="rcaron" unicode="&#x159;" horiz-adv-x="702" 
d="M295 1485h158l75 -187h4l146 187h178l-242 -275h-184zM213 1044h164l-39 -196h4q65 109 144 165t194 56q44 0 82 -6l-33 -160q-34 6 -63 6q-143 0 -248 -98.5t-135 -251.5l-109 -559h-164z" />
    <glyph glyph-name="Sacute" unicode="&#x15a;" horiz-adv-x="1294" 
d="M907 1905h195l-197 -275h-133zM737 842q74 -25 117.5 -41t99.5 -40t87.5 -45t66 -51.5t52 -64t29 -77.5t11.5 -97q0 -145 -73 -249t-200.5 -155t-297.5 -51q-182 0 -318 61.5t-206 178.5t-58 274h180q-1 -170 105 -260t301 -90q114 0 197 27t133.5 91t50.5 161
q0 37 -7.5 65t-28.5 53t-46 43.5t-73 40t-95.5 39t-126.5 43.5q-90 30 -152 56.5t-115 60t-84 71t-48 86.5t-17 111q0 100 43 179t118 129t173.5 76t212.5 26q250 0 383.5 -114.5t112.5 -342.5h-181q8 149 -71.5 221t-259.5 72q-71 0 -130 -11t-109 -35.5t-78.5 -70
t-28.5 -108.5q0 -30 6 -54.5t16 -44t32 -37.5t43.5 -31.5t62 -30.5t76 -30t95.5 -34z" />
    <glyph glyph-name="sacute" unicode="&#x15b;" horiz-adv-x="991" 
d="M698 1485h195l-197 -275h-133zM543 608q49 -15 77 -24t70.5 -26t67 -32.5t53.5 -39.5t44.5 -50t26.5 -62.5t11 -78.5q0 -155 -119 -239.5t-309 -84.5q-213 0 -334 103.5t-121 267.5h162q0 -97 73.5 -162t225.5 -65q119 0 187.5 43t68.5 131q0 33 -13 59t-30 42.5
t-55.5 33.5t-65 25.5t-82.5 25.5q-143 42 -195 67q-147 70 -161 206q-2 15 -2 32q0 98 56 165.5t143 97.5t198 30q195 0 301.5 -96t106.5 -234h-164q0 34 -12.5 65t-39.5 59.5t-77 45.5t-117 17q-102 0 -167.5 -36.5t-65.5 -111.5q0 -46 32.5 -77t69 -46t127.5 -42
q19 -6 29 -9z" />
    <glyph glyph-name="Scircumflex" unicode="&#x15c;" horiz-adv-x="1294" 
d="M557 1630l242 275h184l135 -275h-164l-71 187h-4l-152 -187h-170zM737 842q74 -25 117.5 -41t99.5 -40t87.5 -45t66 -51.5t52 -64t29 -77.5t11.5 -97q0 -145 -73 -249t-200.5 -155t-297.5 -51q-182 0 -318 61.5t-206 178.5t-58 274h180q-1 -170 105 -260t301 -90
q114 0 197 27t133.5 91t50.5 161q0 37 -7.5 65t-28.5 53t-46 43.5t-73 40t-95.5 39t-126.5 43.5q-90 30 -152 56.5t-115 60t-84 71t-48 86.5t-17 111q0 100 43 179t118 129t173.5 76t212.5 26q250 0 383.5 -114.5t112.5 -342.5h-181q8 149 -71.5 221t-259.5 72
q-71 0 -130 -11t-109 -35.5t-78.5 -70t-28.5 -108.5q0 -30 6 -54.5t16 -44t32 -37.5t43.5 -31.5t62 -30.5t76 -30t95.5 -34z" />
    <glyph glyph-name="scircumflex" unicode="&#x15d;" horiz-adv-x="991" 
d="M348 1210l242 275h184l135 -275h-164l-71 187h-4l-152 -187h-170zM543 608q49 -15 77 -24t70.5 -26t67 -32.5t53.5 -39.5t44.5 -50t26.5 -62.5t11 -78.5q0 -155 -119 -239.5t-309 -84.5q-213 0 -334 103.5t-121 267.5h162q0 -97 73.5 -162t225.5 -65q119 0 187.5 43
t68.5 131q0 33 -13 59t-30 42.5t-55.5 33.5t-65 25.5t-82.5 25.5q-143 42 -195 67q-147 70 -161 206q-2 15 -2 32q0 98 56 165.5t143 97.5t198 30q195 0 301.5 -96t106.5 -234h-164q0 34 -12.5 65t-39.5 59.5t-77 45.5t-117 17q-102 0 -167.5 -36.5t-65.5 -111.5
q0 -46 32.5 -77t69 -46t127.5 -42q19 -6 29 -9z" />
    <glyph glyph-name="Scedilla" unicode="&#x15e;" horiz-adv-x="1294" 
d="M737 842q74 -25 117.5 -41t99.5 -40t87.5 -45t66 -51.5t52 -64t29 -77.5t11.5 -97q0 -217 -154.5 -336t-406.5 -119l-88 -84l-2 -4q71 10 122.5 -16t51.5 -86q0 -82 -69 -134.5t-177 -52.5q-117 0 -207 64l54 51q77 -31 137 -31q54 0 86.5 26t32.5 67q0 47 -70 47
q-48 0 -86 -15l-18 39l135 133q-240 22 -375.5 158t-118.5 352h180q-1 -170 105 -260t301 -90q114 0 197 27t133.5 91t50.5 161q0 37 -7.5 65t-28.5 53t-46 43.5t-73 40t-95.5 39t-126.5 43.5q-90 30 -152 56.5t-115 60t-84 71t-48 86.5t-17 111q0 100 43 179t118 129
t173.5 76t212.5 26q250 0 383.5 -114.5t112.5 -342.5h-181q8 149 -71.5 221t-259.5 72q-71 0 -130 -11t-109 -35.5t-78.5 -70t-28.5 -108.5q0 -30 6 -54.5t16 -44t32 -37.5t43.5 -31.5t62 -30.5t76 -30t95.5 -34z" />
    <glyph glyph-name="scedilla" unicode="&#x15f;" horiz-adv-x="991" 
d="M543 608q49 -15 77 -24t70.5 -26t67 -32.5t53.5 -39.5t44.5 -50t26.5 -62.5t11 -78.5q0 -155 -119 -239.5t-309 -84.5h-4l-88 -84l-2 -4q71 10 122.5 -16t51.5 -86q0 -82 -69 -134.5t-177 -52.5q-117 0 -207 64l53 51q77 -31 138 -31q54 0 86 25.5t32 67.5q0 47 -69 47
q-48 0 -86 -15l-19 39l138 135q-167 24 -261 123.5t-94 241.5h162q0 -97 73.5 -162t225.5 -65q119 0 187.5 43t68.5 131q0 33 -13 59t-30 42.5t-55.5 33.5t-65 25.5t-82.5 25.5q-143 42 -195 67q-147 70 -161 206q-2 15 -2 32q0 98 56 165.5t143 97.5t198 30
q195 0 301.5 -96t106.5 -234h-164q0 34 -12.5 65t-39.5 59.5t-77 45.5t-117 17q-102 0 -167.5 -36.5t-65.5 -111.5q0 -46 32.5 -77t69 -46t127.5 -42q19 -6 29 -9z" />
    <glyph glyph-name="Scaron" unicode="&#x160;" horiz-adv-x="1294" 
d="M610 1905h158l76 -187h4l145 187h178l-241 -275h-185zM737 842q74 -25 117.5 -41t99.5 -40t87.5 -45t66 -51.5t52 -64t29 -77.5t11.5 -97q0 -145 -73 -249t-200.5 -155t-297.5 -51q-182 0 -318 61.5t-206 178.5t-58 274h180q-1 -170 105 -260t301 -90q114 0 197 27
t133.5 91t50.5 161q0 37 -7.5 65t-28.5 53t-46 43.5t-73 40t-95.5 39t-126.5 43.5q-90 30 -152 56.5t-115 60t-84 71t-48 86.5t-17 111q0 100 43 179t118 129t173.5 76t212.5 26q250 0 383.5 -114.5t112.5 -342.5h-181q8 149 -71.5 221t-259.5 72q-71 0 -130 -11t-109 -35.5
t-78.5 -70t-28.5 -108.5q0 -30 6 -54.5t16 -44t32 -37.5t43.5 -31.5t62 -30.5t76 -30t95.5 -34z" />
    <glyph glyph-name="scaron" unicode="&#x161;" horiz-adv-x="991" 
d="M401 1485h158l76 -187h4l145 187h179l-242 -275h-184zM543 608q49 -15 77 -24t70.5 -26t67 -32.5t53.5 -39.5t44.5 -50t26.5 -62.5t11 -78.5q0 -155 -119 -239.5t-309 -84.5q-213 0 -334 103.5t-121 267.5h162q0 -97 73.5 -162t225.5 -65q119 0 187.5 43t68.5 131
q0 33 -13 59t-30 42.5t-55.5 33.5t-65 25.5t-82.5 25.5q-143 42 -195 67q-147 70 -161 206q-2 15 -2 32q0 98 56 165.5t143 97.5t198 30q195 0 301.5 -96t106.5 -234h-164q0 34 -12.5 65t-39.5 59.5t-77 45.5t-117 17q-102 0 -167.5 -36.5t-65.5 -111.5q0 -46 32.5 -77
t69 -46t127.5 -42q19 -6 29 -9z" />
    <glyph glyph-name="uni0162" unicode="&#x162;" horiz-adv-x="1241" 
d="M426 0l252 1300h-488l33 164h1159l-32 -164h-488l-252 -1300h-37l-116 -113l-2 -4q71 10 122.5 -16t51.5 -86q0 -82 -69 -134.5t-177 -52.5q-117 0 -207 64l53 51q78 -31 138 -31q54 0 86 25.5t32 67.5q0 47 -69 47q-48 0 -86 -15l-19 39l160 158h-45z" />
    <glyph glyph-name="uni0163" unicode="&#x163;" horiz-adv-x="628" 
d="M143 1044h154l68 349h163l-67 -349h205l-29 -143h-205l-123 -629q-15 -76 7 -107.5t94 -31.5q28 0 90 6l-29 -139q-64 -10 -113 -10h-22l-78 -74l-2 -4q71 10 122.5 -16t51.5 -86q0 -82 -69 -134.5t-177 -52.5q-117 0 -207 64l54 51q78 -31 137 -31q54 0 86.5 25.5
t32.5 66.5q0 47 -70 47q-51 0 -86 -14l-18 39l135 133q-143 50 -101 277l121 620h-153z" />
    <glyph glyph-name="Tcaron" unicode="&#x164;" horiz-adv-x="1241" 
d="M608 1905h158l76 -187h4l145 187h178l-241 -275h-185zM426 0l252 1300h-488l33 164h1159l-32 -164h-488l-252 -1300h-184z" />
    <glyph glyph-name="tcaron" unicode="&#x165;" horiz-adv-x="628" 
d="M676 1464h192l-188 -315h-127zM143 1044h154l68 349h163l-67 -349h205l-29 -143h-205l-123 -629q-15 -76 7 -107.5t94 -31.5q28 0 90 6l-29 -139q-64 -10 -113 -10q-62 0 -105.5 14t-75.5 47.5t-37.5 89.5t7.5 140l121 620h-153z" />
    <glyph glyph-name="Tbar" unicode="&#x166;" horiz-adv-x="1241" 
d="M426 0l133 686h-326l29 143h324l92 471h-488l33 164h1159l-32 -164h-488l-92 -471h328l-29 -143h-326l-133 -686h-184z" />
    <glyph glyph-name="tbar" unicode="&#x167;" horiz-adv-x="628" 
d="M600 711l-29 -144h-204l-58 -295q-15 -76 7 -107.5t94 -31.5q28 0 90 6l-29 -139q-64 -10 -113 -10q-62 0 -105.5 14t-75.5 47.5t-37.5 89.5t7.5 140l56 286h-154l29 144h153l37 190h-153l28 143h154l68 349h163l-67 -349h205l-29 -143h-205l-37 -190h205z" />
    <glyph glyph-name="Utilde" unicode="&#x168;" horiz-adv-x="1327" 
d="M575 1655q19 96 73 144t116 48q56 0 134.5 -36.5t100.5 -36.5q49 0 62 69h123q-19 -96 -72 -144t-117 -48q-56 0 -134.5 36.5t-100.5 36.5q-29 0 -43.5 -21.5t-18.5 -47.5h-123zM1217 487q-22 -114 -71 -205.5t-127.5 -162.5t-196.5 -109.5t-267 -38.5q-271 0 -389 140
t-72 376l191 977h184l-190 -977q-36 -186 37 -269t259 -83q387 0 457 352l191 977h184z" />
    <glyph glyph-name="utilde" unicode="&#x169;" horiz-adv-x="1077" 
d="M375 1235q19 96 72.5 144t115.5 48q56 0 135 -36.5t101 -36.5q48 0 61 69h123q-19 -96 -71.5 -144t-116.5 -48q-56 0 -135 37t-101 37q-50 0 -61 -70h-123zM236 367q-22 -114 18 -183t152 -69q139 0 241.5 81.5t130.5 215.5l123 632h164l-203 -1044h-164l25 125h-4
q-61 -65 -156 -109.5t-213 -44.5q-77 0 -135 21.5t-99.5 69t-52 123.5t8.5 186l131 673h164z" />
    <glyph glyph-name="Umacron" unicode="&#x16a;" horiz-adv-x="1327" 
d="M629 1810h528l-29 -143h-528zM1217 487q-22 -114 -71 -205.5t-127.5 -162.5t-196.5 -109.5t-267 -38.5q-271 0 -389 140t-72 376l191 977h184l-190 -977q-36 -186 37 -269t259 -83q387 0 457 352l191 977h184z" />
    <glyph glyph-name="umacron" unicode="&#x16b;" horiz-adv-x="1077" 
d="M428 1391h528l-28 -144h-529zM236 367q-22 -114 18 -183t152 -69q139 0 241.5 81.5t130.5 215.5l123 632h164l-203 -1044h-164l25 125h-4q-61 -65 -156 -109.5t-213 -44.5q-77 0 -135 21.5t-99.5 69t-52 123.5t8.5 186l131 673h164z" />
    <glyph glyph-name="Ubreve" unicode="&#x16c;" horiz-adv-x="1327" 
d="M848 1610q-114 0 -171.5 69t-35.5 205h123q-11 -81 11 -116t87 -35q138 0 176 151h123q-31 -133 -115 -203.5t-198 -70.5zM1217 487q-22 -114 -71 -205.5t-127.5 -162.5t-196.5 -109.5t-267 -38.5q-271 0 -389 140t-72 376l191 977h184l-190 -977q-36 -186 37 -269
t259 -83q387 0 457 352l191 977h184z" />
    <glyph glyph-name="ubreve" unicode="&#x16d;" horiz-adv-x="1077" 
d="M647 1190q-114 0 -171.5 69t-35.5 205h123q-11 -81 11.5 -116t87.5 -35q138 0 176 151h123q-31 -133 -115.5 -203.5t-198.5 -70.5zM236 367q-22 -114 18 -183t152 -69q139 0 241.5 81.5t130.5 215.5l123 632h164l-203 -1044h-164l25 125h-4q-61 -65 -156 -109.5
t-213 -44.5q-77 0 -135 21.5t-99.5 69t-52 123.5t8.5 186l131 673h164z" />
    <glyph glyph-name="Uring" unicode="&#x16e;" horiz-adv-x="1327" 
d="M840 1567q-67 0 -107.5 40.5t-40.5 104.5q0 89 63.5 151t153.5 62q68 0 109 -40.5t41 -104.5q0 -90 -64 -151.5t-155 -61.5zM856 1647q47 0 82 35.5t35 82.5q0 37 -21.5 58.5t-56.5 21.5q-49 0 -83 -33t-34 -86q0 -35 20 -57t58 -22zM1217 487q-22 -114 -71 -205.5
t-127.5 -162.5t-196.5 -109.5t-267 -38.5q-271 0 -389 140t-72 376l191 977h184l-190 -977q-36 -186 37 -269t259 -83q387 0 457 352l191 977h184z" />
    <glyph glyph-name="uring" unicode="&#x16f;" horiz-adv-x="1077" 
d="M639 1147q-67 0 -107 40.5t-40 104.5q0 89 63.5 151t153.5 62q68 0 108.5 -40.5t40.5 -104.5q0 -90 -64 -151.5t-155 -61.5zM655 1227q47 0 82 36t35 83q0 36 -21 57.5t-57 21.5q-49 0 -82.5 -32.5t-33.5 -85.5q0 -36 19.5 -58t57.5 -22zM236 367q-22 -114 18 -183
t152 -69q139 0 241.5 81.5t130.5 215.5l123 632h164l-203 -1044h-164l25 125h-4q-61 -65 -156 -109.5t-213 -44.5q-77 0 -135 21.5t-99.5 69t-52 123.5t8.5 186l131 673h164z" />
    <glyph glyph-name="Uhungarumlaut" unicode="&#x170;" horiz-adv-x="1327" 
d="M831 1905h195l-240 -275h-133zM1122 1905h195l-240 -275h-133zM1217 487q-22 -114 -71 -205.5t-127.5 -162.5t-196.5 -109.5t-267 -38.5q-271 0 -389 140t-72 376l191 977h184l-190 -977q-36 -186 37 -269t259 -83q387 0 457 352l191 977h184z" />
    <glyph glyph-name="uhungarumlaut" unicode="&#x171;" horiz-adv-x="1077" 
d="M631 1485h194l-239 -275h-133zM922 1485h194l-239 -275h-134zM236 367q-22 -114 18 -183t152 -69q139 0 241.5 81.5t130.5 215.5l123 632h164l-203 -1044h-164l25 125h-4q-61 -65 -156 -109.5t-213 -44.5q-77 0 -135 21.5t-99.5 69t-52 123.5t8.5 186l131 673h164z" />
    <glyph glyph-name="Uogonek" unicode="&#x172;" horiz-adv-x="1327" 
d="M618 -362q-78 0 -118.5 31.5t-40.5 86.5q0 63 43 119t108 98q-18 -2 -55 -2q-271 0 -389 140t-72 376l191 977h184l-190 -977q-36 -186 37 -269t259 -83q387 0 457 352l191 977h184l-190 -977q-35 -185 -144 -312.5t-295 -176.5q-168 -118 -168 -186q0 -24 18.5 -38
t47.5 -14q50 0 104 21l-24 -123q-68 -20 -138 -20z" />
    <glyph glyph-name="uogonek" unicode="&#x173;" horiz-adv-x="1077" 
d="M236 367q-22 -114 18 -183t152 -69q139 0 241.5 81.5t130.5 215.5l123 632h164l-203 -1044h-20q-172 -118 -172 -188q0 -24 18 -38t47 -14q51 0 105 21l-25 -123q-68 -20 -137 -20q-78 0 -119 31.5t-41 86.5q0 75 61 140.5t140 103.5h-21l25 125h-4q-61 -65 -156 -109.5
t-213 -44.5q-77 0 -135 21.5t-99.5 69t-52 123.5t8.5 186l131 673h164z" />
    <glyph glyph-name="Wcircumflex" unicode="&#x174;" horiz-adv-x="1912" 
d="M891 1630l242 275h184l135 -275h-164l-71 187h-5l-151 -187h-170zM231 1464h195l59 -1200h4l535 1200h213l98 -1200h4l512 1200h195l-647 -1464h-205l-94 1255h-4l-561 -1255h-205z" />
    <glyph glyph-name="wcircumflex" unicode="&#x175;" horiz-adv-x="1521" 
d="M604 1210l242 275h184l135 -275h-164l-71 187h-4l-152 -187h-170zM129 1044h180l51 -860h5l397 860h178l61 -860h5l409 860h182l-536 -1044h-174l-68 848h-4l-395 -848h-182z" />
    <glyph glyph-name="Ycircumflex" unicode="&#x176;" horiz-adv-x="1292" 
d="M561 1630l242 275h184l135 -275h-164l-71 187h-4l-152 -187h-170zM203 1464h194l283 -723h4l567 723h203l-702 -864l-117 -600h-184l116 600z" />
    <glyph glyph-name="ycircumflex" unicode="&#x177;" horiz-adv-x="1026" 
d="M358 1210l242 275h184l136 -275h-164l-72 187h-4l-152 -187h-170zM344 10l-223 1034h180l158 -845h4l471 845h180l-625 -1075q-113 -192 -207.5 -264t-215.5 -72q-39 0 -101 11l27 139q53 -6 74 -6q174 0 278 233z" />
    <glyph glyph-name="Ydieresis" unicode="&#x178;" horiz-adv-x="1292" 
d="M623 1864h196l-39 -197h-196zM942 1864h197l-39 -197h-197zM203 1464h194l283 -723h4l567 723h203l-702 -864l-117 -600h-184l116 600z" />
    <glyph glyph-name="Zacute" unicode="&#x179;" horiz-adv-x="1282" 
d="M905 1905h195l-197 -275h-133zM295 1464h1077l-33 -164l-1112 -1132v-4h914l-33 -164h-1139l33 164l1112 1132v4h-852z" />
    <glyph glyph-name="zacute" unicode="&#x17a;" horiz-adv-x="966" 
d="M678 1485h194l-196 -275h-133zM-16 123l739 774l2 4h-555l27 143h786l-18 -98l-764 -799v-4h630l-28 -143h-844z" />
    <glyph glyph-name="Zdotaccent" unicode="&#x17b;" horiz-adv-x="1282" 
d="M782 1864h197l-39 -197h-197zM295 1464h1077l-33 -164l-1112 -1132v-4h914l-33 -164h-1139l33 164l1112 1132v4h-852z" />
    <glyph glyph-name="zdotaccent" unicode="&#x17c;" horiz-adv-x="966" 
d="M555 1444h197l-39 -197h-197zM-16 123l739 774l2 4h-555l27 143h786l-18 -98l-764 -799v-4h630l-28 -143h-844z" />
    <glyph glyph-name="Zcaron" unicode="&#x17d;" horiz-adv-x="1282" 
d="M608 1905h158l76 -187h4l145 187h178l-241 -275h-185zM295 1464h1077l-33 -164l-1112 -1132v-4h914l-33 -164h-1139l33 164l1112 1132v4h-852z" />
    <glyph glyph-name="zcaron" unicode="&#x17e;" horiz-adv-x="966" 
d="M381 1485h158l75 -187h4l146 187h178l-242 -275h-184zM-16 123l739 774l2 4h-555l27 143h786l-18 -98l-764 -799v-4h630l-28 -143h-844z" />
    <glyph glyph-name="florin" unicode="&#x192;" horiz-adv-x="708" 
d="M16 -209q-41 0 -102 12l-8 140q70 -9 92 -9q77 0 104 29t43 111l144 725h-164l6 143h186l50 244q17 87 45.5 145.5t69.5 89.5t86.5 43.5t107.5 12.5q32 0 112 -9l-32 -141q-62 6 -84 6q-73 0 -100.5 -32t-45.5 -123l-47 -236h201l-6 -143h-223l-142 -717
q-17 -87 -44.5 -145.5t-66 -89.5t-81.5 -43.5t-101 -12.5z" />
    <glyph glyph-name="uni0218" unicode="&#x218;" horiz-adv-x="1294" 
d="M737 842q74 -25 117.5 -41t99.5 -40t87.5 -45t66 -51.5t52 -64t29 -77.5t11.5 -97q0 -145 -73 -249t-200.5 -155t-297.5 -51q-182 0 -318 61.5t-206 178.5t-58 274h180q-1 -170 105 -260t301 -90q114 0 197 27t133.5 91t50.5 161q0 37 -7.5 65t-28.5 53t-46 43.5t-73 40
t-95.5 39t-126.5 43.5q-90 30 -152 56.5t-115 60t-84 71t-48 86.5t-17 111q0 100 43 179t118 129t173.5 76t212.5 26q250 0 383.5 -114.5t112.5 -342.5h-181q8 149 -71.5 221t-259.5 72q-71 0 -130 -11t-109 -35.5t-78.5 -70t-28.5 -108.5q0 -30 6 -54.5t16 -44t32 -37.5
t43.5 -31.5t62 -30.5t76 -30t95.5 -34zM494 -100h196l-31 -160q-16 -81 -71.5 -133.5t-165.5 -77.5l16 82q58 15 84 43t35 86h-94z" />
    <glyph glyph-name="uni0219" unicode="&#x219;" horiz-adv-x="991" 
d="M543 608q49 -15 77 -24t70.5 -26t67 -32.5t53.5 -39.5t44.5 -50t26.5 -62.5t11 -78.5q0 -155 -119 -239.5t-309 -84.5q-213 0 -334 103.5t-121 267.5h162q0 -97 73.5 -162t225.5 -65q119 0 187.5 43t68.5 131q0 33 -13 59t-30 42.5t-55.5 33.5t-65 25.5t-82.5 25.5
q-143 42 -195 67q-147 70 -161 206q-2 15 -2 32q0 98 56 165.5t143 97.5t198 30q195 0 301.5 -96t106.5 -234h-164q0 34 -12.5 65t-39.5 59.5t-77 45.5t-117 17q-102 0 -167.5 -36.5t-65.5 -111.5q0 -46 32.5 -77t69 -46t127.5 -42q19 -6 29 -9zM315 -100h197l-31 -160
q-16 -81 -71.5 -133.5t-165.5 -77.5l16 82q58 15 84 43t35 86h-94z" />
    <glyph glyph-name="uni021A" unicode="&#x21a;" horiz-adv-x="1241" 
d="M426 0l252 1300h-488l33 164h1159l-32 -164h-488l-252 -1300h-184zM399 -100h197l-31 -160q-16 -81 -71.5 -133.5t-165.5 -77.5l16 82q58 15 84 43t35 86h-94z" />
    <glyph glyph-name="uni021B" unicode="&#x21b;" horiz-adv-x="628" 
d="M143 1044h154l68 349h163l-67 -349h205l-29 -143h-205l-123 -629q-15 -76 7 -107.5t94 -31.5q28 0 90 6l-29 -139q-64 -10 -113 -10q-62 0 -105.5 14t-75.5 47.5t-37.5 89.5t7.5 140l121 620h-153zM201 -72h196l-30 -159q-16 -81 -72 -133.5t-166 -77.5l16 82
q58 15 84 43t35 86h-94z" />
    <glyph glyph-name="uni0237" unicode="&#x237;" horiz-adv-x="387" 
d="M-123 -369q-44 0 -106 11l26 139q53 -6 82 -6q47 0 75.5 36t45.5 123l215 1110h164l-219 -1126q-29 -149 -106.5 -218t-176.5 -69z" />
    <glyph glyph-name="circumflex" unicode="&#x2c6;" horiz-adv-x="724" 
d="M215 1210l242 275h184l135 -275h-164l-71 187h-4l-152 -187h-170z" />
    <glyph glyph-name="caron" unicode="&#x2c7;" horiz-adv-x="724" 
d="M268 1485h158l76 -187h4l145 187h178l-241 -275h-185z" />
    <glyph glyph-name="breve" unicode="&#x2d8;" horiz-adv-x="684" 
d="M465 1190q-114 0 -171.5 69t-35.5 205h123q-11 -81 11 -116t87 -35q138 0 176 151h123q-31 -133 -115 -203.5t-198 -70.5z" />
    <glyph glyph-name="dotaccent" unicode="&#x2d9;" horiz-adv-x="362" 
d="M262 1444h197l-39 -197h-197z" />
    <glyph glyph-name="ring" unicode="&#x2da;" horiz-adv-x="522" 
d="M377 1126q-67 0 -107.5 41t-40.5 105q0 89 63.5 151t153.5 62q68 0 109 -41t41 -105q0 -90 -64 -151.5t-155 -61.5zM393 1206q47 0 82 36t35 83q0 37 -21.5 58.5t-56.5 21.5q-49 0 -83 -33t-34 -86q0 -36 20 -58t58 -22z" />
    <glyph glyph-name="ogonek" unicode="&#x2db;" horiz-adv-x="483" 
d="M96 -362q-78 0 -118.5 31.5t-40.5 86.5q0 75 60.5 140.5t139.5 103.5h123q-172 -118 -172 -188q0 -24 18.5 -38t47.5 -14q50 0 104 21l-25 -123q-68 -20 -137 -20z" />
    <glyph glyph-name="tilde" unicode="&#x2dc;" horiz-adv-x="735" 
d="M219 1235q19 96 73 144t116 48q56 0 134.5 -36.5t100.5 -36.5q49 0 62 69h122q-19 -96 -71.5 -144t-116.5 -48q-56 0 -135 37t-101 37q-50 0 -61 -70h-123z" />
    <glyph glyph-name="hungarumlaut" unicode="&#x2dd;" horiz-adv-x="737" 
d="M373 1485h194l-239 -275h-133zM664 1485h194l-240 -275h-133z" />
    <glyph glyph-name="gravecomb" unicode="&#x300;" 
d="M340 1485l66 -275h-134l-127 275h195z" />
    <glyph glyph-name="acutecomb" unicode="&#x301;" 
d="M395 1485h195l-197 -275h-133z" />
    <glyph glyph-name="uni0302" unicode="&#x302;" 
d="M215 1210l242 275h184l135 -275h-164l-71 187h-4l-152 -187h-170z" />
    <glyph glyph-name="tildecomb" unicode="&#x303;" 
d="M219 1235q19 96 73 144t116 48q56 0 134.5 -36.5t100.5 -36.5q49 0 62 69h122q-19 -96 -71.5 -144t-116.5 -48q-56 0 -135 37t-101 37q-50 0 -61 -70h-123z" />
    <glyph glyph-name="uni0304" unicode="&#x304;" 
d="M250 1391h528l-28 -144h-529z" />
    <glyph glyph-name="uni0306" unicode="&#x306;" 
d="M465 1190q-114 0 -171.5 69t-35.5 205h123q-11 -81 11 -116t87 -35q138 0 176 151h123q-31 -133 -115 -203.5t-198 -70.5z" />
    <glyph glyph-name="uni0307" unicode="&#x307;" 
d="M262 1444h197l-39 -197h-197z" />
    <glyph glyph-name="uni0308" unicode="&#x308;" 
d="M264 1444h197l-39 -197h-197zM584 1444h196l-39 -197h-196z" />
    <glyph glyph-name="uni030A" unicode="&#x30a;" 
d="M377 1147q-67 0 -107.5 40.5t-40.5 104.5q0 89 63.5 151t153.5 62q68 0 109 -40.5t41 -104.5q0 -90 -64 -151.5t-155 -61.5zM393 1227q47 0 82 36t35 83q0 36 -21 57.5t-57 21.5q-49 0 -83 -32.5t-34 -85.5q0 -36 20 -58t58 -22z" />
    <glyph glyph-name="uni030B" unicode="&#x30b;" 
d="M373 1485h194l-239 -275h-133zM664 1485h194l-240 -275h-133z" />
    <glyph glyph-name="uni030C" unicode="&#x30c;" 
d="M268 1485h158l76 -187h4l145 187h178l-241 -275h-185z" />
    <glyph glyph-name="uni0312" unicode="&#x312;" 
d="M420 1210h-197l35 181q19 94 77.5 151.5t166.5 85.5l-19 -94q-59 -18 -86 -48.5t-37 -94.5h95z" />
    <glyph glyph-name="uni0326" unicode="&#x326;" 
d="M-41 -100h197l-31 -160q-16 -81 -72 -133.5t-166 -77.5l17 82q58 15 84 43t35 86h-95z" />
    <glyph glyph-name="uni0327" unicode="&#x327;" 
d="M311 0l-116 -113l-2 -4q71 10 122.5 -16t51.5 -86q0 -82 -69 -134.5t-177 -52.5q-117 0 -207 64l53 51q78 -31 137 -31q54 0 86.5 26t32.5 67q0 47 -69 47q-48 0 -86 -15l-19 39l160 158h102z" />
    <glyph glyph-name="uni0328" unicode="&#x328;" 
d="M96 -362q-78 0 -118.5 31.5t-40.5 86.5q0 75 60.5 140.5t139.5 103.5h123q-172 -118 -172 -188q0 -24 18.5 -38t47.5 -14q50 0 104 21l-25 -123q-68 -20 -137 -20z" />
    <glyph glyph-name="uni0335" unicode="&#x335;" 
d="M977 829l-29 -143h-835l28 143h836z" />
    <glyph glyph-name="uni0336" unicode="&#x336;" 
d="M1163 829l-35 -184h-1024l35 184h1024z" />
    <glyph glyph-name="uni0337" unicode="&#x337;" 
d="M-10 53l1206 1014l57 -72l-1208 -1013z" />
    <glyph glyph-name="uni0338" unicode="&#x338;" 
d="M-10 53l1206 1014l57 -72l-1208 -1013z" />
    <glyph glyph-name="uni0394" unicode="&#x394;" horiz-adv-x="1282" 
d="M-68 0l31 160l748 1304h219l248 -1304l-31 -160h-1215zM780 1294l-624 -1130h827l-186 1130h-17z" />
    <glyph glyph-name="uni03A9" unicode="&#x3a9;" horiz-adv-x="1630" 
d="M-23 0l33 164h336q-203 151 -203 444q0 172 66.5 333.5t179.5 283t272.5 195t335.5 73.5q268 0 424 -159.5t156 -418.5q0 -217 -107 -425.5t-284 -325.5h295l-33 -164h-592l29 137q235 111 369.5 303.5t134.5 438.5q0 217 -106 331.5t-304 114.5q-144 0 -267.5 -62
t-205.5 -164.5t-128 -234.5t-46 -272q0 -91 19 -162.5t57 -125t81 -91t105 -76.5l-25 -137h-592z" />
    <glyph glyph-name="uni03BC" unicode="&#x3bc;" horiz-adv-x="1089" 
d="M-59 -362l274 1406h164l-131 -677q-48 -252 178 -252q135 0 237.5 85t127.5 212l122 632h164l-203 -1044h-163l24 125h-4q-56 -63 -146 -108.5t-192 -45.5q-141 0 -209 82l-80 -415h-163z" />
    <glyph glyph-name="pi" unicode="&#x3c0;" horiz-adv-x="1132" 
d="M106 0l175 901h-164l26 143h1035l-27 -143h-156l-121 -629q-15 -83 -1.5 -111t71.5 -28q25 0 55 6l-26 -139q-43 -14 -117 -14q-53 0 -85 12t-54 43.5t-21 87.5t15 143l120 629h-387l-174 -901h-164z" />
    <glyph glyph-name="Wgrave" unicode="&#x1e80;" horiz-adv-x="1912" 
d="M1155 1905l66 -275h-134l-126 275h194zM231 1464h195l59 -1200h4l535 1200h213l98 -1200h4l512 1200h195l-647 -1464h-205l-94 1255h-4l-561 -1255h-205z" />
    <glyph glyph-name="wgrave" unicode="&#x1e81;" horiz-adv-x="1521" 
d="M868 1485l66 -275h-133l-127 275h194zM129 1044h180l51 -860h5l397 860h178l61 -860h5l409 860h182l-536 -1044h-174l-68 848h-4l-395 -848h-182z" />
    <glyph glyph-name="Wacute" unicode="&#x1e82;" horiz-adv-x="1912" 
d="M1241 1905h195l-197 -275h-133zM231 1464h195l59 -1200h4l535 1200h213l98 -1200h4l512 1200h195l-647 -1464h-205l-94 1255h-4l-561 -1255h-205z" />
    <glyph glyph-name="wacute" unicode="&#x1e83;" horiz-adv-x="1521" 
d="M954 1485h195l-197 -275h-133zM129 1044h180l51 -860h5l397 860h178l61 -860h5l409 860h182l-536 -1044h-174l-68 848h-4l-395 -848h-182z" />
    <glyph glyph-name="Wdieresis" unicode="&#x1e84;" horiz-adv-x="1912" 
d="M952 1864h197l-39 -197h-197zM1272 1864h196l-38 -197h-197zM231 1464h195l59 -1200h4l535 1200h213l98 -1200h4l512 1200h195l-647 -1464h-205l-94 1255h-4l-561 -1255h-205z" />
    <glyph glyph-name="wdieresis" unicode="&#x1e85;" horiz-adv-x="1521" 
d="M666 1444h196l-39 -197h-196zM985 1444h197l-39 -197h-197zM129 1044h180l51 -860h5l397 860h178l61 -860h5l409 860h182l-536 -1044h-174l-68 848h-4l-395 -848h-182z" />
    <glyph glyph-name="Ygrave" unicode="&#x1ef2;" horiz-adv-x="1292" 
d="M825 1905l66 -275h-133l-127 275h194zM203 1464h194l283 -723h4l567 723h203l-702 -864l-117 -600h-184l116 600z" />
    <glyph glyph-name="ygrave" unicode="&#x1ef3;" horiz-adv-x="1026" 
d="M623 1485l65 -275h-133l-127 275h195zM344 10l-223 1034h180l158 -845h4l471 845h180l-625 -1075q-113 -192 -207.5 -264t-215.5 -72q-39 0 -101 11l27 139q53 -6 74 -6q174 0 278 233z" />
    <glyph glyph-name="uni2000" unicode="&#x2000;" horiz-adv-x="1187" 
 />
    <glyph glyph-name="uni2001" unicode="&#x2001;" horiz-adv-x="2211" 
 />
    <glyph glyph-name="uni2002" unicode="&#x2002;" horiz-adv-x="1187" 
 />
    <glyph glyph-name="uni2003" unicode="&#x2003;" horiz-adv-x="2211" 
 />
    <glyph glyph-name="uni2004" unicode="&#x2004;" horiz-adv-x="681" 
 />
    <glyph glyph-name="uni2005" unicode="&#x2005;" horiz-adv-x="512" 
 />
    <glyph glyph-name="uni2006" unicode="&#x2006;" horiz-adv-x="342" 
 />
    <glyph glyph-name="uni2007" unicode="&#x2007;" horiz-adv-x="1310" 
 />
    <glyph glyph-name="uni2008" unicode="&#x2008;" horiz-adv-x="401" 
 />
    <glyph glyph-name="uni2009" unicode="&#x2009;" horiz-adv-x="409" 
 />
    <glyph glyph-name="uni200A" unicode="&#x200a;" horiz-adv-x="256" 
 />
    <glyph glyph-name="uni200B" unicode="&#x200b;" 
 />
    <glyph glyph-name="endash" unicode="&#x2013;" horiz-adv-x="1187" 
d="M98 604h1024l-32 -164h-1024z" />
    <glyph glyph-name="emdash" unicode="&#x2014;" horiz-adv-x="2211" 
d="M98 602h2048l-32 -164h-2048z" />
    <glyph glyph-name="quoteleft" unicode="&#x2018;" horiz-adv-x="411" 
d="M403 1008h-196l39 196q11 51 24.5 86.5t40 73t72 62.5t111.5 38l-21 -102q-58 -19 -85.5 -53t-39.5 -105h94z" />
    <glyph glyph-name="quoteright" unicode="&#x2019;" horiz-adv-x="411" 
d="M195 1008l20 102q58 19 85.5 52.5t39.5 105.5h-94l39 196h196l-39 -196q-10 -51 -23.5 -87t-40 -73t-72 -62t-111.5 -38z" />
    <glyph glyph-name="quotesinglbase" unicode="&#x201a;" horiz-adv-x="411" 
d="M-51 -260l20 102q58 19 85.5 52.5t39.5 105.5h-94l39 197h197l-39 -197q-8 -40 -17.5 -69.5t-27.5 -62t-43.5 -55.5t-66 -42.5t-93.5 -30.5z" />
    <glyph glyph-name="quotedblleft" unicode="&#x201c;" horiz-adv-x="712" 
d="M403 1008h-196l39 196q11 51 24.5 86.5t40 73t72 62.5t111.5 38l-21 -102q-58 -19 -85.5 -53t-39.5 -105h94zM705 1008h-197l39 196q11 51 24.5 86.5t40 73t72 62.5t111.5 38l-21 -102q-58 -19 -85.5 -53t-39.5 -105h94z" />
    <glyph glyph-name="quotedblright" unicode="&#x201d;" horiz-adv-x="712" 
d="M195 1008l20 102q58 19 85.5 52.5t39.5 105.5h-94l39 196h196l-39 -196q-10 -51 -23.5 -87t-40 -73t-72 -62t-111.5 -38zM496 1008l20 102q58 19 85.5 52.5t39.5 105.5h-94l39 196h196l-39 -196q-10 -51 -23.5 -87t-40 -73t-72 -62t-111.5 -38z" />
    <glyph glyph-name="quotedblbase" unicode="&#x201e;" horiz-adv-x="714" 
d="M252 -260l20 102q58 19 85.5 52.5t39.5 105.5h-94l39 197h197l-39 -197q-8 -40 -17.5 -69.5t-27.5 -62t-43.5 -55.5t-66 -42.5t-93.5 -30.5zM-51 -260l20 102q58 19 85.5 52.5t39.5 105.5h-94l39 197h197l-39 -197q-8 -40 -17.5 -69.5t-27.5 -62t-43.5 -55.5t-66 -42.5
t-93.5 -30.5z" />
    <glyph glyph-name="dagger" unicode="&#x2020;" horiz-adv-x="1083" 
d="M520 885h-360l33 164h360l80 415h184l-80 -415h359l-33 -164h-358l-242 -1247h-184z" />
    <glyph glyph-name="daggerdbl" unicode="&#x2021;" horiz-adv-x="1083" 
d="M393 229h-360l33 164h360l94 492h-360l33 164h360l80 415h184l-80 -415h359l-33 -164h-358l-95 -492h359l-33 -164h-358l-115 -591h-184z" />
    <glyph glyph-name="bullet" unicode="&#x2022;" horiz-adv-x="655" 
d="M76 389l88 451h450l-88 -451h-450z" />
    <glyph glyph-name="ellipsis" unicode="&#x2026;" horiz-adv-x="1204" 
d="M39 197h197l-39 -197h-197zM440 197h197l-39 -197h-197zM842 197h196l-39 -197h-196z" />
    <glyph glyph-name="perthousand" unicode="&#x2030;" horiz-adv-x="2443" 
d="M432 633q-134 0 -204 84t-70 219q0 99 30 191t82.5 162t131 112.5t169.5 42.5q134 0 204.5 -84t70.5 -219q0 -133 -50.5 -248.5t-146.5 -187.5t-217 -72zM274 0l1063 1415h164l-1063 -1415h-164zM440 772q79 0 140 57t90.5 139.5t29.5 170.5q0 78 -34.5 122t-102.5 44
q-79 0 -140 -57t-90.5 -139.5t-29.5 -170.5q0 -78 34.5 -122t102.5 -44zM1956 -29q-134 0 -204.5 84t-70.5 219q0 133 50.5 248.5t146.5 187.5t217 72q134 0 204.5 -84t70.5 -219q0 -133 -50.5 -248.5t-146.5 -187.5t-217 -72zM1214 -29q-134 0 -204 84t-70 219
q0 133 50.5 248.5t146.5 187.5t217 72q134 0 204 -84t70 -219q0 -133 -50.5 -248.5t-146.5 -187.5t-217 -72zM1964 111q79 0 140 57t90.5 139t29.5 170q0 78 -34.5 122t-102.5 44q-79 0 -140 -57t-90.5 -139.5t-29.5 -170.5q0 -78 34 -121.5t103 -43.5zM1223 111
q79 0 140 57t90.5 139t29.5 170q0 78 -34.5 122t-102.5 44q-79 0 -140.5 -57t-91 -139.5t-29.5 -170.5q0 -77 34.5 -121t103.5 -44z" />
    <glyph glyph-name="guilsinglleft" unicode="&#x2039;" horiz-adv-x="591" 
d="M61 424l37 194l473 330l-36 -198l-357 -242v-4l262 -240l-34 -172z" />
    <glyph glyph-name="guilsinglright" unicode="&#x203a;" horiz-adv-x="591" 
d="M530 616l-36 -194l-474 -330l37 199l357 241v5l-262 239l34 172z" />
    <glyph glyph-name="fraction" unicode="&#x2044;" horiz-adv-x="346" 
d="M725 1464h188l-1212 -1464h-188z" />
    <glyph glyph-name="uni2070" unicode="&#x2070;" horiz-adv-x="813" 
d="M451 739q-138 0 -209.5 86t-71.5 232q0 144 57.5 269.5t162 202.5t231.5 77q137 0 205.5 -86t68.5 -232q0 -144 -54.5 -269t-157.5 -202.5t-232 -77.5zM467 866q81 0 143.5 66.5t91.5 160.5t29 193q0 193 -131 193q-80 0 -142.5 -65t-93 -159.5t-30.5 -195.5
q0 -193 133 -193z" />
    <glyph glyph-name="uni2074" unicode="&#x2074;" horiz-adv-x="765" 
d="M629 745h-162l35 185h-387l30 153l482 494h161l-98 -514h119l-27 -133h-118zM592 1389l-318 -326h254z" />
    <glyph glyph-name="uni2075" unicode="&#x2075;" horiz-adv-x="790" 
d="M453 727q-149 0 -224 78.5t-61 189.5h164q-6 -63 26 -99t107 -36q89 0 141.5 55t52.5 140q0 133 -127 133q-94 0 -165 -68h-156l178 457h496l-25 -133h-377l-80 -201l-2 -2q84 68 197 68q107 0 167 -63.5t60 -174.5q0 -151 -104 -247.5t-268 -96.5z" />
    <glyph glyph-name="uni2076" unicode="&#x2076;" horiz-adv-x="860" 
d="M496 733q-135 0 -207 83.5t-72 232.5q0 109 31 209t86.5 177t139.5 123t183 46q114 0 180.5 -66t63.5 -164h-166q2 47 -23.5 74t-78.5 27q-83 0 -146.5 -74t-83.5 -174l-2 -10l9 -3q85 95 221 95q108 0 169.5 -61.5t61.5 -166.5q0 -141 -103 -244.5t-263 -103.5zM502 860
q85 0 140.5 57t55.5 138q0 61 -36 93t-101 32q-83 0 -136.5 -50t-53.5 -133q0 -64 34.5 -100.5t96.5 -36.5z" />
    <glyph glyph-name="uni2077" unicode="&#x2077;" horiz-adv-x="661" 
d="M244 1577h596l-25 -121q-160 -115 -277.5 -310.5t-158.5 -400.5h-170q38 194 166 394.5t264 302.5v2h-422z" />
    <glyph glyph-name="uni2078" unicode="&#x2078;" horiz-adv-x="741" 
d="M412 737q-127 0 -206 56.5t-79 160.5q0 55 22 100t58 74t64 44.5t59 27.5v2q-88 52 -88 139q0 112 98.5 189.5t241.5 77.5q113 0 182.5 -49.5t69.5 -135.5q0 -48 -18.5 -89.5t-48.5 -68t-50.5 -40.5t-40.5 -23v-2q123 -57 123 -166q0 -129 -110 -213t-277 -84zM512 1253
q73 0 118.5 39.5t45.5 104.5q0 42 -30.5 66t-86.5 24q-73 0 -119.5 -40.5t-46.5 -103.5q0 -43 31 -66.5t88 -23.5zM436 864q86 0 142.5 48t56.5 120q0 50 -37.5 79.5t-105.5 29.5q-88 0 -144.5 -47.5t-56.5 -120.5q0 -50 38.5 -79.5t106.5 -29.5z" />
    <glyph glyph-name="uni2079" unicode="&#x2079;" horiz-adv-x="866" 
d="M463 739q-117 0 -183.5 64t-64.5 166h166q-3 -101 98 -101q83 0 146.5 74t83.5 174l2 10l-4 2q-84 -94 -222 -94q-109 0 -170 65t-61 179q0 134 104 233t263 99q136 0 207 -83.5t71 -240.5q0 -104 -31 -202t-86 -175t-138.5 -123.5t-180.5 -46.5zM543 1163q85 0 143.5 57
t58.5 136q0 59 -34.5 93t-96.5 34q-85 0 -140.5 -57t-55.5 -138q0 -61 33 -93t92 -32z" />
    <glyph glyph-name="uni2080" unicode="&#x2080;" horiz-adv-x="813" 
d="M264 -221q-138 0 -209 85.5t-71 231.5q0 144 57 269.5t161.5 202.5t231.5 77q137 0 206 -85.5t69 -231.5q0 -144 -55 -269t-158 -202.5t-232 -77.5zM281 -94q81 0 143.5 66.5t91.5 160.5t29 193q0 192 -131 192q-61 0 -112.5 -38t-84.5 -99t-51.5 -135t-18.5 -148
q0 -192 134 -192z" />
    <glyph glyph-name="uni2081" unicode="&#x2081;" horiz-adv-x="544" 
d="M295 627h131l-162 -832h-160l115 590q-49 -33 -182 -33l24 129q200 3 234 146z" />
    <glyph glyph-name="uni2082" unicode="&#x2082;" horiz-adv-x="768" 
d="M203 330h-158q27 143 123.5 230t245.5 87q115 0 181.5 -53t66.5 -154q0 -50 -19 -97.5t-45 -81t-67 -67.5t-69 -52.5t-67 -41.5q-104 -62 -153 -97.5t-76 -72.5v-2h395l-26 -133h-613q7 36 18 67.5t28.5 59.5t33 50t42 45t43.5 37.5t49 35t48 30.5t52 30t49 28
q107 63 158 116t51 122q0 98 -105 98q-154 0 -186 -184z" />
    <glyph glyph-name="uni2083" unicode="&#x2083;" horiz-adv-x="839" 
d="M305 -223q-164 0 -242.5 83t-50.5 224h160q-16 -86 14.5 -130t120.5 -44t139.5 41t49.5 110q0 57 -35 81t-103 24h-63l22 121h60q76 0 119 36t43 93q0 98 -113 98q-75 0 -119 -37.5t-55 -101.5h-158q21 117 119.5 194.5t241.5 77.5q118 0 184 -54.5t66 -148.5
q0 -150 -162 -208v-3q119 -41 119 -167t-99.5 -207.5t-257.5 -81.5z" />
    <glyph glyph-name="uni2084" unicode="&#x2084;" horiz-adv-x="765" 
d="M444 -205h-161l34 185h-387l31 153l481 494h162l-98 -514h119l-27 -133h-119zM408 438l-318 -325h254z" />
    <glyph glyph-name="uni2085" unicode="&#x2085;" horiz-adv-x="790" 
d="M268 -223q-149 0 -223.5 78.5t-60.5 189.5h163q-6 -63 26.5 -99t107.5 -36q89 0 141.5 54.5t52.5 139.5q0 66 -32.5 100t-94.5 34q-95 0 -166 -68h-155l178 457h495l-24 -133h-377l-80 -201l-2 -2q83 67 197 67q107 0 167 -63t60 -174q0 -151 -104.5 -247.5t-268.5 -96.5
z" />
    <glyph glyph-name="uni2086" unicode="&#x2086;" horiz-adv-x="860" 
d="M311 -223q-135 0 -206.5 83t-71.5 232q0 109 31 209t86.5 177t139.5 123t183 46q114 0 180.5 -65.5t63.5 -163.5h-166q2 46 -23.5 73t-78.5 27q-83 0 -146.5 -74t-83.5 -174l-2 -10l8 -2q84 94 221 94q108 0 170 -61t62 -166q0 -141 -103.5 -244.5t-263.5 -103.5z
M317 -96q85 0 141 56.5t56 137.5q0 61 -36 93t-101 32q-83 0 -137 -49.5t-54 -132.5q0 -64 34.5 -100.5t96.5 -36.5z" />
    <glyph glyph-name="uni2087" unicode="&#x2087;" horiz-adv-x="661" 
d="M59 627h596l-24 -121q-160 -115 -277.5 -310.5t-158.5 -400.5h-170q38 194 166 394.5t264 302.5v2h-422z" />
    <glyph glyph-name="uni2088" unicode="&#x2088;" horiz-adv-x="741" 
d="M225 -223q-127 0 -205.5 56.5t-78.5 160.5q0 44 15.5 83t37.5 64.5t52 47t52 32t45 19.5v2q-88 52 -88 139q0 112 98.5 189t241.5 77q113 0 182.5 -49t69.5 -135q0 -48 -18.5 -89.5t-48.5 -68t-50.5 -40.5t-40.5 -23v-2q123 -57 123 -166q0 -129 -110 -213t-277 -84z
M326 293q74 0 118.5 39.5t44.5 103.5q0 42 -30 66t-86 24q-73 0 -119.5 -40t-46.5 -103q0 -43 31 -66.5t88 -23.5zM250 -96q86 0 142.5 48t56.5 120q0 50 -38 79t-106 29q-88 0 -144.5 -47.5t-56.5 -120.5q0 -50 39 -79t107 -29z" />
    <glyph glyph-name="uni2089" unicode="&#x2089;" horiz-adv-x="866" 
d="M276 -223q-117 0 -183 63.5t-64 165.5h166q-3 -100 98 -100q83 0 146 73.5t83 174.5l2 10l-4 2q-84 -94 -221 -94q-109 0 -170 64.5t-61 178.5q0 134 103.5 233t262.5 99q136 0 207.5 -83t71.5 -240q0 -104 -31 -202t-86.5 -175t-139 -123.5t-180.5 -46.5zM356 201
q85 0 144 56.5t59 135.5q0 59 -34.5 93t-96.5 34q-85 0 -141 -56.5t-56 -137.5q0 -61 33 -93t92 -32z" />
    <glyph glyph-name="Euro" unicode="&#x20ac;" horiz-adv-x="1320" 
d="M827 633l-24 -123h-406q0 -375 273 -375q143 0 239.5 97t143.5 276h186q-74 -251 -228 -394t-372 -143q-207 0 -317.5 138.5t-110.5 400.5h-129l24 123h111q6 63 21 125h-109l23 123h118q84 244 257.5 397.5t385.5 153.5q203 0 313 -132t93 -360h-180q0 328 -240 328
q-139 0 -254 -106.5t-182 -280.5h409l-22 -123h-424q-13 -53 -23 -125h424z" />
    <glyph glyph-name="trademark" unicode="&#x2122;" horiz-adv-x="1320" 
d="M782 1464h183l43 -411h4l205 411h180l-111 -573h-121l82 424h-4l-209 -424h-112l-43 424h-5l-81 -424h-121zM383 1354h-180l20 110h488l-21 -110h-180l-90 -463h-127z" />
    <glyph glyph-name="Omega" unicode="&#x2126;" horiz-adv-x="1630" 
d="M-23 0l33 164h336q-203 151 -203 444q0 172 66.5 333.5t179.5 283t272.5 195t335.5 73.5q268 0 424 -159.5t156 -418.5q0 -217 -107 -425.5t-284 -325.5h295l-33 -164h-592l29 137q235 111 369.5 303.5t134.5 438.5q0 217 -106 331.5t-304 114.5q-144 0 -267.5 -62
t-205.5 -164.5t-128 -234.5t-46 -272q0 -91 19 -162.5t57 -125t81 -91t105 -76.5l-25 -137h-592z" />
    <glyph glyph-name="oneeighth" unicode="&#x215b;" horiz-adv-x="1632" 
d="M457 1464h131l-162 -831h-160l115 590q-49 -33 -182 -33l24 129q201 3 234 145zM1270 1464h188l-1212 -1464h-189zM1155 -18q-127 0 -206 56.5t-79 160.5q0 55 22 100t58 73.5t64 44t59 27.5v2q-88 52 -88 140q0 112 98.5 189t241.5 77q113 0 182.5 -49t69.5 -135
q0 -39 -13.5 -74.5t-31.5 -59t-42.5 -43.5t-40 -29t-30.5 -16v-2q123 -57 123 -165q0 -129 -110 -213t-277 -84zM1255 498q74 0 119 39.5t45 103.5q0 42 -30 66t-86 24q-73 0 -119.5 -40t-46.5 -103q0 -43 30.5 -66.5t87.5 -23.5zM1180 109q86 0 142 47.5t56 119.5
q0 50 -37.5 79.5t-105.5 29.5q-88 0 -144.5 -47.5t-56.5 -120.5q0 -50 39 -79t107 -29z" />
    <glyph glyph-name="threeeighths" unicode="&#x215c;" horiz-adv-x="1886" 
d="M467 616q-164 0 -242.5 83.5t-50.5 224.5h160q-16 -86 14.5 -130t120.5 -44t139 41t49 110q0 57 -34.5 81t-102.5 24h-63l22 120h60q76 0 118.5 36t42.5 93q0 99 -112 99q-75 0 -119 -38t-55 -102h-158q21 117 119 195t241 78q118 0 184 -54.5t66 -148.5
q0 -152 -161 -209v-2q118 -41 118 -168q0 -126 -99 -207.5t-257 -81.5zM1565 1464h188l-1212 -1464h-189zM1409 -18q-127 0 -206 56.5t-79 160.5q0 55 22 100t58 73.5t64 44t59 27.5v2q-88 52 -88 140q0 112 98.5 189t241.5 77q113 0 182.5 -49t69.5 -135q0 -39 -13.5 -74.5
t-31.5 -59t-42.5 -43.5t-40 -29t-30.5 -16v-2q123 -57 123 -165q0 -129 -110 -213t-277 -84zM1509 498q74 0 119 39.5t45 103.5q0 42 -30.5 66t-86.5 24q-73 0 -119 -40t-46 -103q0 -43 30.5 -66.5t87.5 -23.5zM1434 109q86 0 142 47.5t56 119.5q0 50 -37.5 79.5
t-105.5 29.5q-88 0 -144.5 -47.5t-56.5 -120.5q0 -50 39 -79t107 -29z" />
    <glyph glyph-name="fiveeighths" unicode="&#x215d;" horiz-adv-x="1837" 
d="M430 614q-149 0 -224 79t-61 190h164q-6 -63 26 -99t107 -36q89 0 142 54.5t53 139.5q0 133 -127 133q-96 0 -166 -67h-156l179 456h495l-24 -133h-377l-80 -201l-2 -2q84 68 196 68q107 0 167.5 -63.5t60.5 -174.5q0 -151 -104.5 -247.5t-268.5 -96.5zM1516 1464h188
l-1212 -1464h-189zM1360 -18q-127 0 -206 56.5t-79 160.5q0 55 22 100t58 73.5t64 44t59 27.5v2q-88 52 -88 140q0 112 98.5 189t241.5 77q113 0 182.5 -49t69.5 -135q0 -39 -13.5 -74.5t-31.5 -59t-42.5 -43.5t-40 -29t-30.5 -16v-2q123 -57 123 -165q0 -129 -110 -213
t-277 -84zM1460 498q74 0 119 39.5t45 103.5q0 42 -30.5 66t-86.5 24q-73 0 -119.5 -40t-46.5 -103q0 -43 31 -66.5t88 -23.5zM1384 109q86 0 142.5 47.5t56.5 119.5q0 50 -37.5 79.5t-105.5 29.5q-88 0 -144.5 -47.5t-56.5 -120.5q0 -50 38.5 -79t106.5 -29z" />
    <glyph glyph-name="seveneighths" unicode="&#x215e;" horiz-adv-x="1646" 
d="M221 1464h596l-24 -121q-160 -115 -278 -310t-159 -400h-170q38 194 166 394t264 302v2h-421zM1284 1464h189l-1213 -1464h-188zM1169 -18q-127 0 -205.5 56.5t-78.5 160.5q0 44 15.5 83t37.5 64t52 46.5t52 32t45 19.5v2q-88 52 -88 140q0 112 98.5 189t241.5 77
q113 0 182.5 -49t69.5 -135q0 -48 -18.5 -90t-48 -68.5t-50.5 -40.5t-40 -23v-2q122 -56 122 -165q0 -129 -110 -213t-277 -84zM1270 498q74 0 119 39.5t45 103.5q0 42 -30.5 66t-86.5 24q-73 0 -119.5 -40t-46.5 -103q0 -43 31 -66.5t88 -23.5zM1194 109q86 0 142.5 47.5
t56.5 119.5q0 50 -38 79.5t-106 29.5q-88 0 -144 -47t-56 -121q0 -50 38.5 -79t106.5 -29z" />
    <glyph glyph-name="arrowleft" unicode="&#x2190;" horiz-adv-x="1579" 
d="M512 100l-406 553l619 553l92 -100l-432 -381h1151l-29 -143h-1151l285 -381z" />
    <glyph glyph-name="arrowup" unicode="&#x2191;" horiz-adv-x="1269" 
d="M1262 903l-121 -110l-312 358l-225 -1151h-143l225 1151l-450 -358l-80 110l653 512z" />
    <glyph glyph-name="arrowright" unicode="&#x2192;" horiz-adv-x="1579" 
d="M901 100l-90 101l432 381h-1149l29 143h1149l-285 381l129 100l406 -553z" />
    <glyph glyph-name="arrowdown" unicode="&#x2193;" horiz-adv-x="1269" 
d="M1169 430l-653 -512l-453 512l121 111l312 -359l225 1151h143l-225 -1151l451 359z" />
    <glyph glyph-name="arrowboth" unicode="&#x2194;" horiz-adv-x="2375" 
d="M106 653l619 553l92 -100l-432 -381h1683l-284 381l129 100l405 -553l-618 -553l-92 101l432 381h-1684l285 -381l-129 -101z" />
    <glyph glyph-name="arrowupdn" unicode="&#x2195;" horiz-adv-x="1269" 
d="M8 150l121 110l311 -358l283 1444l-451 -359l-79 111l653 512l452 -512l-120 -111l-312 359l-282 -1444l450 358l80 -110l-653 -512z" />
    <glyph glyph-name="uni2196" unicode="&#x2196;" horiz-adv-x="1220" 
d="M965 143l-656 815l-100 -514h-143l147 758h758l-27 -143h-514l655 -813z" />
    <glyph glyph-name="uni2197" unicode="&#x2197;" horiz-adv-x="1220" 
d="M1124 444h-143l100 514l-972 -815l-80 103l970 813h-514l29 143h758z" />
    <glyph glyph-name="uni2198" unicode="&#x2198;" horiz-adv-x="1220" 
d="M303 117l27 143h514l-656 813l121 103l656 -816l100 514h143l-147 -757h-758z" />
    <glyph glyph-name="uni2199" unicode="&#x2199;" horiz-adv-x="1220" 
d="M2 117l148 757h143l-100 -514l972 816l82 -103l-973 -813h514l-28 -143h-758z" />
    <glyph glyph-name="partialdiff" unicode="&#x2202;" horiz-adv-x="1165" 
d="M944 795q-2 162 -54.5 270.5t-144 166.5t-233.5 89l27 143q281 -53 420 -210t139 -433q0 -167 -49 -322t-132.5 -271.5t-204 -186.5t-255.5 -70q-168 0 -271.5 98.5t-103.5 280.5q0 122 47.5 235.5t127 196.5t187.5 133t224 50q212 0 276 -170zM471 115q111 0 209.5 65.5
t156.5 173t58 224.5q0 113 -58 178t-171 65q-111 0 -208 -63t-153.5 -169t-56.5 -227q0 -124 60 -185.5t163 -61.5z" />
    <glyph glyph-name="emptyset" unicode="&#x2205;" horiz-adv-x="1673" 
d="M731 -29q-142 0 -260.5 44t-202.5 126l-159 -133l-58 72l158 131q-107 151 -107 358q0 172 74.5 333.5t197.5 280t292 190t350 71.5q288 0 461 -170l161 135l58 -74l-158 -133q104 -144 104 -354q0 -172 -73.5 -333.5t-196 -280.5t-291.5 -191t-350 -72zM207 580
q0 -172 86 -297l1100 921q-143 137 -389 137q-159 0 -307 -62.5t-255 -165.5t-171 -243t-64 -290zM741 74q161 0 309 62.5t254.5 166t170 243t63.5 288.5q0 172 -84 299l-1102 -922q143 -137 389 -137z" />
    <glyph glyph-name="Delta" unicode="&#x2206;" horiz-adv-x="1282" 
d="M-68 0l31 160l748 1304h219l248 -1304l-31 -160h-1215zM780 1294l-624 -1130h827l-186 1130h-17z" />
    <glyph glyph-name="product" unicode="&#x220f;" horiz-adv-x="1480" 
d="M348 1464h1149l-323 -1669h-185l293 1505h-780l-293 -1505h-184z" />
    <glyph glyph-name="summation" unicode="&#x2211;" horiz-adv-x="1302" 
d="M-6 -35l700 680v4l-442 647l33 168h1081l-31 -164h-866l-2 -4l393 -591l-18 -103l-647 -639v-4h901l-33 -164h-1102z" />
    <glyph glyph-name="minus" unicode="&#x2212;" horiz-adv-x="1187" 
d="M172 748h930l-31 -162h-930z" />
    <glyph glyph-name="uni2219" unicode="&#x2219;" horiz-adv-x="454" 
d="M184 807h197l-39 -197h-197z" />
    <glyph glyph-name="radical" unicode="&#x221a;" horiz-adv-x="1226" 
d="M74 643h266l88 -618h4l752 1439h184l-901 -1669h-164l-110 684h-152z" />
    <glyph glyph-name="infinity" unicode="&#x221e;" horiz-adv-x="1505" 
d="M100 553q0 111 49 208.5t137 157.5t193 60q60 0 112 -21t91 -58.5t61 -65t47 -65.5q5 -8 7 -11h4q41 39 63 59t68.5 56t83 55.5t87.5 35t101 15.5q106 0 172 -70.5t66 -214.5q0 -172 -111 -299t-266 -127q-36 0 -68.5 7.5t-60.5 25.5t-48 33t-43 44t-34 44t-32 47.5
t-27 40.5h-4l-36 -35q-36 -35 -44 -42t-43.5 -38t-52.5 -41t-51.5 -32t-60 -30t-59.5 -16t-67 -8q-103 0 -168.5 70.5t-65.5 214.5zM393 434q30 0 61.5 10.5t53.5 21.5t53.5 37.5t44.5 38.5t45 45t37 38q-3 5 -16.5 28t-19.5 33t-20.5 31t-24.5 31.5t-27 26t-32 23
t-35.5 13.5t-41.5 6q-85 0 -144 -72t-59 -172q0 -71 34 -105t91 -34zM1075 434q84 0 141.5 71t57.5 169q0 72 -33.5 107.5t-91.5 35.5q-29 0 -60.5 -10.5t-53 -21.5t-54 -38t-45 -38.5t-45.5 -45.5t-37 -38q2 -3 14.5 -24.5t17.5 -29t18 -27.5t21 -29t22.5 -24.5t27 -23.5
t29 -17t34.5 -12.5t37 -3.5z" />
    <glyph glyph-name="integral" unicode="&#x222b;" horiz-adv-x="729" 
d="M-14 -358q-75 0 -133 20l32 164q33 -8 70 -8q99 0 151 59.5t74 173.5l217 1120q29 153 124 247.5t243 94.5q75 0 133 -20l-33 -164q-33 8 -69 8q-180 0 -226 -233l-217 -1120q-33 -171 -122 -256.5t-244 -85.5z" />
    <glyph glyph-name="approxequal" unicode="&#x2248;" horiz-adv-x="1153" 
d="M856 690q-75 0 -229 36t-230 36q-65 0 -93.5 -21t-37.5 -71h-143q7 41 25.5 79t50 74.5t84 59t118.5 22.5q76 0 229.5 -35.5t229.5 -35.5q64 0 94 21t39 71h144q-8 -42 -27 -80.5t-51 -75t-84.5 -58.5t-118.5 -22zM795 369q-75 0 -229 35.5t-230 35.5q-65 0 -94.5 -21
t-38.5 -71h-144q7 40 26 78.5t50.5 75.5t84.5 59.5t118 22.5q76 0 230.5 -36t230.5 -36q61 0 91.5 20t39.5 72h143q-7 -41 -25.5 -79t-50 -74.5t-84 -59t-118.5 -22.5z" />
    <glyph glyph-name="notequal" unicode="&#x2260;" horiz-adv-x="1169" 
d="M383 213h-143l151 229h-278l28 162h359l84 127h-412l29 162h489l154 231h143l-153 -231h278l-29 -162h-356l-84 -127h410l-29 -162h-489z" />
    <glyph glyph-name="lessequal" unicode="&#x2264;" horiz-adv-x="1112" 
d="M903 219l-768 338l35 184l899 336l-31 -174l-751 -262l-2 -4l649 -264zM27 0l28 143h834l-29 -143h-833z" />
    <glyph glyph-name="greaterequal" unicode="&#x2265;" horiz-adv-x="1112" 
d="M94 219l31 174l752 262l2 4l-650 265l31 153l768 -338l-35 -184zM80 143h833l-28 -143h-834z" />
    <glyph glyph-name="uni2266" unicode="&#x2266;" horiz-adv-x="1189" 
d="M1042 535l-847 325l38 201l975 328l-34 -172l-805 -254v-5l706 -251zM82 289l33 162h911l-33 -162h-911zM27 0l30 162h912l-31 -162h-911z" />
    <glyph glyph-name="uni2267" unicode="&#x2267;" horiz-adv-x="1189" 
d="M152 535l32 172l805 251l2 5l-706 254l32 172l848 -328l-39 -201zM104 289l31 162h912l-31 -162h-912zM47 0l33 162h911l-33 -162h-911z" />
    <glyph glyph-name="uni2460" unicode="&#x2460;" horiz-adv-x="1763" 
d="M805 -29q-304 0 -486 168t-182 471q0 144 43 278t124 243t190.5 190.5t250 126.5t295.5 45q304 0 486 -168t182 -471q0 -144 -43 -278t-124 -243t-190.5 -190.5t-250 -126.5t-295.5 -45zM813 115q165 0 304 59.5t231.5 160.5t144 234.5t51.5 282.5q0 242 -134 370
t-378 128q-165 0 -304 -59.5t-231.5 -160.5t-144 -235t-51.5 -283q0 -242 134 -369.5t378 -127.5zM967 1149h131l-162 -832h-160l115 590q-49 -33 -182 -33l24 130q201 3 234 145z" />
    <glyph glyph-name="uni2461" unicode="&#x2461;" horiz-adv-x="1763" 
d="M805 -29q-304 0 -486 168t-182 471q0 144 43 278t124 243t190.5 190.5t250 126.5t295.5 45q304 0 486 -168t182 -471q0 -144 -43 -278t-124 -243t-190.5 -190.5t-250 -126.5t-295.5 -45zM813 115q165 0 304 59.5t231.5 160.5t144 234.5t51.5 282.5q0 242 -134 370
t-378 128q-165 0 -304 -59.5t-231.5 -160.5t-144 -235t-51.5 -283q0 -242 134 -369.5t378 -127.5zM821 852h-157q27 143 123 230t245 87q115 0 181.5 -52.5t66.5 -153.5q0 -50 -19 -97.5t-44.5 -81t-66.5 -67.5t-69 -52.5t-67 -41.5q-106 -63 -154.5 -98t-75.5 -72v-2h396
l-27 -134h-612q7 36 18 67.5t28.5 59.5t33 50t41.5 45t43 37.5t49.5 35t48 30t51.5 30.5t49 28q107 63 158 116t51 122q0 98 -104 98q-155 0 -187 -184z" />
    <glyph glyph-name="uni2462" unicode="&#x2462;" horiz-adv-x="1763" 
d="M805 -29q-304 0 -486 168t-182 471q0 144 43 278t124 243t190.5 190.5t250 126.5t295.5 45q304 0 486 -168t182 -471q0 -144 -43 -278t-124 -243t-190.5 -190.5t-250 -126.5t-295.5 -45zM813 115q165 0 304 59.5t231.5 160.5t144 234.5t51.5 282.5q0 242 -134 370
t-378 128q-165 0 -304 -59.5t-231.5 -160.5t-144 -235t-51.5 -283q0 -242 134 -369.5t378 -127.5zM872 297q-164 0 -242 82.5t-50 224.5h159q-16 -86 14.5 -130t120.5 -44t139.5 41.5t49.5 110.5q0 57 -34.5 80.5t-102.5 23.5h-64l23 121h59q76 0 119 36t43 93q0 98 -113 98
q-75 0 -119 -37.5t-55 -101.5h-157q21 117 119 194.5t241 77.5q118 0 184 -54t66 -148q0 -151 -162 -209v-2q119 -41 119 -168q0 -126 -99.5 -207.5t-257.5 -81.5z" />
    <glyph glyph-name="uni2463" unicode="&#x2463;" horiz-adv-x="1763" 
d="M805 -29q-304 0 -486 168t-182 471q0 144 43 278t124 243t190.5 190.5t250 126.5t295.5 45q304 0 486 -168t182 -471q0 -144 -43 -278t-124 -243t-190.5 -190.5t-250 -126.5t-295.5 -45zM813 115q165 0 304 59.5t231.5 160.5t144 234.5t51.5 282.5q0 242 -134 370
t-378 128q-165 0 -304 -59.5t-231.5 -160.5t-144 -235t-51.5 -283q0 -242 134 -369.5t378 -127.5zM1049 315h-162l35 185h-387l30 153l482 494h161l-98 -514h119l-27 -133h-119zM1012 958l-318 -325h254z" />
    <glyph glyph-name="uni2464" unicode="&#x2464;" horiz-adv-x="1763" 
d="M805 -29q-304 0 -486 168t-182 471q0 144 43 278t124 243t190.5 190.5t250 126.5t295.5 45q304 0 486 -168t182 -471q0 -144 -43 -278t-124 -243t-190.5 -190.5t-250 -126.5t-295.5 -45zM813 115q165 0 304 59.5t231.5 160.5t144 234.5t51.5 282.5q0 242 -134 370
t-378 128q-165 0 -304 -59.5t-231.5 -160.5t-144 -235t-51.5 -283q0 -242 134 -369.5t378 -127.5zM850 297q-149 0 -224 78.5t-61 189.5h164q-6 -63 26 -99t107 -36q89 0 142 55t53 140q0 133 -127 133q-95 0 -166 -68h-156l178 457h496l-25 -133h-376l-80 -201l-2 -2
q84 68 196 68q107 0 167.5 -63.5t60.5 -174.5q0 -151 -104.5 -247.5t-268.5 -96.5z" />
    <glyph glyph-name="uni2465" unicode="&#x2465;" horiz-adv-x="1763" 
d="M805 -29q-304 0 -486 168t-182 471q0 144 43 278t124 243t190.5 190.5t250 126.5t295.5 45q304 0 486 -168t182 -471q0 -144 -43 -278t-124 -243t-190.5 -190.5t-250 -126.5t-295.5 -45zM813 115q165 0 304 59.5t231.5 160.5t144 234.5t51.5 282.5q0 242 -134 370
t-378 128q-165 0 -304 -59.5t-231.5 -160.5t-144 -235t-51.5 -283q0 -242 134 -369.5t378 -127.5zM858 297q-135 0 -206.5 83t-71.5 232q0 109 31 209t86.5 177t139.5 123t183 46q114 0 180.5 -65.5t63.5 -163.5h-166q2 46 -23.5 73t-79.5 27q-83 0 -146 -73.5t-83 -173.5
l-2 -11l8 -2q84 94 221 94q108 0 170 -61t62 -166q0 -141 -103.5 -244.5t-263.5 -103.5zM864 424q85 0 141 56.5t56 137.5q0 61 -36 93t-101 32q-83 0 -137 -49.5t-54 -132.5q0 -64 34.5 -100.5t96.5 -36.5z" />
    <glyph glyph-name="uni2466" unicode="&#x2466;" horiz-adv-x="1763" 
d="M805 -29q-304 0 -486 168t-182 471q0 144 43 278t124 243t190.5 190.5t250 126.5t295.5 45q304 0 486 -168t182 -471q0 -144 -43 -278t-124 -243t-190.5 -190.5t-250 -126.5t-295.5 -45zM813 115q165 0 304 59.5t231.5 160.5t144 234.5t51.5 282.5q0 242 -134 370
t-378 128q-165 0 -304 -59.5t-231.5 -160.5t-144 -235t-51.5 -283q0 -242 134 -369.5t378 -127.5zM688 1124h596l-24 -120q-160 -115 -278 -310.5t-159 -400.5h-170q38 194 166 394t264 302v2h-421z" />
    <glyph glyph-name="uni2467" unicode="&#x2467;" horiz-adv-x="1763" 
d="M805 -29q-304 0 -486 168t-182 471q0 144 43 278t124 243t190.5 190.5t250 126.5t295.5 45q304 0 486 -168t182 -471q0 -144 -43 -278t-124 -243t-190.5 -190.5t-250 -126.5t-295.5 -45zM813 115q165 0 304 59.5t231.5 160.5t144 234.5t51.5 282.5q0 242 -134 370
t-378 128q-165 0 -304 -59.5t-231.5 -160.5t-144 -235t-51.5 -283q0 -242 134 -369.5t378 -127.5zM829 297q-127 0 -205.5 56.5t-78.5 160.5q0 55 22 100t58 74t64 44.5t59 27.5v2q-89 53 -89 139q0 112 98.5 189t241.5 77q113 0 182.5 -49t69.5 -135q0 -48 -18.5 -89.5
t-48 -68t-50 -40.5t-40.5 -23v-2q123 -57 123 -166q0 -129 -110 -213t-278 -84zM930 813q74 0 119 39.5t45 103.5q0 42 -30.5 66.5t-86.5 24.5q-73 0 -119.5 -40.5t-46.5 -103.5q0 -43 31 -66.5t88 -23.5zM854 424q86 0 142.5 48t56.5 120q0 50 -38 79t-106 29
q-88 0 -144 -47t-56 -121q0 -50 38.5 -79t106.5 -29z" />
    <glyph glyph-name="uni2468" unicode="&#x2468;" horiz-adv-x="1763" 
d="M805 -29q-304 0 -486 168t-182 471q0 144 43 278t124 243t190.5 190.5t250 126.5t295.5 45q304 0 486 -168t182 -471q0 -144 -43 -278t-124 -243t-190.5 -190.5t-250 -126.5t-295.5 -45zM813 115q165 0 304 59.5t231.5 160.5t144 234.5t51.5 282.5q0 242 -134 370
t-378 128q-165 0 -304 -59.5t-231.5 -160.5t-144 -235t-51.5 -283q0 -242 134 -369.5t378 -127.5zM829 297q-117 0 -183 63.5t-64 165.5h166q-3 -100 98 -100q83 0 146 73.5t83 174.5l2 10l-4 2q-84 -94 -221 -94q-109 0 -170 65t-61 179q0 134 103.5 232.5t262.5 98.5
q136 0 207.5 -83t71.5 -240q0 -104 -31 -202t-86.5 -175t-139 -123.5t-180.5 -46.5zM909 721q85 0 144 56.5t59 135.5q0 59 -34.5 93t-96.5 34q-85 0 -141 -56.5t-56 -137.5q0 -61 33 -93t92 -32z" />
    <glyph glyph-name="uni24EA" unicode="&#x24ea;" horiz-adv-x="1763" 
d="M805 -29q-304 0 -486 168t-182 471q0 144 43 278t124 243t190.5 190.5t250 126.5t295.5 45q304 0 486 -168t182 -471q0 -144 -43 -278t-124 -243t-190.5 -190.5t-250 -126.5t-295.5 -45zM813 115q165 0 304 59.5t231.5 160.5t144 234.5t51.5 282.5q0 242 -134 370
t-378 128q-165 0 -304 -59.5t-231.5 -160.5t-144 -235t-51.5 -283q0 -242 134 -369.5t378 -127.5zM842 299q-138 0 -209.5 85.5t-71.5 231.5q0 144 57.5 269.5t162 202.5t231.5 77q137 0 205.5 -85.5t68.5 -231.5q0 -144 -54.5 -269t-157.5 -202.5t-232 -77.5zM858 426
q81 0 143.5 66.5t91.5 160.5t29 193q0 192 -131 192q-80 0 -142.5 -65t-93 -159.5t-30.5 -195.5q0 -192 133 -192z" />
    <glyph glyph-name="upblock" unicode="&#x2580;" horiz-adv-x="1669" 
d="M287 1464h1464l-143 -733h-1465z" />
    <glyph glyph-name="dnblock" unicode="&#x2584;" horiz-adv-x="1669" 
d="M143 733h1465l-144 -733h-1464z" />
    <glyph glyph-name="block" unicode="&#x2588;" horiz-adv-x="1669" 
d="M285 1464h1464l-285 -1464h-1464z" />
    <glyph glyph-name="filledbox" unicode="&#x25a0;" horiz-adv-x="1669" 
d="M285 1464h1464l-285 -1464h-1464z" />
    <glyph glyph-name="H22073" unicode="&#x25a1;" horiz-adv-x="1669" 
d="M285 1464h1464l-285 -1464h-1464zM416 1300l-219 -1136h1136l219 1136h-1136z" />
    <glyph glyph-name="H18543" unicode="&#x25aa;" horiz-adv-x="630" 
d="M72 430l88 451h450l-88 -451h-450z" />
    <glyph glyph-name="H18551" unicode="&#x25ab;" horiz-adv-x="712" 
d="M168 922h532l-104 -533h-533zM299 758l-39 -205h205l39 205h-205z" />
    <glyph glyph-name="triagup" unicode="&#x25b2;" horiz-adv-x="1761" 
d="M1063 1464l534 -1464h-1638z" />
    <glyph glyph-name="triagrt" unicode="&#x25ba;" horiz-adv-x="1587" 
d="M1612 733l-1622 -819l317 1638z" />
    <glyph glyph-name="triagdn" unicode="&#x25bc;" horiz-adv-x="1761" 
d="M778 0l-534 1464h1638z" />
    <glyph glyph-name="triaglf" unicode="&#x25c4;" horiz-adv-x="1587" 
d="M100 731l1624 819l-319 -1638z" />
    <glyph glyph-name="lozenge" unicode="&#x25ca;" horiz-adv-x="1159" 
d="M115 733l555 731h184l270 -733l-555 -731h-184zM514 164l426 561l-209 575h-4l-428 -563l211 -573h4z" />
    <glyph glyph-name="circle" unicode="&#x25cb;" horiz-adv-x="1763" 
d="M805 -29q-304 0 -486 168t-182 471q0 144 43 278t124 243t190.5 190.5t250 126.5t295.5 45q304 0 486 -168t182 -471q0 -144 -43 -278t-124 -243t-190.5 -190.5t-250 -126.5t-295.5 -45zM813 115q165 0 304 59.5t231.5 160.5t144 234.5t51.5 282.5q0 242 -134 370
t-378 128q-165 0 -304 -59.5t-231.5 -160.5t-144 -235t-51.5 -283q0 -242 134 -369.5t378 -127.5z" />
    <glyph glyph-name="H18533" unicode="&#x25cf;" horiz-adv-x="1726" 
d="M758 -29q-137 0 -254.5 47t-199.5 129t-128.5 195.5t-46.5 243.5q0 172 78 339t204.5 291t296.5 200.5t345 76.5q182 0 325.5 -81t222 -221t78.5 -314q0 -137 -49.5 -273t-138 -248.5t-202.5 -199.5t-252.5 -136t-278.5 -49z" />
    <glyph glyph-name="uni2B0E" unicode="&#x2b0e;" horiz-adv-x="1351" 
d="M616 4l-452 512l121 111l301 -351l123 629h-551l26 144h717l-151 -773l440 351l80 -111z" />
    <glyph glyph-name="uni2B0F" unicode="&#x2b0f;" horiz-adv-x="1351" 
d="M8 143h553l121 629l-438 -350l-78 110l651 512l455 -512l-123 -110l-303 350l-150 -772h-716z" />
    <glyph glyph-name="uni2B10" unicode="&#x2b10;" horiz-adv-x="1351" 
d="M80 508l123 110l303 -350l149 772h717l-29 -143h-552l-121 -629l438 350l78 -110l-651 -512z" />
    <glyph glyph-name="uni2B11" unicode="&#x2b11;" horiz-adv-x="1351" 
d="M451 -4l151 772l-440 -350l-80 110l653 512l453 -512l-121 -110l-301 350l-123 -629h551l-27 -143h-716z" />
    <glyph glyph-name="uni2BA0" unicode="&#x2ba0;" horiz-adv-x="1208" 
d="M692 1071l90 -100l-424 -371h629l109 553h143l-109 -553l-30 -164h-772l278 -370l-131 -101l-403 553z" />
    <glyph glyph-name="uni2BA1" unicode="&#x2ba1;" horiz-adv-x="1208" 
d="M506 -29l-90 101l422 370h-772l20 103l119 614h143l-106 -553h628l-278 371l129 100l405 -553z" />
    <glyph glyph-name="uni2BA2" unicode="&#x2ba2;" horiz-adv-x="1208" 
d="M864 -90l107 553h-629l279 -371l-129 -100l-406 553l619 553l92 -101l-422 -370h772l-21 -103l-118 -614h-144z" />
    <glyph glyph-name="uni2BA3" unicode="&#x2ba3;" horiz-adv-x="1208" 
d="M-31 -90l109 553l31 164h772l-279 370l131 101l404 -553l-621 -553l-90 100l424 371h-629l-108 -553h-144z" />
    <glyph glyph-name="uni2BA4" unicode="&#x2ba4;" horiz-adv-x="1351" 
d="M451 -4l151 772l-440 -350l-80 110l653 512l453 -512l-121 -110l-301 350l-123 -629h551l-27 -143h-716z" />
    <glyph glyph-name="uni2BA5" unicode="&#x2ba5;" horiz-adv-x="1351" 
d="M8 143h553l121 629l-438 -350l-78 110l651 512l455 -512l-123 -110l-303 350l-150 -772h-716z" />
    <glyph glyph-name="uni2BA6" unicode="&#x2ba6;" horiz-adv-x="1351" 
d="M80 508l123 110l303 -350l149 772h717l-29 -143h-552l-121 -629l438 350l78 -110l-651 -512z" />
    <glyph glyph-name="uni2BA7" unicode="&#x2ba7;" horiz-adv-x="1351" 
d="M616 4l-452 512l121 111l301 -351l123 629h-551l26 144h717l-151 -773l440 351l80 -111z" />
    <glyph glyph-name="uniFB00" unicode="&#xfb00;" horiz-adv-x="1107" 
d="M115 901l26 143h148l26 142q17 87 46 145.5t70 89.5t86.5 43.5t107.5 12.5q36 0 106 -11l-26 -139q-62 6 -84 6q-72 0 -99 -29t-43 -110l-28 -150h346l26 142q17 87 46 145.5t70 89.5t86.5 43.5t107.5 12.5q36 0 106 -11l-27 -139q-62 6 -84 6q-72 0 -98.5 -29
t-42.5 -110l-29 -150h199l-27 -143h-200l-174 -901h-164l176 901h-346l-174 -901h-164l176 901h-145z" />
    <glyph glyph-name="fi" unicode="&#xfb01;" horiz-adv-x="991" 
d="M248 0h-164l176 901h-145l26 143h148l26 142q17 87 46 145.5t70 89.5t86.5 43.5t107.5 12.5q36 0 106 -11l-26 -139q-62 6 -84 6q-72 0 -99 -29t-43 -110l-28 -150h198l-26 -143h-201zM877 1444h196l-39 -197h-196zM815 1044h164l-203 -1044h-164z" />
    <glyph glyph-name="fl" unicode="&#xfb02;" horiz-adv-x="989" 
d="M248 0h-164l176 901h-145l26 143h148l26 142q17 87 46 145.5t70 89.5t86.5 43.5t107.5 12.5q36 0 106 -11l-26 -139q-62 6 -84 6q-72 0 -99 -29t-43 -110l-28 -150h198l-26 -143h-201zM895 1464h164l-285 -1464h-164z" />
    <glyph glyph-name="uniFB03" unicode="&#xfb03;" horiz-adv-x="1472" 
d="M115 901l26 143h148l26 142q17 87 46 145.5t70 89.5t86.5 43.5t107.5 12.5q36 0 106 -11l-26 -139q-62 6 -84 6q-72 0 -99 -29t-43 -110l-28 -150h346l26 142q17 87 46 145.5t70 89.5t86.5 43.5t107.5 12.5q36 0 106 -11l-27 -139q-62 6 -84 6q-72 0 -98.5 -29
t-42.5 -110l-29 -150h199l-27 -143h-200l-174 -901h-164l176 901h-346l-174 -901h-164l176 901h-145zM1358 1444h196l-38 -197h-197zM1296 1044h164l-203 -1044h-163z" />
    <glyph glyph-name="uniFEFF" unicode="&#xfeff;" 
 />
    <glyph glyph-name="u1F150" unicode="&#x1f150;" horiz-adv-x="1142" 
d="M586 600q-163 0 -267 100t-104 258q0 140 76 265t202 199.5t267 74.5q163 0 266.5 -100t103.5 -258q0 -105 -45 -204.5t-119 -172.5t-174.5 -117.5t-205.5 -44.5z" />
    <glyph glyph-name="i.latn_TRK" horiz-adv-x="391" 
d="M276 1444h197l-39 -197h-196zM215 1044h164l-203 -1044h-164z" />
    <glyph glyph-name="zero.numr" horiz-adv-x="813" 
d="M426 621q-138 0 -209.5 85.5t-71.5 231.5q0 144 57.5 269.5t162 202.5t231.5 77q137 0 205.5 -86t68.5 -232q0 -144 -54.5 -268.5t-157.5 -202t-232 -77.5zM442 748q82 0 144 66t91.5 160t29.5 193q0 193 -132 193q-80 0 -142.5 -65t-93 -159.5t-30.5 -195.5
q0 -192 133 -192z" />
    <glyph glyph-name="one.numr" horiz-adv-x="544" 
d="M457 1464h131l-162 -831h-160l115 590q-49 -33 -182 -33l24 129q201 3 234 145z" />
    <glyph glyph-name="two.numr" horiz-adv-x="768" 
d="M365 1169h-158q27 143 123 230.5t245 87.5q115 0 181.5 -53t66.5 -154q0 -50 -19 -97.5t-44.5 -81t-66.5 -67.5t-69 -52.5t-67 -41.5q-104 -62 -153 -97.5t-76 -72.5v-2h395l-27 -133h-612q7 36 18 67.5t28.5 59.5t33 50t41.5 45t43 37.5t49.5 35t48 30t51.5 30.5t49 28
q108 64 158.5 116.5t50.5 120.5q0 99 -104 99q-154 0 -186 -185z" />
    <glyph glyph-name="three.numr" horiz-adv-x="839" 
d="M467 616q-164 0 -242.5 83.5t-50.5 224.5h160q-16 -86 14.5 -130t120.5 -44t139 41t49 110q0 57 -34.5 81t-102.5 24h-63l22 120h60q76 0 118.5 36t42.5 93q0 99 -112 99q-75 0 -119 -38t-55 -102h-158q21 117 119 195t241 78q118 0 184 -54.5t66 -148.5
q0 -152 -161 -209v-2q118 -41 118 -168q0 -126 -99 -207.5t-257 -81.5z" />
    <glyph glyph-name="four.numr" horiz-adv-x="765" 
d="M606 635h-162l35 184h-387l31 154l481 493h162l-98 -514h118l-26 -133h-119zM569 1278l-317 -326h254z" />
    <glyph glyph-name="five.numr" horiz-adv-x="790" 
d="M430 614q-149 0 -224 79t-61 190h164q-6 -63 26 -99t107 -36q89 0 142 54.5t53 139.5q0 133 -127 133q-96 0 -166 -67h-156l179 456h495l-24 -133h-377l-80 -201l-2 -2q84 68 196 68q107 0 167.5 -63.5t60.5 -174.5q0 -151 -104.5 -247.5t-268.5 -96.5z" />
    <glyph glyph-name="six.numr" horiz-adv-x="860" 
d="M473 616q-135 0 -206.5 83t-71.5 233q0 109 31 209t86.5 177t139.5 123t183 46q114 0 180.5 -66t63.5 -164h-166q2 46 -24 73.5t-79 27.5q-83 0 -146 -73.5t-83 -174.5l-2 -10l8 -2q84 94 221 94q108 0 170 -61t62 -166q0 -141 -103.5 -245t-263.5 -104zM479 743
q85 0 141 57t56 138q0 61 -36 93t-101 32q-83 0 -137 -49.5t-54 -132.5q0 -64 34.5 -101t96.5 -37z" />
    <glyph glyph-name="seven.numr" horiz-adv-x="661" 
d="M221 1464h596l-24 -121q-160 -115 -278 -310t-159 -400h-170q38 194 166 394t264 302v2h-421z" />
    <glyph glyph-name="eight.numr" horiz-adv-x="741" 
d="M387 616q-127 0 -206 57t-79 161q0 55 22 100t58 73.5t64 44t59 27.5v2q-88 52 -88 140q0 112 98.5 189t241.5 77q113 0 182.5 -49t69.5 -135q0 -39 -13.5 -74.5t-31.5 -59t-42.5 -43.5t-40 -29t-30.5 -16v-2q123 -57 123 -166q0 -129 -110 -213t-277 -84zM487 1133
q74 0 119 39.5t45 103.5q0 42 -30 66t-86 24q-73 0 -119.5 -40t-46.5 -103q0 -43 30.5 -66.5t87.5 -23.5zM412 743q86 0 142 48t56 120q0 50 -37.5 79.5t-105.5 29.5q-88 0 -144.5 -47.5t-56.5 -120.5q0 -50 39 -79.5t107 -29.5z" />
    <glyph glyph-name="nine.numr" horiz-adv-x="866" 
d="M438 614q-117 0 -183.5 64t-64.5 166h166q-2 -47 22.5 -74t76.5 -27q83 0 146 73.5t83 174.5l2 10l-4 3q-85 -95 -221 -95q-109 0 -170.5 65t-61.5 179q0 134 104 233t263 99q136 0 207 -83.5t71 -240.5q0 -104 -31 -202t-86 -175t-138.5 -123.5t-180.5 -46.5zM518 1038
q85 0 144 57t59 136q0 59 -34.5 93t-96.5 34q-85 0 -141 -57t-56 -138q0 -61 33 -93t92 -32z" />
    <glyph glyph-name="zero.dnom" horiz-adv-x="813" 
d="M303 -16q-138 0 -209 85.5t-71 231.5q0 144 57 269.5t161.5 202.5t231.5 77q137 0 206 -86t69 -232q0 -144 -55 -268.5t-158 -202t-232 -77.5zM319 111q82 0 144 66t91.5 160t29.5 193q0 193 -131 193q-61 0 -112.5 -38t-84.5 -99t-51.5 -135t-18.5 -148q0 -192 133 -192
z" />
    <glyph glyph-name="one.dnom" horiz-adv-x="544" 
d="M334 831h131l-162 -831h-160l115 590q-49 -33 -182 -33l24 129q201 3 234 145z" />
    <glyph glyph-name="two.dnom" horiz-adv-x="768" 
d="M242 535h-158q27 143 123.5 230t245.5 87q115 0 181 -53t66 -154q0 -50 -19 -97.5t-44.5 -81t-66.5 -67.5t-69 -52.5t-67 -41.5q-104 -62 -153 -97.5t-76 -72.5v-2h395l-27 -133h-612q7 36 18 67.5t28.5 59.5t33 50t42 45t43.5 37.5t49 35t48 30.5t52 30t49 28
q107 63 157.5 116t50.5 122q0 98 -104 98q-154 0 -186 -184z" />
    <glyph glyph-name="three.dnom" horiz-adv-x="839" 
d="M344 -18q-164 0 -242.5 83t-50.5 224h160q-16 -86 14.5 -130t120.5 -44t139.5 41t49.5 110q0 57 -35 81t-103 24h-63l22 121h60q76 0 119 36t43 93q0 98 -113 98q-75 0 -119 -37.5t-55 -101.5h-158q21 117 119.5 194.5t241.5 77.5q118 0 183.5 -54.5t65.5 -148.5
q0 -152 -161 -209v-2q118 -41 118 -168q0 -126 -99 -207t-257 -81z" />
    <glyph glyph-name="four.dnom" horiz-adv-x="765" 
d="M483 0h-161l34 184h-387l31 154l481 493h162l-98 -514h119l-27 -133h-119zM446 643l-317 -326h254z" />
    <glyph glyph-name="five.dnom" horiz-adv-x="790" 
d="M307 -18q-149 0 -223.5 78.5t-60.5 189.5h163q-6 -63 26 -99t107 -36q89 0 142 54.5t53 139.5q0 133 -127 133q-96 0 -166 -67h-155l178 456h495l-24 -133h-377l-80 -200l-2 -2q83 67 197 67q107 0 167 -63t60 -174q0 -151 -104.5 -247.5t-268.5 -96.5z" />
    <glyph glyph-name="six.dnom" horiz-adv-x="860" 
d="M350 -18q-135 0 -206.5 83t-71.5 232q0 109 31 209t86.5 177t139.5 123t183 46q114 0 180.5 -65.5t63.5 -163.5h-166q2 46 -23.5 73t-79.5 27q-83 0 -146 -73.5t-83 -174.5l-2 -10l8 -2q84 94 221 94q108 0 170 -61t62 -166q0 -141 -103.5 -244.5t-263.5 -103.5zM356 109
q85 0 141 56.5t56 137.5q0 61 -36 93t-101 32q-83 0 -137 -49.5t-54 -132.5q0 -64 34.5 -100.5t96.5 -36.5z" />
    <glyph glyph-name="seven.dnom" horiz-adv-x="661" 
d="M98 831h596l-24 -120q-160 -115 -278 -310.5t-159 -400.5h-170q38 194 166.5 394t264.5 302v2h-422z" />
    <glyph glyph-name="eight.dnom" horiz-adv-x="741" 
d="M264 -18q-127 0 -205.5 56.5t-78.5 160.5q0 44 15.5 83t37.5 64t52.5 46.5t52 32t44.5 19.5v2q-88 52 -88 140q0 112 98.5 189t241.5 77q113 0 182.5 -49t69.5 -135q0 -39 -13.5 -74.5t-31.5 -59t-42.5 -43.5t-40 -29t-30.5 -16v-2q123 -57 123 -165q0 -129 -110 -213
t-277 -84zM365 498q74 0 118.5 39.5t44.5 103.5q0 42 -30 66t-86 24q-73 0 -119.5 -40t-46.5 -103q0 -43 31 -66.5t88 -23.5zM289 109q86 0 142 47.5t56 119.5q0 50 -37.5 79.5t-105.5 29.5q-88 0 -144.5 -47.5t-56.5 -120.5q0 -50 38.5 -79t107.5 -29z" />
    <glyph glyph-name="nine.dnom" horiz-adv-x="866" 
d="M315 -18q-117 0 -183 63.5t-64 165.5h165q-3 -100 99 -100q83 0 146 73.5t83 173.5l2 11l-4 2q-85 -95 -221 -95q-109 0 -170.5 65t-61.5 179q0 134 104 233t263 99q136 0 207.5 -83.5t71.5 -240.5q0 -104 -31 -202t-86.5 -174.5t-139 -123t-180.5 -46.5zM395 406
q85 0 144 56.5t59 135.5q0 59 -34.5 93t-96.5 34q-85 0 -141 -57t-56 -138q0 -61 33 -92.5t92 -31.5z" />
    <glyph glyph-name="space.frac" horiz-adv-x="94" 
 />
    <glyph glyph-name="zero.tf" horiz-adv-x="1433" 
d="M618 -29q-113 0 -197.5 37.5t-135.5 107t-76 161t-25 204.5q0 147 31.5 288.5t93.5 263t146 214t196 145t236 52.5q113 0 197.5 -37.5t135.5 -107t76 -161t25 -204.5q0 -185 -49 -357t-137 -307.5t-222.5 -217t-294.5 -81.5zM631 135q95 0 178.5 47t143.5 126t103.5 181
t65 215t21.5 226q0 165 -62 257.5t-207 92.5q-95 0 -178.5 -47t-143.5 -126t-103.5 -181t-65 -215t-21.5 -226q0 -165 62 -257.5t207 -92.5z" />
    <glyph glyph-name="one.tf" horiz-adv-x="1433" 
d="M260 164h275l178 915q-51 -41 -126 -55t-184 -14l31 153q121 3 198 34t116 81.5t69 136.5h144l-242 -1251h315l-33 -164h-774z" />
    <glyph glyph-name="two.tf" horiz-adv-x="1433" 
d="M522 920h-188q19 108 67.5 202t121.5 166.5t176.5 114t224.5 41.5q182 0 290.5 -91.5t108.5 -258.5q0 -65 -19 -126.5t-48.5 -109t-75 -94t-88.5 -79.5t-99 -67.5t-97 -56.5t-92 -48q-15 -7 -22 -11q-160 -83 -258.5 -160t-142.5 -174v-4h747l-32 -164h-981
q40 197 171.5 342t368.5 270q30 16 87 44.5t88 44.5t79 45t75.5 50.5t60.5 54.5t50.5 65.5t29.5 75t12 89.5q0 43 -10 76.5t-34.5 62.5t-71.5 44.5t-114 15.5q-313 0 -385 -360z" />
    <glyph glyph-name="three.tf" horiz-adv-x="1433" 
d="M524 991h-192q33 201 183.5 327t383.5 126q198 0 312 -90.5t114 -241.5q0 -124 -76.5 -218.5t-206.5 -141.5v-7q109 -33 159 -104.5t50 -187.5q0 -100 -36.5 -187t-105.5 -153t-177.5 -104t-243.5 -38q-272 0 -406.5 142t-86.5 366h192q-31 -162 43.5 -253t269.5 -91
q186 0 271.5 81.5t85.5 215.5q0 124 -69.5 174.5t-199.5 50.5h-131l31 164h143q134 0 219 76.5t85 192.5q0 190 -252 190q-309 0 -359 -289z" />
    <glyph glyph-name="four.tf" horiz-adv-x="1433" 
d="M950 0h-184l63 332h-682l33 164l860 919h185l-178 -919h194l-33 -164h-194zM991 1155l-616 -659h487z" />
    <glyph glyph-name="five.tf" horiz-adv-x="1433" 
d="M848 950q183 0 283 -102t100 -275q0 -118 -45 -227t-123.5 -192t-195 -133t-251.5 -50q-118 0 -209 38t-142 100.5t-71 139.5t-6 159h189q-5 -56 6 -103.5t38.5 -86.5t80 -61t125.5 -22q123 0 220 60.5t147 155.5t50 204q0 231 -243 231q-221 0 -348 -133h-197l297 762
h772l-33 -164h-622l-168 -428v-4q138 131 346 131z" />
    <glyph glyph-name="six.tf" horiz-adv-x="1433" 
d="M418 721l4 -2q73 102 181 153.5t233 51.5q184 0 291.5 -106t107.5 -290q0 -150 -71.5 -277t-203.5 -203.5t-298 -76.5q-219 0 -336 129t-117 379q0 149 31.5 292t93 264t145.5 213t195.5 144t236.5 52q195 0 299 -112.5t88 -274.5h-188q6 107 -50 165t-181 58
q-93 0 -170 -42.5t-131.5 -119t-92.5 -169t-63 -204.5zM668 135q164 0 267 109.5t103 271.5q0 123 -66.5 183.5t-189.5 60.5q-164 0 -273.5 -99.5t-109.5 -261.5q0 -124 70 -194t199 -70z" />
    <glyph glyph-name="seven.tf" horiz-adv-x="1433" 
d="M397 1415h981l-26 -143q-139 -100 -275 -248.5t-247 -316.5t-193.5 -353.5t-114.5 -353.5h-194q33 170 123.5 361.5t207.5 357t243 304t239 224.5l2 4h-776z" />
    <glyph glyph-name="eight.tf" horiz-adv-x="1433" 
d="M614 -29q-209 0 -335.5 90.5t-126.5 268.5q0 74 25.5 140t64.5 111.5t89.5 82t95 56.5t85.5 30v4q-158 88 -158 266q0 176 146 300t377 124q187 0 298 -86t111 -246q0 -129 -71 -224t-193 -140v-5q207 -79 207 -286q0 -96 -43 -184t-120.5 -155t-194.5 -107t-257 -40z
M782 834q144 0 232 71t88 185q0 96 -66.5 143t-183.5 47q-155 0 -234 -74t-79 -180q0 -93 63 -142.5t180 -49.5zM645 135q178 0 287.5 89.5t109.5 226.5q0 110 -79 164.5t-222 54.5q-185 0 -294 -90t-109 -226q0 -219 307 -219z" />
    <glyph glyph-name="nine.tf" horiz-adv-x="1433" 
d="M1083 694l-4 2q-73 -102 -180.5 -153t-232.5 -51q-184 0 -292 105.5t-108 289.5q0 150 71.5 277t204 203.5t298.5 76.5q219 0 335.5 -129t116.5 -379q0 -149 -31.5 -292t-93 -264t-145.5 -213t-195.5 -144t-236.5 -52q-195 0 -299 112.5t-88 274.5h188q-6 -107 50.5 -165
t181.5 -58q75 0 139.5 28.5t113.5 77.5t89 118t67 145.5t47 165.5zM834 1280q-164 0 -267.5 -110t-103.5 -271q0 -123 66.5 -183.5t189.5 -60.5q164 0 273.5 99.5t109.5 261.5q0 124 -69.5 194t-198.5 70z" />
    <glyph glyph-name="uni2007.tf" horiz-adv-x="1433" 
 />
    <glyph glyph-name="parenleft.case" horiz-adv-x="663" 
d="M670 1626h143q-240 -314 -348.5 -598t-108.5 -598q0 -276 111 -590h-143q-148 258 -148 594q0 308 131.5 630t362.5 562z" />
    <glyph glyph-name="parenright.case" horiz-adv-x="663" 
d="M76 -160h-144q240 314 348.5 598t108.5 598q0 279 -110 590h143q147 -256 147 -594q0 -309 -131.5 -630.5t-361.5 -561.5z" />
    <glyph glyph-name="hyphen.case" horiz-adv-x="712" 
d="M139 815h549l-33 -164h-549z" />
    <glyph glyph-name="bracketleft.case" horiz-adv-x="647" 
d="M391 1626h387l-30 -164h-203l-283 -1458h203l-33 -164h-387z" />
    <glyph glyph-name="bracketright.case" horiz-adv-x="647" 
d="M340 -160h-387l31 164h202l283 1458h-203l33 164h387z" />
    <glyph glyph-name="braceleft.case" horiz-adv-x="647" 
d="M127 815q68 -1 103.5 51t52.5 142l43 221q20 103 47.5 173.5t60 114.5t81 68t100 32.5t126.5 8.5h39l-32 -164h-39q-79 0 -124.5 -42t-66.5 -148l-61 -318q-29 -150 -164 -219v-4q51 -36 72.5 -87t5.5 -134l-62 -307q-22 -113 7.5 -156t109.5 -43h39l-33 -164h-39
q-73 0 -121.5 9t-87 34.5t-54.5 71t-15.5 117t20.5 174.5l41 211q9 53 10 96.5t-22 70.5t-70 27z" />
    <glyph glyph-name="braceright.case" horiz-adv-x="647" 
d="M604 651q-68 1 -103 -50.5t-52 -141.5l-43 -221q-20 -103 -47.5 -173.5t-60.5 -115t-81.5 -68.5t-100 -32.5t-126.5 -8.5h-39l33 164h39q79 0 124 42.5t66 148.5l61 317q29 150 164 219v4q-51 36 -72.5 87t-5.5 134l62 308q22 113 -7.5 155.5t-109.5 42.5h-39l33 164h39
q73 0 121.5 -9t87 -34.5t54.5 -70.5t15.5 -116.5t-20.5 -174.5l-41 -211q-9 -53 -10 -96.5t22 -71t70 -27.5z" />
    <glyph glyph-name="guillemotleft.case" horiz-adv-x="942" 
d="M102 637l37 194l473 330l-37 -198l-356 -242v-4l262 -240l-35 -172zM453 637l36 194l474 330l-37 -198l-357 -242v-4l262 -240l-34 -172z" />
    <glyph glyph-name="uni00AD.case" horiz-adv-x="712" 
d="M139 815h549l-33 -164h-549z" />
    <glyph glyph-name="periodcentered.case" horiz-adv-x="401" 
d="M160 815h196l-39 -197h-196z" />
    <glyph glyph-name="guillemotright.case" horiz-adv-x="942" 
d="M922 829l-37 -194l-473 -330l37 199l356 241v5l-262 239l35 172zM571 829l-36 -194l-474 -330l37 199l357 241v5l-262 239l34 172z" />
    <glyph glyph-name="endash.case" horiz-adv-x="1187" 
d="M139 815h1024l-33 -164h-1024z" />
    <glyph glyph-name="emdash.case" horiz-adv-x="2211" 
d="M139 815h2048l-33 -164h-2048z" />
    <glyph glyph-name="bullet.case" horiz-adv-x="655" 
d="M100 508l88 450h451l-88 -450h-451z" />
    <glyph glyph-name="guilsinglleft.case" horiz-adv-x="591" 
d="M102 637l37 194l473 330l-37 -198l-356 -242v-4l262 -240l-35 -172z" />
    <glyph glyph-name="guilsinglright.case" horiz-adv-x="591" 
d="M571 829l-36 -194l-474 -330l37 199l357 241v5l-262 239l34 172z" />
    <glyph glyph-name="s_s" horiz-adv-x="1972" 
d="M465 -29q-213 0 -334 103.5t-121 267.5h162q0 -97 73.5 -162t225.5 -65q119 0 187.5 43t68.5 131q0 33 -13 59t-30 42.5t-55.5 33.5t-65 25.5t-82.5 25.5q-143 42 -195 67q-147 71 -161 208q-2 15 -2 32q0 144 114 217.5t308 73.5q81 0 146 -14t113.5 -37t87.5 -64
t66 -83.5t50.5 -107.5t39 -124t33.5 -145q20 -93 32 -138t37.5 -102.5t59 -82t88.5 -42.5t134 -18q130 0 203 42.5t73 129.5q0 34 -13 60t-30 43t-55.5 34t-65 25.5t-82.5 25.5q-143 42 -195 67q-147 70 -161 206q-2 15 -2 32q0 98 56 165.5t143 97.5t198 30
q100 0 180 -26.5t130 -71.5t76 -102t26 -121h-160q0 71 -61 124.5t-193 53.5q-102 0 -167.5 -36.5t-65.5 -111.5q0 -46 32.5 -77t69 -46t127.5 -42q19 -6 29 -9q49 -15 75.5 -23.5t69.5 -25.5t67 -32t54 -39t46 -50.5t27 -63t11 -79.5q0 -154 -123 -239t-330 -85
q-77 0 -138.5 14t-104.5 33t-77.5 61t-55 74t-40.5 98.5t-29.5 107t-27.5 126.5q-27 131 -62 216.5t-85 136.5t-111 71.5t-147 20.5q-119 0 -188.5 -37.5t-69.5 -112.5q0 -28 11.5 -49.5t28 -36.5t53 -30.5t67.5 -25.5t91 -28q2 -1 3.5 -1.5t3.5 -0.5q49 -15 77 -24
t70.5 -26t67 -32.5t53.5 -39.5t44.5 -50t26.5 -62.5t11 -78.5q0 -155 -119 -239.5t-309 -84.5z" />
    <glyph glyph-name="w_w_w" horiz-adv-x="4311" 
d="M129 1044h180l51 -860h5l397 860h178l61 -860h5l409 860h289l51 -860h4l398 860h178l61 -860h4l410 860h289l51 -860h4l397 860h178l62 -860h4l410 860h182l-537 -1044h-174l-67 848h-5l-395 -848h-182l-96 926l-475 -926h-175l-67 848h-4l-395 -848h-183l-96 926
l-475 -926h-174l-68 848h-4l-395 -848h-182z" />
    <glyph glyph-name="zero.zero" horiz-adv-x="1310" 
d="M557 -29q-113 0 -197.5 37.5t-135.5 107t-76 161t-25 204.5q0 185 50.5 358.5t140 307.5t223 215.5t288.5 81.5q113 0 198 -38t136 -107t76 -160.5t25 -204.5q0 -185 -49 -357t-137 -307.5t-222.5 -217t-294.5 -81.5zM301 485q0 -162 53 -245l604 1005q-59 35 -145 35
q-95 0 -178.5 -47t-143.5 -126t-103.5 -181t-65 -215t-21.5 -226zM569 135q95 0 178.5 47t143.5 126t103.5 181t65 215t21.5 226q0 126 -30 198l-586 -976q53 -17 104 -17z" />
    <glyph glyph-name="zero.tf.zero" horiz-adv-x="1433" 
d="M618 -29q-113 0 -197.5 37.5t-135.5 107t-76 161t-25 204.5q0 147 31.5 288.5t93.5 263t146 214t196 145t236 52.5q113 0 197.5 -37.5t135.5 -107t76 -161t25 -204.5q0 -185 -49 -357t-137 -307.5t-222.5 -217t-294.5 -81.5zM362 485q0 -161 54 -245l604 1005
q-59 35 -146 35q-95 0 -178.5 -47t-143.5 -126t-103.5 -181t-65 -215t-21.5 -226zM631 135q95 0 178.5 47t143.5 126t103.5 181t65 215t21.5 226q0 124 -31 198l-586 -976q53 -17 105 -17z" />
    <glyph glyph-name="a.ss01" horiz-adv-x="1148" 
d="M936 909h10l27 135h164l-203 -1044h-164l25 129h-4q-147 -158 -361 -158q-172 0 -274.5 110t-102.5 314q0 141 45.5 267t123.5 216t187 142.5t232 52.5q211 0 295 -164zM471 115q134 0 241.5 101t149.5 255l17 86q4 50 4 74q0 143 -66 221t-190 78q-170 0 -289 -149
t-119 -371q0 -295 252 -295z" />
    <glyph glyph-name="agrave.ss01" horiz-adv-x="1148" 
d="M686 1485l66 -275h-134l-126 275h194zM936 909h10l27 135h164l-203 -1044h-164l25 129h-4q-147 -158 -361 -158q-172 0 -274.5 110t-102.5 314q0 141 45.5 267t123.5 216t187 142.5t232 52.5q211 0 295 -164zM471 115q134 0 241.5 101t149.5 255l17 86q4 50 4 74
q0 143 -66 221t-190 78q-170 0 -289 -149t-119 -371q0 -295 252 -295z" />
    <glyph glyph-name="aacute.ss01" horiz-adv-x="1148" 
d="M772 1485h195l-197 -275h-133zM936 909h10l27 135h164l-203 -1044h-164l25 129h-4q-147 -158 -361 -158q-172 0 -274.5 110t-102.5 314q0 141 45.5 267t123.5 216t187 142.5t232 52.5q211 0 295 -164zM471 115q134 0 241.5 101t149.5 255l17 86q4 50 4 74q0 143 -66 221
t-190 78q-170 0 -289 -149t-119 -371q0 -295 252 -295z" />
    <glyph glyph-name="acircumflex.ss01" horiz-adv-x="1148" 
d="M422 1210l242 275h184l135 -275h-164l-71 187h-5l-151 -187h-170zM936 909h10l27 135h164l-203 -1044h-164l25 129h-4q-147 -158 -361 -158q-172 0 -274.5 110t-102.5 314q0 141 45.5 267t123.5 216t187 142.5t232 52.5q211 0 295 -164zM471 115q134 0 241.5 101
t149.5 255l17 86q4 50 4 74q0 143 -66 221t-190 78q-170 0 -289 -149t-119 -371q0 -295 252 -295z" />
    <glyph glyph-name="atilde.ss01" horiz-adv-x="1148" 
d="M420 1235q19 96 72.5 144t115.5 48q56 0 135 -36.5t101 -36.5q48 0 61 69h123q-19 -96 -71.5 -144t-116.5 -48q-56 0 -135 37t-101 37q-50 0 -61 -70h-123zM936 909h10l27 135h164l-203 -1044h-164l25 129h-4q-147 -158 -361 -158q-172 0 -274.5 110t-102.5 314
q0 141 45.5 267t123.5 216t187 142.5t232 52.5q211 0 295 -164zM471 115q134 0 241.5 101t149.5 255l17 86q4 50 4 74q0 143 -66 221t-190 78q-170 0 -289 -149t-119 -371q0 -295 252 -295z" />
    <glyph glyph-name="adieresis.ss01" horiz-adv-x="1148" 
d="M483 1444h197l-39 -197h-197zM803 1444h196l-38 -197h-197zM936 909h10l27 135h164l-203 -1044h-164l25 129h-4q-147 -158 -361 -158q-172 0 -274.5 110t-102.5 314q0 141 45.5 267t123.5 216t187 142.5t232 52.5q211 0 295 -164zM471 115q134 0 241.5 101t149.5 255
l17 86q4 50 4 74q0 143 -66 221t-190 78q-170 0 -289 -149t-119 -371q0 -295 252 -295z" />
    <glyph glyph-name="aring.ss01" horiz-adv-x="1148" 
d="M684 1147q-67 0 -107 40.5t-40 104.5q0 89 63.5 151t153.5 62q68 0 108.5 -40.5t40.5 -104.5q0 -90 -64 -151.5t-155 -61.5zM700 1227q47 0 82 36t35 83q0 36 -21.5 57.5t-56.5 21.5q-49 0 -82.5 -32.5t-33.5 -85.5q0 -36 19.5 -58t57.5 -22zM936 909h10l27 135h164
l-203 -1044h-164l25 129h-4q-147 -158 -361 -158q-172 0 -274.5 110t-102.5 314q0 141 45.5 267t123.5 216t187 142.5t232 52.5q211 0 295 -164zM471 115q134 0 241.5 101t149.5 255l17 86q4 50 4 74q0 143 -66 221t-190 78q-170 0 -289 -149t-119 -371q0 -295 252 -295z
" />
    <glyph glyph-name="amacron.ss01" horiz-adv-x="1148" 
d="M473 1391h528l-28 -144h-529zM936 909h10l27 135h164l-203 -1044h-164l25 129h-4q-147 -158 -361 -158q-172 0 -274.5 110t-102.5 314q0 141 45.5 267t123.5 216t187 142.5t232 52.5q211 0 295 -164zM471 115q134 0 241.5 101t149.5 255l17 86q4 50 4 74q0 143 -66 221
t-190 78q-170 0 -289 -149t-119 -371q0 -295 252 -295z" />
    <glyph glyph-name="abreve.ss01" horiz-adv-x="1148" 
d="M692 1190q-114 0 -171.5 69t-35.5 205h123q-11 -81 11.5 -116t87.5 -35q138 0 176 151h123q-31 -133 -115.5 -203.5t-198.5 -70.5zM936 909h10l27 135h164l-203 -1044h-164l25 129h-4q-147 -158 -361 -158q-172 0 -274.5 110t-102.5 314q0 141 45.5 267t123.5 216
t187 142.5t232 52.5q211 0 295 -164zM471 115q134 0 241.5 101t149.5 255l17 86q4 50 4 74q0 143 -66 221t-190 78q-170 0 -289 -149t-119 -371q0 -295 252 -295z" />
    <glyph glyph-name="aogonek.ss01" horiz-adv-x="1148" 
d="M756 -362q-78 0 -119 31.5t-41 86.5q0 75 61 140.5t140 103.5h-27l25 129h-4q-147 -158 -361 -158q-172 0 -274.5 110t-102.5 314q0 141 45.5 267t123.5 216t187 142.5t232 52.5q211 0 295 -164h10l27 135h164l-203 -1044h-14q-172 -118 -172 -188q0 -24 18 -38t47 -14
q51 0 105 21l-25 -123q-68 -20 -137 -20zM471 115q134 0 241.5 101t149.5 255l17 86q4 50 4 74q0 143 -66 221t-190 78q-170 0 -289 -149t-119 -371q0 -295 252 -295z" />
    <glyph glyph-name="exclam.ss02" horiz-adv-x="442" 
d="M311 1464h185l-82 -420l-170 -667h-103l88 667zM31 96q9 47 44 78t85 31q51 0 74 -31.5t14 -77.5q-9 -45 -44 -75.5t-85 -30.5q-51 0 -74 30.5t-14 75.5z" />
    <glyph glyph-name="comma.ss02" horiz-adv-x="409" 
d="M-55 -238l16 88q59 16 102 54t54 96q-54 -19 -92 5.5t-27 86.5q10 53 45 83t82 30q119 0 90 -162q-19 -95 -87 -171.5t-183 -109.5z" />
    <glyph glyph-name="period.ss02" horiz-adv-x="401" 
d="M10 96q9 47 44 78t85 31q51 0 74 -31.5t14 -77.5q-9 -45 -44 -75.5t-85 -30.5q-51 0 -74 30.5t-14 75.5z" />
    <glyph glyph-name="colon.ss02" horiz-adv-x="425" 
d="M143 721q9 46 43.5 77t85.5 31t74 -31t14 -77q-10 -45 -44.5 -76t-84.5 -31q-51 0 -74 31t-14 76zM23 96q9 47 44 78t85 31q51 0 74 -31.5t14 -77.5q-9 -45 -44 -75.5t-85 -30.5q-51 0 -74 30.5t-14 75.5z" />
    <glyph glyph-name="semicolon.ss02" horiz-adv-x="425" 
d="M143 721q9 46 43.5 77t85.5 31t74 -31t14 -77q-10 -45 -44.5 -76t-84.5 -31q-51 0 -74 31t-14 76zM-43 -238l16 88q59 16 102 54t54 96q-54 -19 -92 5.5t-27 86.5q10 53 45 83t82 30q119 0 90 -162q-19 -95 -87 -171.5t-183 -109.5z" />
    <glyph glyph-name="question.ss02" horiz-adv-x="1079" 
d="M365 375q15 79 42.5 146t55 110.5t73.5 88t76 67.5t84 61q10 7 49.5 34t57 40.5t49.5 43.5t47 55t28 62.5t13 77.5q0 79 -57 123.5t-162 44.5q-66 0 -123.5 -17.5t-110 -55.5t-89.5 -106.5t-52 -160.5h-184q36 223 190 363.5t381 140.5q186 0 289.5 -87.5t103.5 -236.5
q0 -40 -9 -78t-21 -67t-34 -59t-39.5 -49.5t-47 -43.5t-45.5 -36t-46.5 -32.5t-39.5 -27.5q-9 -6 -27 -19q-105 -72 -148 -118q-91 -98 -120 -264h-184zM305 96q9 47 44 78t85 31q51 0 74 -31.5t14 -77.5q-9 -45 -44 -75.5t-85 -30.5q-51 0 -74 30.5t-14 75.5z" />
    <glyph glyph-name="f_f_i.ss02" horiz-adv-x="1497" 
d="M115 901l26 143h148l26 142q17 87 46 145.5t70 89.5t86.5 43.5t107.5 12.5q36 0 106 -11l-26 -139q-62 6 -84 6q-72 0 -99 -29t-43 -110l-28 -150h346l26 142q17 87 46 145.5t70 89.5t86.5 43.5t107.5 12.5q36 0 106 -11l-27 -139q-62 6 -84 6q-72 0 -98.5 -29
t-42.5 -110l-29 -150h199l-27 -143h-200l-174 -901h-164l176 901h-346l-174 -901h-164l176 901h-145zM1360 1341q8 43 41.5 73t81.5 30q47 0 68.5 -29.5t13.5 -73.5q-8 -42 -41.5 -71t-81.5 -29q-47 0 -68.5 29t-13.5 71zM1120 0l203 1044h164l-203 -1044h-164z" />
    <glyph glyph-name="f_i.ss02" horiz-adv-x="989" 
d="M248 0h-164l176 901h-145l26 143h148l26 142q17 87 46 145.5t70 89.5t86.5 43.5t107.5 12.5q36 0 106 -11l-26 -139q-62 6 -84 6q-72 0 -99 -29t-43 -110l-28 -150h198l-26 -143h-201zM852 1341q8 43 41.5 73t81.5 30q47 0 68.5 -29.5t13.5 -73.5q-8 -42 -41.5 -71
t-81.5 -29q-47 0 -68.5 29t-13.5 71zM612 0l203 1044h164l-203 -1044h-164z" />
    <glyph glyph-name="i.ss02" horiz-adv-x="389" 
d="M252 1341q8 43 41.5 73t81.5 30q47 0 68.5 -29.5t13.5 -73.5q-8 -42 -41.5 -71t-81.5 -29q-47 0 -68.5 29t-13.5 71zM12 0l203 1044h164l-203 -1044h-164z" />
    <glyph glyph-name="j.ss02" horiz-adv-x="387" 
d="M252 1341q8 43 41.5 73t81.5 30q47 0 68.5 -29.5t13.5 -73.5q-8 -42 -41.5 -71t-81.5 -29q-47 0 -68.5 29t-13.5 71zM-123 -369q-44 0 -106 11l26 139q53 -6 82 -6q47 0 75.5 36t45.5 123l215 1110h164l-219 -1126q-29 -149 -106.5 -218t-176.5 -69z" />
    <glyph glyph-name="exclamdown.ss02" horiz-adv-x="442" 
d="M223 1098q9 46 43.5 77t85.5 31t74 -31t14 -77q-10 -45 -44.5 -76t-84.5 -31q-51 0 -74 31t-14 76zM-25 -266l82 420l170 667h103l-88 -667l-82 -420h-185z" />
    <glyph glyph-name="periodcentered.ss02" horiz-adv-x="401" 
d="M10 96q9 47 44 78t85 31q51 0 74 -31.5t14 -77.5q-9 -45 -44 -75.5t-85 -30.5q-51 0 -74 30.5t-14 75.5z" />
    <glyph glyph-name="questiondown.ss02" horiz-adv-x="1079" 
d="M594 1098q9 46 43.5 77t85.5 31t74 -31t14 -77q-10 -45 -44.5 -76t-84.5 -31q-51 0 -74 31t-14 76zM743 821q-15 -79 -42.5 -146t-55 -110.5t-73.5 -88t-76 -67.5t-84 -61q-10 -7 -49.5 -34t-57 -40.5t-49.5 -43.5t-47 -55t-28 -62.5t-13 -77.5q0 -79 57 -123.5
t162 -44.5q66 0 123.5 17.5t110 55.5t89.5 106.5t52 160.5h184q-36 -223 -190 -363.5t-381 -140.5q-186 0 -289.5 87.5t-103.5 236.5q0 40 9 78t21 67t34 59t39.5 49.5t47 43.5t45.5 36t46.5 32.5t39.5 27.5q108 75 137 100q103 90 142 230q9 33 16 71h184z" />
    <glyph glyph-name="Adieresis.ss02" horiz-adv-x="1349" 
d="M649 1761q8 43 41.5 73t81.5 30q47 0 68.5 -29.5t13.5 -73.5q-8 -42 -41.5 -71t-81.5 -29q-47 0 -68.5 29t-13.5 71zM969 1761q8 43 41.5 73t81.5 30q47 0 68.5 -29.5t13.5 -73.5q-8 -42 -41.5 -71t-81.5 -29q-47 0 -68.5 29t-13.5 71zM967 367h-645l-201 -367h-195
l826 1464h206l261 -1464h-195zM414 530h524l-111 764h-4z" />
    <glyph glyph-name="Edieresis.ss02" horiz-adv-x="1228" 
d="M610 1761q8 43 41.5 73t81.5 30q47 0 68.5 -29.5t13.5 -73.5q-8 -42 -41.5 -71t-81.5 -29q-47 0 -68.5 29t-13.5 71zM930 1761q8 43 41.5 73t81.5 30q47 0 68.5 -29.5t13.5 -73.5q-8 -42 -41.5 -71t-81.5 -29q-47 0 -68.5 29t-13.5 71zM379 840h731l-33 -164h-731
l-98 -512h854l-33 -164h-1038l284 1464h1014l-33 -164h-829z" />
    <glyph glyph-name="Idieresis.ss02" horiz-adv-x="450" 
d="M203 1761q8 43 41.5 73t81.5 30q47 0 68.5 -29.5t13.5 -73.5q-8 -42 -41.5 -71t-81.5 -29q-47 0 -68.5 29t-13.5 71zM522 1761q8 43 41.5 73t81.5 30q47 0 68.5 -29.5t13.5 -73.5q-8 -42 -41.5 -71t-81.5 -29q-47 0 -68.5 29t-13.5 71zM315 1464h185l-285 -1464h-184z
" />
    <glyph glyph-name="Odieresis.ss02" horiz-adv-x="1619" 
d="M788 1761q8 43 41.5 73t81.5 30q47 0 68.5 -29.5t13.5 -73.5q-8 -42 -41.5 -71t-81.5 -29q-47 0 -68.5 29t-13.5 71zM1108 1761q8 43 41.5 73t81.5 30q47 0 68.5 -29.5t13.5 -73.5q-8 -42 -41.5 -71t-81.5 -29q-47 0 -68.5 29t-13.5 71zM713 -29q-276 0 -435 163
t-159 431q0 184 67 354.5t182 296.5t277.5 201.5t343.5 75.5q276 0 435 -163t159 -431q0 -184 -67 -354.5t-182 -296.5t-277.5 -201.5t-343.5 -75.5zM727 135q146 0 272.5 63t213 168t135.5 244t49 289q0 93 -24 169.5t-73.5 136t-132 92t-192.5 32.5q-146 0 -272.5 -63
t-213 -168t-135.5 -244t-49 -289q0 -93 24 -169.5t73.5 -136t132 -92t192.5 -32.5z" />
    <glyph glyph-name="Udieresis.ss02" horiz-adv-x="1327" 
d="M621 1761q8 43 41 73t81 30q47 0 68.5 -29.5t13.5 -73.5q-8 -42 -41.5 -71t-81.5 -29q-47 0 -68 29t-13 71zM940 1761q8 43 41.5 73t81.5 30q47 0 68.5 -29.5t13.5 -73.5q-8 -42 -41.5 -71t-81.5 -29q-47 0 -68.5 29t-13.5 71zM1217 487q-22 -114 -71 -205.5
t-127.5 -162.5t-196.5 -109.5t-267 -38.5q-271 0 -389 140t-72 376l191 977h184l-190 -977q-36 -186 37 -269t259 -83q387 0 457 352l191 977h184z" />
    <glyph glyph-name="adieresis.ss02" horiz-adv-x="1079" 
d="M459 1341q8 43 41.5 73t81.5 30q47 0 68.5 -29.5t13.5 -73.5q-8 -42 -41.5 -71t-81.5 -29q-47 0 -68.5 29t-13.5 71zM778 1341q8 43 41.5 73t81.5 30q47 0 68.5 -29.5t13.5 -73.5q-8 -42 -41.5 -71t-81.5 -29q-47 0 -68.5 29t-13.5 71zM319 -29q-149 0 -229 71.5
t-80 203.5q0 68 23.5 121.5t62 90.5t101 66.5t128 48.5t154.5 37q175 35 222 51q101 35 121 103q5 20 5 43q0 61 -44 93t-154 32q-131 0 -203.5 -51t-101.5 -166h-168q38 170 162 265t325 95q192 0 280.5 -88.5t55.5 -257.5l-96 -493q-13 -57 -5 -90t48 -33q11 0 35 4
l-23 -107q-52 -20 -98 -20q-69 0 -102.5 38t-30.5 124h-7q-143 -181 -381 -181zM367 115q147 0 254.5 80t136.5 223l30 151q-32 -31 -73.5 -44.5t-175.5 -41.5q-68 -15 -110 -25t-88.5 -24.5t-72 -29.5t-48.5 -35.5t-32.5 -47t-9.5 -59.5q0 -147 189 -147z" />
    <glyph glyph-name="edieresis.ss02" horiz-adv-x="1128" 
d="M485 1346q8 43 41.5 72.5t81.5 29.5q47 0 68.5 -29.5t13.5 -72.5q-8 -42 -41.5 -71.5t-81.5 -29.5q-47 0 -68.5 29.5t-13.5 71.5zM805 1346q8 43 41.5 72.5t81.5 29.5q47 0 68.5 -29.5t13.5 -72.5q-8 -42 -41.5 -71.5t-81.5 -29.5q-47 0 -68.5 29.5t-13.5 71.5zM481 -31
q-208 0 -318 116t-110 323q0 186 79.5 338.5t221 240.5t316.5 88q205 0 306 -104.5t101 -284.5q0 -80 -24 -207h-828q-2 -23 -2 -69q0 -145 64 -221t207 -76q74 0 138 21.5t106 56t68 67t40 64.5h170q-76 -162 -211.5 -257.5t-323.5 -95.5zM655 934q-153 0 -256 -83
t-147 -228h651q16 88 -3.5 157t-82 111.5t-162.5 42.5z" />
    <glyph glyph-name="idieresis.ss02" horiz-adv-x="391" 
d="M92 1341q8 43 41.5 73t81.5 30q47 0 68.5 -29.5t13.5 -73.5q-8 -42 -41.5 -71t-81.5 -29q-47 0 -68.5 29t-13.5 71zM412 1341q8 43 41.5 73t81.5 30q47 0 68 -29.5t13 -73.5q-8 -42 -41 -71t-81 -29q-47 0 -68.5 29t-13.5 71zM215 1044h164l-203 -1044h-164z" />
    <glyph glyph-name="odieresis.ss02" horiz-adv-x="1136" 
d="M471 1341q8 43 41.5 73t81.5 30q47 0 68.5 -29.5t13.5 -73.5q-8 -42 -41.5 -71t-81.5 -29q-47 0 -68.5 29t-13.5 71zM791 1341q8 43 41 73t81 30q47 0 68.5 -29.5t13.5 -73.5q-8 -42 -41.5 -71t-81.5 -29q-47 0 -68 29t-13 71zM453 -29q-192 0 -298 112t-106 300
q0 186 80 343.5t226.5 252t328.5 94.5q192 0 297.5 -111.5t105.5 -299.5q0 -139 -47 -265.5t-129.5 -220.5t-201.5 -149.5t-256 -55.5zM475 115q130 0 234 76.5t158.5 197t54.5 256.5q0 129 -65.5 207t-194.5 78q-130 0 -234 -77t-158.5 -197.5t-54.5 -256.5
q0 -129 65.5 -206.5t194.5 -77.5z" />
    <glyph glyph-name="divide.ss02" horiz-adv-x="1187" 
d="M582 1008q9 46 43.5 77t85.5 31t74 -31t14 -77q-10 -45 -44.5 -76t-84.5 -31q-51 0 -74 31t-14 76zM172 750h930l-31 -162h-930zM449 326q9 46 43.5 77t85.5 31t74 -31t14 -77q-10 -45 -44.5 -76t-84.5 -31q-51 0 -74 31t-14 76z" />
    <glyph glyph-name="udieresis.ss02" horiz-adv-x="1077" 
d="M420 1341q8 43 41.5 73t81.5 30q47 0 68.5 -29.5t13.5 -73.5q-8 -42 -41.5 -71t-81.5 -29q-47 0 -68.5 29t-13.5 71zM739 1341q8 43 41.5 73t81.5 30q47 0 68.5 -29.5t13.5 -73.5q-8 -42 -41.5 -71t-81.5 -29q-47 0 -68.5 29t-13.5 71zM236 367q-22 -114 18 -183t152 -69
q139 0 241.5 81.5t130.5 215.5l123 632h164l-203 -1044h-164l25 125h-4q-61 -65 -156 -109.5t-213 -44.5q-77 0 -135 21.5t-99.5 69t-52 123.5t8.5 186l131 673h164z" />
    <glyph glyph-name="ydieresis.ss02" horiz-adv-x="1026" 
d="M401 1341q8 43 41.5 73t81.5 30q47 0 68.5 -29.5t13.5 -73.5q-8 -42 -41.5 -71t-81.5 -29q-47 0 -68.5 29t-13.5 71zM721 1341q8 43 41.5 73t81.5 30q47 0 68.5 -29.5t13.5 -73.5q-8 -42 -41.5 -71t-81.5 -29q-47 0 -68.5 29t-13.5 71zM344 10l-223 1034h180l158 -845h4
l471 845h180l-625 -1075q-113 -192 -207.5 -264t-215.5 -72q-39 0 -101 11l27 139q53 -6 74 -6q174 0 278 233z" />
    <glyph glyph-name="cdotaccent.ss02" horiz-adv-x="1089" 
d="M627 1341q8 43 41.5 73t81.5 30q47 0 68 -29.5t13 -73.5q-8 -42 -41 -71t-81 -29q-47 0 -68.5 29t-13.5 71zM895 662q12 130 -49 199t-189 69t-230 -75t-156 -193.5t-54 -253.5q0 -60 14.5 -111t44 -93t82 -65.5t123.5 -23.5q77 0 141.5 25t107 65.5t69 84t39.5 89.5h163
q-46 -179 -193.5 -293.5t-336.5 -114.5q-196 0 -308 114t-112 308q0 180 78 335.5t221 250t318 94.5q193 0 297.5 -116t89.5 -295h-160z" />
    <glyph glyph-name="Edotaccent.ss02" horiz-adv-x="1228" 
d="M770 1761q8 43 41.5 73t81.5 30q47 0 68.5 -29.5t13.5 -73.5q-8 -42 -41.5 -71t-81.5 -29q-47 0 -68.5 29t-13.5 71zM379 840h731l-33 -164h-731l-98 -512h854l-33 -164h-1038l284 1464h1014l-33 -164h-829z" />
    <glyph glyph-name="edotaccent.ss02" horiz-adv-x="1128" 
d="M645 1346q8 43 41.5 72.5t81.5 29.5q47 0 68.5 -29.5t13.5 -72.5q-8 -42 -41.5 -71.5t-81.5 -29.5q-47 0 -68.5 29.5t-13.5 71.5zM481 -31q-208 0 -318 116t-110 323q0 186 79.5 338.5t221 240.5t316.5 88q205 0 306 -104.5t101 -284.5q0 -80 -24 -207h-828
q-2 -23 -2 -69q0 -145 64 -221t207 -76q74 0 138 21.5t106 56t68 67t40 64.5h170q-76 -162 -211.5 -257.5t-323.5 -95.5zM655 934q-153 0 -256 -83t-147 -228h651q16 88 -3.5 157t-82 111.5t-162.5 42.5z" />
    <glyph glyph-name="gdotaccent.ss02" horiz-adv-x="1150" 
d="M610 1341q8 43 41.5 73t81.5 30q47 0 68.5 -29.5t13.5 -73.5q-8 -42 -41.5 -71t-81.5 -29q-47 0 -68.5 29t-13.5 71zM788 90l25 127h-4q-142 -164 -363 -164q-174 0 -278.5 103.5t-104.5 310.5q0 165 74.5 304t206.5 220.5t291 81.5q214 0 311 -158h4l25 129h164
l-189 -968q-42 -219 -183 -332t-355 -113q-194 0 -310.5 92t-109.5 238h160q0 -186 260 -186q315 0 376 315zM647 930q-123 0 -219.5 -65.5t-146.5 -169.5t-50 -224q0 -129 62.5 -201.5t189.5 -72.5q122 0 216.5 68t143 177t48.5 236q0 252 -244 252z" />
    <glyph glyph-name="uni0122.ss02" horiz-adv-x="1531" 
d="M1298 1022q0 151 -92 229t-264 78q-183 0 -330.5 -104.5t-228 -279t-80.5 -380.5q0 -430 371 -430q207 0 370.5 129.5t204.5 333.5h-477l31 164h661l-147 -762h-123l-20 207h-5q-110 -120 -231.5 -178t-282.5 -58q-265 0 -401.5 152.5t-136.5 425.5q0 149 40 290.5
t117 259t180.5 206.5t238.5 138.5t284 49.5q129 0 229.5 -37.5t162 -103t91.5 -149.5t27 -181h-189zM496 -475l16 84q128 26 145 102q-55 -19 -92 5t-26 85q9 49 44 77t83 28q58 0 80.5 -40.5t9.5 -107.5q-36 -184 -260 -233z" />
    <glyph glyph-name="uni0123.ss02" horiz-adv-x="1150" 
d="M700 1397q59 16 94 -5t25 -77q-9 -46 -42.5 -72t-80.5 -26q-59 0 -82.5 39t-9.5 108q15 83 76 148t174 94l-14 -82q-60 -15 -95 -43.5t-45 -83.5zM788 90l25 127h-4q-142 -164 -363 -164q-174 0 -278.5 103.5t-104.5 310.5q0 165 74.5 304t206.5 220.5t291 81.5
q214 0 311 -158h4l25 129h164l-189 -968q-42 -219 -183 -332t-355 -113q-194 0 -310.5 92t-109.5 238h160q0 -186 260 -186q315 0 376 315zM647 930q-123 0 -219.5 -65.5t-146.5 -169.5t-50 -224q0 -129 62.5 -201.5t189.5 -72.5q122 0 216.5 68t143 177t48.5 236
q0 252 -244 252z" />
    <glyph glyph-name="iogonek.ss02" horiz-adv-x="391" 
d="M252 1341q8 43 41.5 73t81.5 30q47 0 68.5 -29.5t13.5 -73.5q-8 -42 -41.5 -71t-81.5 -29q-47 0 -68.5 29t-13.5 71zM-2 -362q-78 0 -119 31.5t-41 86.5q0 75 61 140.5t140 103.5h-27l203 1044h164l-203 -1044h-14q-172 -118 -172 -188q0 -24 18 -38t47 -14q51 0 105 21
l-25 -123q-68 -20 -137 -20z" />
    <glyph glyph-name="Idotaccent.ss02" horiz-adv-x="450" 
d="M362 1761q8 43 41.5 73t81.5 30q47 0 68.5 -29.5t13.5 -73.5q-8 -42 -41.5 -71t-81.5 -29q-47 0 -68.5 29t-13.5 71zM315 1464h185l-285 -1464h-184z" />
    <glyph glyph-name="uni0136.ss02" horiz-adv-x="1339" 
d="M31 0l284 1464h185l-152 -778l889 778h219l-692 -604l453 -860h-209l-381 739l-322 -280l-90 -459h-184zM430 -475l16 84q129 26 146 102q-55 -19 -92.5 5t-26.5 85q9 49 44 77t83 28q58 0 80.5 -40.5t9.5 -107.5q-36 -184 -260 -233z" />
    <glyph glyph-name="uni0137.ss02" horiz-adv-x="1019" 
d="M10 0l285 1464h164l-168 -860l561 440h209l-486 -378l326 -666h-190l-262 565l-195 -149l-80 -416h-164zM242 -475l16 84q128 26 145 102q-55 -19 -92 5t-26 85q9 49 44 77t83 28q58 0 80.5 -40.5t9.5 -107.5q-36 -184 -260 -233z" />
    <glyph glyph-name="uni013B.ss02" horiz-adv-x="1126" 
d="M315 1464h185l-252 -1300h768l-33 -164h-952zM313 -475l17 84q128 26 145 102q-55 -19 -92.5 5t-26.5 85q9 49 44 77t83 28q58 0 80.5 -40.5t9.5 -107.5q-36 -184 -260 -233z" />
    <glyph glyph-name="uni013C.ss02" horiz-adv-x="389" 
d="M295 1464h164l-285 -1464h-164zM-102 -475l16 84q128 26 145 102q-55 -19 -92 5t-26 85q9 49 44 77t83 28q58 0 80.5 -40.5t9.5 -107.5q-36 -184 -260 -233z" />
    <glyph glyph-name="uni0145.ss02" horiz-adv-x="1411" 
d="M31 0l284 1464h222l497 -1202h8l234 1202h184l-284 -1464h-222l-497 1202h-8l-234 -1202h-184zM410 -475l16 84q128 26 145 102q-55 -19 -92 5t-26 85q9 49 44 77t83 28q58 0 80.5 -40.5t9.5 -107.5q-36 -184 -260 -233z" />
    <glyph glyph-name="uni0146.ss02" horiz-adv-x="1077" 
d="M10 0l203 1044h164l-27 -133h2q62 74 159 119t216 45q157 0 236 -101.5t43 -285.5l-134 -688h-163l133 688q22 111 -20 177.5t-163 66.5q-128 0 -229 -81t-129 -200l-127 -651h-164zM248 -475l16 84q129 26 146 102q-55 -19 -92.5 5t-26.5 85q9 49 44 77t83 28
q58 0 80.5 -40.5t9.5 -107.5q-36 -184 -260 -233z" />
    <glyph glyph-name="uni0156.ss02" horiz-adv-x="1325" 
d="M31 0l284 1464h568q216 0 327 -88.5t111 -251.5t-97 -287.5t-251 -158.5v-6q64 -13 103 -55t52 -99.5t14.5 -124t-6.5 -131.5t-15 -119t-6.5 -90t15.5 -41l-2 -12h-198q-7 11 -7.5 42.5t10 75.5t16 96t11.5 105t-3.5 102t-29 87t-65 61t-112.5 23h-420l-115 -592h-184z
M467 1300l-105 -544h396q168 0 271.5 97t103.5 247q0 104 -68.5 152t-230.5 48h-367zM365 -475l16 84q128 26 145 102q-55 -19 -92 5t-26 85q9 49 44 77t83 28q58 0 80.5 -40.5t9.5 -107.5q-36 -184 -260 -233z" />
    <glyph glyph-name="uni0157.ss02" horiz-adv-x="702" 
d="M213 1044h164l-39 -196h4q65 109 144 165t194 56q44 0 82 -6l-33 -160q-34 6 -63 6q-143 0 -248 -98.5t-135 -251.5l-109 -559h-164zM-102 -475l16 84q128 26 145 102q-55 -19 -92 5t-26 85q9 49 44 77t83 28q58 0 80.5 -40.5t9.5 -107.5q-36 -184 -260 -233z" />
    <glyph glyph-name="Ydieresis.ss02" horiz-adv-x="1292" 
d="M604 1761q8 43 41.5 73t81.5 30q47 0 68.5 -29.5t13.5 -73.5q-8 -42 -41.5 -71t-81.5 -29q-47 0 -68.5 29t-13.5 71zM924 1761q8 43 41.5 73t81.5 30q47 0 68 -29.5t13 -73.5q-8 -42 -41 -71t-81 -29q-47 0 -68.5 29t-13.5 71zM203 1464h194l283 -723h4l567 723h203
l-702 -864l-117 -600h-184l116 600z" />
    <glyph glyph-name="Zdotaccent.ss02" horiz-adv-x="1282" 
d="M758 1761q8 43 41.5 73t81.5 30q47 0 68.5 -29.5t13.5 -73.5q-8 -42 -41.5 -71t-81.5 -29q-47 0 -68.5 29t-13.5 71zM295 1464h1077l-33 -164l-1112 -1132v-4h914l-33 -164h-1139l33 164l1112 1132v4h-852z" />
    <glyph glyph-name="zdotaccent.ss02" horiz-adv-x="966" 
d="M530 1341q8 43 41.5 73t81.5 30q47 0 68.5 -29.5t13.5 -73.5q-8 -42 -41.5 -71t-81.5 -29q-47 0 -68.5 29t-13.5 71zM-16 123l739 774l2 4h-555l27 143h786l-18 -98l-764 -799v-4h630l-28 -143h-844z" />
    <glyph glyph-name="uni0218.ss02" horiz-adv-x="1294" 
d="M737 842q74 -25 117.5 -41t99.5 -40t87.5 -45t66 -51.5t52 -64t29 -77.5t11.5 -97q0 -145 -73 -249t-200.5 -155t-297.5 -51q-182 0 -318 61.5t-206 178.5t-58 274h180q-1 -170 105 -260t301 -90q114 0 197 27t133.5 91t50.5 161q0 37 -7.5 65t-28.5 53t-46 43.5t-73 40
t-95.5 39t-126.5 43.5q-90 30 -152 56.5t-115 60t-84 71t-48 86.5t-17 111q0 100 43 179t118 129t173.5 76t212.5 26q250 0 383.5 -114.5t112.5 -342.5h-181q8 149 -71.5 221t-259.5 72q-71 0 -130 -11t-109 -35.5t-78.5 -70t-28.5 -108.5q0 -30 6 -54.5t16 -44t32 -37.5
t43.5 -31.5t62 -30.5t76 -30t95.5 -34zM418 -475l16 84q129 26 146 102q-55 -19 -92.5 5t-26.5 85q9 49 44 77t83 28q58 0 80.5 -40.5t9.5 -107.5q-36 -184 -260 -233z" />
    <glyph glyph-name="uni0219.ss02" horiz-adv-x="991" 
d="M543 608q49 -15 77 -24t70.5 -26t67 -32.5t53.5 -39.5t44.5 -50t26.5 -62.5t11 -78.5q0 -155 -119 -239.5t-309 -84.5q-213 0 -334 103.5t-121 267.5h162q0 -97 73.5 -162t225.5 -65q119 0 187.5 43t68.5 131q0 33 -13 59t-30 42.5t-55.5 33.5t-65 25.5t-82.5 25.5
q-143 42 -195 67q-147 70 -161 206q-2 15 -2 32q0 98 56 165.5t143 97.5t198 30q195 0 301.5 -96t106.5 -234h-164q0 34 -12.5 65t-39.5 59.5t-77 45.5t-117 17q-102 0 -167.5 -36.5t-65.5 -111.5q0 -46 32.5 -77t69 -46t127.5 -42q19 -6 29 -9zM240 -475l16 84
q128 26 145 102q-55 -19 -92 5t-26 85q9 49 44 77t83 28q58 0 80.5 -40.5t9.5 -107.5q-36 -184 -260 -233z" />
    <glyph glyph-name="uni021A.ss02" horiz-adv-x="1241" 
d="M426 0l252 1300h-488l33 164h1159l-32 -164h-488l-252 -1300h-184zM324 -475l16 84q128 26 145 102q-55 -19 -92 5t-26 85q9 49 44 77t83 28q58 0 80.5 -40.5t9.5 -107.5q-36 -184 -260 -233z" />
    <glyph glyph-name="uni021B.ss02" horiz-adv-x="628" 
d="M143 1044h154l68 349h163l-67 -349h205l-29 -143h-205l-123 -629q-15 -76 7 -107.5t94 -31.5q28 0 90 6l-29 -139q-64 -10 -113 -10q-62 0 -105.5 14t-75.5 47.5t-37.5 89.5t7.5 140l121 620h-153zM125 -446l16 84q129 26 146 102q-55 -19 -92.5 5t-26.5 85q9 49 44 76.5
t83 27.5q58 0 80.5 -40t9.5 -107q-36 -184 -260 -233z" />
    <glyph glyph-name="uni0307.ss02" 
d="M238 1341q8 43 41 73t81 30q47 0 68.5 -29.5t13.5 -73.5q-8 -42 -41.5 -71t-81.5 -29q-47 0 -68 29t-13 71z" />
    <glyph glyph-name="uni0308.ss02" 
d="M236 1341q8 43 41 73t81 30q47 0 68.5 -29.5t13.5 -73.5q-8 -42 -41.5 -71t-81.5 -29q-47 0 -68 29t-13 71zM555 1341q8 43 41.5 73t81.5 30q47 0 68.5 -29.5t13.5 -73.5q-8 -42 -41.5 -71t-81.5 -29q-47 0 -68.5 29t-13.5 71z" />
    <glyph glyph-name="uni0312.ss02" 
d="M328 1397q59 16 93.5 -5t24.5 -77q-9 -46 -42 -72t-80 -26q-59 0 -83 39t-10 108q15 83 76 148t174 94l-14 -82q-60 -15 -94.5 -43.5t-44.5 -83.5z" />
    <glyph glyph-name="uni0326.ss02" 
d="M-117 -475l17 84q128 26 145 102q-55 -19 -92.5 5t-26.5 85q9 49 44 77t83 28q58 0 80.5 -40.5t9.5 -107.5q-36 -184 -260 -233z" />
    <glyph glyph-name="Wdieresis.ss02" horiz-adv-x="1912" 
d="M934 1761q8 43 41.5 73t81.5 30q47 0 68.5 -29.5t13.5 -73.5q-8 -42 -41.5 -71t-81.5 -29q-47 0 -68.5 29t-13.5 71zM1253 1761q8 43 41.5 73t81.5 30q47 0 68.5 -29.5t13.5 -73.5q-8 -42 -41.5 -71t-81.5 -29q-47 0 -68.5 29t-13.5 71zM231 1464h195l59 -1200h4
l535 1200h213l98 -1200h4l512 1200h195l-647 -1464h-205l-94 1255h-4l-561 -1255h-205z" />
    <glyph glyph-name="wdieresis.ss02" horiz-adv-x="1521" 
d="M647 1341q8 43 41.5 73t81.5 30q47 0 68.5 -29.5t13.5 -73.5q-8 -42 -41.5 -71t-81.5 -29q-47 0 -68.5 29t-13.5 71zM967 1341q8 43 41.5 73t81.5 30q47 0 68 -29.5t13 -73.5q-8 -42 -41 -71t-81 -29q-47 0 -68.5 29t-13.5 71zM129 1044h180l51 -860h5l397 860h178
l61 -860h5l409 860h182l-536 -1044h-174l-68 848h-4l-395 -848h-182z" />
    <glyph glyph-name="quoteleft.ss02" horiz-adv-x="452" 
d="M526 1470l-18 -92q-62 -16 -107.5 -56t-56.5 -101q57 20 97.5 -6t27.5 -91q-10 -56 -47 -88t-86 -32q-124 0 -96 172q20 100 92 179.5t194 114.5z" />
    <glyph glyph-name="quoteright.ss02" horiz-adv-x="452" 
d="M207 1006l16 92q63 19 108 58t56 99q-56 -20 -96 6t-29 91q10 56 47.5 88.5t85.5 32.5q126 0 97 -173q-20 -99 -92 -179t-193 -115z" />
    <glyph glyph-name="quotesinglbase.ss02" horiz-adv-x="411" 
d="M-55 -238l16 88q59 16 102 54t54 96q-54 -19 -92 5.5t-27 86.5q10 53 45 83t82 30q119 0 90 -162q-19 -95 -87 -171.5t-183 -109.5z" />
    <glyph glyph-name="quotedblleft.ss02" horiz-adv-x="753" 
d="M526 1470l-18 -92q-62 -16 -107.5 -56t-56.5 -101q57 20 97.5 -6t27.5 -91q-10 -56 -47 -88t-86 -32q-124 0 -96 172q20 100 92 179.5t194 114.5zM827 1470l-18 -92q-62 -16 -107.5 -56t-56.5 -101q57 20 97.5 -6t27.5 -91q-10 -56 -47 -88t-86 -32q-124 0 -96 172
q20 100 92 179.5t194 114.5z" />
    <glyph glyph-name="quotedblright.ss02" horiz-adv-x="753" 
d="M207 1006l16 92q63 19 108 58t56 99q-56 -20 -96 6t-29 91q10 56 47.5 88.5t85.5 32.5q126 0 97 -173q-20 -99 -92 -179t-193 -115zM508 1006l16 92q63 19 108 58t56 99q-56 -20 -96 6t-29 91q10 56 47.5 88.5t85.5 32.5q126 0 97 -173q-20 -99 -92 -179t-193 -115z" />
    <glyph glyph-name="quotedblbase.ss02" horiz-adv-x="714" 
d="M246 -238l16 88q59 16 102 54t54 96q-54 -19 -92 5.5t-27 86.5q10 53 45 83t82 30q119 0 90 -162q-19 -95 -87 -171.5t-183 -109.5zM-55 -238l16 88q59 16 102 54t54 96q-54 -19 -92 5.5t-27 86.5q10 53 45 83t82 30q119 0 90 -162q-19 -95 -87 -171.5t-183 -109.5z" />
    <glyph glyph-name="bullet.ss02" horiz-adv-x="657" 
d="M303 379q-103 0 -156.5 66t-33.5 169t98.5 168.5t181.5 65.5t156 -65.5t33 -168.5t-98 -169t-181 -66z" />
    <glyph glyph-name="ellipsis.ss02" horiz-adv-x="1204" 
d="M10 96q9 47 44 78t85 31q51 0 74 -31.5t14 -77.5q-9 -45 -44 -75.5t-85 -30.5q-51 0 -74 30.5t-14 75.5zM412 96q9 47 44 78t85 31q51 0 74 -31.5t14 -77.5q-9 -45 -44 -75.5t-85 -30.5q-51 0 -74 30.5t-14 75.5zM813 96q9 47 44 78t85 31q51 0 74 -31.5t14 -77.5
q-9 -45 -44 -75.5t-85 -30.5q-51 0 -74 30.5t-14 75.5z" />
    <glyph glyph-name="i.latn_TRK.ss02" horiz-adv-x="389" 
d="M252 1341q8 43 41.5 73t81.5 30q47 0 68.5 -29.5t13.5 -73.5q-8 -42 -41.5 -71t-81.5 -29q-47 0 -68.5 29t-13.5 71zM12 0l203 1044h164l-203 -1044h-164z" />
    <glyph glyph-name="periodcentered.case.ss02" horiz-adv-x="401" 
d="M131 715q9 46 43.5 77t85.5 31t74 -31t14 -77q-10 -45 -44.5 -76t-84.5 -31q-51 0 -74 31t-14 76z" />
    <glyph glyph-name="bullet.case.ss02" horiz-adv-x="655" 
d="M319 461q-103 0 -156.5 66t-33.5 169t99 168.5t182 65.5t155.5 -65.5t32.5 -168.5t-98 -169t-181 -66z" />
    <glyph glyph-name="adieresis.ss01.ss02" horiz-adv-x="1148" 
d="M465 1341q8 43 41.5 73t81.5 30q47 0 68.5 -29.5t13.5 -73.5q-8 -42 -41.5 -71t-81.5 -29q-47 0 -68.5 29t-13.5 71zM784 1341q8 43 41.5 73t81.5 30q47 0 68.5 -29.5t13.5 -73.5q-8 -42 -41.5 -71t-81.5 -29q-47 0 -68.5 29t-13.5 71zM936 909h10l27 135h164l-203 -1044
h-164l25 129h-4q-147 -158 -361 -158q-172 0 -274.5 110t-102.5 314q0 141 45.5 267t123.5 216t187 142.5t232 52.5q211 0 295 -164zM471 115q134 0 241.5 101t149.5 255l17 86q4 50 4 74q0 143 -66 221t-190 78q-170 0 -289 -149t-119 -371q0 -295 252 -295z" />
    <glyph glyph-name="logo" horiz-adv-x="1458" 
d="M887 770h332q64 0 115.5 53.5t51.5 118.5q0 51 -33 85t-85 34q-77 0 -133 -66v-18q0 -35 -33 -64.5t-70 -29.5q-29 0 -49 19t-20 48q0 38 32 70.5t70 32.5q11 0 27 -4q10 4 29 21t28 30q35 52 35 98q0 17 -8 41q-12 34 -43 55t-70 21q-60 0 -110.5 -40.5t-61.5 -96.5
l-66 -332q-6 -32 13.5 -54t48.5 -22zM334 770h332q31 0 57.5 22.5t32.5 53.5l65 332q11 55 -23.5 96t-95.5 41q-84 0 -141 -76q-35 -44 -35 -96q0 -21 9 -45q14 -35 36 -49q16 4 27 4q29 0 49.5 -20.5t20.5 -49.5q0 -38 -32 -69t-71 -31q-31 0 -51 20t-20 49q0 15 14 43
q-14 30 -43 48t-66 18q-68 0 -122 -53.5t-54 -120.5q0 -49 30.5 -83t80.5 -34zM719 297q-11 -56 24 -96.5t95 -40.5q40 0 78 20t63 53q35 49 35 99q0 23 -6 41q-13 35 -37 53q-20 -4 -29 -4q-29 0 -48.5 20.5t-19.5 49.5q0 38 31.5 69t69.5 31q31 0 51.5 -20.5t20.5 -49.5
q0 -10 -13 -43q29 -65 107 -65q69 0 123.5 53.5t54.5 120.5q0 50 -31.5 83.5t-81.5 33.5h-332q-31 0 -57.5 -22.5t-32.5 -53.5zM367 233q12 -34 41 -53.5t69 -19.5q60 0 110.5 40.5t61.5 96.5l66 332q6 31 -12.5 53.5t-49.5 22.5h-331q-64 0 -116 -54t-52 -119
q0 -51 33 -84.5t85 -33.5q81 0 136 65q-2 6 -2 19q0 35 32.5 64.5t69.5 29.5q29 0 49.5 -19.5t20.5 -48.5q0 -39 -32 -70.5t-71 -31.5q-12 0 -24 4q-34 -17 -60 -53q-33 -44 -33 -97q0 -22 9 -43zM463 92q-93 0 -145 66.5t-31 150.5l8 31h-33q-78 0 -128 50t-50 126
q0 62 38 124t99 97q-33 25 -50 63.5t-17 78.5q0 98 81.5 177t182.5 79q3 0 10 -0.5t13 -0.5t10 1l4 30q11 83 88.5 150t169.5 67q56 0 99.5 -27.5t64.5 -70.5q88 98 200 98q96 0 146.5 -68.5t29.5 -148.5l-8 -30h33q77 0 127.5 -50.5t50.5 -126.5q0 -63 -38 -124.5
t-99 -96.5q67 -50 67 -141q0 -98 -81.5 -177t-182.5 -79h-32l-5 -31q-11 -83 -88.5 -150t-169.5 -67q-55 0 -97.5 27t-65.5 71q-39 -45 -93 -71.5t-108 -26.5z" />
    <glyph glyph-name="smallLogo" horiz-adv-x="942" 
d="M659 1139h199q38 0 69 31t31 71q0 31 -20 51.5t-51 20.5q-46 0 -82 -39q2 -4 2 -12q0 -20 -19.5 -38t-42.5 -18q-18 0 -30.5 11t-12.5 28q0 23 19.5 42.5t42.5 19.5q10 0 16 -2q22 13 33 30q23 28 23 58q0 10 -7 28q-16 43 -67 43q-34 0 -64 -24.5t-36 -57.5l-39 -198
q-3 -19 6.5 -32t29.5 -13zM326 1139h198q18 0 34.5 13.5t19.5 31.5l38 198q7 36 -15.5 59t-55.5 23q-51 0 -84 -45q-21 -28 -21 -57q0 -17 4 -27q6 -18 21 -30q6 2 16 2q19 0 31 -12t12 -29q0 -24 -18 -42t-43 -18q-19 0 -31 12t-12 29q0 11 8 27q-16 39 -66 39
q-40 0 -72 -33t-32 -74q0 -30 19 -48.5t49 -18.5zM559 854q-6 -36 14.5 -59t55.5 -23q48 0 84 45q22 26 22 57q0 9 -6 27q-10 23 -20 31q-6 -2 -17 -2q-19 0 -31 12t-12 29q0 23 19 41t43 18q20 0 31.5 -11.5t11.5 -29.5q0 -8 -9 -26q17 -39 66 -39q40 0 72 32.5t32 73.5
q0 29 -17.5 48.5t-47.5 19.5h-199q-19 0 -35.5 -13t-19.5 -32zM344 817q17 -45 68 -45q34 0 64.5 23.5t37.5 58.5l37 199q3 19 -7 32t-28 13h-199q-39 0 -69.5 -32t-30.5 -71q0 -31 19.5 -51t50.5 -20q46 0 82 39q0 2 -1 6t-1 6q0 20 19 37.5t42 17.5q19 0 31 -11t12 -28
q0 -23 -19 -42t-42 -19q-13 0 -17 2q-18 -10 -33 -31q-22 -29 -22 -57q0 -12 6 -27zM401 731q-60 0 -87.5 42.5t-12.5 107.5q-62 0 -94.5 28.5t-32.5 73.5q0 40 23.5 77.5t60.5 57.5q-41 27 -41 84q0 65 50.5 109.5t125.5 44.5q10 66 55 107.5t103 41.5q35 0 61.5 -16
t38.5 -43q49 59 121 59q58 0 87.5 -41.5t12.5 -107.5q62 0 94.5 -29t32.5 -74q0 -39 -22.5 -77t-58.5 -58q38 -26 38 -84q0 -65 -50.5 -109t-125.5 -44q-10 -69 -55.5 -109.5t-101.5 -40.5q-34 0 -60.5 16t-38.5 44q-54 -60 -123 -60z" />
    <glyph glyph-name="topLogoCircle" horiz-adv-x="1204" 
d="M612 580q-167 0 -273 102t-106 262q0 144 78 272t207 204.5t273 76.5q167 0 272.5 -102t105.5 -262q0 -108 -46 -210t-122 -177t-178.5 -120.5t-210.5 -45.5z" />
    <glyph glyph-name="zero.slash" horiz-adv-x="1310" 
d="M557 -29q-113 0 -197.5 37.5t-135.5 107t-76 161t-25 204.5q0 185 50.5 358.5t140 307.5t223 215.5t288.5 81.5q113 0 198 -38t136 -107t76 -160.5t25 -204.5q0 -185 -49 -357t-137 -307.5t-222.5 -217t-294.5 -81.5zM301 485q0 -162 53 -245l604 1005q-59 35 -145 35
q-95 0 -178.5 -47t-143.5 -126t-103.5 -181t-65 -215t-21.5 -226zM569 135q95 0 178.5 47t143.5 126t103.5 181t65 215t21.5 226q0 126 -30 198l-586 -976q53 -17 104 -17z" />
    <glyph glyph-name="uni030C.alt" 
d="M295 1464h192l-188 -393h-127z" />
    </font>
</defs>
</svg>
