<?xml version="1.0" standalone="no"?>
<!DOCTYPE svg PUBLIC "-//W3C//DTD SVG 1.1//EN" "http://www.w3.org/Graphics/SVG/1.1/DTD/svg11.dtd" >
<svg xmlns="http://www.w3.org/2000/svg" xmlns:xlink="http://www.w3.org/1999/xlink" version="1.1">
<metadata>
Created by FontForge 20170731 at Mon Jan 17 17:38:50 2022
 By Aleksey,,,
(c) 2021, Copyright by Pangram Pangram Foundry. All rights reserved.
</metadata>
<defs>
<font id="PPNeueMontreal-Bold" horiz-adv-x="1175" >
  <font-face 
    font-family="PP Neue Montreal"
    font-weight="700"
    font-stretch="normal"
    units-per-em="2048"
    panose-1="2 11 8 4 1 1 1 1 1 4"
    ascent="1638"
    descent="-410"
    x-height="1049"
    cap-height="1464"
    bbox="-406 -584 4588 1962"
    underline-thickness="245"
    underline-position="-306"
    unicode-range="U+000D-1F150"
  />
<missing-glyph horiz-adv-x="1024" 
d="M102 -362v1826h820v-1826h-820zM205 -260h614v1622h-614v-1622z" />
    <glyph glyph-name="f_f" unicode="ff" horiz-adv-x="1349" 
d="M29 803v246h141v73q0 191 77 276t247 85q81 0 186 -21v-231q-58 6 -82 6q-51 0 -75.5 -23t-24.5 -100v-65h297v73q0 191 76.5 276t246.5 85q82 0 187 -21v-231q-59 6 -82 6q-51 0 -76 -23t-25 -100v-65h183v-246h-183v-803h-327v803h-297v-803h-328v803h-141z" />
    <glyph glyph-name="f_f_i" unicode="ffi" horiz-adv-x="1828" 
d="M29 803v246h141v73q0 191 77 276t247 85q81 0 186 -21v-231q-58 6 -82 6q-51 0 -75.5 -23t-24.5 -100v-65h297v73q0 191 76.5 276t246.5 85q82 0 187 -21v-231q-59 6 -82 6q-51 0 -76 -23t-25 -100v-65h183v-246h-183v-803h-327v803h-297v-803h-328v803h-141zM1419 1464
h328v-290h-328v290zM1419 1049h328v-1049h-328v1049z" />
    <glyph glyph-name="f_i" unicode="fi" horiz-adv-x="1198" 
d="M498 0h-328v803h-141v246h141v73q0 191 77 276t247 85q81 0 186 -21v-231q-58 6 -82 6q-51 0 -75.5 -23t-24.5 -100v-65h182v-246h-182v-803zM788 1464h328v-290h-328v290zM788 1049h328v-1049h-328v1049z" />
    <glyph glyph-name="f_l" unicode="fl" horiz-adv-x="1198" 
d="M498 0h-328v803h-141v246h141v73q0 191 77 276t247 85q81 0 186 -21v-231q-58 6 -82 6q-51 0 -75.5 -23t-24.5 -100v-65h182v-246h-182v-803zM788 1464h328v-1464h-328v1464z" />
    <glyph glyph-name=".notdef" horiz-adv-x="1024" 
d="M102 -362v1826h820v-1826h-820zM205 -260h614v1622h-614v-1622z" />
    <glyph glyph-name=".null" horiz-adv-x="0" 
 />
    <glyph glyph-name="nonmarkingreturn" horiz-adv-x="682" 
 />
    <glyph glyph-name="CR" unicode="&#xd;" horiz-adv-x="389" 
 />
    <glyph glyph-name="space" unicode=" " horiz-adv-x="389" 
 />
    <glyph glyph-name="exclam" unicode="!" horiz-adv-x="573" 
d="M113 1464h348v-319l-92 -666h-164l-92 666v319zM133 311h311v-311h-311v311z" />
    <glyph glyph-name="quotedbl" unicode="&#x22;" horiz-adv-x="905" 
d="M104 1464h287l-41 -551h-205zM514 1464h287l-41 -551h-205z" />
    <glyph glyph-name="numbersign" unicode="#" horiz-adv-x="1277" 
d="M1102 551l-51 -246h-152l-65 -305h-246l65 305h-184l-66 -305h-245l65 305h-153l51 246h155l54 252h-156l53 246h156l78 366h246l-78 -366h184l78 366h246l-78 -366h149l-53 -246h-149l-54 -252h150zM522 551h185l53 252h-185z" />
    <glyph glyph-name="dollar" unicode="$" horiz-adv-x="1310" 
d="M584 -205v180q-244 21 -387.5 148t-143.5 340h328q5 -186 203 -219v331q-7 2 -20.5 6.5t-20.5 6.5q-84 25 -145.5 49.5t-121.5 60.5t-97.5 78.5t-60 101.5t-22.5 132q0 185 131 297.5t357 126.5v143h137v-143q229 -20 359 -142t139 -315h-328q-21 150 -170 184v-305
q54 -16 90.5 -27.5t85 -28.5t81.5 -33t71.5 -38t64 -45t51.5 -53.5t41 -64t24 -75.5t9 -90q0 -190 -135.5 -305t-382.5 -125v-176h-137zM426 1036q0 -52 35.5 -80.5t122.5 -56.5v268q-158 -17 -158 -131zM909 371q0 61 -48 98.5t-140 67.5v-299q188 9 188 133z" />
    <glyph glyph-name="percent" unicode="%" horiz-adv-x="1835" 
d="M438 627q-189 0 -300 110t-111 299t111 300.5t300 111.5t299.5 -111.5t110.5 -300.5t-110.5 -299t-299.5 -110zM416 0l784 1415h219l-784 -1415h-219zM438 831q54 0 78.5 49t24.5 156q0 109 -24.5 158t-78.5 49q-55 0 -79.5 -49t-24.5 -158q0 -108 24.5 -156.5
t79.5 -48.5zM1397 -33q-189 0 -299.5 111.5t-110.5 300.5t110.5 299t299.5 110t300 -110t111 -299t-111 -300.5t-300 -111.5zM1397 172q55 0 79.5 49t24.5 158q0 108 -24.5 156.5t-79.5 48.5q-54 0 -78.5 -49t-24.5 -156q0 -109 24.5 -158t78.5 -49z" />
    <glyph glyph-name="ampersand" unicode="&#x26;" horiz-adv-x="1456" 
d="M1061 733h287q-33 -247 -168 -442l260 -291h-410l-67 82q-177 -115 -408 -115q-234 0 -364 111t-130 287q0 64 18.5 118.5t47 94t75 77t88.5 62.5t101 55q-91 112 -132.5 187t-41.5 163q0 71 29.5 137.5t83.5 119.5t139 85t188 33q197 1 319 -104t122 -265
q0 -121 -79.5 -208.5t-248.5 -174.5l213 -235q54 102 78 223zM524 1106q0 -44 26.5 -91.5t80.5 -111.5q160 102 160 207q0 51 -33.5 85t-100.5 34q-65 0 -99 -34.5t-34 -88.5zM410 428q0 -79 51 -129.5t153 -50.5q95 0 174 45l-266 321q-112 -81 -112 -186z" />
    <glyph glyph-name="quotesingle" unicode="'" horiz-adv-x="495" 
d="M104 1464h287l-41 -551h-205z" />
    <glyph glyph-name="parenleft" unicode="(" horiz-adv-x="739" 
d="M397 1577h287q-199 -453 -199 -928q0 -477 199 -930h-287q-108 174 -184 422.5t-76 507.5q0 266 75 509t185 419z" />
    <glyph glyph-name="parenright" unicode=")" horiz-adv-x="739" 
d="M342 -281h-287q199 453 199 928q0 477 -199 930h287q108 -174 184 -422.5t76 -507.5q0 -266 -75 -509t-185 -419z" />
    <glyph glyph-name="asterisk" unicode="*" horiz-adv-x="870" 
d="M819 1110l-229 -59l145 -197l-166 -121l-135 207l-135 -207l-166 121l146 197l-228 59l64 195l219 -91v250h205v-250l217 91z" />
    <glyph glyph-name="plus" unicode="+" horiz-adv-x="1200" 
d="M459 532h-357v283h357v371h282v-371h357v-283h-357v-370h-282v370z" />
    <glyph glyph-name="comma" unicode="," horiz-adv-x="444" 
d="M61 -342v143q148 24 148 199h-148v311h312v-311q0 -139 -81.5 -229.5t-230.5 -112.5z" />
    <glyph glyph-name="hyphen" unicode="-" horiz-adv-x="679" 
d="M61 657h557v-280h-557v280z" />
    <glyph glyph-name="period" unicode="." horiz-adv-x="434" 
d="M61 311h312v-311h-312v311z" />
    <glyph glyph-name="slash" unicode="/" horiz-adv-x="923" 
d="M45 0l567 1464h267l-568 -1464h-266z" />
    <glyph glyph-name="zero" unicode="0" horiz-adv-x="1382" 
d="M692 -33q-155 0 -275.5 56t-195.5 156.5t-113 233.5t-38 294q0 128 23.5 239t73.5 204t122.5 159t175 102.5t227.5 36.5q155 0 275 -56t195 -156.5t113 -234t38 -294.5t-38 -294t-113 -233.5t-195 -156.5t-275 -56zM692 254q74 0 125.5 34t80 97.5t40.5 141.5t12 180
t-12 180t-40.5 142t-80 98t-125.5 34t-126 -34t-80.5 -98t-41 -142t-12.5 -180t12.5 -180t41 -141.5t80.5 -97.5t126 -34z" />
    <glyph glyph-name="one" unicode="1" horiz-adv-x="872" 
d="M434 1415h287v-1415h-348v950q-75 -59 -299 -59v272q103 0 182 26t128.5 84t49.5 142z" />
    <glyph glyph-name="two" unicode="2" horiz-adv-x="1210" 
d="M401 899h-335q0 257 140 403t419 146q232 0 371 -115t139 -315q0 -57 -14.5 -112.5t-34.5 -99.5t-57.5 -91.5t-68 -80.5t-81.5 -75.5t-82.5 -66.5t-85.5 -64q-12 -9 -46.5 -35.5t-50.5 -39t-39 -32t-40 -36.5v-4h600v-281h-1090q0 88 22 162.5t51.5 128.5t99 121.5
t125 112.5t169.5 130q137 102 201.5 176t64.5 162q0 83 -41 128.5t-123 45.5q-104 0 -158.5 -63.5t-54.5 -204.5z" />
    <glyph glyph-name="three" unicode="3" horiz-adv-x="1265" 
d="M426 981h-336q0 206 148 336.5t399 130.5q108 0 202.5 -26t166 -74.5t112.5 -123t41 -165.5q0 -204 -205 -309v-5q246 -78 246 -339q0 -212 -148.5 -325.5t-406.5 -113.5q-284 0 -440 139t-156 394h336q0 -127 58 -189.5t190 -62.5q111 0 161 43.5t50 128.5q0 98 -63 142
t-189 44h-72v240h64q99 0 159 43.5t60 130.5q0 71 -44 109t-130 38q-90 0 -146.5 -45t-56.5 -141z" />
    <glyph glyph-name="four" unicode="4" horiz-adv-x="1316" 
d="M1053 0h-348v299h-642v342l642 774h348v-835h209v-281h-209v-299zM705 1036l-386 -456h386v456z" />
    <glyph glyph-name="five" unicode="5" horiz-adv-x="1275" 
d="M739 961q213 0 341 -128.5t128 -353.5q0 -125 -42 -223t-116.5 -161t-174 -95.5t-218.5 -32.5q-279 0 -430 127.5t-159 343.5h335q8 -82 68.5 -136t165.5 -54q100 0 157.5 60t57.5 175t-55 176.5t-166 61.5q-133 0 -215 -103h-328l164 797h895v-280h-658l-53 -271v-4
q129 101 303 101z" />
    <glyph glyph-name="six" unicode="6" horiz-adv-x="1306" 
d="M420 848l8 -6q130 123 330 123q216 0 351.5 -137t135.5 -343q0 -236 -150.5 -377t-404.5 -141q-136 0 -243 40t-176.5 107t-115 161t-64.5 196t-19 217q0 374 163 567t443 193q203 0 347.5 -109.5t178.5 -281.5h-352q-4 21 -14.5 41.5t-30 42t-54.5 34.5t-81 13
q-126 0 -187.5 -85.5t-64.5 -232.5v-22zM670 227q111 0 175 67t64 173q0 104 -64 171t-175 67q-113 0 -177.5 -67t-64.5 -171q0 -106 64.5 -173t177.5 -67z" />
    <glyph glyph-name="seven" unicode="7" horiz-adv-x="1157" 
d="M55 1415h1039v-260q-117 -95 -204.5 -227.5t-139 -285.5t-76.5 -313t-25 -329h-368q0 335 126 650.5t318 479.5v5h-670v280z" />
    <glyph glyph-name="eight" unicode="8" horiz-adv-x="1290" 
d="M645 -33q-165 0 -295.5 48t-210.5 149t-80 242q0 239 267 356v4q-205 109 -205 299q0 119 71 207t188.5 132t264.5 44t264.5 -44t188.5 -132t71 -207q0 -189 -204 -299v-4q266 -118 266 -356q0 -141 -80 -242t-210.5 -149t-295.5 -48zM645 858q102 0 155.5 49.5
t53.5 126.5q0 74 -53.5 124t-155.5 50t-155.5 -50t-53.5 -124q0 -77 53.5 -126.5t155.5 -49.5zM645 227q108 0 168.5 60t60.5 151q0 88 -60.5 147.5t-168.5 59.5t-168.5 -59.5t-60.5 -147.5q0 -91 60.5 -151t168.5 -60z" />
    <glyph glyph-name="nine" unicode="9" horiz-adv-x="1306" 
d="M887 567l-8 6q-129 -122 -330 -122q-143 0 -255.5 63.5t-172.5 172t-60 243.5q0 236 150.5 377t404.5 141q136 0 243.5 -40t176.5 -107t115 -161t65 -196t19 -217q0 -374 -163 -567t-443 -193q-203 0 -348 109.5t-179 281.5h353q4 -21 14.5 -41.5t30 -42t54.5 -34.5
t81 -13q126 0 187.5 85.5t64.5 232.5v22zM637 1188q-111 0 -175.5 -67.5t-64.5 -172.5q0 -104 64.5 -170.5t175.5 -66.5q113 0 177.5 66.5t64.5 170.5q0 106 -64.5 173t-177.5 67z" />
    <glyph glyph-name="colon" unicode=":" horiz-adv-x="458" 
d="M74 946h311v-311h-311v311zM74 311h311v-311h-311v311z" />
    <glyph glyph-name="semicolon" unicode=";" horiz-adv-x="458" 
d="M74 946h311v-311h-311v311zM74 -342v143q147 24 147 199h-147v311h311v-311q0 -139 -81 -229.5t-230 -112.5z" />
    <glyph glyph-name="less" unicode="&#x3c;" horiz-adv-x="1069" 
d="M946 1139v-281l-567 -223v-4l567 -223v-281l-844 352v307z" />
    <glyph glyph-name="equal" unicode="=" horiz-adv-x="1169" 
d="M102 1032h965v-282h-965v282zM102 598h965v-283h-965v283z" />
    <glyph glyph-name="greater" unicode="&#x3e;" horiz-adv-x="1069" 
d="M123 127v281l567 223v4l-567 223v281l844 -353v-307z" />
    <glyph glyph-name="question" unicode="?" horiz-adv-x="1138" 
d="M399 479q0 69 1.5 110t10.5 81t19 62t35 50.5t51.5 49.5t75.5 57q90 65 119.5 103t29.5 100q0 54 -35.5 89.5t-115.5 35.5q-96 0 -144.5 -61t-48.5 -177h-348q0 109 35 202t101.5 164t173 111.5t241.5 40.5q215 0 352.5 -110t137.5 -287q0 -119 -56 -200t-168 -144
q-115 -64 -155.5 -117t-40.5 -160h-271zM381 311h311v-311h-311v311z" />
    <glyph glyph-name="at" unicode="@" horiz-adv-x="1904" 
d="M1384 170q-103 0 -174.5 48t-97.5 138h-4q-23 -81 -91.5 -133.5t-164.5 -52.5q-147 0 -241.5 109t-94.5 309q0 217 107.5 344t269.5 127q156 0 223 -137h4l15 122h266l-66 -514q-12 -96 12.5 -136t84.5 -40q84 0 134 89.5t50 248.5q0 272 -163 430t-445 158
q-314 0 -504.5 -189t-190.5 -493q0 -288 174.5 -461.5t485.5 -173.5q182 0 350 66l66 -162q-163 -88 -412 -88q-174 0 -319 42t-248.5 116.5t-176 177.5t-107 224.5t-34.5 258.5q0 187 66 347.5t183.5 274.5t286.5 179t367 65q157 0 291.5 -40.5t231.5 -112.5t166 -169.5
t103 -212t34 -239.5q0 -251 -123.5 -385.5t-313.5 -134.5zM922 395q54 0 90.5 35.5t51.5 89t15 121.5q0 97 -29 145t-92 48q-76 0 -120.5 -67t-44.5 -185q0 -88 29 -137.5t100 -49.5z" />
    <glyph glyph-name="A" unicode="A" horiz-adv-x="1525" 
d="M1010 305h-502l-94 -305h-396l557 1464h371l561 -1464h-403zM592 586h336l-166 540h-4z" />
    <glyph glyph-name="B" unicode="B" horiz-adv-x="1409" 
d="M123 0v1464h711q464 0 464 -368q0 -126 -63 -202t-164 -110v-4q126 -22 205.5 -108t79.5 -240q0 -432 -502 -432h-731zM492 872h245q87 0 136 31t49 115q0 44 -14 73.5t-41 44.5t-57.5 21t-72.5 6h-245v-291zM492 301h256q121 0 176 37.5t55 136.5t-54.5 135.5
t-176.5 36.5h-256v-346z" />
    <glyph glyph-name="C" unicode="C" horiz-adv-x="1460" 
d="M1042 920q-11 64 -29 111t-50.5 86t-84 59t-122.5 20q-89 0 -152 -33t-98.5 -96.5t-51.5 -145t-16 -188.5q0 -108 15.5 -190t51.5 -145.5t99 -96.5t152 -33q72 0 124 20t84 59.5t50 87.5t28 114h377q-26 -262 -195.5 -422t-461.5 -160q-137 0 -251 37t-197 105
t-140 162.5t-85 209t-28 246.5q0 169 46.5 310t135 243.5t224 159.5t305.5 57q147 0 264 -42t196.5 -119t126.5 -182t60 -234h-377z" />
    <glyph glyph-name="D" unicode="D" horiz-adv-x="1486" 
d="M123 0v1464h649q308 0 480.5 -191t172.5 -542q0 -353 -163 -542t-469 -189h-670zM492 1163v-862h235q322 0 322 430q0 432 -322 432h-235z" />
    <glyph glyph-name="E" unicode="E" horiz-adv-x="1316" 
d="M492 903h638v-301h-638v-301h753v-301h-1122v1464h1110v-301h-741v-260z" />
    <glyph glyph-name="F" unicode="F" horiz-adv-x="1253" 
d="M492 842h587v-301h-587v-541h-369v1464h1089v-301h-720v-321z" />
    <glyph glyph-name="G" unicode="G" horiz-adv-x="1546" 
d="M1053 979q-12 44 -29 77.5t-48.5 67.5t-85.5 53t-126 19q-326 0 -326 -463q0 -108 17.5 -190t56 -145.5t105.5 -96.5t161 -33q127 0 208.5 69t84.5 175h-278v266h659v-778h-264l-37 186h-4q-55 -104 -160.5 -161.5t-261.5 -57.5q-153 0 -278.5 57.5t-210 159.5t-130 243
t-45.5 306q0 222 80 393t242 271t387 100q146 0 266.5 -41t201.5 -113t130 -164.5t62 -199.5h-377z" />
    <glyph glyph-name="H" unicode="H" horiz-adv-x="1484" 
d="M123 1464h369v-573h501v573h369v-1464h-369v590h-501v-590h-369v1464z" />
    <glyph glyph-name="I" unicode="I" horiz-adv-x="614" 
d="M123 1464h369v-1464h-369v1464z" />
    <glyph glyph-name="J" unicode="J" horiz-adv-x="1148" 
d="M1036 487q0 -90 -13.5 -163.5t-48 -141.5t-89.5 -114t-144 -73.5t-206 -27.5t-206 27.5t-144.5 73.5t-90 114t-48 141.5t-13.5 163.5v123h327v-123q0 -111 34 -165t120 -54t120 54t34 165v977h368v-977z" />
    <glyph glyph-name="K" unicode="K" horiz-adv-x="1470" 
d="M123 0v1464h369v-624l524 624h395l-551 -641l592 -823h-430l-379 571l-151 -176v-395h-369z" />
    <glyph glyph-name="L" unicode="L" horiz-adv-x="1183" 
d="M123 1464h369v-1163h651v-301h-1020v1464z" />
    <glyph glyph-name="M" unicode="M" horiz-adv-x="1753" 
d="M123 0v1464h450l301 -934h5l301 934h450v-1464h-348v911h-4l-272 -911h-258l-273 911h-4v-911h-348z" />
    <glyph glyph-name="N" unicode="N" horiz-adv-x="1499" 
d="M123 0v1464h369l512 -870h4v870h368v-1464h-368l-512 870h-4v-870h-369z" />
    <glyph glyph-name="O" unicode="O" horiz-adv-x="1572" 
d="M786 -33q-171 0 -309 57.5t-228.5 160t-139 242.5t-48.5 306q0 222 83 393t249 271t393 100q225 0 391 -99.5t250 -271.5t84 -393q0 -166 -49 -306.5t-140 -242.5t-228.5 -159.5t-307.5 -57.5zM786 268q97 0 166.5 36t108.5 101.5t56.5 146t17.5 181.5q0 100 -17.5 180
t-56.5 145.5t-108.5 101.5t-166.5 36q-348 0 -348 -463q0 -465 348 -465z" />
    <glyph glyph-name="P" unicode="P" horiz-adv-x="1366" 
d="M123 0v1464h711q233 0 364 -120t131 -347t-131 -347t-364 -120h-342v-530h-369zM492 831h256q100 0 152 38.5t52 127.5t-52 127.5t-152 38.5h-256v-332z" />
    <glyph glyph-name="Q" unicode="Q" horiz-adv-x="1572" 
d="M786 -33q-171 0 -309 57.5t-228.5 160t-139 242.5t-48.5 306q0 222 83 393t249 271t393 100q225 0 391 -99.5t250 -271.5t84 -393q0 -341 -188 -547l154 -155l-179 -185l-184 187q-144 -66 -328 -66zM786 268q50 0 86 8l-174 177l179 184l200 -203q58 116 58 299
q0 100 -17.5 180t-56.5 145.5t-108.5 101.5t-166.5 36q-348 0 -348 -463q0 -465 348 -465z" />
    <glyph glyph-name="R" unicode="R" horiz-adv-x="1421" 
d="M123 0v1464h690q246 0 384 -109.5t138 -307.5q0 -150 -78.5 -242.5t-218.5 -124.5v-4q75 -13 128.5 -54.5t80.5 -98.5t43 -123.5t21.5 -131t9 -118.5t11.5 -89.5t24 -40.5v-20h-383q-16 14 -22 59t-5.5 100.5t-8.5 118t-27.5 114t-66.5 85t-122 33.5h-229v-510h-369z
M492 1163v-352h249q226 0 226 176t-226 176h-249z" />
    <glyph glyph-name="S" unicode="S" horiz-adv-x="1325" 
d="M723 893q213 -63 297 -102q189 -86 241 -226q23 -61 23 -135q0 -213 -153.5 -338t-425.5 -125q-193 0 -344 62t-239.5 183.5t-88.5 285.5h373q0 -121 80 -177.5t214 -56.5q100 0 153.5 36t53.5 95q0 28 -9 51.5t-30.5 42t-44.5 32.5t-62.5 28.5t-72 25t-85.5 26.5
q-29 8 -44 13q-85 25 -149 49t-130 62t-107.5 82t-68 107t-26.5 139q0 93 28.5 168t79.5 126t122.5 85t154.5 49.5t180 15.5q172 0 310 -56.5t222 -166t89 -254.5h-373q-12 85 -77 132.5t-171 47.5q-87 0 -137.5 -30t-50.5 -91q0 -69 57.5 -105t210.5 -81z" />
    <glyph glyph-name="T" unicode="T" horiz-adv-x="1316" 
d="M475 0v1163h-426v301h1219v-301h-424v-1163h-369z" />
    <glyph glyph-name="U" unicode="U" horiz-adv-x="1449" 
d="M1337 528q0 -282 -144.5 -421.5t-467.5 -139.5t-467.5 139.5t-144.5 421.5v936h368v-936q0 -139 59.5 -199.5t184.5 -60.5t184.5 60.5t59.5 199.5v936h368v-936z" />
    <glyph glyph-name="V" unicode="V" horiz-adv-x="1376" 
d="M12 1464h404l276 -1026h4l279 1026h389l-475 -1464h-389z" />
    <glyph glyph-name="W" unicode="W" horiz-adv-x="1966" 
d="M20 1464h369l189 -993h4l227 993h348l227 -993h5l188 993h369l-373 -1464h-369l-219 913h-4l-219 -913h-369z" />
    <glyph glyph-name="X" unicode="X" horiz-adv-x="1456" 
d="M512 748l-444 716h389l268 -446h4l270 446h390l-445 -712l486 -752h-410l-291 475h-4l-289 -475h-409z" />
    <glyph glyph-name="Y" unicode="Y" horiz-adv-x="1394" 
d="M16 1464h398l284 -622h4l287 622h389l-493 -923v-541h-369v541z" />
    <glyph glyph-name="Z" unicode="Z" horiz-adv-x="1290" 
d="M115 1464h1079v-301l-670 -858v-4h690v-301h-1140v301l669 858v4h-628v301z" />
    <glyph glyph-name="bracketleft" unicode="[" horiz-adv-x="856" 
d="M139 1577h629v-281h-281v-1296h281v-281h-629v1858z" />
    <glyph glyph-name="backslash" unicode="\" horiz-adv-x="923" 
d="M45 1464h266l568 -1464h-267z" />
    <glyph glyph-name="bracketright" unicode="]" horiz-adv-x="856" 
d="M717 -281h-629v281h281v1296h-281v281h629v-1858z" />
    <glyph glyph-name="asciicircum" unicode="^" horiz-adv-x="995" 
d="M375 1464h246l342 -563h-308l-157 277h-2l-156 -277h-307z" />
    <glyph glyph-name="underscore" unicode="_" horiz-adv-x="1146" 
d="M41 -72h1065v-280h-1065v280z" />
    <glyph glyph-name="grave" unicode="`" horiz-adv-x="620" 
d="M430 1485l109 -311h-246l-191 311h328z" />
    <glyph glyph-name="a" unicode="a" horiz-adv-x="1146" 
d="M375 -33q-153 0 -243.5 83.5t-90.5 223.5q0 63 21 115t55.5 88t87.5 65t109 47.5t128 33.5q15 3 50.5 10t55.5 11.5t50.5 13t48.5 18t36.5 22.5t27 30.5t8.5 39.5q0 44 -35 69t-104 25q-90 0 -134.5 -37t-52.5 -114h-311q4 78 35 143.5t91 117.5t158.5 81.5t227.5 29.5
q222 0 332 -101t110 -335v-405q0 -44 7.5 -62t31.5 -18q15 0 27 2v-156q-99 -18 -180 -18q-94 0 -139 34t-58 103h-4q-59 -73 -148 -116.5t-198 -43.5zM512 193q94 0 150.5 68t56.5 163v88q-55 -20 -178 -49q-88 -21 -126 -58.5t-38 -95.5q0 -116 135 -116z" />
    <glyph glyph-name="b" unicode="b" horiz-adv-x="1218" 
d="M414 104h-4v-104h-328v1464h328v-520h4q38 51 119 94t184 43q210 0 333.5 -150t123.5 -407t-123.5 -407t-333.5 -150q-103 0 -184 43t-119 94zM627 836q-101 0 -156 -80t-55 -232t55 -231.5t156 -79.5t156 79.5t55 231.5t-55 232t-156 80z" />
    <glyph glyph-name="c" unicode="c" horiz-adv-x="1128" 
d="M762 657q-21 181 -178 181q-100 0 -151.5 -82t-51.5 -232t51 -231.5t152 -81.5q159 0 178 184h330q-12 -191 -148 -310.5t-358 -119.5q-246 0 -393.5 155t-147.5 404q0 247 146 403t387 156q221 0 357 -118t157 -308h-330z" />
    <glyph glyph-name="d" unicode="d" horiz-adv-x="1218" 
d="M805 944h4v520h328v-1464h-328v104h-4q-38 -51 -119 -94t-184 -43q-210 0 -333.5 150t-123.5 407t123.5 407t333.5 150q103 0 184 -43t119 -94zM592 213q101 0 156 79.5t55 231.5t-55 232t-156 80t-156 -80t-55 -232t55 -231.5t156 -79.5z" />
    <glyph glyph-name="e" unicode="e" 
d="M590 -35q-251 0 -398 154.5t-147 404.5q0 116 36 217t103.5 177.5t172 120.5t233.5 44q265 0 400.5 -153t135.5 -445v-49h-753q1 -105 65 -165t160 -60q146 0 186 106h334q-46 -165 -179.5 -258.5t-348.5 -93.5zM590 846q-95 0 -152 -53.5t-63 -153.5h422
q0 100 -55 153.5t-152 53.5z" />
    <glyph glyph-name="f" unicode="f" horiz-adv-x="724" 
d="M498 0h-328v803h-141v246h141v73q0 191 77 276t247 85q81 0 186 -21v-231q-58 6 -82 6q-51 0 -75.5 -23t-24.5 -100v-65h182v-246h-182v-803z" />
    <glyph glyph-name="g" unicode="g" horiz-adv-x="1185" 
d="M776 125v61h-4q-40 -54 -112 -95.5t-175 -41.5q-199 0 -319.5 143.5t-120.5 372.5t120.5 372.5t319.5 143.5q103 0 175 -41.5t112 -95.5h4v105h328v-924q0 -138 -36 -236t-106 -155t-163.5 -83t-218.5 -26q-117 0 -211.5 29t-155 78.5t-96.5 108t-51 124.5h331
q36 -104 183 -104q109 0 152.5 61t43.5 203zM575 836q-98 0 -146 -70t-48 -201q0 -270 194 -270q98 0 146.5 70t48.5 200t-48.5 200.5t-146.5 70.5z" />
    <glyph glyph-name="h" unicode="h" 
d="M770 604q0 115 -39.5 163t-124.5 48q-196 0 -196 -209v-606h-328v1464h328v-567h4q105 184 344 184q155 0 247.5 -97.5t92.5 -274.5v-709h-328v604z" />
    <glyph glyph-name="i" unicode="i" horiz-adv-x="491" 
d="M82 1464h328v-290h-328v290zM82 1049h328v-1049h-328v1049z" />
    <glyph glyph-name="j" unicode="j" horiz-adv-x="495" 
d="M86 1464h328v-290h-328v290zM86 -375q-83 0 -182 21v250q58 -7 76 -7q55 0 80.5 23.5t25.5 101.5v1035h328v-1018q0 -200 -77 -303t-251 -103z" />
    <glyph glyph-name="k" unicode="k" horiz-adv-x="1165" 
d="M82 0v1464h328v-805l350 390h348l-371 -394l414 -655h-379l-248 432l-114 -121v-311h-328z" />
    <glyph glyph-name="l" unicode="l" horiz-adv-x="491" 
d="M82 1464h328v-1464h-328v1464z" />
    <glyph glyph-name="m" unicode="m" horiz-adv-x="1785" 
d="M82 0v1049h328v-152h4q45 79 130.5 131.5t196.5 52.5q100 0 171.5 -50t103.5 -134h4q52 60 94.5 96t109.5 62t148 26q159 0 247.5 -96.5t88.5 -275.5v-709h-332v604q0 120 -31 165.5t-118 45.5q-81 0 -125.5 -51.5t-44.5 -157.5v-606h-328v604q0 120 -31 165.5t-118 45.5
q-80 0 -125 -52t-45 -157v-606h-328z" />
    <glyph glyph-name="n" unicode="n" 
d="M82 0v1049h328v-152h4q105 184 344 184q155 0 247.5 -97.5t92.5 -274.5v-709h-328v604q0 115 -39.5 163t-124.5 48q-196 0 -196 -209v-606h-328z" />
    <glyph glyph-name="o" unicode="o" horiz-adv-x="1210" 
d="M602 -35q-257 0 -407 152.5t-150 404.5q0 251 151.5 406t411.5 155q257 0 407 -152.5t150 -402.5q0 -253 -151.5 -408t-411.5 -155zM606 211q109 0 168.5 80.5t59.5 232.5t-59.5 233t-168.5 81q-110 0 -169.5 -81t-59.5 -233t59 -232.5t170 -80.5z" />
    <glyph glyph-name="p" unicode="p" horiz-adv-x="1218" 
d="M414 104h-4v-466h-328v1411h328v-105h4q38 51 119 94t184 43q210 0 333.5 -150t123.5 -407t-123.5 -407t-333.5 -150q-103 0 -184 43t-119 94zM627 836q-101 0 -156 -80t-55 -232t55 -231.5t156 -79.5t156 79.5t55 231.5t-55 232t-156 80z" />
    <glyph glyph-name="q" unicode="q" horiz-adv-x="1218" 
d="M809 -362v466h-4q-38 -51 -119 -94t-184 -43q-210 0 -333.5 150t-123.5 407t123.5 407t333.5 150q103 0 184 -43t119 -94h4v105h328v-1411h-328zM592 213q101 0 156 79.5t55 231.5t-55 232t-156 80t-156 -80t-55 -232t55 -231.5t156 -79.5z" />
    <glyph glyph-name="r" unicode="r" horiz-adv-x="798" 
d="M82 1049h328v-172h4q39 85 105 132.5t151 47.5q53 0 90 -8v-287q-40 6 -68 6q-118 0 -200 -73.5t-82 -207.5v-487h-328v1049z" />
    <glyph glyph-name="s" unicode="s" horiz-adv-x="1044" 
d="M602 662q51 -12 88.5 -22t83.5 -26.5t78 -34.5t64.5 -45t52.5 -58.5t32.5 -74.5t12.5 -94q0 -164 -121 -252t-348 -88q-133 0 -234 30t-160.5 84t-90 120.5t-33.5 146.5h307q15 -155 205 -155q139 0 139 90q0 15 -3.5 28t-12 23.5t-16.5 18.5t-25 15.5t-29.5 12t-36.5 11
t-39 10t-45.5 10t-48.5 10.5q-62 15 -110.5 30.5t-100.5 43t-86 61t-56 83.5t-22 112q0 150 120.5 239.5t338.5 89.5q121 0 214 -29t147.5 -79.5t83 -112t32.5 -133.5h-307q-8 65 -46.5 97t-117.5 32q-129 0 -129 -84q0 -44 34 -60.5t139 -39.5q9 -2 14.5 -3t14.5 -3t17 -4z
" />
    <glyph glyph-name="t" unicode="t" horiz-adv-x="733" 
d="M20 1049h146v292h328v-292h182v-246h-182v-455q0 -78 25.5 -100.5t80.5 -22.5q36 0 88 8v-231q-96 -22 -194 -22q-173 0 -250.5 84.5t-77.5 275.5v463h-146v246z" />
    <glyph glyph-name="u" unicode="u" 
d="M406 444q0 -115 39.5 -163t123.5 -48q197 0 197 209v607h328v-1049h-328v152h-4q-106 -185 -344 -185q-155 0 -247.5 98t-92.5 275v709h328v-605z" />
    <glyph glyph-name="v" unicode="v" horiz-adv-x="1114" 
d="M14 1049h332l213 -693h4l213 693h324l-363 -1049h-360z" />
    <glyph glyph-name="w" unicode="w" horiz-adv-x="1650" 
d="M20 1049h328l158 -639h4l176 639h287l176 -639h6l158 639h317l-293 -1049h-307l-203 664h-4l-202 -664h-308z" />
    <glyph glyph-name="x" unicode="x" horiz-adv-x="1146" 
d="M55 1049h348l168 -304h4l168 304h349l-320 -514l361 -535h-369l-189 324h-4l-188 -324h-369l361 535z" />
    <glyph glyph-name="y" unicode="y" horiz-adv-x="1157" 
d="M432 14l-418 1035h338l246 -691h4l225 691h324l-383 -1051q-46 -126 -97.5 -201.5t-131.5 -117t-193 -41.5q-96 0 -196 20v250q52 -6 98 -6q21 0 34 0.5t34.5 3.5t36.5 10.5t31.5 19t28.5 31.5t19 47z" />
    <glyph glyph-name="z" unicode="z" horiz-adv-x="1042" 
d="M51 236l510 563v4h-469v246h879v-236l-510 -563v-4h530v-246h-940v236z" />
    <glyph glyph-name="braceleft" unicode="{" horiz-adv-x="856" 
d="M72 788q83 -1 111 27t28 107v258q0 85 14 148.5t44.5 107t70 71.5t100 43.5t123.5 21t150 5.5h55v-281h-55q-154 0 -154 -190v-238q0 -87 -33.5 -137.5t-109.5 -81.5v-4q76 -31 109.5 -82t33.5 -139v-225q0 -199 154 -199h55v-281h-55q-86 0 -150 6.5t-123.5 22.5
t-99.5 45t-70.5 73.5t-44.5 109t-14 149.5v250q0 76 -28 103.5t-111 27.5v282z" />
    <glyph glyph-name="bar" unicode="|" horiz-adv-x="503" 
d="M139 1544h226v-1827h-226v1827z" />
    <glyph glyph-name="braceright" unicode="}" horiz-adv-x="856" 
d="M784 508q-83 1 -111 -26.5t-28 -106.5v-258q0 -102 -22 -173.5t-60.5 -115t-104 -68t-138 -33t-177.5 -8.5h-55v281h55q154 0 154 190v238q0 87 33.5 137.5t109.5 81.5v4q-76 31 -109.5 82t-33.5 139v226q0 198 -154 198h-55v281h55q86 0 150 -6.5t123.5 -22.5t99.5 -45
t70.5 -73.5t44.5 -109t14 -149.5v-249q0 -76 28 -103.5t111 -27.5v-283z" />
    <glyph glyph-name="asciitilde" unicode="~" horiz-adv-x="962" 
d="M70 489q0 182 59.5 270.5t183.5 88.5q59 0 112 -23t97 -46t82 -23q84 0 84 92h205q0 -182 -60 -270.5t-184 -88.5q-59 0 -112 23.5t-97 46.5t-82 23q-84 0 -84 -93h-204z" />
    <glyph glyph-name="uni00A0" unicode="&#xa0;" horiz-adv-x="389" 
 />
    <glyph glyph-name="exclamdown" unicode="&#xa1;" horiz-adv-x="573" 
d="M129 887v311h311v-311h-311zM113 -266v319l92 666h164l92 -666v-319h-348z" />
    <glyph glyph-name="cent" unicode="&#xa2;" horiz-adv-x="1155" 
d="M762 879q-16 130 -100 165v-598q86 36 100 170h330q-11 -172 -125.5 -288.5t-304.5 -137.5v-180h-144v180q-218 22 -345.5 173t-127.5 382q0 230 129 384t344 174v143h144v-146q186 -23 298.5 -137t131.5 -284h-330zM381 745q0 -254 137 -303v607q-137 -49 -137 -304z
" />
    <glyph glyph-name="sterling" unicode="&#xa3;" horiz-adv-x="1241" 
d="M825 756v-217h-254q-19 -119 -131 -234l2 -4q84 41 160 41q68 0 152.5 -34t150.5 -34q111 0 201 76l129 -256q-79 -66 -151.5 -96.5t-172.5 -30.5q-76 0 -141 18.5t-103 41t-90.5 41t-107.5 18.5q-116 0 -256 -86l-156 254q158 98 168 285h-147v217h104q-6 14 -22 46
t-24 50t-18.5 47.5t-15 60t-4.5 64.5q0 58 14.5 113t52.5 110.5t96 96.5t153 66.5t215 25.5q145 0 252.5 -37t172.5 -106.5t96.5 -162.5t31.5 -212h-348q0 237 -199 237q-97 0 -143 -47t-46 -123q0 -26 4.5 -50t15 -49.5t18.5 -41.5t24.5 -46t23.5 -42h293z" />
    <glyph glyph-name="currency" unicode="&#xa4;" horiz-adv-x="1089" 
d="M547 297q-113 0 -201 45l-123 -123l-174 174l123 123q-43 94 -43 199q0 104 43 198l-123 123l174 174l123 -123q90 46 201 46q113 0 198 -43l121 120l174 -174l-120 -121q43 -87 43 -200q0 -111 -45 -199l122 -123l-174 -174l-121 121q-94 -43 -198 -43zM547 481
q87 0 128.5 64t41.5 170t-41.5 169.5t-128.5 63.5q-89 0 -130.5 -63.5t-41.5 -169.5t41.5 -170t130.5 -64z" />
    <glyph glyph-name="yen" unicode="&#xa5;" horiz-adv-x="1355" 
d="M1190 371v-138h-338v-233h-348v233h-338v138h338v118h-338v138h291l-434 778h389l264 -555h4l264 555h389l-434 -778h291v-138h-338v-118h338z" />
    <glyph glyph-name="brokenbar" unicode="&#xa6;" horiz-adv-x="503" 
d="M139 1544h226v-758h-226v758zM139 502h226v-785h-226v785z" />
    <glyph glyph-name="section" unicode="&#xa7;" horiz-adv-x="1327" 
d="M682 -362q-229 0 -351 112.5t-130 298.5h327q7 -92 42 -139t116 -47q65 0 99 28t34 76q0 19 -6 36t-14 30.5t-25 27.5t-30 23.5t-38.5 23.5t-41 21.5t-46.5 22t-47 22.5l-133 66q-162 80 -220 122q-120 87 -135 210q-3 21 -3 44q0 97 55.5 170t159.5 111q-92 99 -92 233
q0 164 120.5 261.5t344.5 97.5q229 0 351 -113t130 -299h-328q-7 92 -41.5 139.5t-115.5 47.5q-65 0 -99.5 -28.5t-34.5 -76.5q0 -19 6 -36t14 -30.5t25 -27.5t30 -23.5t38.5 -23.5t41 -21.5t46.5 -22t47 -22.5l133 -65q162 -80 221 -123q121 -88 136 -213q2 -20 2 -41
q0 -97 -55.5 -170t-159.5 -111q92 -99 92 -233q0 -164 -120.5 -261t-344.5 -97zM752 414q27 -12 79 -39q54 4 83.5 30.5t29.5 69.5q0 48 -42.5 80t-166.5 92l-137 66q-34 15 -80 39q-54 -4 -83 -31t-29 -70q0 -48 42.5 -80.5t165.5 -91.5z" />
    <glyph glyph-name="dieresis" unicode="&#xa8;" horiz-adv-x="946" 
d="M96 1464h328v-290h-328v290zM522 1464h328v-290h-328v290z" />
    <glyph glyph-name="copyright" unicode="&#xa9;" horiz-adv-x="1714" 
d="M858 -33q-353 0 -559.5 206t-206.5 558q0 353 206.5 559.5t559.5 206.5t559.5 -206.5t206.5 -559.5q0 -352 -206.5 -558t-559.5 -206zM858 115q276 0 431 164t155 452t-155 453.5t-431 165.5t-431 -165.5t-155 -453.5t155 -452t431 -164zM870 272q-203 0 -324.5 127
t-121.5 332q0 204 116.5 332.5t313.5 128.5q183 0 291.5 -97t124.5 -253h-264q-17 147 -146 147q-166 0 -166 -258q0 -256 166 -256q75 0 107 40.5t39 109.5h264q-9 -157 -114 -255t-286 -98z" />
    <glyph glyph-name="ordfeminine" unicode="&#xaa;" horiz-adv-x="985" 
d="M319 573q-129 0 -205.5 68t-76.5 182q0 64 26 113.5t75 81.5t105.5 52.5t131.5 35.5q130 25 164 38q69 26 69 77q0 69 -110 69q-143 0 -156 -119h-270q8 134 116 221t320 87q189 0 282 -85t93 -282v-315q0 -23 1.5 -33t10.5 -18.5t29 -8.5q4 0 16 2v-143
q-82 -18 -147 -18q-86 0 -127 30t-54 90h-2q-46 -55 -122.5 -90t-168.5 -35zM436 770q82 0 127 51.5t45 124.5v64q-64 -30 -147 -47q-131 -30 -131 -111q0 -41 29 -61.5t77 -20.5z" />
    <glyph glyph-name="guillemotleft" unicode="&#xab;" horiz-adv-x="999" 
d="M82 371v321l385 318v-316l-229 -162v-4l229 -166v-307zM512 371v321l385 318v-316l-229 -162v-4l229 -166v-307z" />
    <glyph glyph-name="logicalnot" unicode="&#xac;" horiz-adv-x="1114" 
d="M653 600h-551v281h879v-607h-328v326z" />
    <glyph glyph-name="uni00AD" unicode="&#xad;" horiz-adv-x="679" 
d="M61 657h557v-280h-557v280z" />
    <glyph glyph-name="registered" unicode="&#xae;" horiz-adv-x="1128" 
d="M565 506q-207 0 -349 141.5t-142 353.5t142 354t349 142t348.5 -142t141.5 -354t-141.5 -353.5t-348.5 -141.5zM565 602q172 0 272.5 109t100.5 293q0 182 -100.5 290.5t-272.5 108.5q-173 0 -274 -108.5t-101 -290.5q0 -184 101 -293t274 -109zM350 737v543h256
q90 0 141.5 -41t51.5 -117q0 -53 -29 -87.5t-80 -45.5v-2q46 -8 70.5 -46.5t27.5 -80t6.5 -77.5t12.5 -38v-8h-162q-9 7 -11 39.5t-3 65t-20.5 59.5t-59.5 27h-45v-191h-156zM506 1042h53q84 0 84 64q0 63 -84 63h-53v-127z" />
    <glyph glyph-name="macron" unicode="&#xaf;" horiz-adv-x="749" 
d="M82 1378h586v-204h-586v204z" />
    <glyph glyph-name="degree" unicode="&#xb0;" horiz-adv-x="778" 
d="M389 868q-144 0 -231.5 92.5t-87.5 223.5t87 222t232 91q143 0 231.5 -91.5t88.5 -221.5q0 -131 -88.5 -223.5t-231.5 -92.5zM389 1032q54 0 94.5 38t40.5 114q0 75 -40.5 112t-94.5 37t-94.5 -37t-40.5 -112q0 -76 40.5 -114t94.5 -38z" />
    <glyph glyph-name="plusminus" unicode="&#xb1;" horiz-adv-x="1200" 
d="M102 287h357v303h-357v282h357v371h282v-371h357v-282h-357v-303h357v-283h-996v283z" />
    <glyph glyph-name="twosuperior" unicode="&#xb2;" horiz-adv-x="790" 
d="M303 1264h-237q0 162 84.5 248.5t257.5 86.5q146 0 230.5 -68.5t84.5 -189.5q0 -47 -14.5 -91.5t-31.5 -73.5t-51.5 -65t-52 -51t-55.5 -46q-55 -42 -76 -68v-2h285v-199h-670q0 54 6.5 90t17 64t42 60t62 57.5t96.5 75.5q8 6 36.5 26.5t39.5 29.5t34 28.5t33.5 33t24 33
t19 39.5t5.5 41q0 39 -19.5 58.5t-54.5 19.5q-46 0 -71 -29t-25 -108z" />
    <glyph glyph-name="threesuperior" unicode="&#xb3;" horiz-adv-x="819" 
d="M414 737q-175 0 -270 83.5t-95 238.5h238q0 -66 26 -95.5t90 -29.5q97 0 97 82q0 44 -31.5 64t-103.5 20h-29v164h24q117 0 117 82q0 33 -21.5 50t-54.5 17q-41 0 -66.5 -20t-25.5 -62h-235q0 124 92 202.5t246 78.5q137 0 228 -62.5t91 -169.5q0 -112 -117 -182v-2
q140 -47 140 -197q0 -127 -91 -194.5t-249 -67.5z" />
    <glyph glyph-name="acute" unicode="&#xb4;" horiz-adv-x="620" 
d="M190 1485h369l-231 -311h-246z" />
    <glyph glyph-name="mu" unicode="&#xb5;" horiz-adv-x="1179" 
d="M82 -362v1411h328v-605q0 -115 39.5 -163t123.5 -48q197 0 197 209v607h328v-1049h-328v152h-4q-41 -84 -112.5 -128t-149.5 -44q-53 0 -94 20v-362h-328z" />
    <glyph glyph-name="paragraph" unicode="&#xb6;" horiz-adv-x="1267" 
d="M590 686h-86q-207 0 -317.5 99t-110.5 284q0 186 111.5 290.5t316.5 104.5h641v-1464h-205v1280h-145v-1280h-205v686z" />
    <glyph glyph-name="periodcentered" unicode="&#xb7;" horiz-adv-x="434" 
d="M61 668h312v-312h-312v312z" />
    <glyph glyph-name="cedilla" unicode="&#xb8;" horiz-adv-x="661" 
d="M463 0l-80 -98v-4q89 10 154 -26.5t65 -111.5q0 -77 -77 -121.5t-191 -44.5q-131 0 -230 68l62 72q67 -31 129 -31q41 0 67.5 14.5t26.5 44.5q0 56 -70 56q-32 0 -75 -15l-49 70l120 127h148z" />
    <glyph glyph-name="onesuperior" unicode="&#xb9;" horiz-adv-x="643" 
d="M283 1577h217v-832h-262v519q-43 -19 -177 -19v189q93 0 158 39t64 104z" />
    <glyph glyph-name="ordmasculine" unicode="&#xba;" horiz-adv-x="1040" 
d="M518 573q-217 0 -345 125t-128 328q0 202 128.5 327.5t348.5 125.5q217 0 345 -124t128 -325q0 -204 -128.5 -330.5t-348.5 -126.5zM520 786q87 0 133.5 61.5t46.5 180.5q0 116 -47 177t-133 61q-87 0 -133.5 -61.5t-46.5 -176.5q0 -119 46.5 -180.5t133.5 -61.5z" />
    <glyph glyph-name="guillemotright" unicode="&#xbb;" horiz-adv-x="999" 
d="M918 694v-321l-386 -318v316l230 161v5l-230 165v308zM487 694v-321l-385 -318v316l230 161v5l-230 165v308z" />
    <glyph glyph-name="onequarter" unicode="&#xbc;" horiz-adv-x="1767" 
d="M283 1464h217v-831h-262v518q-40 -18 -177 -18v188q93 0 158 39t64 104zM1149 1464h287l-928 -1464h-287zM1569 0h-248v166h-367v246l367 419h248v-469h123v-196h-123v-166zM1321 573l-193 -211h193v211z" />
    <glyph glyph-name="onehalf" unicode="&#xbd;" horiz-adv-x="1837" 
d="M283 1464h217v-831h-262v518q-40 -18 -177 -18v188q93 0 158 39t64 104zM1165 1464h287l-928 -1464h-286zM1350 518h-238q0 162 84.5 249t257.5 87q146 0 230.5 -68.5t84.5 -189.5q0 -39 -8 -75t-26.5 -68t-34.5 -55.5t-45 -51t-44 -40.5t-46 -38q-57 -43 -76 -67v-2h285
v-199h-670q0 45 2.5 75t14.5 60t23.5 48.5t42 48t57.5 51t83 63.5q7 5 36 26.5t40 30t34.5 28.5t34 33.5t24 33t19 39.5t5.5 41q0 77 -74 77q-46 0 -71 -29t-25 -108z" />
    <glyph glyph-name="threequarters" unicode="&#xbe;" horiz-adv-x="1914" 
d="M414 612q-175 0 -270 83.5t-95 238.5h238q0 -66 26 -95.5t90 -29.5q97 0 97 82q0 44 -31.5 64t-103.5 20h-29v164h24q117 0 117 82q0 33 -21.5 50t-54.5 17q-41 0 -66.5 -20t-25.5 -62h-235q0 124 92 202.5t246 78.5q137 0 228 -62.5t91 -169.5q0 -112 -117 -182v-2
q140 -47 140 -197q0 -127 -91 -194.5t-249 -67.5zM1300 1464h287l-928 -1464h-286zM1716 0h-248v166h-366v246l366 419h248v-469h123v-196h-123v-166zM1468 573l-192 -211h192v211z" />
    <glyph glyph-name="questiondown" unicode="&#xbf;" horiz-adv-x="1138" 
d="M758 891h-312v311h312v-311zM739 723q0 -69 -1.5 -110t-10 -81t-18.5 -62t-35 -50.5t-51.5 -49.5t-75.5 -57q-91 -66 -120.5 -103.5t-29.5 -98.5q0 -54 36 -89.5t116 -35.5q192 0 192 237h349q0 -109 -35 -202t-101.5 -164t-173 -111.5t-241.5 -40.5q-215 0 -352.5 110
t-137.5 287q0 119 55.5 200t167.5 144q115 64 156 117t41 160h270z" />
    <glyph glyph-name="Agrave" unicode="&#xc0;" horiz-adv-x="1525" 
d="M770 1905l109 -312h-246l-191 312h328zM1010 305h-502l-94 -305h-396l557 1464h371l561 -1464h-403zM592 586h336l-166 540h-4z" />
    <glyph glyph-name="Aacute" unicode="&#xc1;" horiz-adv-x="1525" 
d="M745 1901h369l-231 -312h-246zM1010 305h-502l-94 -305h-396l557 1464h371l561 -1464h-403zM592 586h336l-166 540h-4z" />
    <glyph glyph-name="Acircumflex" unicode="&#xc2;" horiz-adv-x="1525" 
d="M381 1589l219 312h320l219 -312h-285l-92 166h-4l-92 -166h-285zM1010 305h-502l-94 -305h-396l557 1464h371l561 -1464h-403zM592 586h336l-166 540h-4z" />
    <glyph glyph-name="Atilde" unicode="&#xc3;" horiz-adv-x="1525" 
d="M393 1559q0 301 182 301q59 0 150.5 -41t128.5 -41q72 0 72 82h176q0 -301 -182 -301q-59 0 -151 39.5t-128 39.5q-70 0 -70 -79h-178zM1010 305h-502l-94 -305h-396l557 1464h371l561 -1464h-403zM592 586h336l-166 540h-4z" />
    <glyph glyph-name="Adieresis" unicode="&#xc4;" horiz-adv-x="1525" 
d="M383 1880h328v-291h-328v291zM809 1880h328v-291h-328v291zM1010 305h-502l-94 -305h-396l557 1464h371l561 -1464h-403zM592 586h336l-166 540h-4z" />
    <glyph glyph-name="Aring" unicode="&#xc5;" horiz-adv-x="1525" 
d="M760 1520q-94 0 -159.5 60.5t-65.5 160.5q0 98 65.5 159.5t159.5 61.5q95 0 160 -61t65 -160q0 -100 -65 -160.5t-160 -60.5zM760 1647q42 0 65 24.5t23 69.5t-23 69.5t-65 24.5q-38 0 -62 -25t-24 -69t24 -69t62 -25zM1010 305h-502l-94 -305h-396l557 1464h371
l561 -1464h-403zM592 586h336l-166 540h-4z" />
    <glyph glyph-name="AE" unicode="&#xc6;" horiz-adv-x="2099" 
d="M1274 903h639v-301h-639v-301h754v-301h-1123v301h-424l-94 -305h-369l553 1468h1444v-301h-741v-260zM754 1163l-189 -581h338v581h-149z" />
    <glyph glyph-name="Ccedilla" unicode="&#xc7;" horiz-adv-x="1460" 
d="M1042 920q-11 64 -29 111t-50.5 86t-84 59t-122.5 20q-89 0 -152 -33t-98.5 -96.5t-51.5 -145t-16 -188.5q0 -108 15.5 -190t51.5 -145.5t99 -96.5t152 -33q72 0 124 20t84 59.5t50 87.5t28 114h377q-24 -242 -171 -398t-400 -180l-57 -69v-4q89 10 154 -26.5t65 -111.5
q0 -77 -77.5 -121.5t-191.5 -44.5q-130 0 -229 68l61 72q67 -31 129 -31q41 0 68 14.5t27 44.5q0 56 -70 56q-33 0 -76 -15l-49 70l92 96q-205 15 -349.5 118t-214 266.5t-69.5 373.5q0 169 46.5 310t135 243.5t224 159.5t305.5 57q147 0 264 -42t196.5 -119t126.5 -182
t60 -234h-377z" />
    <glyph glyph-name="Egrave" unicode="&#xc8;" horiz-adv-x="1316" 
d="M694 1905l109 -312h-246l-190 312h327zM492 903h638v-301h-638v-301h753v-301h-1122v1464h1110v-301h-741v-260z" />
    <glyph glyph-name="Eacute" unicode="&#xc9;" horiz-adv-x="1316" 
d="M670 1901h368l-231 -312h-246zM492 903h638v-301h-638v-301h753v-301h-1122v1464h1110v-301h-741v-260z" />
    <glyph glyph-name="Ecircumflex" unicode="&#xca;" horiz-adv-x="1316" 
d="M305 1589l219 312h320l219 -312h-285l-92 166h-4l-92 -166h-285zM492 903h638v-301h-638v-301h753v-301h-1122v1464h1110v-301h-741v-260z" />
    <glyph glyph-name="Edieresis" unicode="&#xcb;" horiz-adv-x="1316" 
d="M307 1880h328v-291h-328v291zM733 1880h328v-291h-328v291zM492 903h638v-301h-638v-301h753v-301h-1122v1464h1110v-301h-741v-260z" />
    <glyph glyph-name="Igrave" unicode="&#xcc;" horiz-adv-x="614" 
d="M317 1905l109 -312h-246l-190 312h327zM123 1464h369v-1464h-369v1464z" />
    <glyph glyph-name="Iacute" unicode="&#xcd;" horiz-adv-x="614" 
d="M293 1901h369l-232 -312h-246zM123 1464h369v-1464h-369v1464z" />
    <glyph glyph-name="Icircumflex" unicode="&#xce;" horiz-adv-x="614" 
d="M-72 1589l219 312h320l219 -312h-285l-92 166h-4l-92 -166h-285zM123 1464h369v-1464h-369v1464z" />
    <glyph glyph-name="Idieresis" unicode="&#xcf;" horiz-adv-x="614" 
d="M-70 1880h328v-291h-328v291zM356 1880h328v-291h-328v291zM123 1464h369v-1464h-369v1464z" />
    <glyph glyph-name="Eth" unicode="&#xd0;" horiz-adv-x="1486" 
d="M123 0v666h-119v184h119v614h649q308 0 480.5 -191t172.5 -542q0 -353 -163 -542t-469 -189h-670zM778 850v-184h-286v-365h235q322 0 322 430q0 432 -322 432h-235v-313h286z" />
    <glyph glyph-name="Ntilde" unicode="&#xd1;" horiz-adv-x="1499" 
d="M383 1559q0 301 182 301q59 0 150.5 -41t128.5 -41q71 0 71 82h177q0 -301 -183 -301q-59 0 -150.5 39.5t-127.5 39.5q-70 0 -70 -79h-178zM123 0v1464h369l512 -870h4v870h368v-1464h-368l-512 870h-4v-870h-369z" />
    <glyph glyph-name="Ograve" unicode="&#xd2;" horiz-adv-x="1572" 
d="M797 1905l108 -312h-246l-190 312h328zM786 -33q-171 0 -309 57.5t-228.5 160t-139 242.5t-48.5 306q0 222 83 393t249 271t393 100q225 0 391 -99.5t250 -271.5t84 -393q0 -166 -49 -306.5t-140 -242.5t-228.5 -159.5t-307.5 -57.5zM786 268q97 0 166.5 36t108.5 101.5
t56.5 146t17.5 181.5q0 100 -17.5 180t-56.5 145.5t-108.5 101.5t-166.5 36q-348 0 -348 -463q0 -465 348 -465z" />
    <glyph glyph-name="Oacute" unicode="&#xd3;" horiz-adv-x="1572" 
d="M772 1901h369l-232 -312h-245zM786 -33q-171 0 -309 57.5t-228.5 160t-139 242.5t-48.5 306q0 222 83 393t249 271t393 100q225 0 391 -99.5t250 -271.5t84 -393q0 -166 -49 -306.5t-140 -242.5t-228.5 -159.5t-307.5 -57.5zM786 268q97 0 166.5 36t108.5 101.5t56.5 146
t17.5 181.5q0 100 -17.5 180t-56.5 145.5t-108.5 101.5t-166.5 36q-348 0 -348 -463q0 -465 348 -465z" />
    <glyph glyph-name="Ocircumflex" unicode="&#xd4;" horiz-adv-x="1572" 
d="M408 1589l219 312h319l219 -312h-284l-93 166h-4l-92 -166h-284zM786 -33q-171 0 -309 57.5t-228.5 160t-139 242.5t-48.5 306q0 222 83 393t249 271t393 100q225 0 391 -99.5t250 -271.5t84 -393q0 -166 -49 -306.5t-140 -242.5t-228.5 -159.5t-307.5 -57.5zM786 268
q97 0 166.5 36t108.5 101.5t56.5 146t17.5 181.5q0 100 -17.5 180t-56.5 145.5t-108.5 101.5t-166.5 36q-348 0 -348 -463q0 -465 348 -465z" />
    <glyph glyph-name="Otilde" unicode="&#xd5;" horiz-adv-x="1572" 
d="M420 1559q0 301 182 301q59 0 150.5 -41t128.5 -41q71 0 71 82h176q0 -301 -182 -301q-59 0 -150.5 39.5t-127.5 39.5q-70 0 -70 -79h-178zM786 -33q-171 0 -309 57.5t-228.5 160t-139 242.5t-48.5 306q0 222 83 393t249 271t393 100q225 0 391 -99.5t250 -271.5t84 -393
q0 -166 -49 -306.5t-140 -242.5t-228.5 -159.5t-307.5 -57.5zM786 268q97 0 166.5 36t108.5 101.5t56.5 146t17.5 181.5q0 100 -17.5 180t-56.5 145.5t-108.5 101.5t-166.5 36q-348 0 -348 -463q0 -465 348 -465z" />
    <glyph glyph-name="Odieresis" unicode="&#xd6;" horiz-adv-x="1572" 
d="M410 1880h327v-291h-327v291zM836 1880h327v-291h-327v291zM786 -33q-171 0 -309 57.5t-228.5 160t-139 242.5t-48.5 306q0 222 83 393t249 271t393 100q225 0 391 -99.5t250 -271.5t84 -393q0 -166 -49 -306.5t-140 -242.5t-228.5 -159.5t-307.5 -57.5zM786 268
q97 0 166.5 36t108.5 101.5t56.5 146t17.5 181.5q0 100 -17.5 180t-56.5 145.5t-108.5 101.5t-166.5 36q-348 0 -348 -463q0 -465 348 -465z" />
    <glyph glyph-name="multiply" unicode="&#xd7;" horiz-adv-x="1200" 
d="M106 379l295 295l-295 293l199 198l295 -295l295 295l199 -198l-295 -293l295 -295l-199 -199l-295 295l-295 -295z" />
    <glyph glyph-name="Oslash" unicode="&#xd8;" horiz-adv-x="1581" 
d="M61 90l148 150q-143 196 -143 493q0 222 83 393t249 271t393 100q304 0 495 -178l146 145l88 -86l-152 -151q148 -202 148 -494q0 -166 -49 -306.5t-140 -242.5t-228.5 -159.5t-307.5 -57.5q-309 0 -500 178l-144 -143zM442 733q0 -132 29 -231l578 579q-85 115 -258 115
q-349 0 -349 -463zM791 268q348 0 348 465q0 140 -31 232l-580 -580q89 -117 263 -117z" />
    <glyph glyph-name="Ugrave" unicode="&#xd9;" horiz-adv-x="1449" 
d="M735 1905l109 -312h-246l-190 312h327zM1337 528q0 -282 -144.5 -421.5t-467.5 -139.5t-467.5 139.5t-144.5 421.5v936h368v-936q0 -139 59.5 -199.5t184.5 -60.5t184.5 60.5t59.5 199.5v936h368v-936z" />
    <glyph glyph-name="Uacute" unicode="&#xda;" horiz-adv-x="1449" 
d="M711 1901h368l-231 -312h-246zM1337 528q0 -282 -144.5 -421.5t-467.5 -139.5t-467.5 139.5t-144.5 421.5v936h368v-936q0 -139 59.5 -199.5t184.5 -60.5t184.5 60.5t59.5 199.5v936h368v-936z" />
    <glyph glyph-name="Ucircumflex" unicode="&#xdb;" horiz-adv-x="1449" 
d="M346 1589l219 312h320l219 -312h-285l-92 166h-4l-92 -166h-285zM1337 528q0 -282 -144.5 -421.5t-467.5 -139.5t-467.5 139.5t-144.5 421.5v936h368v-936q0 -139 59.5 -199.5t184.5 -60.5t184.5 60.5t59.5 199.5v936h368v-936z" />
    <glyph glyph-name="Udieresis" unicode="&#xdc;" horiz-adv-x="1449" 
d="M348 1880h328v-291h-328v291zM774 1880h328v-291h-328v291zM1337 528q0 -282 -144.5 -421.5t-467.5 -139.5t-467.5 139.5t-144.5 421.5v936h368v-936q0 -139 59.5 -199.5t184.5 -60.5t184.5 60.5t59.5 199.5v936h368v-936z" />
    <glyph glyph-name="Yacute" unicode="&#xdd;" horiz-adv-x="1394" 
d="M688 1901h369l-232 -312h-245zM16 1464h398l284 -622h4l287 622h389l-493 -923v-541h-369v541z" />
    <glyph glyph-name="Thorn" unicode="&#xde;" horiz-adv-x="1376" 
d="M123 0v1464h369v-204h342q233 0 364 -120t131 -347t-131 -347t-364 -120h-342v-326h-369zM492 958v-331h264q100 0 152.5 38.5t52.5 127.5q0 88 -52.5 126.5t-152.5 38.5h-264z" />
    <glyph glyph-name="germandbls" unicode="&#xdf;" horiz-adv-x="1202" 
d="M410 993v-993h-328v977q0 257 127.5 388.5t376.5 131.5q99 0 180 -21.5t136.5 -58t93 -86.5t54.5 -106.5t17 -118.5q0 -110 -51.5 -185t-132.5 -110v-4q128 -40 197 -150t69 -258q0 -203 -127.5 -317.5t-321.5 -114.5q-98 0 -188 33v246q62 -10 102 -10q199 0 199 215
q0 251 -250 251h-51v205h43q83 0 129.5 47.5t46.5 132.5q0 77 -40 120.5t-116 43.5q-80 0 -122.5 -58t-42.5 -200z" />
    <glyph glyph-name="agrave" unicode="&#xe0;" horiz-adv-x="1146" 
d="M588 1489l108 -311h-245l-191 311h328zM375 -33q-153 0 -243.5 83.5t-90.5 223.5q0 63 21 115t55.5 88t87.5 65t109 47.5t128 33.5q15 3 50.5 10t55.5 11.5t50.5 13t48.5 18t36.5 22.5t27 30.5t8.5 39.5q0 44 -35 69t-104 25q-90 0 -134.5 -37t-52.5 -114h-311
q4 78 35 143.5t91 117.5t158.5 81.5t227.5 29.5q222 0 332 -101t110 -335v-405q0 -44 7.5 -62t31.5 -18q15 0 27 2v-156q-99 -18 -180 -18q-94 0 -139 34t-58 103h-4q-59 -73 -148 -116.5t-198 -43.5zM512 193q94 0 150.5 68t56.5 163v88q-55 -20 -178 -49
q-88 -21 -126 -58.5t-38 -95.5q0 -116 135 -116z" />
    <glyph glyph-name="aacute" unicode="&#xe1;" horiz-adv-x="1146" 
d="M563 1485h369l-232 -311h-245zM375 -33q-153 0 -243.5 83.5t-90.5 223.5q0 63 21 115t55.5 88t87.5 65t109 47.5t128 33.5q15 3 50.5 10t55.5 11.5t50.5 13t48.5 18t36.5 22.5t27 30.5t8.5 39.5q0 44 -35 69t-104 25q-90 0 -134.5 -37t-52.5 -114h-311q4 78 35 143.5
t91 117.5t158.5 81.5t227.5 29.5q222 0 332 -101t110 -335v-405q0 -44 7.5 -62t31.5 -18q15 0 27 2v-156q-99 -18 -180 -18q-94 0 -139 34t-58 103h-4q-59 -73 -148 -116.5t-198 -43.5zM512 193q94 0 150.5 68t56.5 163v88q-55 -20 -178 -49q-88 -21 -126 -58.5t-38 -95.5
q0 -116 135 -116z" />
    <glyph glyph-name="acircumflex" unicode="&#xe2;" horiz-adv-x="1146" 
d="M199 1174l219 311h319l219 -311h-284l-92 165h-5l-92 -165h-284zM375 -33q-153 0 -243.5 83.5t-90.5 223.5q0 63 21 115t55.5 88t87.5 65t109 47.5t128 33.5q15 3 50.5 10t55.5 11.5t50.5 13t48.5 18t36.5 22.5t27 30.5t8.5 39.5q0 44 -35 69t-104 25q-90 0 -134.5 -37
t-52.5 -114h-311q4 78 35 143.5t91 117.5t158.5 81.5t227.5 29.5q222 0 332 -101t110 -335v-405q0 -44 7.5 -62t31.5 -18q15 0 27 2v-156q-99 -18 -180 -18q-94 0 -139 34t-58 103h-4q-59 -73 -148 -116.5t-198 -43.5zM512 193q94 0 150.5 68t56.5 163v88q-55 -20 -178 -49
q-88 -21 -126 -58.5t-38 -95.5q0 -116 135 -116z" />
    <glyph glyph-name="atilde" unicode="&#xe3;" horiz-adv-x="1146" 
d="M211 1143q0 301 182 301q59 0 150.5 -41t128.5 -41q71 0 71 82h177q0 -301 -183 -301q-59 0 -150.5 40t-127.5 40q-70 0 -70 -80h-178zM375 -33q-153 0 -243.5 83.5t-90.5 223.5q0 63 21 115t55.5 88t87.5 65t109 47.5t128 33.5q15 3 50.5 10t55.5 11.5t50.5 13t48.5 18
t36.5 22.5t27 30.5t8.5 39.5q0 44 -35 69t-104 25q-90 0 -134.5 -37t-52.5 -114h-311q4 78 35 143.5t91 117.5t158.5 81.5t227.5 29.5q222 0 332 -101t110 -335v-405q0 -44 7.5 -62t31.5 -18q15 0 27 2v-156q-99 -18 -180 -18q-94 0 -139 34t-58 103h-4q-59 -73 -148 -116.5
t-198 -43.5zM512 193q94 0 150.5 68t56.5 163v88q-55 -20 -178 -49q-88 -21 -126 -58.5t-38 -95.5q0 -116 135 -116z" />
    <glyph glyph-name="adieresis" unicode="&#xe4;" horiz-adv-x="1146" 
d="M201 1464h327v-290h-327v290zM627 1464h327v-290h-327v290zM375 -33q-153 0 -243.5 83.5t-90.5 223.5q0 63 21 115t55.5 88t87.5 65t109 47.5t128 33.5q15 3 50.5 10t55.5 11.5t50.5 13t48.5 18t36.5 22.5t27 30.5t8.5 39.5q0 44 -35 69t-104 25q-90 0 -134.5 -37
t-52.5 -114h-311q4 78 35 143.5t91 117.5t158.5 81.5t227.5 29.5q222 0 332 -101t110 -335v-405q0 -44 7.5 -62t31.5 -18q15 0 27 2v-156q-99 -18 -180 -18q-94 0 -139 34t-58 103h-4q-59 -73 -148 -116.5t-198 -43.5zM512 193q94 0 150.5 68t56.5 163v88q-55 -20 -178 -49
q-88 -21 -126 -58.5t-38 -95.5q0 -116 135 -116z" />
    <glyph glyph-name="aring" unicode="&#xe5;" horiz-adv-x="1146" 
d="M578 1104q-94 0 -160 60.5t-66 160.5q0 98 66 159.5t160 61.5q95 0 160 -61t65 -160q0 -100 -65 -160.5t-160 -60.5zM578 1231q42 0 65 24.5t23 69.5t-23 69.5t-65 24.5q-38 0 -62 -25t-24 -69t24 -69t62 -25zM375 -33q-153 0 -243.5 83.5t-90.5 223.5q0 63 21 115
t55.5 88t87.5 65t109 47.5t128 33.5q15 3 50.5 10t55.5 11.5t50.5 13t48.5 18t36.5 22.5t27 30.5t8.5 39.5q0 44 -35 69t-104 25q-90 0 -134.5 -37t-52.5 -114h-311q4 78 35 143.5t91 117.5t158.5 81.5t227.5 29.5q222 0 332 -101t110 -335v-405q0 -44 7.5 -62t31.5 -18
q15 0 27 2v-156q-99 -18 -180 -18q-94 0 -139 34t-58 103h-4q-59 -73 -148 -116.5t-198 -43.5zM512 193q94 0 150.5 68t56.5 163v88q-55 -20 -178 -49q-88 -21 -126 -58.5t-38 -95.5q0 -116 135 -116z" />
    <glyph glyph-name="ae" unicode="&#xe6;" horiz-adv-x="1837" 
d="M426 -33q-190 0 -287.5 83.5t-97.5 223.5q0 63 21 115t55.5 88t87.5 65t109 47.5t128 33.5q15 3 50.5 10t55.5 11.5t50.5 13t48.5 18t36.5 22.5t27 30.5t8.5 39.5q0 44 -35 69t-104 25q-90 0 -134.5 -37t-52.5 -114h-311q4 78 35.5 144t90.5 117.5t153.5 81t216.5 29.5
q228 0 331 -106q137 106 342 106q265 0 401 -153t136 -445v-49h-754q1 -105 65.5 -165t160.5 -60q146 0 186 106h334q-46 -165 -180 -258.5t-349 -93.5q-268 0 -417 176q-83 -94 -182 -134t-226 -40zM1251 846q-95 0 -152 -53.5t-63 -153.5h422q0 100 -55 153.5t-152 53.5z
M508 193q95 0 148 62.5t53 154.5v59q0 6 -1 20t-1 21q-64 -25 -166 -47q-164 -39 -164 -148q0 -122 131 -122z" />
    <glyph glyph-name="ccedilla" unicode="&#xe7;" horiz-adv-x="1128" 
d="M762 657q-21 181 -178 181q-100 0 -151.5 -82t-51.5 -232t51 -231.5t152 -81.5q159 0 178 184h330q-11 -176 -129.5 -292.5t-313.5 -135.5l-53 -65v-4q89 10 154 -26.5t65 -111.5q0 -77 -77 -121.5t-191 -44.5q-131 0 -230 68l62 72q67 -31 129 -31q41 0 67.5 14.5
t26.5 44.5q0 56 -70 56q-32 0 -75 -15l-49 70l92 98q-210 26 -332.5 176.5t-122.5 376.5q0 247 146 403t387 156q221 0 357 -118t157 -308h-330z" />
    <glyph glyph-name="egrave" unicode="&#xe8;" 
d="M596 1489l109 -311h-246l-191 311h328zM590 -35q-251 0 -398 154.5t-147 404.5q0 116 36 217t103.5 177.5t172 120.5t233.5 44q265 0 400.5 -153t135.5 -445v-49h-753q1 -105 65 -165t160 -60q146 0 186 106h334q-46 -165 -179.5 -258.5t-348.5 -93.5zM590 846
q-95 0 -152 -53.5t-63 -153.5h422q0 100 -55 153.5t-152 53.5z" />
    <glyph glyph-name="eacute" unicode="&#xe9;" 
d="M571 1485h369l-231 -311h-246zM590 -35q-251 0 -398 154.5t-147 404.5q0 116 36 217t103.5 177.5t172 120.5t233.5 44q265 0 400.5 -153t135.5 -445v-49h-753q1 -105 65 -165t160 -60q146 0 186 106h334q-46 -165 -179.5 -258.5t-348.5 -93.5zM590 846q-95 0 -152 -53.5
t-63 -153.5h422q0 100 -55 153.5t-152 53.5z" />
    <glyph glyph-name="ecircumflex" unicode="&#xea;" 
d="M207 1174l219 311h319l220 -311h-285l-92 165h-4l-92 -165h-285zM590 -35q-251 0 -398 154.5t-147 404.5q0 116 36 217t103.5 177.5t172 120.5t233.5 44q265 0 400.5 -153t135.5 -445v-49h-753q1 -105 65 -165t160 -60q146 0 186 106h334q-46 -165 -179.5 -258.5
t-348.5 -93.5zM590 846q-95 0 -152 -53.5t-63 -153.5h422q0 100 -55 153.5t-152 53.5z" />
    <glyph glyph-name="edieresis" unicode="&#xeb;" 
d="M209 1464h328v-290h-328v290zM635 1464h328v-290h-328v290zM590 -35q-251 0 -398 154.5t-147 404.5q0 116 36 217t103.5 177.5t172 120.5t233.5 44q265 0 400.5 -153t135.5 -445v-49h-753q1 -105 65 -165t160 -60q146 0 186 106h334q-46 -165 -179.5 -258.5t-348.5 -93.5
zM590 846q-95 0 -152 -53.5t-63 -153.5h422q0 100 -55 153.5t-152 53.5z" />
    <glyph glyph-name="igrave" unicode="&#xec;" horiz-adv-x="491" 
d="M256 1489l109 -311h-246l-191 311h328zM82 1049h328v-1049h-328v1049z" />
    <glyph glyph-name="iacute" unicode="&#xed;" horiz-adv-x="491" 
d="M231 1485h369l-231 -311h-246zM82 1049h328v-1049h-328v1049z" />
    <glyph glyph-name="icircumflex" unicode="&#xee;" horiz-adv-x="491" 
d="M-133 1174l219 311h320l219 -311h-285l-92 165h-4l-92 -165h-285zM82 1049h328v-1049h-328v1049z" />
    <glyph glyph-name="idieresis" unicode="&#xef;" horiz-adv-x="491" 
d="M-131 1464h328v-290h-328v290zM295 1464h328v-290h-328v290zM82 1049h328v-1049h-328v1049z" />
    <glyph glyph-name="eth" unicode="&#xf0;" horiz-adv-x="1218" 
d="M770 993q-37 120 -133 224l-266 -72l-33 119l190 51q-119 88 -233 149h410q51 -25 108 -73l215 57l33 -119l-143 -39q107 -118 174 -281t67 -362q0 -108 -18.5 -204.5t-61.5 -185t-107 -152t-161.5 -101t-218.5 -37.5q-259 0 -403 151.5t-144 407.5q0 128 38 234
t102.5 175.5t149 107.5t179.5 38q161 0 256 -88zM592 229q102 0 160.5 76t58.5 221t-58.5 220t-160.5 75t-160.5 -75t-58.5 -220t58.5 -221t160.5 -76z" />
    <glyph glyph-name="ntilde" unicode="&#xf1;" 
d="M285 1143q0 301 182 301q59 0 150 -41t128 -41q72 0 72 82h176q0 -301 -182 -301q-59 0 -151 40t-128 40q-69 0 -69 -80h-178zM82 0v1049h328v-152h4q105 184 344 184q155 0 247.5 -97.5t92.5 -274.5v-709h-328v604q0 115 -39.5 163t-124.5 48q-196 0 -196 -209v-606
h-328z" />
    <glyph glyph-name="ograve" unicode="&#xf2;" horiz-adv-x="1210" 
d="M616 1489l109 -311h-246l-190 311h327zM602 -35q-257 0 -407 152.5t-150 404.5q0 251 151.5 406t411.5 155q257 0 407 -152.5t150 -402.5q0 -253 -151.5 -408t-411.5 -155zM606 211q109 0 168.5 80.5t59.5 232.5t-59.5 233t-168.5 81q-110 0 -169.5 -81t-59.5 -233
t59 -232.5t170 -80.5z" />
    <glyph glyph-name="oacute" unicode="&#xf3;" horiz-adv-x="1210" 
d="M592 1485h369l-232 -311h-246zM602 -35q-257 0 -407 152.5t-150 404.5q0 251 151.5 406t411.5 155q257 0 407 -152.5t150 -402.5q0 -253 -151.5 -408t-411.5 -155zM606 211q109 0 168.5 80.5t59.5 232.5t-59.5 233t-168.5 81q-110 0 -169.5 -81t-59.5 -233t59 -232.5
t170 -80.5z" />
    <glyph glyph-name="ocircumflex" unicode="&#xf4;" horiz-adv-x="1210" 
d="M227 1174l219 311h320l219 -311h-285l-92 165h-4l-92 -165h-285zM602 -35q-257 0 -407 152.5t-150 404.5q0 251 151.5 406t411.5 155q257 0 407 -152.5t150 -402.5q0 -253 -151.5 -408t-411.5 -155zM606 211q109 0 168.5 80.5t59.5 232.5t-59.5 233t-168.5 81
q-110 0 -169.5 -81t-59.5 -233t59 -232.5t170 -80.5z" />
    <glyph glyph-name="otilde" unicode="&#xf5;" horiz-adv-x="1210" 
d="M240 1143q0 301 182 301q59 0 150 -41t128 -41q72 0 72 82h176q0 -301 -182 -301q-59 0 -151 40t-128 40q-69 0 -69 -80h-178zM602 -35q-257 0 -407 152.5t-150 404.5q0 251 151.5 406t411.5 155q257 0 407 -152.5t150 -402.5q0 -253 -151.5 -408t-411.5 -155zM606 211
q109 0 168.5 80.5t59.5 232.5t-59.5 233t-168.5 81q-110 0 -169.5 -81t-59.5 -233t59 -232.5t170 -80.5z" />
    <glyph glyph-name="odieresis" unicode="&#xf6;" horiz-adv-x="1210" 
d="M229 1464h328v-290h-328v290zM655 1464h328v-290h-328v290zM602 -35q-257 0 -407 152.5t-150 404.5q0 251 151.5 406t411.5 155q257 0 407 -152.5t150 -402.5q0 -253 -151.5 -408t-411.5 -155zM606 211q109 0 168.5 80.5t59.5 232.5t-59.5 233t-168.5 81
q-110 0 -169.5 -81t-59.5 -233t59 -232.5t170 -80.5z" />
    <glyph glyph-name="divide" unicode="&#xf7;" horiz-adv-x="1200" 
d="M444 1237h312v-311h-312v311zM102 815h996v-283h-996v283zM444 420h312v-311h-312v311z" />
    <glyph glyph-name="oslash" unicode="&#xf8;" horiz-adv-x="1210" 
d="M143 -27l-86 88l101 101q-113 144 -113 360q0 251 151.5 406t411.5 155q218 0 359 -110l100 100l88 -86l-100 -100q110 -144 110 -359q0 -253 -151.5 -408t-411.5 -155q-215 0 -358 109zM377 524q0 -77 14 -129l373 375q-56 68 -158 68q-110 0 -169.5 -81t-59.5 -233z
M606 211q109 0 168.5 80.5t59.5 232.5q0 72 -15 127l-373 -372q59 -68 160 -68z" />
    <glyph glyph-name="ugrave" unicode="&#xf9;" 
d="M590 1489l108 -311h-245l-191 311h328zM406 444q0 -115 39.5 -163t123.5 -48q197 0 197 209v607h328v-1049h-328v152h-4q-106 -185 -344 -185q-155 0 -247.5 98t-92.5 275v709h328v-605z" />
    <glyph glyph-name="uacute" unicode="&#xfa;" 
d="M565 1485h369l-232 -311h-245zM406 444q0 -115 39.5 -163t123.5 -48q197 0 197 209v607h328v-1049h-328v152h-4q-106 -185 -344 -185q-155 0 -247.5 98t-92.5 275v709h328v-605z" />
    <glyph glyph-name="ucircumflex" unicode="&#xfb;" 
d="M201 1174l219 311h319l219 -311h-284l-92 165h-4l-93 -165h-284zM406 444q0 -115 39.5 -163t123.5 -48q197 0 197 209v607h328v-1049h-328v152h-4q-106 -185 -344 -185q-155 0 -247.5 98t-92.5 275v709h328v-605z" />
    <glyph glyph-name="udieresis" unicode="&#xfc;" 
d="M203 1464h327v-290h-327v290zM629 1464h327v-290h-327v290zM406 444q0 -115 39.5 -163t123.5 -48q197 0 197 209v607h328v-1049h-328v152h-4q-106 -185 -344 -185q-155 0 -247.5 98t-92.5 275v709h328v-605z" />
    <glyph glyph-name="yacute" unicode="&#xfd;" horiz-adv-x="1157" 
d="M569 1485h369l-231 -311h-246zM432 14l-418 1035h338l246 -691h4l225 691h324l-383 -1051q-46 -126 -97.5 -201.5t-131.5 -117t-193 -41.5q-96 0 -196 20v250q52 -6 98 -6q21 0 34 0.5t34.5 3.5t36.5 10.5t31.5 19t28.5 31.5t19 47z" />
    <glyph glyph-name="thorn" unicode="&#xfe;" horiz-adv-x="1218" 
d="M414 104h-4v-466h-328v1826h328v-520h4q38 51 119 94t184 43q210 0 333.5 -150t123.5 -407t-123.5 -407t-333.5 -150q-103 0 -184 43t-119 94zM627 836q-101 0 -156 -80t-55 -232t55 -231.5t156 -79.5t156 79.5t55 231.5t-55 232t-156 80z" />
    <glyph glyph-name="ydieresis" unicode="&#xff;" horiz-adv-x="1157" 
d="M207 1464h328v-290h-328v290zM633 1464h328v-290h-328v290zM432 14l-418 1035h338l246 -691h4l225 691h324l-383 -1051q-46 -126 -97.5 -201.5t-131.5 -117t-193 -41.5q-96 0 -196 20v250q52 -6 98 -6q21 0 34 0.5t34.5 3.5t36.5 10.5t31.5 19t28.5 31.5t19 47z" />
    <glyph glyph-name="Amacron" unicode="&#x100;" horiz-adv-x="1525" 
d="M467 1794h586v-205h-586v205zM1010 305h-502l-94 -305h-396l557 1464h371l561 -1464h-403zM592 586h336l-166 540h-4z" />
    <glyph glyph-name="amacron" unicode="&#x101;" horiz-adv-x="1146" 
d="M285 1378h585v-204h-585v204zM375 -33q-153 0 -243.5 83.5t-90.5 223.5q0 63 21 115t55.5 88t87.5 65t109 47.5t128 33.5q15 3 50.5 10t55.5 11.5t50.5 13t48.5 18t36.5 22.5t27 30.5t8.5 39.5q0 44 -35 69t-104 25q-90 0 -134.5 -37t-52.5 -114h-311q4 78 35 143.5
t91 117.5t158.5 81.5t227.5 29.5q222 0 332 -101t110 -335v-405q0 -44 7.5 -62t31.5 -18q15 0 27 2v-156q-99 -18 -180 -18q-94 0 -139 34t-58 103h-4q-59 -73 -148 -116.5t-198 -43.5zM512 193q94 0 150.5 68t56.5 163v88q-55 -20 -178 -49q-88 -21 -126 -58.5t-38 -95.5
q0 -116 135 -116z" />
    <glyph glyph-name="Abreve" unicode="&#x102;" horiz-adv-x="1525" 
d="M760 1573q-141 0 -232.5 85t-95.5 226h189q10 -110 139 -110t139 110h188q-6 -139 -95.5 -225t-231.5 -86zM1010 305h-502l-94 -305h-396l557 1464h371l561 -1464h-403zM592 586h336l-166 540h-4z" />
    <glyph glyph-name="abreve" unicode="&#x103;" horiz-adv-x="1146" 
d="M578 1157q-141 0 -232.5 85t-95.5 226h188q5 -52 40 -81t100 -29q129 0 139 110h188q-6 -139 -95.5 -225t-231.5 -86zM375 -33q-153 0 -243.5 83.5t-90.5 223.5q0 63 21 115t55.5 88t87.5 65t109 47.5t128 33.5q15 3 50.5 10t55.5 11.5t50.5 13t48.5 18t36.5 22.5
t27 30.5t8.5 39.5q0 44 -35 69t-104 25q-90 0 -134.5 -37t-52.5 -114h-311q4 78 35 143.5t91 117.5t158.5 81.5t227.5 29.5q222 0 332 -101t110 -335v-405q0 -44 7.5 -62t31.5 -18q15 0 27 2v-156q-99 -18 -180 -18q-94 0 -139 34t-58 103h-4q-59 -73 -148 -116.5
t-198 -43.5zM512 193q94 0 150.5 68t56.5 163v88q-55 -20 -178 -49q-88 -21 -126 -58.5t-38 -95.5q0 -116 135 -116z" />
    <glyph glyph-name="Aogonek" unicode="&#x104;" horiz-adv-x="1525" 
d="M1010 305h-502l-94 -305h-396l557 1464h371l561 -1464h-125q-28 -24 -38.5 -33.5t-28 -27.5t-23.5 -32.5t-6 -29.5q0 -45 64 -45q33 0 84 14v-184q-86 -22 -166 -22q-115 0 -174.5 44t-59.5 128q0 65 42 113t98 75h-70zM592 586h336l-166 540h-4z" />
    <glyph glyph-name="aogonek" unicode="&#x105;" horiz-adv-x="1146" 
d="M375 -33q-153 0 -243.5 83.5t-90.5 223.5q0 63 21 115t55.5 88t87.5 65t109 47.5t128 33.5q15 3 50.5 10t55.5 11.5t50.5 13t48.5 18t36.5 22.5t27 30.5t8.5 39.5q0 44 -35 69t-104 25q-90 0 -134.5 -37t-52.5 -114h-311q4 78 35 143.5t91 117.5t158.5 81.5t227.5 29.5
q222 0 332 -101t110 -335v-405q0 -44 7.5 -62t31.5 -18q15 0 27 2v-154h2l-2 -2q-28 -24 -38.5 -33.5t-28 -27.5t-23.5 -32.5t-6 -29.5q0 -45 63 -45q30 0 84 15v-185q-86 -22 -166 -22q-115 0 -174 44t-59 128q0 105 112 174q-65 9 -97.5 42t-43.5 91h-4
q-59 -73 -148 -116.5t-198 -43.5zM512 193q94 0 150.5 68t56.5 163v88q-55 -20 -178 -49q-88 -21 -126 -58.5t-38 -95.5q0 -116 135 -116z" />
    <glyph glyph-name="Cacute" unicode="&#x106;" horiz-adv-x="1460" 
d="M768 1901h369l-232 -312h-246zM1042 920q-11 64 -29 111t-50.5 86t-84 59t-122.5 20q-89 0 -152 -33t-98.5 -96.5t-51.5 -145t-16 -188.5q0 -108 15.5 -190t51.5 -145.5t99 -96.5t152 -33q72 0 124 20t84 59.5t50 87.5t28 114h377q-26 -262 -195.5 -422t-461.5 -160
q-137 0 -251 37t-197 105t-140 162.5t-85 209t-28 246.5q0 169 46.5 310t135 243.5t224 159.5t305.5 57q147 0 264 -42t196.5 -119t126.5 -182t60 -234h-377z" />
    <glyph glyph-name="cacute" unicode="&#x107;" horiz-adv-x="1128" 
d="M563 1485h369l-232 -311h-245zM762 657q-21 181 -178 181q-100 0 -151.5 -82t-51.5 -232t51 -231.5t152 -81.5q159 0 178 184h330q-12 -191 -148 -310.5t-358 -119.5q-246 0 -393.5 155t-147.5 404q0 247 146 403t387 156q221 0 357 -118t157 -308h-330z" />
    <glyph glyph-name="Ccircumflex" unicode="&#x108;" horiz-adv-x="1460" 
d="M403 1589l220 312h319l219 -312h-284l-93 166h-4l-92 -166h-285zM1042 920q-11 64 -29 111t-50.5 86t-84 59t-122.5 20q-89 0 -152 -33t-98.5 -96.5t-51.5 -145t-16 -188.5q0 -108 15.5 -190t51.5 -145.5t99 -96.5t152 -33q72 0 124 20t84 59.5t50 87.5t28 114h377
q-26 -262 -195.5 -422t-461.5 -160q-137 0 -251 37t-197 105t-140 162.5t-85 209t-28 246.5q0 169 46.5 310t135 243.5t224 159.5t305.5 57q147 0 264 -42t196.5 -119t126.5 -182t60 -234h-377z" />
    <glyph glyph-name="ccircumflex" unicode="&#x109;" horiz-adv-x="1128" 
d="M199 1174l219 311h319l219 -311h-284l-92 165h-5l-92 -165h-284zM762 657q-21 181 -178 181q-100 0 -151.5 -82t-51.5 -232t51 -231.5t152 -81.5q159 0 178 184h330q-12 -191 -148 -310.5t-358 -119.5q-246 0 -393.5 155t-147.5 404q0 247 146 403t387 156
q221 0 357 -118t157 -308h-330z" />
    <glyph glyph-name="Cdotaccent" unicode="&#x10a;" horiz-adv-x="1460" 
d="M618 1880h328v-291h-328v291zM1042 920q-11 64 -29 111t-50.5 86t-84 59t-122.5 20q-89 0 -152 -33t-98.5 -96.5t-51.5 -145t-16 -188.5q0 -108 15.5 -190t51.5 -145.5t99 -96.5t152 -33q72 0 124 20t84 59.5t50 87.5t28 114h377q-26 -262 -195.5 -422t-461.5 -160
q-137 0 -251 37t-197 105t-140 162.5t-85 209t-28 246.5q0 169 46.5 310t135 243.5t224 159.5t305.5 57q147 0 264 -42t196.5 -119t126.5 -182t60 -234h-377z" />
    <glyph glyph-name="cdotaccent" unicode="&#x10b;" horiz-adv-x="1128" 
d="M414 1464h327v-290h-327v290zM762 657q-21 181 -178 181q-100 0 -151.5 -82t-51.5 -232t51 -231.5t152 -81.5q159 0 178 184h330q-12 -191 -148 -310.5t-358 -119.5q-246 0 -393.5 155t-147.5 404q0 247 146 403t387 156q221 0 357 -118t157 -308h-330z" />
    <glyph glyph-name="Ccaron" unicode="&#x10c;" horiz-adv-x="1460" 
d="M403 1901h285l92 -166h4l93 166h284l-219 -312h-319zM1042 920q-11 64 -29 111t-50.5 86t-84 59t-122.5 20q-89 0 -152 -33t-98.5 -96.5t-51.5 -145t-16 -188.5q0 -108 15.5 -190t51.5 -145.5t99 -96.5t152 -33q72 0 124 20t84 59.5t50 87.5t28 114h377
q-26 -262 -195.5 -422t-461.5 -160q-137 0 -251 37t-197 105t-140 162.5t-85 209t-28 246.5q0 169 46.5 310t135 243.5t224 159.5t305.5 57q147 0 264 -42t196.5 -119t126.5 -182t60 -234h-377z" />
    <glyph glyph-name="ccaron" unicode="&#x10d;" horiz-adv-x="1128" 
d="M199 1485h284l92 -166h5l92 166h284l-219 -311h-319zM762 657q-21 181 -178 181q-100 0 -151.5 -82t-51.5 -232t51 -231.5t152 -81.5q159 0 178 184h330q-12 -191 -148 -310.5t-358 -119.5q-246 0 -393.5 155t-147.5 404q0 247 146 403t387 156q221 0 357 -118t157 -308
h-330z" />
    <glyph glyph-name="Dcaron" unicode="&#x10e;" horiz-adv-x="1486" 
d="M293 1901h285l92 -166h4l92 166h285l-220 -312h-319zM123 0v1464h649q308 0 480.5 -191t172.5 -542q0 -353 -163 -542t-469 -189h-670zM492 1163v-862h235q322 0 322 430q0 432 -322 432h-235z" />
    <glyph glyph-name="dcaron" unicode="&#x10f;" horiz-adv-x="1540" 
d="M805 944h4v520h328v-1464h-328v104h-4q-38 -51 -119 -94t-184 -43q-210 0 -333.5 150t-123.5 407t123.5 407t333.5 150q103 0 184 -43t119 -94zM1249 1464h348l-174 -422h-225zM592 213q101 0 156 79.5t55 231.5t-55 232t-156 80t-156 -80t-55 -232t55 -231.5t156 -79.5z
" />
    <glyph glyph-name="Dcroat" unicode="&#x110;" horiz-adv-x="1486" 
d="M123 0v666h-119v184h119v614h649q308 0 480.5 -191t172.5 -542q0 -353 -163 -542t-469 -189h-670zM778 850v-184h-286v-365h235q322 0 322 430q0 432 -322 432h-235v-313h286z" />
    <glyph glyph-name="dcroat" unicode="&#x111;" horiz-adv-x="1243" 
d="M805 944h4v234h-274v184h274v102h328v-102h110v-184h-110v-1178h-328v104h-4q-38 -51 -119 -94t-184 -43q-210 0 -333.5 150t-123.5 407t123.5 407t333.5 150q103 0 184 -43t119 -94zM592 213q101 0 156 79.5t55 231.5t-55 232t-156 80t-156 -80t-55 -232t55 -231.5
t156 -79.5z" />
    <glyph glyph-name="Emacron" unicode="&#x112;" horiz-adv-x="1316" 
d="M391 1794h586v-205h-586v205zM492 903h638v-301h-638v-301h753v-301h-1122v1464h1110v-301h-741v-260z" />
    <glyph glyph-name="emacron" unicode="&#x113;" 
d="M293 1378h586v-204h-586v204zM590 -35q-251 0 -398 154.5t-147 404.5q0 116 36 217t103.5 177.5t172 120.5t233.5 44q265 0 400.5 -153t135.5 -445v-49h-753q1 -105 65 -165t160 -60q146 0 186 106h334q-46 -165 -179.5 -258.5t-348.5 -93.5zM590 846q-95 0 -152 -53.5
t-63 -153.5h422q0 100 -55 153.5t-152 53.5z" />
    <glyph glyph-name="Edotaccent" unicode="&#x116;" horiz-adv-x="1316" 
d="M520 1880h328v-291h-328v291zM492 903h638v-301h-638v-301h753v-301h-1122v1464h1110v-301h-741v-260z" />
    <glyph glyph-name="edotaccent" unicode="&#x117;" 
d="M422 1464h328v-290h-328v290zM590 -35q-251 0 -398 154.5t-147 404.5q0 116 36 217t103.5 177.5t172 120.5t233.5 44q265 0 400.5 -153t135.5 -445v-49h-753q1 -105 65 -165t160 -60q146 0 186 106h334q-46 -165 -179.5 -258.5t-348.5 -93.5zM590 846q-95 0 -152 -53.5
t-63 -153.5h422q0 100 -55 153.5t-152 53.5z" />
    <glyph glyph-name="Eogonek" unicode="&#x118;" horiz-adv-x="1316" 
d="M492 903h638v-301h-638v-301h753v-301h-51q-28 -24 -38.5 -33.5t-28 -27.5t-23.5 -32.5t-6 -29.5q0 -45 63 -45q33 0 84 14v-184q-86 -22 -166 -22q-115 0 -174 44t-59 128q0 65 41.5 113.5t97.5 74.5h-862v1464h1110v-301h-741v-260z" />
    <glyph glyph-name="eogonek" unicode="&#x119;" 
d="M690 -360q-115 0 -174 44t-59 128q0 91 86 155q-230 15 -364 168t-134 389q0 116 36 217t103.5 177.5t172 120.5t233.5 44q265 0 400.5 -153t135.5 -445v-49h-753q1 -105 65 -165t160 -60q146 0 186 106h334q-68 -249 -323 -325q-30 -26 -45 -40.5t-28 -35.5t-13 -39
q0 -45 63 -45q33 0 84 14v-184q-86 -22 -166 -22zM590 846q-95 0 -152 -53.5t-63 -153.5h422q0 100 -55 153.5t-152 53.5z" />
    <glyph glyph-name="Ecaron" unicode="&#x11a;" horiz-adv-x="1316" 
d="M305 1901h285l92 -166h4l92 166h285l-219 -312h-320zM492 903h638v-301h-638v-301h753v-301h-1122v1464h1110v-301h-741v-260z" />
    <glyph glyph-name="ecaron" unicode="&#x11b;" 
d="M207 1485h285l92 -166h4l92 166h285l-220 -311h-319zM590 -35q-251 0 -398 154.5t-147 404.5q0 116 36 217t103.5 177.5t172 120.5t233.5 44q265 0 400.5 -153t135.5 -445v-49h-753q1 -105 65 -165t160 -60q146 0 186 106h334q-46 -165 -179.5 -258.5t-348.5 -93.5z
M590 846q-95 0 -152 -53.5t-63 -153.5h422q0 100 -55 153.5t-152 53.5z" />
    <glyph glyph-name="Gcircumflex" unicode="&#x11c;" horiz-adv-x="1546" 
d="M389 1589l219 312h320l219 -312h-285l-92 166h-4l-92 -166h-285zM1053 979q-12 44 -29 77.5t-48.5 67.5t-85.5 53t-126 19q-326 0 -326 -463q0 -108 17.5 -190t56 -145.5t105.5 -96.5t161 -33q127 0 208.5 69t84.5 175h-278v266h659v-778h-264l-37 186h-4
q-55 -104 -160.5 -161.5t-261.5 -57.5q-153 0 -278.5 57.5t-210 159.5t-130 243t-45.5 306q0 222 80 393t242 271t387 100q146 0 266.5 -41t201.5 -113t130 -164.5t62 -199.5h-377z" />
    <glyph glyph-name="gcircumflex" unicode="&#x11d;" horiz-adv-x="1185" 
d="M176 1174l219 311h320l219 -311h-285l-92 165h-4l-92 -165h-285zM776 125v61h-4q-40 -54 -112 -95.5t-175 -41.5q-199 0 -319.5 143.5t-120.5 372.5t120.5 372.5t319.5 143.5q103 0 175 -41.5t112 -95.5h4v105h328v-924q0 -138 -36 -236t-106 -155t-163.5 -83t-218.5 -26
q-117 0 -211.5 29t-155 78.5t-96.5 108t-51 124.5h331q36 -104 183 -104q109 0 152.5 61t43.5 203zM575 836q-98 0 -146 -70t-48 -201q0 -270 194 -270q98 0 146.5 70t48.5 200t-48.5 200.5t-146.5 70.5z" />
    <glyph glyph-name="Gbreve" unicode="&#x11e;" horiz-adv-x="1546" 
d="M768 1573q-141 0 -232.5 85t-95.5 226h189q10 -110 139 -110t139 110h189q-6 -139 -96 -225t-232 -86zM1053 979q-12 44 -29 77.5t-48.5 67.5t-85.5 53t-126 19q-326 0 -326 -463q0 -108 17.5 -190t56 -145.5t105.5 -96.5t161 -33q127 0 208.5 69t84.5 175h-278v266h659
v-778h-264l-37 186h-4q-55 -104 -160.5 -161.5t-261.5 -57.5q-153 0 -278.5 57.5t-210 159.5t-130 243t-45.5 306q0 222 80 393t242 271t387 100q146 0 266.5 -41t201.5 -113t130 -164.5t62 -199.5h-377z" />
    <glyph glyph-name="gbreve" unicode="&#x11f;" horiz-adv-x="1185" 
d="M555 1157q-141 0 -232.5 85t-95.5 226h189q10 -110 139 -110t139 110h189q-6 -139 -96 -225t-232 -86zM776 125v61h-4q-40 -54 -112 -95.5t-175 -41.5q-199 0 -319.5 143.5t-120.5 372.5t120.5 372.5t319.5 143.5q103 0 175 -41.5t112 -95.5h4v105h328v-924
q0 -138 -36 -236t-106 -155t-163.5 -83t-218.5 -26q-117 0 -211.5 29t-155 78.5t-96.5 108t-51 124.5h331q36 -104 183 -104q109 0 152.5 61t43.5 203zM575 836q-98 0 -146 -70t-48 -201q0 -270 194 -270q98 0 146.5 70t48.5 200t-48.5 200.5t-146.5 70.5z" />
    <glyph glyph-name="Gdotaccent" unicode="&#x120;" horiz-adv-x="1546" 
d="M604 1880h328v-291h-328v291zM1053 979q-12 44 -29 77.5t-48.5 67.5t-85.5 53t-126 19q-326 0 -326 -463q0 -108 17.5 -190t56 -145.5t105.5 -96.5t161 -33q127 0 208.5 69t84.5 175h-278v266h659v-778h-264l-37 186h-4q-55 -104 -160.5 -161.5t-261.5 -57.5
q-153 0 -278.5 57.5t-210 159.5t-130 243t-45.5 306q0 222 80 393t242 271t387 100q146 0 266.5 -41t201.5 -113t130 -164.5t62 -199.5h-377z" />
    <glyph glyph-name="gdotaccent" unicode="&#x121;" horiz-adv-x="1185" 
d="M391 1464h328v-290h-328v290zM776 125v61h-4q-40 -54 -112 -95.5t-175 -41.5q-199 0 -319.5 143.5t-120.5 372.5t120.5 372.5t319.5 143.5q103 0 175 -41.5t112 -95.5h4v105h328v-924q0 -138 -36 -236t-106 -155t-163.5 -83t-218.5 -26q-117 0 -211.5 29t-155 78.5
t-96.5 108t-51 124.5h331q36 -104 183 -104q109 0 152.5 61t43.5 203zM575 836q-98 0 -146 -70t-48 -201q0 -270 194 -270q98 0 146.5 70t48.5 200t-48.5 200.5t-146.5 70.5z" />
    <glyph glyph-name="uni0122" unicode="&#x122;" horiz-adv-x="1546" 
d="M1053 979q-12 44 -29 77.5t-48.5 67.5t-85.5 53t-126 19q-326 0 -326 -463q0 -108 17.5 -190t56 -145.5t105.5 -96.5t161 -33q127 0 208.5 69t84.5 175h-278v266h659v-778h-264l-37 186h-4q-55 -104 -160.5 -161.5t-261.5 -57.5q-153 0 -278.5 57.5t-210 159.5t-130 243
t-45.5 306q0 222 80 393t242 271t387 100q146 0 266.5 -41t201.5 -113t130 -164.5t62 -199.5h-377zM610 -100h312v-209q0 -93 -81.5 -154t-230.5 -76v97q148 17 148 133h-148v209z" />
    <glyph glyph-name="uni0123" unicode="&#x123;" horiz-adv-x="1185" 
d="M711 1174h-312v210q0 95 81.5 157t230.5 75v-96q-148 -17 -148 -136h148v-210zM776 125v61h-4q-40 -54 -112 -95.5t-175 -41.5q-199 0 -319.5 143.5t-120.5 372.5t120.5 372.5t319.5 143.5q103 0 175 -41.5t112 -95.5h4v105h328v-924q0 -138 -36 -236t-106 -155
t-163.5 -83t-218.5 -26q-117 0 -211.5 29t-155 78.5t-96.5 108t-51 124.5h331q36 -104 183 -104q109 0 152.5 61t43.5 203zM575 836q-98 0 -146 -70t-48 -201q0 -270 194 -270q98 0 146.5 70t48.5 200t-48.5 200.5t-146.5 70.5z" />
    <glyph glyph-name="Hcircumflex" unicode="&#x124;" horiz-adv-x="1484" 
d="M365 1589l219 312h319l219 -312h-284l-93 166h-4l-92 -166h-284zM123 1464h369v-573h501v573h369v-1464h-369v590h-501v-590h-369v1464z" />
    <glyph glyph-name="hcircumflex" unicode="&#x125;" 
d="M-133 1518l219 311h320l219 -311h-285l-92 165h-4l-92 -165h-285zM770 604q0 115 -39.5 163t-124.5 48q-196 0 -196 -209v-606h-328v1464h328v-567h4q105 184 344 184q155 0 247.5 -97.5t92.5 -274.5v-709h-328v604z" />
    <glyph glyph-name="Hbar" unicode="&#x126;" horiz-adv-x="1480" 
d="M123 1464h369v-202h501v202h369v-202h108v-185h-108v-1077h-369v590h-501v-590h-369v1077h-113v185h113v202zM492 891h501v186h-501v-186z" />
    <glyph glyph-name="hbar" unicode="&#x127;" horiz-adv-x="1177" 
d="M772 604q0 115 -39.5 163t-124.5 48q-196 0 -196 -209v-606h-328v1178h-125v184h125v102h328v-102h317v-184h-317v-281h4q105 184 344 184q155 0 247.5 -97.5t92.5 -274.5v-709h-328v604z" />
    <glyph glyph-name="Itilde" unicode="&#x128;" horiz-adv-x="614" 
d="M-59 1559q0 301 182 301q59 0 150 -41t128 -41q72 0 72 82h176q0 -301 -182 -301q-59 0 -151 39.5t-128 39.5q-69 0 -69 -79h-178zM123 1464h369v-1464h-369v1464z" />
    <glyph glyph-name="itilde" unicode="&#x129;" horiz-adv-x="491" 
d="M-121 1143q0 301 182 301q59 0 150.5 -41t128.5 -41q72 0 72 82h176q0 -301 -182 -301q-59 0 -151 40t-128 40q-70 0 -70 -80h-178zM82 1049h328v-1049h-328v1049z" />
    <glyph glyph-name="Imacron" unicode="&#x12a;" horiz-adv-x="614" 
d="M14 1794h586v-205h-586v205zM123 1464h369v-1464h-369v1464z" />
    <glyph glyph-name="imacron" unicode="&#x12b;" horiz-adv-x="491" 
d="M-47 1378h586v-204h-586v204zM82 1049h328v-1049h-328v1049z" />
    <glyph glyph-name="Iogonek" unicode="&#x12e;" horiz-adv-x="614" 
d="M324 -360q-115 0 -174.5 44t-59.5 128q0 65 41.5 113.5t97.5 74.5h-106v1464h369v-1464h-54q-28 -24 -38.5 -33.5t-28 -27.5t-23.5 -32.5t-6 -29.5q0 -45 64 -45q32 0 83 14v-184q-86 -22 -165 -22z" />
    <glyph glyph-name="iogonek" unicode="&#x12f;" horiz-adv-x="491" 
d="M82 1464h328v-290h-328v290zM244 -360q-115 0 -174.5 44t-59.5 128q0 65 42 113t98 75h-68v1049h328v-1049h-52q-28 -24 -38.5 -33.5t-28 -27.5t-23.5 -32.5t-6 -29.5q0 -45 64 -45q33 0 84 14v-184q-86 -22 -166 -22z" />
    <glyph glyph-name="Idotaccent" unicode="&#x130;" horiz-adv-x="614" 
d="M125 1880h367v-291h-367v291zM123 1464h369v-1464h-369v1464z" />
    <glyph glyph-name="dotlessi" unicode="&#x131;" horiz-adv-x="491" 
d="M82 1049h328v-1049h-328v1049z" />
    <glyph glyph-name="Jcircumflex" unicode="&#x134;" horiz-adv-x="1148" 
d="M473 1589l219 312h320l219 -312h-285l-92 166h-4l-92 -166h-285zM1036 487q0 -90 -13.5 -163.5t-48 -141.5t-89.5 -114t-144 -73.5t-206 -27.5t-206 27.5t-144.5 73.5t-90 114t-48 141.5t-13.5 163.5v123h327v-123q0 -111 34 -165t120 -54t120 54t34 165v977h368v-977z
" />
    <glyph glyph-name="jcircumflex" unicode="&#x135;" horiz-adv-x="495" 
d="M-129 1174l219 311h320l219 -311h-285l-92 165h-4l-92 -165h-285zM86 -375q-83 0 -182 21v250q58 -7 76 -7q55 0 80.5 23.5t25.5 101.5v1035h328v-1018q0 -200 -77 -303t-251 -103z" />
    <glyph glyph-name="uni0136" unicode="&#x136;" horiz-adv-x="1470" 
d="M123 0v1464h369v-624l524 624h395l-551 -641l592 -823h-430l-379 571l-151 -176v-395h-369zM592 -100h311v-209q0 -93 -81 -154t-230 -76v97q147 17 147 133h-147v209z" />
    <glyph glyph-name="uni0137" unicode="&#x137;" horiz-adv-x="1165" 
d="M82 0v1464h328v-805l350 390h348l-371 -394l414 -655h-379l-248 432l-114 -121v-311h-328zM461 -100h311v-209q0 -93 -81 -154t-230 -76v97q147 17 147 133h-147v209z" />
    <glyph glyph-name="kgreenlandic" unicode="&#x138;" horiz-adv-x="1165" 
d="M82 0v1049h328v-394l368 394h348l-387 -400l412 -649h-379l-246 430l-116 -121v-309h-328z" />
    <glyph glyph-name="Lacute" unicode="&#x139;" horiz-adv-x="1183" 
d="M299 1901h369l-232 -312h-246zM123 1464h369v-1163h651v-301h-1020v1464z" />
    <glyph glyph-name="lacute" unicode="&#x13a;" horiz-adv-x="491" 
d="M231 1829h369l-231 -311h-246zM82 1464h328v-1464h-328v1464z" />
    <glyph glyph-name="uni013B" unicode="&#x13b;" horiz-adv-x="1183" 
d="M123 1464h369v-1163h651v-301h-1020v1464zM477 -100h311v-209q0 -93 -81 -154t-230 -76v97q148 17 148 133h-148v209z" />
    <glyph glyph-name="uni013C" unicode="&#x13c;" horiz-adv-x="491" 
d="M82 1464h328v-1464h-328v1464zM90 -100h311v-209q0 -93 -81 -154t-230 -76v97q148 17 148 133h-148v209z" />
    <glyph glyph-name="Lcaron" unicode="&#x13d;" horiz-adv-x="1183" 
d="M123 1464h369v-1163h651v-301h-1020v1464zM741 1464h349l-175 -422h-225z" />
    <glyph glyph-name="lcaron" unicode="&#x13e;" horiz-adv-x="813" 
d="M522 1485h348l-174 -422h-225zM82 1464h328v-1464h-328v1464z" />
    <glyph glyph-name="Lslash" unicode="&#x141;" horiz-adv-x="1183" 
d="M-43 350v240l166 123v751h369v-479l325 240v-240l-325 -240v-444h651v-301h-1020v473z" />
    <glyph glyph-name="lslash" unicode="&#x142;" horiz-adv-x="618" 
d="M25 453v239l120 90v682h328v-442l121 90v-240l-121 -90v-782h-328v543z" />
    <glyph glyph-name="Nacute" unicode="&#x143;" horiz-adv-x="1499" 
d="M735 1901h369l-232 -312h-245zM123 0v1464h369l512 -870h4v870h368v-1464h-368l-512 870h-4v-870h-369z" />
    <glyph glyph-name="nacute" unicode="&#x144;" 
d="M637 1485h369l-232 -311h-246zM82 0v1049h328v-152h4q105 184 344 184q155 0 247.5 -97.5t92.5 -274.5v-709h-328v604q0 115 -39.5 163t-124.5 48q-196 0 -196 -209v-606h-328z" />
    <glyph glyph-name="uni0145" unicode="&#x145;" horiz-adv-x="1499" 
d="M123 0v1464h369l512 -870h4v870h368v-1464h-368l-512 870h-4v-870h-369zM594 -100h311v-209q0 -93 -81 -154t-230 -76v97q147 17 147 133h-147v209z" />
    <glyph glyph-name="uni0146" unicode="&#x146;" 
d="M82 0v1049h328v-152h4q105 184 344 184q155 0 247.5 -97.5t92.5 -274.5v-709h-328v604q0 115 -39.5 163t-124.5 48q-196 0 -196 -209v-606h-328zM434 -100h311v-209q0 -93 -81 -154t-230 -76v97q148 17 148 133h-148v209z" />
    <glyph glyph-name="Ncaron" unicode="&#x147;" horiz-adv-x="1499" 
d="M371 1901h284l93 -166h4l92 166h284l-219 -312h-319zM123 0v1464h369l512 -870h4v870h368v-1464h-368l-512 870h-4v-870h-369z" />
    <glyph glyph-name="ncaron" unicode="&#x148;" 
d="M272 1485h285l92 -166h4l92 166h285l-219 -311h-319zM82 0v1049h328v-152h4q105 184 344 184q155 0 247.5 -97.5t92.5 -274.5v-709h-328v604q0 115 -39.5 163t-124.5 48q-196 0 -196 -209v-606h-328z" />
    <glyph glyph-name="Eng" unicode="&#x14a;" horiz-adv-x="1499" 
d="M969 -362q-107 0 -201 20v240q81 0 128 10.5t70 31t42 60.5l-512 870h-4v-870h-369v1464h369l512 -870h4v870h368v-1370q0 -456 -407 -456z" />
    <glyph glyph-name="eng" unicode="&#x14b;" 
d="M82 0v1049h328v-152h4q105 184 344 184q155 0 247.5 -97.5t92.5 -274.5v-734q0 -187 -67 -274.5t-240 -87.5q-95 0 -203 22v246h48t38.5 1.5t32.5 4.5t23.5 9t19 14t11 21t8 29.5t1.5 39.5v604q0 115 -39.5 163t-124.5 48q-196 0 -196 -209v-606h-328z" />
    <glyph glyph-name="Omacron" unicode="&#x14c;" horiz-adv-x="1572" 
d="M494 1794h585v-205h-585v205zM786 -33q-171 0 -309 57.5t-228.5 160t-139 242.5t-48.5 306q0 222 83 393t249 271t393 100q225 0 391 -99.5t250 -271.5t84 -393q0 -166 -49 -306.5t-140 -242.5t-228.5 -159.5t-307.5 -57.5zM786 268q97 0 166.5 36t108.5 101.5t56.5 146
t17.5 181.5q0 100 -17.5 180t-56.5 145.5t-108.5 101.5t-166.5 36q-348 0 -348 -463q0 -465 348 -465z" />
    <glyph glyph-name="omacron" unicode="&#x14d;" horiz-adv-x="1210" 
d="M313 1378h586v-204h-586v204zM602 -35q-257 0 -407 152.5t-150 404.5q0 251 151.5 406t411.5 155q257 0 407 -152.5t150 -402.5q0 -253 -151.5 -408t-411.5 -155zM606 211q109 0 168.5 80.5t59.5 232.5t-59.5 233t-168.5 81q-110 0 -169.5 -81t-59.5 -233t59 -232.5
t170 -80.5z" />
    <glyph glyph-name="Ohungarumlaut" unicode="&#x150;" horiz-adv-x="1572" 
d="M604 1901h318l-207 -312h-236zM1006 1901h317l-248 -312h-235zM786 -33q-171 0 -309 57.5t-228.5 160t-139 242.5t-48.5 306q0 222 83 393t249 271t393 100q225 0 391 -99.5t250 -271.5t84 -393q0 -166 -49 -306.5t-140 -242.5t-228.5 -159.5t-307.5 -57.5zM786 268
q97 0 166.5 36t108.5 101.5t56.5 146t17.5 181.5q0 100 -17.5 180t-56.5 145.5t-108.5 101.5t-166.5 36q-348 0 -348 -463q0 -465 348 -465z" />
    <glyph glyph-name="ohungarumlaut" unicode="&#x151;" horiz-adv-x="1210" 
d="M424 1485h317l-206 -311h-236zM825 1485h318l-248 -311h-236zM602 -35q-257 0 -407 152.5t-150 404.5q0 251 151.5 406t411.5 155q257 0 407 -152.5t150 -402.5q0 -253 -151.5 -408t-411.5 -155zM606 211q109 0 168.5 80.5t59.5 232.5t-59.5 233t-168.5 81
q-110 0 -169.5 -81t-59.5 -233t59 -232.5t170 -80.5z" />
    <glyph glyph-name="OE" unicode="&#x152;" horiz-adv-x="2338" 
d="M725 -33q-149 0 -273.5 57.5t-210 159.5t-133 243t-47.5 306q0 219 81 392.5t233 272.5t350 99q262 0 420 -197v164h1110v-301h-742v-260h639v-301h-639v-301h754v-301h-1122v164q-158 -197 -420 -197zM786 268q109 0 191.5 63t124 168t41.5 234q0 128 -41.5 232.5
t-124 167.5t-191.5 63q-348 0 -348 -463q0 -465 348 -465z" />
    <glyph glyph-name="oe" unicode="&#x153;" horiz-adv-x="1966" 
d="M602 -35q-257 0 -407 152.5t-150 404.5q0 251 151.5 406t411.5 155q241 0 393 -139q145 139 379 139q265 0 401 -153t136 -445v-49h-754q1 -105 65.5 -165t160.5 -60q146 0 186 106h334q-46 -165 -180 -258.5t-349 -93.5q-238 0 -383 139q-152 -139 -395 -139zM1380 846
q-95 0 -152 -53.5t-63 -153.5h422q0 100 -55 153.5t-152 53.5zM606 211q109 0 168.5 80.5t59.5 232.5t-59.5 233t-168.5 81q-110 0 -169.5 -81t-59.5 -233t59 -232.5t170 -80.5z" />
    <glyph glyph-name="Racute" unicode="&#x154;" horiz-adv-x="1421" 
d="M664 1901h368l-231 -312h-246zM123 0v1464h690q246 0 384 -109.5t138 -307.5q0 -150 -78.5 -242.5t-218.5 -124.5v-4q75 -13 128.5 -54.5t80.5 -98.5t43 -123.5t21.5 -131t9 -118.5t11.5 -89.5t24 -40.5v-20h-383q-16 14 -22 59t-5.5 100.5t-8.5 118t-27.5 114t-66.5 85
t-122 33.5h-229v-510h-369zM492 1163v-352h249q226 0 226 176t-226 176h-249z" />
    <glyph glyph-name="racute" unicode="&#x155;" horiz-adv-x="798" 
d="M408 1485h368l-231 -311h-246zM82 1049h328v-172h4q39 85 105 132.5t151 47.5q53 0 90 -8v-287q-40 6 -68 6q-118 0 -200 -73.5t-82 -207.5v-487h-328v1049z" />
    <glyph glyph-name="uni0156" unicode="&#x156;" horiz-adv-x="1421" 
d="M123 0v1464h690q246 0 384 -109.5t138 -307.5q0 -150 -78.5 -242.5t-218.5 -124.5v-4q75 -13 128.5 -54.5t80.5 -98.5t43 -123.5t21.5 -131t9 -118.5t11.5 -89.5t24 -40.5v-20h-383q-16 14 -22 59t-5.5 100.5t-8.5 118t-27.5 114t-66.5 85t-122 33.5h-229v-510h-369z
M492 1163v-352h249q226 0 226 176t-226 176h-249zM584 -100h311v-209q0 -93 -81 -154t-230 -76v97q147 17 147 133h-147v209z" />
    <glyph glyph-name="uni0157" unicode="&#x157;" horiz-adv-x="798" 
d="M82 1049h328v-172h4q39 85 105 132.5t151 47.5q53 0 90 -8v-287q-40 6 -68 6q-118 0 -200 -73.5t-82 -207.5v-487h-328v1049zM90 -100h311v-209q0 -93 -81 -154t-230 -76v97q148 17 148 133h-148v209z" />
    <glyph glyph-name="Rcaron" unicode="&#x158;" horiz-adv-x="1421" 
d="M299 1901h285l92 -166h4l92 166h285l-219 -312h-320zM123 0v1464h690q246 0 384 -109.5t138 -307.5q0 -150 -78.5 -242.5t-218.5 -124.5v-4q75 -13 128.5 -54.5t80.5 -98.5t43 -123.5t21.5 -131t9 -118.5t11.5 -89.5t24 -40.5v-20h-383q-16 14 -22 59t-5.5 100.5
t-8.5 118t-27.5 114t-66.5 85t-122 33.5h-229v-510h-369zM492 1163v-352h249q226 0 226 176t-226 176h-249z" />
    <glyph glyph-name="rcaron" unicode="&#x159;" horiz-adv-x="798" 
d="M43 1485h285l92 -166h4l92 166h285l-219 -311h-320zM82 1049h328v-172h4q39 85 105 132.5t151 47.5q53 0 90 -8v-287q-40 6 -68 6q-118 0 -200 -73.5t-82 -207.5v-487h-328v1049z" />
    <glyph glyph-name="Sacute" unicode="&#x15a;" horiz-adv-x="1325" 
d="M647 1901h369l-232 -312h-245zM723 893q213 -63 297 -102q189 -86 241 -226q23 -61 23 -135q0 -213 -153.5 -338t-425.5 -125q-193 0 -344 62t-239.5 183.5t-88.5 285.5h373q0 -121 80 -177.5t214 -56.5q100 0 153.5 36t53.5 95q0 28 -9 51.5t-30.5 42t-44.5 32.5
t-62.5 28.5t-72 25t-85.5 26.5q-29 8 -44 13q-85 25 -149 49t-130 62t-107.5 82t-68 107t-26.5 139q0 93 28.5 168t79.5 126t122.5 85t154.5 49.5t180 15.5q172 0 310 -56.5t222 -166t89 -254.5h-373q-12 85 -77 132.5t-171 47.5q-87 0 -137.5 -30t-50.5 -91
q0 -69 57.5 -105t210.5 -81z" />
    <glyph glyph-name="sacute" unicode="&#x15b;" horiz-adv-x="1044" 
d="M506 1485h368l-231 -311h-246zM602 662q51 -12 88.5 -22t83.5 -26.5t78 -34.5t64.5 -45t52.5 -58.5t32.5 -74.5t12.5 -94q0 -164 -121 -252t-348 -88q-133 0 -234 30t-160.5 84t-90 120.5t-33.5 146.5h307q15 -155 205 -155q139 0 139 90q0 15 -3.5 28t-12 23.5
t-16.5 18.5t-25 15.5t-29.5 12t-36.5 11t-39 10t-45.5 10t-48.5 10.5q-62 15 -110.5 30.5t-100.5 43t-86 61t-56 83.5t-22 112q0 150 120.5 239.5t338.5 89.5q121 0 214 -29t147.5 -79.5t83 -112t32.5 -133.5h-307q-8 65 -46.5 97t-117.5 32q-129 0 -129 -84q0 -44 34 -60.5
t139 -39.5q9 -2 14.5 -3t14.5 -3t17 -4z" />
    <glyph glyph-name="Scircumflex" unicode="&#x15c;" horiz-adv-x="1325" 
d="M283 1589l219 312h319l219 -312h-284l-92 166h-5l-92 -166h-284zM723 893q213 -63 297 -102q189 -86 241 -226q23 -61 23 -135q0 -213 -153.5 -338t-425.5 -125q-193 0 -344 62t-239.5 183.5t-88.5 285.5h373q0 -121 80 -177.5t214 -56.5q100 0 153.5 36t53.5 95
q0 28 -9 51.5t-30.5 42t-44.5 32.5t-62.5 28.5t-72 25t-85.5 26.5q-29 8 -44 13q-85 25 -149 49t-130 62t-107.5 82t-68 107t-26.5 139q0 93 28.5 168t79.5 126t122.5 85t154.5 49.5t180 15.5q172 0 310 -56.5t222 -166t89 -254.5h-373q-12 85 -77 132.5t-171 47.5
q-87 0 -137.5 -30t-50.5 -91q0 -69 57.5 -105t210.5 -81z" />
    <glyph glyph-name="scircumflex" unicode="&#x15d;" horiz-adv-x="1044" 
d="M141 1174l219 311h320l219 -311h-285l-92 165h-4l-92 -165h-285zM602 662q51 -12 88.5 -22t83.5 -26.5t78 -34.5t64.5 -45t52.5 -58.5t32.5 -74.5t12.5 -94q0 -164 -121 -252t-348 -88q-133 0 -234 30t-160.5 84t-90 120.5t-33.5 146.5h307q15 -155 205 -155
q139 0 139 90q0 15 -3.5 28t-12 23.5t-16.5 18.5t-25 15.5t-29.5 12t-36.5 11t-39 10t-45.5 10t-48.5 10.5q-62 15 -110.5 30.5t-100.5 43t-86 61t-56 83.5t-22 112q0 150 120.5 239.5t338.5 89.5q121 0 214 -29t147.5 -79.5t83 -112t32.5 -133.5h-307q-8 65 -46.5 97
t-117.5 32q-129 0 -129 -84q0 -44 34 -60.5t139 -39.5q9 -2 14.5 -3t14.5 -3t17 -4z" />
    <glyph glyph-name="Scedilla" unicode="&#x15e;" horiz-adv-x="1325" 
d="M723 893q213 -63 297 -102q189 -86 241 -226q23 -61 23 -135q0 -200 -137 -324t-381 -137l-55 -67v-4q89 10 154 -26.5t65 -111.5q0 -77 -77 -121.5t-191 -44.5q-131 0 -230 68l62 72q67 -31 129 -31q41 0 67.5 14.5t26.5 44.5q0 56 -70 56q-33 0 -76 -15l-49 70l92 98
q-259 21 -420 161t-161 366h373q0 -121 80 -177.5t214 -56.5q100 0 153.5 36t53.5 95q0 28 -9 51.5t-30.5 42t-44.5 32.5t-62.5 28.5t-72 25t-85.5 26.5q-29 8 -44 13q-85 25 -149 49t-130 62t-107.5 82t-68 107t-26.5 139q0 93 28.5 168t79.5 126t122.5 85t154.5 49.5
t180 15.5q172 0 310 -56.5t222 -166t89 -254.5h-373q-12 85 -77 132.5t-171 47.5q-87 0 -137.5 -30t-50.5 -91q0 -69 57.5 -105t210.5 -81z" />
    <glyph glyph-name="scedilla" unicode="&#x15f;" horiz-adv-x="1044" 
d="M602 662q51 -12 88.5 -22t83.5 -26.5t78 -34.5t64.5 -45t52.5 -58.5t32.5 -74.5t12.5 -94q0 -151 -102 -237.5t-294 -100.5l-55 -67v-4q89 10 154 -26.5t65 -111.5q0 -77 -77 -121.5t-191 -44.5q-130 0 -229 68l61 72q67 -31 129 -31q41 0 67.5 14.5t26.5 44.5
q0 56 -69 56q-33 0 -76 -15l-49 70l92 96q-219 18 -326.5 121.5t-113.5 257.5h307q15 -155 205 -155q139 0 139 90q0 15 -3.5 28t-12 23.5t-16.5 18.5t-25 15.5t-29.5 12t-36.5 11t-39 10t-45.5 10t-48.5 10.5q-62 15 -110.5 30.5t-100.5 43t-86 61t-56 83.5t-22 112
q0 150 120.5 239.5t338.5 89.5q121 0 214 -29t147.5 -79.5t83 -112t32.5 -133.5h-307q-8 65 -46.5 97t-117.5 32q-129 0 -129 -84q0 -44 34 -60.5t139 -39.5q9 -2 14.5 -3t14.5 -3t17 -4z" />
    <glyph glyph-name="Scaron" unicode="&#x160;" horiz-adv-x="1325" 
d="M283 1901h284l92 -166h5l92 166h284l-219 -312h-319zM723 893q213 -63 297 -102q189 -86 241 -226q23 -61 23 -135q0 -213 -153.5 -338t-425.5 -125q-193 0 -344 62t-239.5 183.5t-88.5 285.5h373q0 -121 80 -177.5t214 -56.5q100 0 153.5 36t53.5 95q0 28 -9 51.5
t-30.5 42t-44.5 32.5t-62.5 28.5t-72 25t-85.5 26.5q-29 8 -44 13q-85 25 -149 49t-130 62t-107.5 82t-68 107t-26.5 139q0 93 28.5 168t79.5 126t122.5 85t154.5 49.5t180 15.5q172 0 310 -56.5t222 -166t89 -254.5h-373q-12 85 -77 132.5t-171 47.5q-87 0 -137.5 -30
t-50.5 -91q0 -69 57.5 -105t210.5 -81z" />
    <glyph glyph-name="scaron" unicode="&#x161;" horiz-adv-x="1044" 
d="M141 1485h285l92 -166h4l92 166h285l-219 -311h-320zM602 662q51 -12 88.5 -22t83.5 -26.5t78 -34.5t64.5 -45t52.5 -58.5t32.5 -74.5t12.5 -94q0 -164 -121 -252t-348 -88q-133 0 -234 30t-160.5 84t-90 120.5t-33.5 146.5h307q15 -155 205 -155q139 0 139 90
q0 15 -3.5 28t-12 23.5t-16.5 18.5t-25 15.5t-29.5 12t-36.5 11t-39 10t-45.5 10t-48.5 10.5q-62 15 -110.5 30.5t-100.5 43t-86 61t-56 83.5t-22 112q0 150 120.5 239.5t338.5 89.5q121 0 214 -29t147.5 -79.5t83 -112t32.5 -133.5h-307q-8 65 -46.5 97t-117.5 32
q-129 0 -129 -84q0 -44 34 -60.5t139 -39.5q9 -2 14.5 -3t14.5 -3t17 -4z" />
    <glyph glyph-name="uni0162" unicode="&#x162;" horiz-adv-x="1316" 
d="M475 0v1163h-426v301h1219v-301h-424v-1163h-96l-80 -98v-4q89 10 154 -26.5t65 -111.5q0 -77 -77.5 -121.5t-191.5 -44.5q-130 0 -229 68l62 72q67 -31 129 -31q41 0 67.5 14.5t26.5 44.5q0 56 -70 56q-33 0 -76 -15l-49 70l121 127h-125z" />
    <glyph glyph-name="uni0163" unicode="&#x163;" horiz-adv-x="733" 
d="M20 1049h146v292h328v-292h182v-246h-182v-455q0 -78 25.5 -100.5t80.5 -22.5q36 0 88 8v-231q-79 -19 -168 -22l-47 -58v-4q89 10 154 -26t65 -111q0 -77 -77 -121.5t-191 -44.5q-130 0 -229 68l61 71q65 -30 129 -30q41 0 67.5 14.5t26.5 44.5q0 55 -69 55
q-36 0 -76 -14l-49 70l92 98q-109 25 -160 109t-51 239v463h-146v246z" />
    <glyph glyph-name="Tcaron" unicode="&#x164;" horiz-adv-x="1316" 
d="M281 1901h284l92 -166h5l92 166h284l-219 -312h-319zM475 0v1163h-426v301h1219v-301h-424v-1163h-369z" />
    <glyph glyph-name="tcaron" unicode="&#x165;" horiz-adv-x="733" 
d="M610 1464h297l-147 -338h-193zM20 1049h146v292h328v-292h182v-246h-182v-455q0 -78 25.5 -100.5t80.5 -22.5q36 0 88 8v-231q-96 -22 -194 -22q-173 0 -250.5 84.5t-77.5 275.5v463h-146v246z" />
    <glyph glyph-name="Tbar" unicode="&#x166;" horiz-adv-x="1316" 
d="M475 0v666h-268v184h268v313h-426v301h1219v-301h-424v-313h280v-184h-280v-666h-369z" />
    <glyph glyph-name="tbar" unicode="&#x167;" horiz-adv-x="733" 
d="M676 664v-185h-182v-131q0 -78 25.5 -100.5t80.5 -22.5q36 0 88 8v-231q-96 -22 -194 -22q-173 0 -250.5 84.5t-77.5 275.5v139h-146v185h146v139h-146v246h146v292h328v-292h182v-246h-182v-139h182z" />
    <glyph glyph-name="Utilde" unicode="&#x168;" horiz-adv-x="1449" 
d="M358 1559q0 301 183 301q59 0 150 -41t128 -41q72 0 72 82h176q0 -301 -182 -301q-59 0 -151 39.5t-128 39.5q-69 0 -69 -79h-179zM1337 528q0 -282 -144.5 -421.5t-467.5 -139.5t-467.5 139.5t-144.5 421.5v936h368v-936q0 -139 59.5 -199.5t184.5 -60.5t184.5 60.5
t59.5 199.5v936h368v-936z" />
    <glyph glyph-name="utilde" unicode="&#x169;" 
d="M213 1143q0 301 182 301q59 0 150.5 -41t128.5 -41q71 0 71 82h177q0 -301 -183 -301q-59 0 -150.5 40t-127.5 40q-70 0 -70 -80h-178zM406 444q0 -115 39.5 -163t123.5 -48q197 0 197 209v607h328v-1049h-328v152h-4q-106 -185 -344 -185q-155 0 -247.5 98t-92.5 275
v709h328v-605z" />
    <glyph glyph-name="Umacron" unicode="&#x16a;" horiz-adv-x="1449" 
d="M432 1794h586v-205h-586v205zM1337 528q0 -282 -144.5 -421.5t-467.5 -139.5t-467.5 139.5t-144.5 421.5v936h368v-936q0 -139 59.5 -199.5t184.5 -60.5t184.5 60.5t59.5 199.5v936h368v-936z" />
    <glyph glyph-name="umacron" unicode="&#x16b;" 
d="M287 1378h585v-204h-585v204zM406 444q0 -115 39.5 -163t123.5 -48q197 0 197 209v607h328v-1049h-328v152h-4q-106 -185 -344 -185q-155 0 -247.5 98t-92.5 275v709h328v-605z" />
    <glyph glyph-name="Ubreve" unicode="&#x16c;" horiz-adv-x="1449" 
d="M725 1573q-141 0 -232.5 85t-95.5 226h189q10 -110 139 -110t139 110h189q-6 -139 -96 -225t-232 -86zM1337 528q0 -282 -144.5 -421.5t-467.5 -139.5t-467.5 139.5t-144.5 421.5v936h368v-936q0 -139 59.5 -199.5t184.5 -60.5t184.5 60.5t59.5 199.5v936h368v-936z" />
    <glyph glyph-name="ubreve" unicode="&#x16d;" 
d="M580 1157q-141 0 -232.5 85t-95.5 226h188q5 -52 40 -81t100 -29q129 0 139 110h188q-6 -139 -95.5 -225t-231.5 -86zM406 444q0 -115 39.5 -163t123.5 -48q197 0 197 209v607h328v-1049h-328v152h-4q-106 -185 -344 -185q-155 0 -247.5 98t-92.5 275v709h328v-605z" />
    <glyph glyph-name="Uring" unicode="&#x16e;" horiz-adv-x="1449" 
d="M725 1520q-94 0 -159.5 60.5t-65.5 160.5q0 98 65.5 159.5t159.5 61.5q95 0 160 -61t65 -160q0 -100 -65 -160.5t-160 -60.5zM725 1647q42 0 65 24.5t23 69.5t-23 69.5t-65 24.5q-38 0 -62 -25t-24 -69t24 -69t62 -25zM1337 528q0 -282 -144.5 -421.5t-467.5 -139.5
t-467.5 139.5t-144.5 421.5v936h368v-936q0 -139 59.5 -199.5t184.5 -60.5t184.5 60.5t59.5 199.5v936h368v-936z" />
    <glyph glyph-name="uring" unicode="&#x16f;" 
d="M580 1104q-94 0 -160 60.5t-66 160.5q0 98 66 159.5t160 61.5q95 0 160 -61t65 -160q0 -100 -65 -160.5t-160 -60.5zM580 1231q42 0 65 24.5t23 69.5t-23 69.5t-65 24.5q-38 0 -62 -25t-24 -69t24 -69t62 -25zM406 444q0 -115 39.5 -163t123.5 -48q197 0 197 209v607h328
v-1049h-328v152h-4q-106 -185 -344 -185q-155 0 -247.5 98t-92.5 275v709h328v-605z" />
    <glyph glyph-name="Uhungarumlaut" unicode="&#x170;" horiz-adv-x="1449" 
d="M543 1901h317l-207 -312h-235zM944 1901h318l-248 -312h-236zM1337 528q0 -282 -144.5 -421.5t-467.5 -139.5t-467.5 139.5t-144.5 421.5v936h368v-936q0 -139 59.5 -199.5t184.5 -60.5t184.5 60.5t59.5 199.5v936h368v-936z" />
    <glyph glyph-name="uhungarumlaut" unicode="&#x171;" 
d="M397 1485h318l-207 -311h-236zM799 1485h317l-248 -311h-235zM406 444q0 -115 39.5 -163t123.5 -48q197 0 197 209v607h328v-1049h-328v152h-4q-106 -185 -344 -185q-155 0 -247.5 98t-92.5 275v709h328v-605z" />
    <glyph glyph-name="Uogonek" unicode="&#x172;" horiz-adv-x="1449" 
d="M829 -360q-115 0 -174 44t-59 128q0 91 86 155q-300 9 -434.5 149t-134.5 412v936h368v-936q0 -139 59.5 -199.5t184.5 -60.5t184.5 60.5t59.5 199.5v936h368v-936q0 -234 -98.5 -369.5t-314.5 -174.5q-76 -65 -76 -107q0 -45 63 -45q33 0 84 14v-184q-86 -22 -166 -22z
" />
    <glyph glyph-name="uogonek" unicode="&#x173;" 
d="M406 444q0 -115 39.5 -163t123.5 -48q197 0 197 209v607h328v-1049h-58q-28 -24 -38.5 -33.5t-28 -27.5t-23.5 -32.5t-6 -29.5q0 -45 64 -45q32 0 83 14v-184q-86 -22 -165 -22q-115 0 -174.5 44t-59.5 128q0 65 41.5 113.5t97.5 74.5h-61v152h-4q-106 -185 -344 -185
q-155 0 -247.5 98t-92.5 275v709h328v-605z" />
    <glyph glyph-name="Wcircumflex" unicode="&#x174;" horiz-adv-x="1966" 
d="M604 1589l219 312h320l219 -312h-285l-92 166h-4l-92 -166h-285zM20 1464h369l189 -993h4l227 993h348l227 -993h5l188 993h369l-373 -1464h-369l-219 913h-4l-219 -913h-369z" />
    <glyph glyph-name="wcircumflex" unicode="&#x175;" horiz-adv-x="1650" 
d="M446 1174l220 311h319l219 -311h-284l-93 165h-4l-92 -165h-285zM20 1049h328l158 -639h4l176 639h287l176 -639h6l158 639h317l-293 -1049h-307l-203 664h-4l-202 -664h-308z" />
    <glyph glyph-name="Ycircumflex" unicode="&#x176;" horiz-adv-x="1394" 
d="M324 1589l219 312h319l219 -312h-284l-92 166h-5l-92 -166h-284zM16 1464h398l284 -622h4l287 622h389l-493 -923v-541h-369v541z" />
    <glyph glyph-name="ycircumflex" unicode="&#x177;" horiz-adv-x="1157" 
d="M205 1174l219 311h319l220 -311h-285l-92 165h-4l-93 -165h-284zM432 14l-418 1035h338l246 -691h4l225 691h324l-383 -1051q-46 -126 -97.5 -201.5t-131.5 -117t-193 -41.5q-96 0 -196 20v250q52 -6 98 -6q21 0 34 0.5t34.5 3.5t36.5 10.5t31.5 19t28.5 31.5t19 47z" />
    <glyph glyph-name="Ydieresis" unicode="&#x178;" horiz-adv-x="1394" 
d="M326 1880h327v-291h-327v291zM752 1880h327v-291h-327v291zM16 1464h398l284 -622h4l287 622h389l-493 -923v-541h-369v541z" />
    <glyph glyph-name="Zacute" unicode="&#x179;" horiz-adv-x="1290" 
d="M651 1901h369l-232 -312h-245zM115 1464h1079v-301l-670 -858v-4h690v-301h-1140v301l669 858v4h-628v301z" />
    <glyph glyph-name="zacute" unicode="&#x17a;" horiz-adv-x="1042" 
d="M506 1485h368l-231 -311h-246zM51 236l510 563v4h-469v246h879v-236l-510 -563v-4h530v-246h-940v236z" />
    <glyph glyph-name="Zdotaccent" unicode="&#x17b;" horiz-adv-x="1290" 
d="M502 1880h327v-291h-327v291zM115 1464h1079v-301l-670 -858v-4h690v-301h-1140v301l669 858v4h-628v301z" />
    <glyph glyph-name="zdotaccent" unicode="&#x17c;" horiz-adv-x="1042" 
d="M356 1464h328v-290h-328v290zM51 236l510 563v4h-469v246h879v-236l-510 -563v-4h530v-246h-940v236z" />
    <glyph glyph-name="Zcaron" unicode="&#x17d;" horiz-adv-x="1290" 
d="M287 1901h284l93 -166h4l92 166h284l-219 -312h-319zM115 1464h1079v-301l-670 -858v-4h690v-301h-1140v301l669 858v4h-628v301z" />
    <glyph glyph-name="zcaron" unicode="&#x17e;" horiz-adv-x="1042" 
d="M141 1485h285l92 -166h4l92 166h285l-219 -311h-320zM51 236l510 563v4h-469v246h879v-236l-510 -563v-4h530v-246h-940v236z" />
    <glyph glyph-name="florin" unicode="&#x192;" horiz-adv-x="854" 
d="M49 -287q-80 0 -178 23l-14 233q54 -10 100 -10q75 0 104 36t48 130l110 571h-133l8 246h174l35 180q37 191 131 276t268 85q87 0 193 -23l-64 -233q-34 10 -67 10q-68 0 -96 -36.5t-47 -129.5l-25 -129h170l-8 -246h-211l-121 -622q-37 -191 -126 -276t-251 -85z" />
    <glyph glyph-name="uni0218" unicode="&#x218;" horiz-adv-x="1325" 
d="M723 893q213 -63 297 -102q189 -86 241 -226q23 -61 23 -135q0 -213 -153.5 -338t-425.5 -125q-193 0 -344 62t-239.5 183.5t-88.5 285.5h373q0 -121 80 -177.5t214 -56.5q100 0 153.5 36t53.5 95q0 28 -9 51.5t-30.5 42t-44.5 32.5t-62.5 28.5t-72 25t-85.5 26.5
q-29 8 -44 13q-85 25 -149 49t-130 62t-107.5 82t-68 107t-26.5 139q0 93 28.5 168t79.5 126t122.5 85t154.5 49.5t180 15.5q172 0 310 -56.5t222 -166t89 -254.5h-373q-12 85 -77 132.5t-171 47.5q-87 0 -137.5 -30t-50.5 -91q0 -69 57.5 -105t210.5 -81zM547 -100h311
v-209q0 -93 -81 -154t-230 -76v97q147 17 147 133h-147v209z" />
    <glyph glyph-name="uni0219" unicode="&#x219;" horiz-adv-x="1044" 
d="M602 662q51 -12 88.5 -22t83.5 -26.5t78 -34.5t64.5 -45t52.5 -58.5t32.5 -74.5t12.5 -94q0 -164 -121 -252t-348 -88q-133 0 -234 30t-160.5 84t-90 120.5t-33.5 146.5h307q15 -155 205 -155q139 0 139 90q0 15 -3.5 28t-12 23.5t-16.5 18.5t-25 15.5t-29.5 12t-36.5 11
t-39 10t-45.5 10t-48.5 10.5q-62 15 -110.5 30.5t-100.5 43t-86 61t-56 83.5t-22 112q0 150 120.5 239.5t338.5 89.5q121 0 214 -29t147.5 -79.5t83 -112t32.5 -133.5h-307q-8 65 -46.5 97t-117.5 32q-129 0 -129 -84q0 -44 34 -60.5t139 -39.5q9 -2 14.5 -3t14.5 -3t17 -4z
M399 -100h312v-209q0 -93 -81.5 -154t-230.5 -76v97q148 17 148 133h-148v209z" />
    <glyph glyph-name="uni021A" unicode="&#x21a;" horiz-adv-x="1316" 
d="M475 0v1163h-426v301h1219v-301h-424v-1163h-369zM504 -100h311v-209q0 -93 -81 -154t-230 -76v97q147 17 147 133h-147v209z" />
    <glyph glyph-name="uni021B" unicode="&#x21b;" horiz-adv-x="733" 
d="M20 1049h146v292h328v-292h182v-246h-182v-455q0 -78 25.5 -100.5t80.5 -22.5q36 0 88 8v-231q-96 -22 -194 -22q-173 0 -250.5 84.5t-77.5 275.5v463h-146v246zM309 -80h312v-209q0 -93 -81.5 -153.5t-230.5 -75.5v96q148 17 148 133h-148v209z" />
    <glyph glyph-name="uni0237" unicode="&#x237;" horiz-adv-x="495" 
d="M86 -375q-83 0 -182 21v250q58 -7 76 -7q55 0 80.5 23.5t25.5 101.5v1035h328v-1018q0 -200 -77 -303t-251 -103z" />
    <glyph glyph-name="circumflex" unicode="&#x2c6;" horiz-adv-x="921" 
d="M82 1174l219 311h320l219 -311h-285l-92 165h-4l-92 -165h-285z" />
    <glyph glyph-name="caron" unicode="&#x2c7;" horiz-adv-x="921" 
d="M82 1485h285l92 -166h4l92 166h285l-219 -311h-320z" />
    <glyph glyph-name="breve" unicode="&#x2d8;" horiz-adv-x="819" 
d="M410 1153q-141 0 -232.5 85t-95.5 226h188q5 -52 40 -81t100 -29q129 0 139 110h188q-6 -139 -95.5 -225t-231.5 -86z" />
    <glyph glyph-name="dotaccent" unicode="&#x2d9;" horiz-adv-x="491" 
d="M82 1464h328v-290h-328v290z" />
    <glyph glyph-name="ring" unicode="&#x2da;" horiz-adv-x="581" 
d="M291 1059q-94 0 -159.5 60.5t-65.5 160.5q0 98 65.5 159.5t159.5 61.5q95 0 160 -61t65 -160q0 -100 -65 -160.5t-160 -60.5zM291 1186q42 0 65 24.5t23 69.5t-23 69.5t-65 24.5q-38 0 -62 -25t-24 -69t24 -69t62 -25z" />
    <glyph glyph-name="ogonek" unicode="&#x2db;" horiz-adv-x="563" 
d="M315 -362q-115 0 -174 44t-59 128q0 66 42 114t101 76h207q-36 -30 -51 -44.5t-31 -37.5t-16 -43q0 -45 63 -45q33 0 84 14v-184q-86 -22 -166 -22z" />
    <glyph glyph-name="tilde" unicode="&#x2dc;" horiz-adv-x="872" 
d="M82 1143q0 301 182 301q59 0 150.5 -41t128.5 -41q71 0 71 82h177q0 -301 -183 -301q-59 0 -150.5 40t-127.5 40q-70 0 -70 -80h-178z" />
    <glyph glyph-name="hungarumlaut" unicode="&#x2dd;" horiz-adv-x="1071" 
d="M258 1485h317l-206 -311h-236zM659 1485h318l-248 -311h-235z" />
    <glyph glyph-name="gravecomb" unicode="&#x300;" horiz-adv-x="0" 
d="M430 1485l109 -311h-246l-191 311h328z" />
    <glyph glyph-name="acutecomb" unicode="&#x301;" horiz-adv-x="0" 
d="M190 1485h369l-231 -311h-246z" />
    <glyph glyph-name="uni0302" unicode="&#x302;" horiz-adv-x="0" 
d="M82 1174l219 311h320l219 -311h-285l-92 165h-4l-92 -165h-285z" />
    <glyph glyph-name="tildecomb" unicode="&#x303;" horiz-adv-x="0" 
d="M82 1143q0 301 182 301q59 0 150.5 -41t128.5 -41q71 0 71 82h177q0 -301 -183 -301q-59 0 -150.5 40t-127.5 40q-70 0 -70 -80h-178z" />
    <glyph glyph-name="uni0304" unicode="&#x304;" horiz-adv-x="0" 
d="M82 1378h586v-204h-586v204z" />
    <glyph glyph-name="uni0306" unicode="&#x306;" horiz-adv-x="0" 
d="M410 1153q-141 0 -232.5 85t-95.5 226h188q5 -52 40 -81t100 -29q129 0 139 110h188q-6 -139 -95.5 -225t-231.5 -86z" />
    <glyph glyph-name="uni0307" unicode="&#x307;" horiz-adv-x="0" 
d="M82 1464h328v-290h-328v290z" />
    <glyph glyph-name="uni0308" unicode="&#x308;" horiz-adv-x="0" 
d="M96 1464h328v-290h-328v290zM522 1464h328v-290h-328v290z" />
    <glyph glyph-name="uni030A" unicode="&#x30a;" horiz-adv-x="0" 
d="M291 1100q-94 0 -159.5 60.5t-65.5 160.5q0 98 65.5 159.5t159.5 61.5q95 0 160 -61t65 -160q0 -100 -65 -160.5t-160 -60.5zM291 1227q42 0 65 24.5t23 69.5t-23 69.5t-65 24.5q-38 0 -62 -25t-24 -69t24 -69t62 -25z" />
    <glyph glyph-name="uni030B" unicode="&#x30b;" horiz-adv-x="0" 
d="M258 1485h317l-206 -311h-236zM659 1485h318l-248 -311h-235z" />
    <glyph glyph-name="uni030C" unicode="&#x30c;" horiz-adv-x="0" 
d="M82 1485h285l92 -166h4l92 166h285l-219 -311h-320z" />
    <glyph glyph-name="uni0312" unicode="&#x312;" horiz-adv-x="0" 
d="M393 1174h-311v210q0 95 81 157t230 75v-96q-147 -17 -147 -136h147v-210z" />
    <glyph glyph-name="uni0326" unicode="&#x326;" horiz-adv-x="0" 
d="M82 -100h311v-209q0 -93 -81 -154t-230 -76v97q147 17 147 133h-147v209z" />
    <glyph glyph-name="uni0327" unicode="&#x327;" horiz-adv-x="0" 
d="M463 0l-80 -98v-4q89 10 154 -26.5t65 -111.5q0 -77 -77 -121.5t-191 -44.5q-131 0 -230 68l62 72q67 -31 129 -31q41 0 67.5 14.5t26.5 44.5q0 56 -70 56q-32 0 -75 -15l-49 70l120 127h148z" />
    <glyph glyph-name="uni0328" unicode="&#x328;" horiz-adv-x="0" 
d="M315 -362q-115 0 -174 44t-59 128q0 66 42 114t101 76h207q-36 -30 -51 -44.5t-31 -37.5t-16 -43q0 -45 63 -45q33 0 84 14v-184q-86 -22 -166 -22z" />
    <glyph glyph-name="uni0335" unicode="&#x335;" horiz-adv-x="0" 
d="M999 850v-184h-917v184h917z" />
    <glyph glyph-name="uni0336" unicode="&#x336;" horiz-adv-x="0" 
d="M1188 887v-301h-1106v301h1106z" />
    <glyph glyph-name="uni0337" unicode="&#x337;" horiz-adv-x="0" 
d="M82 61l1010 1012l88 -86l-1012 -1014z" />
    <glyph glyph-name="uni0338" unicode="&#x338;" horiz-adv-x="0" 
d="M82 61l1010 1012l88 -86l-1012 -1014z" />
    <glyph glyph-name="uni0394" unicode="&#x394;" horiz-adv-x="1376" 
d="M29 0v301l458 1163h402l459 -1163v-301h-1319zM678 1126l-307 -835h633l-308 835h-18z" />
    <glyph glyph-name="uni03A9" unicode="&#x3a9;" horiz-adv-x="1613" 
d="M57 0v299h314q-139 85 -213 221t-74 316q0 298 194 477.5t529 179.5t529 -179.5t194 -477.5q0 -180 -74 -316t-213 -221h313v-299h-647v276q265 169 265 506q0 208 -96 312t-271 104t-271 -104t-96 -312q0 -337 265 -506v-276h-648z" />
    <glyph glyph-name="uni03BC" unicode="&#x3bc;" horiz-adv-x="1179" 
d="M82 -362v1411h328v-605q0 -115 39.5 -163t123.5 -48q197 0 197 209v607h328v-1049h-328v152h-4q-41 -84 -112.5 -128t-149.5 -44q-53 0 -94 20v-362h-328z" />
    <glyph glyph-name="pi" unicode="&#x3c0;" horiz-adv-x="1239" 
d="M182 0v803h-162v246h1174v-246h-166v-455q0 -78 21.5 -100.5t68.5 -22.5q27 0 68 8v-231q-84 -22 -174 -22q-164 0 -238 84.5t-74 275.5v463h-190v-803h-328z" />
    <glyph glyph-name="Wgrave" unicode="&#x1e80;" horiz-adv-x="1966" 
d="M993 1905l109 -312h-246l-190 312h327zM20 1464h369l189 -993h4l227 993h348l227 -993h5l188 993h369l-373 -1464h-369l-219 913h-4l-219 -913h-369z" />
    <glyph glyph-name="wgrave" unicode="&#x1e81;" horiz-adv-x="1650" 
d="M836 1489l108 -311h-246l-190 311h328zM20 1049h328l158 -639h4l176 639h287l176 -639h6l158 639h317l-293 -1049h-307l-203 664h-4l-202 -664h-308z" />
    <glyph glyph-name="Wacute" unicode="&#x1e82;" horiz-adv-x="1966" 
d="M969 1901h368l-231 -312h-246zM20 1464h369l189 -993h4l227 993h348l227 -993h5l188 993h369l-373 -1464h-369l-219 913h-4l-219 -913h-369z" />
    <glyph glyph-name="wacute" unicode="&#x1e83;" horiz-adv-x="1650" 
d="M811 1485h369l-232 -311h-246zM20 1049h328l158 -639h4l176 639h287l176 -639h6l158 639h317l-293 -1049h-307l-203 664h-4l-202 -664h-308z" />
    <glyph glyph-name="Wdieresis" unicode="&#x1e84;" horiz-adv-x="1966" 
d="M606 1880h328v-291h-328v291zM1032 1880h328v-291h-328v291zM20 1464h369l189 -993h4l227 993h348l227 -993h5l188 993h369l-373 -1464h-369l-219 913h-4l-219 -913h-369z" />
    <glyph glyph-name="wdieresis" unicode="&#x1e85;" horiz-adv-x="1650" 
d="M449 1464h327v-290h-327v290zM874 1464h328v-290h-328v290zM20 1049h328l158 -639h4l176 639h287l176 -639h6l158 639h317l-293 -1049h-307l-203 664h-4l-202 -664h-308z" />
    <glyph glyph-name="Ygrave" unicode="&#x1ef2;" horiz-adv-x="1394" 
d="M713 1905l108 -312h-246l-190 312h328zM16 1464h398l284 -622h4l287 622h389l-493 -923v-541h-369v541z" />
    <glyph glyph-name="ygrave" unicode="&#x1ef3;" horiz-adv-x="1157" 
d="M594 1489l108 -311h-245l-191 311h328zM432 14l-418 1035h338l246 -691h4l225 691h324l-383 -1051q-46 -126 -97.5 -201.5t-131.5 -117t-193 -41.5q-96 0 -196 20v250q52 -6 98 -6q21 0 34 0.5t34.5 3.5t36.5 10.5t31.5 19t28.5 31.5t19 47z" />
    <glyph glyph-name="uni2000" unicode="&#x2000;" horiz-adv-x="1146" 
 />
    <glyph glyph-name="uni2001" unicode="&#x2001;" horiz-adv-x="2170" 
 />
    <glyph glyph-name="uni2002" unicode="&#x2002;" horiz-adv-x="1146" 
 />
    <glyph glyph-name="uni2003" unicode="&#x2003;" horiz-adv-x="2170" 
 />
    <glyph glyph-name="uni2004" unicode="&#x2004;" horiz-adv-x="681" 
 />
    <glyph glyph-name="uni2005" unicode="&#x2005;" horiz-adv-x="512" 
 />
    <glyph glyph-name="uni2006" unicode="&#x2006;" horiz-adv-x="342" 
 />
    <glyph glyph-name="uni2007" unicode="&#x2007;" horiz-adv-x="1382" 
 />
    <glyph glyph-name="uni2008" unicode="&#x2008;" horiz-adv-x="434" 
 />
    <glyph glyph-name="uni2009" unicode="&#x2009;" horiz-adv-x="409" 
 />
    <glyph glyph-name="uni200A" unicode="&#x200a;" horiz-adv-x="256" 
 />
    <glyph glyph-name="uni200B" unicode="&#x200b;" horiz-adv-x="0" 
 />
    <glyph glyph-name="endash" unicode="&#x2013;" horiz-adv-x="1146" 
d="M61 657h1024v-280h-1024v280z" />
    <glyph glyph-name="emdash" unicode="&#x2014;" horiz-adv-x="2170" 
d="M61 657h2048v-280h-2048v280z" />
    <glyph glyph-name="quoteleft" unicode="&#x2018;" horiz-adv-x="444" 
d="M383 811h-311v311q0 139 81 229.5t230 112.5v-143q-147 -24 -147 -199h147v-311z" />
    <glyph glyph-name="quoteright" unicode="&#x2019;" horiz-adv-x="444" 
d="M61 811v143q148 24 148 199h-148v311h312v-311q0 -139 -81.5 -229.5t-230.5 -112.5z" />
    <glyph glyph-name="quotesinglbase" unicode="&#x201a;" horiz-adv-x="444" 
d="M61 -342v143q148 24 148 199h-148v311h312v-311q0 -139 -81.5 -229.5t-230.5 -112.5z" />
    <glyph glyph-name="quotedblleft" unicode="&#x201c;" horiz-adv-x="854" 
d="M383 817h-311v311q0 139 81 229.5t230 112.5v-143q-147 -24 -147 -199h147v-311zM793 817h-312v311q0 139 81.5 229.5t230.5 112.5v-143q-148 -24 -148 -199h148v-311z" />
    <glyph glyph-name="quotedblright" unicode="&#x201d;" horiz-adv-x="854" 
d="M61 811v143q148 24 148 199h-148v311h312v-311q0 -139 -81.5 -229.5t-230.5 -112.5zM471 811v143q147 24 147 199h-147v311h311v-311q0 -139 -81 -229.5t-230 -112.5z" />
    <glyph glyph-name="quotedblbase" unicode="&#x201e;" horiz-adv-x="854" 
d="M471 -342v143q147 24 147 199h-147v311h311v-311q0 -139 -81 -229.5t-230 -112.5zM61 -342v143q148 24 148 199h-148v311h312v-311q0 -139 -81.5 -229.5t-230.5 -112.5z" />
    <glyph glyph-name="dagger" unicode="&#x2020;" horiz-adv-x="1249" 
d="M451 768h-359v281h359v415h348v-415h358v-281h-358v-1130h-348v1130z" />
    <glyph glyph-name="daggerdbl" unicode="&#x2021;" horiz-adv-x="1249" 
d="M451 113h-359v280h359v375h-359v281h359v415h348v-415h358v-281h-358v-375h358v-280h-358v-475h-348v475z" />
    <glyph glyph-name="bullet" unicode="&#x2022;" horiz-adv-x="696" 
d="M61 319v574h574v-574h-574z" />
    <glyph glyph-name="ellipsis" unicode="&#x2026;" horiz-adv-x="1302" 
d="M61 311h312v-311h-312v311zM496 311h311v-311h-311v311zM930 311h311v-311h-311v311z" />
    <glyph glyph-name="perthousand" unicode="&#x2030;" horiz-adv-x="2691" 
d="M438 627q-189 0 -300 110t-111 299t111 300.5t300 111.5t299.5 -111.5t110.5 -300.5t-110.5 -299t-299.5 -110zM416 0l784 1415h219l-784 -1415h-219zM438 831q54 0 78.5 49t24.5 156q0 109 -24.5 158t-78.5 49q-55 0 -79.5 -49t-24.5 -158q0 -108 24.5 -156.5
t79.5 -48.5zM2253 -33q-189 0 -299.5 111.5t-110.5 300.5t110.5 299t299.5 110t300 -110t111 -299t-111 -300.5t-300 -111.5zM1397 -33q-189 0 -299.5 111.5t-110.5 300.5t110.5 299t299.5 110t300 -110t111 -299t-111 -300.5t-300 -111.5zM2253 172q55 0 79.5 49t24.5 158
q0 108 -24.5 156.5t-79.5 48.5q-54 0 -78.5 -49t-24.5 -156q0 -109 24.5 -158t78.5 -49zM1397 172q55 0 79.5 49t24.5 158q0 108 -24.5 156.5t-79.5 48.5q-54 0 -78.5 -49t-24.5 -156q0 -109 24.5 -158t78.5 -49z" />
    <glyph glyph-name="guilsinglleft" unicode="&#x2039;" horiz-adv-x="571" 
d="M72 371v321l407 316v-320l-227 -153v-7l227 -153v-320z" />
    <glyph glyph-name="guilsinglright" unicode="&#x203a;" horiz-adv-x="571" 
d="M500 692v-321l-408 -316v320l227 153v7l-227 153v320z" />
    <glyph glyph-name="fraction" unicode="&#x2044;" horiz-adv-x="403" 
d="M522 1464h287l-928 -1464h-287z" />
    <glyph glyph-name="uni2070" unicode="&#x2070;" horiz-adv-x="851" 
d="M428 737q-95 0 -170.5 35t-122 95.5t-70.5 138t-24 165.5q0 119 41 216t130.5 159t215.5 62q77 0 140.5 -23t108 -63.5t75 -96t45 -119.5t14.5 -135q0 -89 -23.5 -166.5t-69.5 -138t-120.5 -95t-169.5 -34.5zM428 936q74 0 100.5 57t26.5 178q0 122 -26.5 179t-100.5 57
q-75 0 -103 -55.5t-28 -180.5q0 -122 27.5 -178.5t103.5 -56.5z" />
    <glyph glyph-name="uni2074" unicode="&#x2074;" horiz-adv-x="856" 
d="M657 745h-247v166h-367v246l367 420h247v-469h123v-197h-123v-166zM410 1319l-193 -211h193v211z" />
    <glyph glyph-name="uni2075" unicode="&#x2075;" horiz-adv-x="823" 
d="M430 725q-184 0 -282 76.5t-101 210.5h252q5 -37 35 -63.5t82 -26.5q47 0 72.5 28t25.5 82q0 117 -108 117q-59 0 -103 -49h-231l100 477h559v-197h-391l-25 -114v-2q77 51 170 51q128 0 204.5 -74.5t76.5 -210.5q0 -150 -93 -227.5t-243 -77.5z" />
    <glyph glyph-name="uni2076" unicode="&#x2076;" horiz-adv-x="819" 
d="M412 735q-104 0 -178.5 36t-114 98.5t-57 132.5t-17.5 153q0 218 100.5 336.5t264.5 118.5q134 0 219.5 -64.5t109.5 -169.5h-239q-31 56 -97 56q-124 0 -137 -144l-2 -24l8 -2q24 26 78.5 47.5t118.5 21.5q136 0 217.5 -80.5t81.5 -210.5q0 -138 -98 -221.5t-258 -83.5z
M410 918q57 0 89.5 33t32.5 85q0 49 -30 83t-88 34t-90.5 -34.5t-32.5 -82.5q0 -52 31.5 -85t87.5 -33z" />
    <glyph glyph-name="uni2077" unicode="&#x2077;" horiz-adv-x="696" 
d="M33 1577h626v-182q-123 -101 -179 -271.5t-56 -378.5h-260q0 195 67.5 370t167.5 263v2h-366v197z" />
    <glyph glyph-name="uni2078" unicode="&#x2078;" horiz-adv-x="786" 
d="M391 735q-157 0 -257.5 68t-100.5 192q0 140 155 209v2q-120 68 -120 176q0 105 93.5 166.5t229.5 61.5q139 0 232.5 -62t93.5 -166q0 -110 -121 -176v-2q158 -71 158 -209q0 -124 -103 -192t-260 -68zM391 1268q53 0 79 26.5t26 63.5q0 34 -26.5 60t-78.5 26t-78 -26
t-26 -60q0 -37 25 -63.5t79 -26.5zM391 915q52 0 79.5 32t27.5 75q0 41 -27.5 70.5t-79.5 29.5t-79 -29.5t-27 -70.5q0 -42 26.5 -74.5t79.5 -32.5z" />
    <glyph glyph-name="uni2079" unicode="&#x2079;" horiz-adv-x="823" 
d="M410 735q-129 0 -220.5 65.5t-115.5 168.5h252q28 -54 90 -54q54 0 85 35.5t31 102.5v10l-2 2q-23 -22 -72 -38.5t-110 -16.5q-134 0 -215.5 82t-81.5 213q0 138 98.5 221.5t258.5 83.5q85 0 151 -25.5t106.5 -67.5t66.5 -100.5t36 -118.5t10 -129q0 -208 -101.5 -321
t-266.5 -113zM412 1192q58 0 87 34t29 83q0 52 -31 85t-87 33q-57 0 -90 -33t-33 -85q0 -48 33.5 -82.5t91.5 -34.5z" />
    <glyph glyph-name="uni2080" unicode="&#x2080;" horiz-adv-x="851" 
d="M428 -223q-95 0 -170.5 35t-122 95.5t-70.5 138t-24 165.5t24 165.5t70.5 138.5t122 96.5t170.5 35.5t170 -35t120.5 -96t69 -138.5t23.5 -166.5t-23.5 -166.5t-69.5 -138t-120.5 -95t-169.5 -34.5zM428 -25q74 0 100.5 57t26.5 179q0 121 -26.5 178t-100.5 57
q-75 0 -103 -55.5t-28 -179.5q0 -122 27.5 -179t103.5 -57z" />
    <glyph glyph-name="uni2081" unicode="&#x2081;" horiz-adv-x="643" 
d="M283 627h217v-832h-262v518q-40 -18 -177 -18v188q93 0 158 39.5t64 104.5z" />
    <glyph glyph-name="uni2082" unicode="&#x2082;" horiz-adv-x="790" 
d="M303 313h-237q0 162 84.5 249t257.5 87q146 0 230.5 -68.5t84.5 -189.5q0 -47 -14.5 -91.5t-31.5 -74t-51 -65t-52 -51t-56 -46.5q-57 -43 -76 -67v-2h285v-199h-670q0 54 6.5 90t17 63.5t42 59.5t61.5 57t97 76q6 4 36 26.5t39.5 30t34 28t34.5 34t24 33t19 39.5t5 41
q0 39 -19.5 58.5t-54.5 19.5q-46 0 -71 -29.5t-25 -108.5z" />
    <glyph glyph-name="uni2083" unicode="&#x2083;" horiz-adv-x="819" 
d="M414 -225q-175 0 -270 83t-95 238h238q0 -66 26 -95.5t90 -29.5q97 0 97 82q0 44 -31.5 64t-103.5 20h-29v164h24q117 0 117 82q0 33 -21.5 50.5t-54.5 17.5q-41 0 -66.5 -20t-25.5 -62h-235q0 124 92 202t246 78q137 0 228 -62t91 -169q0 -112 -117 -182v-3
q140 -47 140 -196q0 -127 -91 -194.5t-249 -67.5z" />
    <glyph glyph-name="uni2084" unicode="&#x2084;" horiz-adv-x="856" 
d="M657 -205h-247v166h-367v246l367 420h247v-469h123v-197h-123v-166zM410 369l-193 -211h193v211z" />
    <glyph glyph-name="uni2085" unicode="&#x2085;" horiz-adv-x="823" 
d="M430 -225q-184 0 -282 76.5t-101 209.5h252q5 -37 35 -63.5t82 -26.5q47 0 72.5 28.5t25.5 82.5q0 117 -108 117q-59 0 -103 -49h-231l100 477h559v-197h-391l-25 -115v-2q79 52 170 52q128 0 204.5 -74.5t76.5 -210.5q0 -150 -93 -227.5t-243 -77.5z" />
    <glyph glyph-name="uni2086" unicode="&#x2086;" horiz-adv-x="819" 
d="M412 -225q-104 0 -178.5 36t-114 98.5t-57 132.5t-17.5 153q0 218 100.5 336t264.5 118q134 0 219.5 -64t109.5 -169h-239q-30 55 -97 55q-124 0 -137 -143l-2 -25l8 -2q24 26 78.5 48t118.5 22q136 0 217.5 -80.5t81.5 -210.5q0 -138 -98 -221.5t-258 -83.5zM410 -43
q57 0 89.5 33.5t32.5 85.5q0 49 -30 83t-88 34t-90.5 -34.5t-32.5 -82.5q0 -52 31.5 -85.5t87.5 -33.5z" />
    <glyph glyph-name="uni2087" unicode="&#x2087;" horiz-adv-x="696" 
d="M33 627h626v-183q-123 -101 -179 -271t-56 -378h-260q0 195 67.5 370t167.5 263v2h-366v197z" />
    <glyph glyph-name="uni2088" unicode="&#x2088;" horiz-adv-x="786" 
d="M391 -225q-157 0 -257.5 68t-100.5 192q0 140 155 209v2q-120 68 -120 176q0 105 93.5 166t229.5 61q140 0 233 -61.5t93 -165.5q0 -110 -121 -176v-2q158 -71 158 -209q0 -124 -103 -192t-260 -68zM391 307q53 0 79 26.5t26 63.5q0 34 -26.5 60t-78.5 26t-78 -26
t-26 -60q0 -37 25 -63.5t79 -26.5zM391 -45q52 0 79.5 31.5t27.5 74.5q0 41 -27.5 71t-79.5 30t-79 -30t-27 -71q0 -42 26.5 -74t79.5 -32z" />
    <glyph glyph-name="uni2089" unicode="&#x2089;" horiz-adv-x="823" 
d="M410 -225q-129 0 -220.5 65t-115.5 168h252q27 -53 90 -53q54 0 85 35t31 102v10l-2 2q-23 -22 -72 -38.5t-110 -16.5q-134 0 -215.5 82t-81.5 213q0 138 98.5 221.5t258.5 83.5q85 0 150.5 -25.5t106.5 -67t67 -100t36 -118.5t10 -129q0 -208 -101.5 -321t-266.5 -113z
M412 231q58 0 87 34t29 83q0 53 -31 86t-87 33q-57 0 -90 -33.5t-33 -85.5q0 -48 33.5 -82.5t91.5 -34.5z" />
    <glyph glyph-name="Euro" unicode="&#x20ac;" horiz-adv-x="1445" 
d="M860 637v-137h-321q23 -124 82 -188t167 -64q117 0 169.5 69t58.5 201h348q-5 -124 -41 -223.5t-104 -173.5t-175 -114t-247 -40q-112 0 -205 26.5t-160 73t-117 114t-80 146.5t-45 173h-108v137h96q-2 20 -2 65v35h-94v137h104q13 98 42 181t78.5 154.5t117 121
t162.5 77.5t211 28q273 0 414.5 -148t152.5 -399h-348q-8 129 -60.5 197.5t-167.5 68.5q-114 0 -173.5 -72t-79.5 -209h325v-137h-336v-35q0 -45 2 -65h334z" />
    <glyph glyph-name="trademark" unicode="&#x2122;" horiz-adv-x="1472" 
d="M629 1464h256l100 -319h4l103 319h258v-565h-189v346h-4l-104 -346h-133l-103 346h-4v-346h-184v565zM199 1284h-150v180h504v-180h-150v-385h-204v385z" />
    <glyph glyph-name="Omega" unicode="&#x2126;" horiz-adv-x="1613" 
d="M57 0v299h314q-139 85 -213 221t-74 316q0 298 194 477.5t529 179.5t529 -179.5t194 -477.5q0 -180 -74 -316t-213 -221h313v-299h-647v276q265 169 265 506q0 208 -96 312t-271 104t-271 -104t-96 -312q0 -337 265 -506v-276h-648z" />
    <glyph glyph-name="oneeighth" unicode="&#x215b;" horiz-adv-x="1792" 
d="M283 1464h217v-831h-262v518q-40 -18 -177 -18v188q93 0 158 39t64 104zM1165 1464h287l-928 -1464h-286zM1397 -20q-158 0 -258.5 68t-100.5 192q0 139 156 209v2q-121 68 -121 176q0 105 93.5 166t230.5 61q140 0 232.5 -61.5t92.5 -165.5q0 -110 -120 -176v-2
q157 -71 157 -209q0 -124 -102.5 -192t-259.5 -68zM1397 512q53 0 78.5 26.5t25.5 63.5q0 34 -26 60t-78 26t-78.5 -26t-26.5 -60q0 -37 25.5 -63.5t79.5 -26.5zM1397 160q52 0 79 31.5t27 74.5q0 41 -27 71t-79 30t-79.5 -30t-27.5 -71q0 -42 27 -74t80 -32z" />
    <glyph glyph-name="threeeighths" unicode="&#x215c;" horiz-adv-x="2009" 
d="M414 612q-175 0 -270 83.5t-95 238.5h238q0 -66 26 -95.5t90 -29.5q97 0 97 82q0 44 -31.5 64t-103.5 20h-29v164h24q117 0 117 82q0 33 -21.5 50t-54.5 17q-41 0 -66.5 -20t-25.5 -62h-235q0 124 92 202.5t246 78.5q137 0 228 -62.5t91 -169.5q0 -112 -117 -182v-2
q140 -47 140 -197q0 -127 -91 -194.5t-249 -67.5zM1341 1464h287l-928 -1464h-286zM1614 -20q-158 0 -258.5 68t-100.5 192q0 139 156 209v2q-121 68 -121 176q0 105 93.5 166t230.5 61q140 0 232.5 -61.5t92.5 -165.5q0 -110 -120 -176v-2q157 -71 157 -209
q0 -124 -102.5 -192t-259.5 -68zM1614 512q53 0 78.5 26.5t25.5 63.5q0 34 -26 60t-78 26t-78.5 -26t-26.5 -60q0 -37 25.5 -63.5t79.5 -26.5zM1614 160q52 0 79 31.5t27 74.5q0 41 -27 71t-79 30t-79.5 -30t-27.5 -71q0 -42 27 -74t80 -32z" />
    <glyph glyph-name="fiveeighths" unicode="&#x215d;" horiz-adv-x="2013" 
d="M430 612q-184 0 -282 76.5t-101 210.5h252q5 -37 35 -63.5t82 -26.5q47 0 72.5 28.5t25.5 82.5q0 116 -108 116q-59 0 -103 -49h-231l100 477h559v-196h-391l-25 -115v-2q77 51 170 51q129 0 205 -74.5t76 -209.5q0 -150 -93 -228t-243 -78zM1346 1464h286l-927 -1464
h-287zM1618 -20q-157 0 -257.5 68t-100.5 192q0 140 155 209v2q-121 68 -121 176q0 105 93.5 166t230.5 61q140 0 233 -61.5t93 -165.5q0 -110 -121 -176v-2q157 -71 157 -209q0 -124 -102.5 -192t-259.5 -68zM1618 512q53 0 78.5 26.5t25.5 63.5q0 34 -26 60t-78 26
t-78.5 -26t-26.5 -60q0 -37 25.5 -63.5t79.5 -26.5zM1618 160q52 0 79 31.5t27 74.5q0 41 -27 71t-79 30t-79.5 -30t-27.5 -71q0 -42 27 -74t80 -32z" />
    <glyph glyph-name="seveneighths" unicode="&#x215e;" horiz-adv-x="1824" 
d="M33 1464h626v-182q-123 -101 -179 -271t-56 -378h-260q0 195 67.5 370t167.5 263v2h-366v196zM1157 1464h287l-928 -1464h-287zM1430 -20q-158 0 -258.5 68t-100.5 192q0 139 156 209v2q-121 68 -121 176q0 105 93.5 166t230.5 61q140 0 232.5 -61.5t92.5 -165.5
q0 -110 -121 -176v-2q158 -71 158 -209q0 -124 -102.5 -192t-259.5 -68zM1430 512q53 0 78.5 26.5t25.5 63.5q0 34 -26 60t-78 26t-78.5 -26t-26.5 -60q0 -37 25.5 -63.5t79.5 -26.5zM1430 160q52 0 79 31.5t27 74.5q0 41 -27 71t-79 30t-79.5 -30t-27.5 -71q0 -42 27 -74
t80 -32z" />
    <glyph glyph-name="arrowleft" unicode="&#x2190;" horiz-adv-x="1579" 
d="M670 20l-588 635l588 635l157 -162l-327 -350h997v-246h-997l327 -350z" />
    <glyph glyph-name="arrowup" unicode="&#x2191;" horiz-adv-x="1433" 
d="M1352 827l-162 -157l-350 327v-997h-246v997l-350 -327l-162 157l635 588z" />
    <glyph glyph-name="arrowright" unicode="&#x2192;" horiz-adv-x="1579" 
d="M909 20l-157 162l327 350h-997v246h997l-327 350l157 162l588 -635z" />
    <glyph glyph-name="arrowdown" unicode="&#x2193;" horiz-adv-x="1433" 
d="M1352 506l-635 -588l-635 588l162 158l350 -328v997h246v-997l350 328z" />
    <glyph glyph-name="arrowboth" unicode="&#x2194;" horiz-adv-x="2375" 
d="M82 653l588 637l157 -162l-327 -350h1376l-326 350l156 162l588 -635l-586 -635l-158 162l328 350h-1378l327 -350l-157 -164z" />
    <glyph glyph-name="arrowupdn" unicode="&#x2195;" horiz-adv-x="1433" 
d="M82 225l162 158l350 -328v1137l-350 -328l-162 158l635 588l635 -588l-162 -158l-350 328v-1137l350 328l162 -158l-635 -587z" />
    <glyph glyph-name="uni2196" unicode="&#x2196;" horiz-adv-x="1286" 
d="M1030 143l-696 705v-479l-217 -2v864h864l-4 -209h-490l717 -705z" />
    <glyph glyph-name="uni2197" unicode="&#x2197;" horiz-adv-x="1286" 
d="M1169 367l-217 2v479l-696 -705l-174 174l717 705h-490l-4 209h864v-864z" />
    <glyph glyph-name="uni2198" unicode="&#x2198;" horiz-adv-x="1286" 
d="M305 88l4 209h490l-717 704l174 175l696 -705v479l217 2v-864h-864z" />
    <glyph glyph-name="uni2199" unicode="&#x2199;" horiz-adv-x="1286" 
d="M117 88v864l217 -2v-479l696 705l174 -175l-717 -704h490l4 -209h-864z" />
    <glyph glyph-name="partialdiff" unicode="&#x2202;" horiz-adv-x="1228" 
d="M811 836q-38 171 -158 259.5t-305 88.5v280q169 0 305.5 -42t230 -115.5t156 -177.5t91 -224t28.5 -258q0 -102 -19 -197t-63 -184t-110 -154.5t-168 -105t-228 -39.5q-233 0 -371.5 129t-138.5 348q0 134 60 254t165 193.5t228 73.5q113 0 181.5 -34t115.5 -95zM580 227
q110 0 170.5 75t60.5 185q0 93 -48 155.5t-142 62.5q-109 0 -170.5 -75.5t-61.5 -183.5q0 -94 49 -156.5t142 -62.5z" />
    <glyph glyph-name="emptyset" unicode="&#x2205;" horiz-adv-x="1673" 
d="M838 -33q-275 0 -482 158l-133 -133l-102 102l131 131q-170 200 -170 482q0 214 101 384.5t273 263.5t382 93q275 0 479 -158l133 133l102 -102l-131 -131q170 -200 170 -483q0 -161 -58.5 -300t-159.5 -235t-239.5 -150.5t-295.5 -54.5zM225 707q0 -218 129 -379
l858 858q-160 119 -374 119q-169 0 -308.5 -74.5t-222 -212t-82.5 -311.5zM838 111q168 0 307 74.5t221 211.5t82 310q0 219 -129 380l-858 -858q158 -118 377 -118z" />
    <glyph glyph-name="Delta" unicode="&#x2206;" horiz-adv-x="1376" 
d="M29 0v301l458 1163h402l459 -1163v-301h-1319zM678 1126l-307 -835h633l-308 835h-18z" />
    <glyph glyph-name="product" unicode="&#x220f;" horiz-adv-x="1513" 
d="M129 1464h1255v-1669h-348v1389h-559v-1389h-348v1669z" />
    <glyph glyph-name="summation" unicode="&#x2211;" horiz-adv-x="1292" 
d="M86 82l516 563v4l-516 531v284h1106v-280h-698v-4l456 -455v-143l-471 -502v-4h733v-281h-1126v287z" />
    <glyph glyph-name="minus" unicode="&#x2212;" horiz-adv-x="1200" 
d="M102 815h996v-283h-996v283z" />
    <glyph glyph-name="uni2219" unicode="&#x2219;" horiz-adv-x="516" 
d="M102 864h312v-311h-312v311z" />
    <glyph glyph-name="radical" unicode="&#x221a;" horiz-adv-x="1376" 
d="M49 745h383l197 -536h4l360 1255h348l-546 -1669h-328l-260 670h-158v280z" />
    <glyph glyph-name="infinity" unicode="&#x221e;" horiz-adv-x="1525" 
d="M66 625q0 95 29.5 169.5t79 119.5t111 68.5t130.5 23.5q200 0 346 -175h4q146 175 344 175q69 0 130.5 -23.5t111 -68.5t79 -119.5t29.5 -169.5q0 -93 -29.5 -167.5t-79 -120t-111.5 -69.5t-130 -24q-103 0 -186.5 54.5t-157.5 143.5h-4q-166 -198 -346 -198
q-68 0 -130 24t-111.5 69.5t-79 120t-29.5 167.5zM430 469q35 0 66 12t60 38.5t47 47t48 58.5q-30 38 -48 58.5t-47 46.5t-60 38t-66 12q-69 0 -104 -45t-35 -110t35 -110.5t104 -45.5zM1096 469q69 0 104 45.5t35 110.5t-35 110t-104 45q-35 0 -66 -12t-60 -37.5t-48 -47
t-48 -58.5q40 -51 64.5 -78t68 -52.5t89.5 -25.5z" />
    <glyph glyph-name="integral" unicode="&#x222b;" horiz-adv-x="794" 
d="M244 -362q-136 0 -234 20v246q47 -13 80 -13q133 0 133 177v1087q0 183 76.5 273t251.5 90q130 0 233 -21v-246q-47 13 -79 13q-134 0 -134 -177v-1087q0 -183 -76 -272.5t-251 -89.5z" />
    <glyph glyph-name="approxequal" unicode="&#x2248;" 
d="M842 670q-75 0 -248.5 46t-214.5 46q-84 0 -84 -92h-205q0 182 60 270t184 88q75 0 248.5 -46t214.5 -46q84 0 84 92h204q0 -182 -59.5 -270t-183.5 -88zM842 229q-75 0 -248.5 46.5t-214.5 46.5q-84 0 -84 -93h-205q0 182 60 270.5t184 88.5q75 0 248.5 -46t214.5 -46
q84 0 84 92h204q0 -182 -59.5 -270.5t-183.5 -88.5z" />
    <glyph glyph-name="notequal" unicode="&#x2260;" horiz-adv-x="1169" 
d="M440 158h-204l73 157h-207v283h342l72 152h-414v282h547l76 160h205l-76 -160h213v-282h-346l-72 -152h418v-283h-553z" />
    <glyph glyph-name="lessequal" unicode="&#x2264;" horiz-adv-x="1069" 
d="M946 266l-844 283v307l844 283v-281l-567 -153v-5l567 -153v-281zM102 0v246h844v-246h-844z" />
    <glyph glyph-name="greaterequal" unicode="&#x2265;" horiz-adv-x="1069" 
d="M123 266v281l567 153v5l-567 153v281l844 -283v-307zM123 246h844v-246h-844v246z" />
    <glyph glyph-name="uni2266" unicode="&#x2266;" horiz-adv-x="1191" 
d="M123 334v239h799l-799 269v276l946 316v-260l-631 -193v-4l631 -193v-450h-946zM123 0v240h946v-240h-946z" />
    <glyph glyph-name="uni2267" unicode="&#x2267;" horiz-adv-x="1191" 
d="M123 334v450l631 193v4l-631 193v260l946 -316v-276l-799 -269h799v-239h-946zM123 0v240h946v-240h-946z" />
    <glyph glyph-name="uni2460" unicode="&#x2460;" horiz-adv-x="1736" 
d="M868 -33q-353 0 -559.5 206t-206.5 558q0 353 206.5 559.5t559.5 206.5t559.5 -206.5t206.5 -559.5q0 -352 -206.5 -558t-559.5 -206zM868 162q254 0 397.5 151.5t143.5 417.5t-143.5 419t-397.5 153t-397 -152.5t-143 -419.5q0 -266 143 -417.5t397 -151.5zM809 1151
h217v-832h-262v519q-43 -19 -176 -19v189q93 0 157.5 39t63.5 104z" />
    <glyph glyph-name="uni2461" unicode="&#x2461;" horiz-adv-x="1736" 
d="M868 -33q-353 0 -559.5 206t-206.5 558q0 353 206.5 559.5t559.5 206.5t559.5 -206.5t206.5 -559.5q0 -352 -206.5 -558t-559.5 -206zM868 162q254 0 397.5 151.5t143.5 417.5t-143.5 419t-397.5 153t-397 -152.5t-143 -419.5q0 -266 143 -417.5t397 -151.5zM780 838
h-237q0 162 84.5 249t257.5 87q145 0 230 -69t85 -190q0 -47 -14.5 -91.5t-31.5 -73.5t-51.5 -65t-52 -51t-55.5 -46q-52 -40 -75 -68v-2h284v-199h-669q0 45 2.5 75t14 60t23.5 49t42.5 48t58 51t82.5 64q8 6 36.5 26.5t39.5 29.5t34 28.5t33.5 33t24 33t19 39.5t5.5 41
q0 78 -73 78q-47 0 -72 -29t-25 -108z" />
    <glyph glyph-name="uni2462" unicode="&#x2462;" horiz-adv-x="1736" 
d="M868 -33q-353 0 -559.5 206t-206.5 558q0 353 206.5 559.5t559.5 206.5t559.5 -206.5t206.5 -559.5q0 -352 -206.5 -558t-559.5 -206zM868 162q254 0 397.5 151.5t143.5 417.5t-143.5 419t-397.5 153t-397 -152.5t-143 -419.5q0 -266 143 -417.5t397 -151.5zM881 295
q-175 0 -270 83t-95 238h238q0 -66 25.5 -95t90.5 -29q97 0 97 81q0 43 -32 63.5t-104 20.5h-28v164h24q117 0 117 82q0 33 -21.5 50.5t-54.5 17.5q-41 0 -66.5 -20t-25.5 -62h-235q0 124 92 202t246 78q137 0 228 -62t91 -169q0 -112 -117 -182v-2q140 -47 140 -197
q0 -127 -91 -194.5t-249 -67.5z" />
    <glyph glyph-name="uni2463" unicode="&#x2463;" horiz-adv-x="1736" 
d="M868 -33q-353 0 -559.5 206t-206.5 558q0 353 206.5 559.5t559.5 206.5t559.5 -206.5t206.5 -559.5q0 -352 -206.5 -558t-559.5 -206zM868 162q254 0 397.5 151.5t143.5 417.5t-143.5 419t-397.5 153t-397 -152.5t-143 -419.5q0 -266 143 -417.5t397 -151.5zM1114 315
h-248v166h-366v246l366 420h248v-469h123v-197h-123v-166zM866 889l-192 -211h192v211z" />
    <glyph glyph-name="uni2464" unicode="&#x2464;" horiz-adv-x="1736" 
d="M868 -33q-353 0 -559.5 206t-206.5 558q0 353 206.5 559.5t559.5 206.5t559.5 -206.5t206.5 -559.5q0 -352 -206.5 -558t-559.5 -206zM868 162q254 0 397.5 151.5t143.5 417.5t-143.5 419t-397.5 153t-397 -152.5t-143 -419.5q0 -266 143 -417.5t397 -151.5zM893 295
q-184 0 -282 76.5t-101 210.5h252q5 -37 35 -63.5t82 -26.5q47 0 72.5 28t25.5 82q0 117 -109 117q-58 0 -102 -49h-231l100 477h559v-197h-391l-25 -114v-2q77 51 170 51q128 0 204.5 -74.5t76.5 -210.5q0 -150 -93 -227.5t-243 -77.5z" />
    <glyph glyph-name="uni2465" unicode="&#x2465;" horiz-adv-x="1736" 
d="M868 -33q-353 0 -559.5 206t-206.5 558q0 353 206.5 559.5t559.5 206.5t559.5 -206.5t206.5 -559.5q0 -352 -206.5 -558t-559.5 -206zM868 162q254 0 397.5 151.5t143.5 417.5t-143.5 419t-397.5 153t-397 -152.5t-143 -419.5q0 -266 143 -417.5t397 -151.5zM874 295
q-84 0 -149 24.5t-105 64t-66 95.5t-36 113.5t-10 122.5q0 218 100 336t264 118q134 0 220 -64t110 -169h-239q-30 55 -97 55q-124 0 -137 -143l-2 -25l8 -2q24 26 78.5 48t118.5 22q136 0 217.5 -80.5t81.5 -210.5q0 -138 -98.5 -221.5t-258.5 -83.5zM872 477q57 0 90 33.5
t33 85.5q0 49 -30 83t-88 34t-90.5 -34.5t-32.5 -82.5q0 -53 31 -86t87 -33z" />
    <glyph glyph-name="uni2466" unicode="&#x2466;" horiz-adv-x="1736" 
d="M868 -33q-353 0 -559.5 206t-206.5 558q0 353 206.5 559.5t559.5 206.5t559.5 -206.5t206.5 -559.5q0 -352 -206.5 -558t-559.5 -206zM868 162q254 0 397.5 151.5t143.5 417.5t-143.5 419t-397.5 153t-397 -152.5t-143 -419.5q0 -266 143 -417.5t397 -151.5zM555 1124
h627v-182q-123 -101 -179.5 -271t-56.5 -378h-260q0 195 68 370t168 263v2h-367v196z" />
    <glyph glyph-name="uni2467" unicode="&#x2467;" horiz-adv-x="1736" 
d="M868 -33q-353 0 -559.5 206t-206.5 558q0 353 206.5 559.5t559.5 206.5t559.5 -206.5t206.5 -559.5q0 -352 -206.5 -558t-559.5 -206zM868 162q254 0 397.5 151.5t143.5 417.5t-143.5 419t-397.5 153t-397 -152.5t-143 -419.5q0 -266 143 -417.5t397 -151.5zM866 295
q-157 0 -257.5 68t-100.5 192q0 139 156 209v2q-121 68 -121 176q0 105 93.5 166t229.5 61q140 0 233 -61.5t93 -165.5q0 -110 -121 -176v-2q158 -71 158 -209q0 -124 -103 -192t-260 -68zM866 827q53 0 79 27t26 64q0 34 -26.5 60t-78.5 26t-78 -26t-26 -60q0 -37 25 -64
t79 -27zM866 475q52 0 79.5 32t27.5 75q0 41 -27.5 70.5t-79.5 29.5t-79 -29.5t-27 -70.5q0 -42 26.5 -74.5t79.5 -32.5z" />
    <glyph glyph-name="uni2468" unicode="&#x2468;" horiz-adv-x="1736" 
d="M868 -33q-353 0 -559.5 206t-206.5 558q0 353 206.5 559.5t559.5 206.5t559.5 -206.5t206.5 -559.5q0 -352 -206.5 -558t-559.5 -206zM868 162q254 0 397.5 151.5t143.5 417.5t-143.5 419t-397.5 153t-397 -152.5t-143 -419.5q0 -266 143 -417.5t397 -151.5zM864 295
q-129 0 -220.5 65t-115.5 168h252q27 -53 90 -53q54 0 85.5 35t31.5 102v11l-2 2q-24 -22 -72.5 -39t-109.5 -17q-134 0 -215.5 82t-81.5 213q0 138 98 221.5t258 83.5q85 0 151 -25.5t106.5 -67t67 -100t36.5 -118.5t10 -129q0 -208 -102 -321t-267 -113zM866 752
q58 0 87.5 33.5t29.5 82.5q0 52 -31.5 85.5t-87.5 33.5q-57 0 -90 -33.5t-33 -85.5q0 -47 33.5 -81.5t91.5 -34.5z" />
    <glyph glyph-name="uni24EA" unicode="&#x24ea;" horiz-adv-x="1736" 
d="M868 -33q-353 0 -559.5 206t-206.5 558q0 353 206.5 559.5t559.5 206.5t559.5 -206.5t206.5 -559.5q0 -352 -206.5 -558t-559.5 -206zM868 162q254 0 397.5 151.5t143.5 417.5t-143.5 419t-397.5 153t-397 -152.5t-143 -419.5q0 -266 143 -417.5t397 -151.5zM870 297
q-95 0 -170.5 35t-122 95.5t-70.5 138t-24 165.5t24 165.5t70.5 138.5t122 96.5t170.5 35.5t170 -35t120.5 -96t69 -138.5t23.5 -166.5t-23.5 -166.5t-69.5 -138t-120.5 -95t-169.5 -34.5zM870 496q74 0 100.5 57t26.5 178q0 122 -26.5 179t-100.5 57q-75 0 -103 -55.5
t-28 -180.5q0 -122 27.5 -178.5t103.5 -56.5z" />
    <glyph glyph-name="upblock" unicode="&#x2580;" horiz-adv-x="1587" 
d="M61 1464h1465v-733h-1465v733z" />
    <glyph glyph-name="dnblock" unicode="&#x2584;" horiz-adv-x="1587" 
d="M61 733h1465v-733h-1465v733z" />
    <glyph glyph-name="block" unicode="&#x2588;" horiz-adv-x="1587" 
d="M61 1464h1465v-1464h-1465v1464z" />
    <glyph glyph-name="filledbox" unicode="&#x25a0;" horiz-adv-x="1587" 
d="M61 1464h1465v-1464h-1465v1464z" />
    <glyph glyph-name="H22073" unicode="&#x25a1;" horiz-adv-x="1587" 
d="M61 1464h1465v-1464h-1465v1464zM307 1219v-973h973v973h-973z" />
    <glyph glyph-name="H18543" unicode="&#x25aa;" horiz-adv-x="778" 
d="M102 369v573h574v-573h-574z" />
    <glyph glyph-name="H18551" unicode="&#x25ab;" horiz-adv-x="860" 
d="M102 983h656v-655h-656v655zM348 737v-164h164v164h-164z" />
    <glyph glyph-name="triagup" unicode="&#x25b2;" horiz-adv-x="1761" 
d="M881 1464l819 -1464h-1639z" />
    <glyph glyph-name="triagrt" unicode="&#x25ba;" horiz-adv-x="1587" 
d="M1526 731l-1465 -819v1638z" />
    <glyph glyph-name="triagdn" unicode="&#x25bc;" horiz-adv-x="1761" 
d="M881 0l-820 1464h1639z" />
    <glyph glyph-name="triaglf" unicode="&#x25c4;" horiz-adv-x="1587" 
d="M61 731l1465 819v-1638z" />
    <glyph glyph-name="lozenge" unicode="&#x25ca;" horiz-adv-x="1261" 
d="M53 731l412 733h330l413 -733l-411 -731h-330zM635 281l225 450l-229 453h-4l-226 -453l230 -450h4z" />
    <glyph glyph-name="circle" unicode="&#x25cb;" horiz-adv-x="1736" 
d="M868 -33q-353 0 -559.5 206t-206.5 558q0 353 206.5 559.5t559.5 206.5t559.5 -206.5t206.5 -559.5q0 -352 -206.5 -558t-559.5 -206zM868 162q254 0 397.5 151.5t143.5 417.5t-143.5 419t-397.5 153t-397 -152.5t-143 -419.5q0 -266 143 -417.5t397 -151.5z" />
    <glyph glyph-name="H18533" unicode="&#x25cf;" horiz-adv-x="1652" 
d="M827 -33q-156 0 -298 60.5t-244.5 163t-163 244t-60.5 296.5q0 208 102.5 384t279 279t384.5 103q155 0 296.5 -61t244 -163.5t163 -244.5t60.5 -297t-60.5 -296.5t-163 -244t-244 -163t-296.5 -60.5z" />
    <glyph glyph-name="uni2B0E" unicode="&#x2b0e;" horiz-adv-x="1515" 
d="M799 -41l-635 588l162 158l350 -328v446h-594v226h840v-672l350 328l162 -158z" />
    <glyph glyph-name="uni2B0F" unicode="&#x2b0f;" horiz-adv-x="1515" 
d="M82 225h594v447l-350 -328l-162 158l635 588l635 -588l-162 -158l-350 328v-672h-840v225z" />
    <glyph glyph-name="uni2B10" unicode="&#x2b10;" horiz-adv-x="1515" 
d="M82 539l162 157l350 -327v671h840v-225h-594v-446l350 327l162 -157l-635 -588z" />
    <glyph glyph-name="uni2B11" unicode="&#x2b11;" horiz-adv-x="1515" 
d="M594 0v672l-350 -328l-162 158l635 588l635 -588l-162 -158l-350 328v-447h594v-225h-840z" />
    <glyph glyph-name="uni2BA0" unicode="&#x2ba0;" horiz-adv-x="1253" 
d="M670 1151l157 -162l-327 -350h446v594h225v-840h-671l327 -350l-157 -162l-588 635z" />
    <glyph glyph-name="uni2BA1" unicode="&#x2ba1;" horiz-adv-x="1253" 
d="M584 -119l-158 162l328 350h-672v840h225v-594h447l-328 350l158 162l587 -635z" />
    <glyph glyph-name="uni2BA2" unicode="&#x2ba2;" horiz-adv-x="1253" 
d="M946 -170v594h-446l327 -350l-157 -162l-588 635l588 635l157 -162l-327 -350h671v-840h-225z" />
    <glyph glyph-name="uni2BA3" unicode="&#x2ba3;" horiz-adv-x="1253" 
d="M82 -170v840h672l-328 350l158 162l587 -635l-587 -635l-158 162l328 350h-447v-594h-225z" />
    <glyph glyph-name="uni2BA4" unicode="&#x2ba4;" horiz-adv-x="1515" 
d="M594 -4v672l-350 -328l-162 158l635 587l635 -587l-162 -158l-350 328v-447h594v-225h-840z" />
    <glyph glyph-name="uni2BA5" unicode="&#x2ba5;" horiz-adv-x="1515" 
d="M82 225h594v447l-350 -328l-162 158l635 588l635 -588l-162 -158l-350 328v-672h-840v225z" />
    <glyph glyph-name="uni2BA6" unicode="&#x2ba6;" horiz-adv-x="1515" 
d="M82 539l162 157l350 -327v671h840v-225h-594v-446l350 327l162 -157l-635 -588z" />
    <glyph glyph-name="uni2BA7" unicode="&#x2ba7;" horiz-adv-x="1515" 
d="M799 -41l-635 588l162 158l350 -328v446h-594v226h840v-672l350 328l162 -158z" />
    <glyph glyph-name="uniFB00" unicode="&#xfb00;" horiz-adv-x="1349" 
d="M29 803v246h141v73q0 191 77 276t247 85q81 0 186 -21v-231q-58 6 -82 6q-51 0 -75.5 -23t-24.5 -100v-65h297v73q0 191 76.5 276t246.5 85q82 0 187 -21v-231q-59 6 -82 6q-51 0 -76 -23t-25 -100v-65h183v-246h-183v-803h-327v803h-297v-803h-328v803h-141z" />
    <glyph glyph-name="fi" unicode="&#xfb01;" horiz-adv-x="1216" 
d="M498 0h-328v803h-141v246h141v73q0 191 77 276t247 85q81 0 186 -21v-231q-58 6 -82 6q-51 0 -75.5 -23t-24.5 -100v-65h182v-246h-182v-803zM807 1464h328v-290h-328v290zM807 1049h328v-1049h-328v1049z" />
    <glyph glyph-name="fl" unicode="&#xfb02;" horiz-adv-x="1216" 
d="M498 0h-328v803h-141v246h141v73q0 191 77 276t247 85q81 0 186 -21v-231q-58 6 -82 6q-51 0 -75.5 -23t-24.5 -100v-65h182v-246h-182v-803zM807 1464h328v-1464h-328v1464z" />
    <glyph glyph-name="uniFB03" unicode="&#xfb03;" horiz-adv-x="1828" 
d="M29 803v246h141v73q0 191 77 276t247 85q81 0 186 -21v-231q-58 6 -82 6q-51 0 -75.5 -23t-24.5 -100v-65h297v73q0 191 76.5 276t246.5 85q82 0 187 -21v-231q-59 6 -82 6q-51 0 -76 -23t-25 -100v-65h183v-246h-183v-803h-327v803h-297v-803h-328v803h-141zM1419 1464
h328v-290h-328v290zM1419 1049h328v-1049h-328v1049z" />
    <glyph glyph-name="uniFEFF" unicode="&#xfeff;" horiz-adv-x="0" 
 />
    <glyph glyph-name="u1F150" unicode="&#x1f150;" horiz-adv-x="1204" 
d="M602 498q-209 0 -354.5 143t-145.5 356t145.5 356.5t354.5 143.5t354.5 -143.5t145.5 -356.5t-145.5 -356t-354.5 -143z" />
    <glyph glyph-name="i.latn_TRK" horiz-adv-x="491" 
d="M82 1464h328v-290h-328v290zM82 1049h328v-1049h-328v1049z" />
    <glyph glyph-name="zero.numr" horiz-adv-x="851" 
d="M428 616q-126 0 -215.5 61.5t-130.5 158t-41 215.5q0 88 24 165.5t70.5 138.5t122 96.5t170.5 35.5t170 -35t120.5 -96t69 -138.5t23.5 -166.5t-23.5 -166.5t-69 -138t-120.5 -95.5t-170 -35zM428 815q74 0 100.5 57t26.5 179q0 121 -26.5 178t-100.5 57
q-75 0 -103 -55.5t-28 -179.5q0 -122 27.5 -179t103.5 -57z" />
    <glyph glyph-name="one.numr" horiz-adv-x="643" 
d="M283 1464h217v-831h-262v518q-40 -18 -177 -18v188q93 0 158 39t64 104z" />
    <glyph glyph-name="two.numr" horiz-adv-x="790" 
d="M303 1153h-237q0 162 84.5 249t257.5 87q146 0 230.5 -68.5t84.5 -189.5q0 -47 -14.5 -91.5t-31.5 -74t-51 -65t-52 -51t-56 -46.5q-57 -43 -76 -67v-2h285v-199h-670q0 54 6.5 90t17 63.5t42 59.5t61.5 57t97 76q8 6 36.5 26.5t39.5 29.5t34 28.5t33.5 33t24 33t19 39.5
t5.5 41q0 39 -19.5 58.5t-54.5 19.5q-46 0 -71 -29t-25 -108z" />
    <glyph glyph-name="three.numr" horiz-adv-x="819" 
d="M414 612q-175 0 -270 83.5t-95 238.5h238q0 -66 26 -95.5t90 -29.5q97 0 97 82q0 44 -31.5 64t-103.5 20h-29v164h24q117 0 117 82q0 33 -21.5 50t-54.5 17q-41 0 -66.5 -20t-25.5 -62h-235q0 124 92 202.5t246 78.5q137 0 228 -62.5t91 -169.5q0 -112 -117 -182v-2
q140 -47 140 -197q0 -127 -91 -194.5t-249 -67.5z" />
    <glyph glyph-name="four.numr" horiz-adv-x="856" 
d="M657 635h-247v166h-367v246l367 419h247v-469h123v-196h-123v-166zM410 1208l-193 -211h193v211z" />
    <glyph glyph-name="five.numr" horiz-adv-x="823" 
d="M430 612q-184 0 -282 76.5t-101 210.5h252q5 -37 35 -63.5t82 -26.5q47 0 72.5 28.5t25.5 82.5q0 116 -108 116q-59 0 -103 -49h-231l100 477h559v-196h-391l-25 -115v-2q77 51 170 51q129 0 205 -74.5t76 -209.5q0 -150 -93 -228t-243 -78z" />
    <glyph glyph-name="six.numr" horiz-adv-x="819" 
d="M412 612q-104 0 -178.5 36t-114 98.5t-57 132.5t-17.5 153q0 218 100.5 336.5t264.5 118.5q134 0 219.5 -64.5t109.5 -169.5h-239q-31 56 -97 56q-124 0 -137 -144l-2 -24l8 -2q24 26 78.5 47.5t118.5 21.5q136 0 217.5 -80t81.5 -210q0 -138 -98 -222t-258 -84zM410 795
q57 0 89.5 33t32.5 85q0 49 -30 83t-88 34t-90.5 -34.5t-32.5 -82.5q0 -52 31.5 -85t87.5 -33z" />
    <glyph glyph-name="seven.numr" horiz-adv-x="696" 
d="M33 1464h626v-182q-123 -101 -179 -271t-56 -378h-260q0 195 67.5 370t167.5 263v2h-366v196z" />
    <glyph glyph-name="eight.numr" horiz-adv-x="786" 
d="M391 612q-157 0 -257.5 68t-100.5 192q0 140 155 209v2q-120 68 -120 177q0 105 93.5 166t229.5 61q140 0 233 -61.5t93 -165.5q0 -111 -121 -177v-2q158 -71 158 -209q0 -124 -103 -192t-260 -68zM391 1145q53 0 79 26.5t26 63.5q0 34 -26.5 60t-78.5 26t-78 -26
t-26 -60q0 -37 25 -63.5t79 -26.5zM391 793q52 0 79.5 31.5t27.5 74.5q0 41 -27.5 70.5t-79.5 29.5t-79 -29.5t-27 -70.5q0 -42 26.5 -74t79.5 -32z" />
    <glyph glyph-name="nine.numr" horiz-adv-x="823" 
d="M410 612q-129 0 -220.5 65.5t-115.5 168.5h252q27 -53 90 -53q54 0 85 35t31 102v10l-2 2q-23 -22 -72 -38.5t-110 -16.5q-134 0 -215.5 82t-81.5 213q0 138 98.5 221.5t258.5 83.5q85 0 150.5 -25.5t106.5 -67t67 -100t36 -118.5t10 -129q0 -208 -101.5 -321.5
t-266.5 -113.5zM412 1069q58 0 87 34t29 83q0 53 -31 86t-87 33q-57 0 -90 -33.5t-33 -85.5q0 -48 33.5 -82.5t91.5 -34.5z" />
    <glyph glyph-name="zero.dnom" horiz-adv-x="851" 
d="M428 -18q-95 0 -170.5 35t-122 95.5t-70.5 138t-24 165.5t24 165.5t70.5 138.5t122 96.5t170.5 35.5t170 -35t120.5 -96t69 -138.5t23.5 -166.5t-23.5 -166.5t-69.5 -138t-120.5 -95t-169.5 -34.5zM428 180q74 0 100.5 57t26.5 179q0 121 -26.5 178t-100.5 57
q-75 0 -103 -55.5t-28 -179.5q0 -122 27.5 -179t103.5 -57z" />
    <glyph glyph-name="one.dnom" horiz-adv-x="643" 
d="M283 831h217v-831h-262v518q-40 -18 -177 -18v188q93 0 158 39t64 104z" />
    <glyph glyph-name="two.dnom" horiz-adv-x="790" 
d="M303 518h-237q0 162 84.5 249t257.5 87q146 0 230.5 -68.5t84.5 -189.5q0 -47 -14.5 -91.5t-31.5 -74t-51 -65t-52 -51t-56 -46.5q-57 -43 -76 -67v-2h285v-199h-670q0 54 6.5 90t17 63.5t42 59.5t61.5 57t97 76q6 4 36 26.5t39.5 30t34 28t34.5 34t24 33t19 39.5t5 41
q0 77 -74 77q-46 0 -71 -29t-25 -108z" />
    <glyph glyph-name="three.dnom" horiz-adv-x="819" 
d="M414 -20q-175 0 -270 83t-95 238h238q0 -66 26 -95.5t90 -29.5q97 0 97 82q0 44 -31.5 64t-103.5 20h-29v164h24q117 0 117 82q0 33 -21.5 50t-54.5 17q-41 0 -66.5 -20t-25.5 -62h-235q0 124 92 202.5t246 78.5q137 0 228 -62t91 -169q0 -113 -117 -183v-2
q140 -47 140 -196q0 -127 -91 -194.5t-249 -67.5z" />
    <glyph glyph-name="four.dnom" horiz-adv-x="856" 
d="M657 0h-247v166h-367v246l367 419h247v-469h123v-196h-123v-166zM410 573l-193 -211h193v211z" />
    <glyph glyph-name="five.dnom" horiz-adv-x="823" 
d="M430 -20q-184 0 -282 76.5t-101 209.5h252q5 -37 35 -63.5t82 -26.5q47 0 72.5 28.5t25.5 82.5q0 116 -108 116q-59 0 -103 -49h-231l100 477h559v-196h-391l-25 -115v-2q77 51 170 51q129 0 205 -74.5t76 -209.5q0 -150 -93 -227.5t-243 -77.5z" />
    <glyph glyph-name="six.dnom" horiz-adv-x="819" 
d="M412 -20q-84 0 -149 24.5t-105.5 64t-66.5 95t-36 113t-10 122.5q0 218 100.5 336.5t264.5 118.5q134 0 219.5 -64t109.5 -169h-239q-30 55 -97 55q-124 0 -137 -144l-2 -24l8 -2q24 26 78.5 47.5t118.5 21.5q136 0 217.5 -80t81.5 -210q0 -138 -98 -221.5t-258 -83.5z
M410 162q57 0 89.5 33.5t32.5 85.5q0 48 -30 82t-88 34t-90.5 -34t-32.5 -82q0 -52 31.5 -85.5t87.5 -33.5z" />
    <glyph glyph-name="seven.dnom" horiz-adv-x="696" 
d="M33 831h626v-182q-123 -101 -179 -271t-56 -378h-260q0 195 67.5 370t167.5 263v2h-366v196z" />
    <glyph glyph-name="eight.dnom" horiz-adv-x="786" 
d="M391 -20q-157 0 -257.5 68t-100.5 192q0 140 155 209v2q-120 68 -120 176q0 105 93.5 166t229.5 61q140 0 233 -61.5t93 -165.5q0 -110 -121 -176v-2q158 -71 158 -209q0 -124 -103 -192t-260 -68zM391 512q53 0 79 26.5t26 63.5q0 34 -26.5 60t-78.5 26t-78 -26t-26 -60
q0 -37 25 -63.5t79 -26.5zM391 160q52 0 79.5 31.5t27.5 74.5q0 41 -27.5 71t-79.5 30t-79 -30t-27 -71q0 -42 26.5 -74t79.5 -32z" />
    <glyph glyph-name="nine.dnom" horiz-adv-x="823" 
d="M410 -20q-129 0 -220.5 65t-115.5 168h252q27 -53 90 -53q54 0 85 35t31 102v10l-2 2q-23 -22 -72 -38.5t-110 -16.5q-134 0 -215.5 82t-81.5 213q0 138 98.5 221.5t258.5 83.5q85 0 150.5 -25.5t106.5 -67t67 -100t36 -118.5t10 -129q0 -208 -101.5 -321t-266.5 -113z
M412 436q58 0 87 34t29 83q0 53 -31 86t-87 33q-57 0 -90 -33.5t-33 -85.5q0 -48 33.5 -82.5t91.5 -34.5z" />
    <glyph glyph-name="space.frac" horiz-adv-x="77" 
 />
    <glyph glyph-name="zero.tf" horiz-adv-x="1638" 
d="M821 -33q-155 0 -275.5 56t-195.5 156.5t-113 233.5t-38 294q0 128 23.5 239t73.5 204t122.5 159t175 102.5t227.5 36.5q155 0 275 -56t195 -156.5t113 -234t38 -294.5t-38 -294t-113 -233.5t-195 -156.5t-275 -56zM821 254q74 0 125.5 34t80 97.5t40.5 141.5t12 180
t-12 180t-40.5 142t-80 98t-125.5 34t-126 -34t-80.5 -98t-41 -142t-12.5 -180t12.5 -180t41 -141.5t80.5 -97.5t126 -34z" />
    <glyph glyph-name="one.tf" horiz-adv-x="1638" 
d="M346 281h299v669q-75 -59 -299 -59v272q159 0 260 64t101 188h286v-1134h299v-281h-946v281z" />
    <glyph glyph-name="two.tf" horiz-adv-x="1638" 
d="M631 899h-336q0 257 140 403t419 146q232 0 371 -115t139 -315q0 -57 -14.5 -112.5t-34.5 -99.5t-57.5 -91.5t-68 -80.5t-81.5 -75.5t-82.5 -66.5t-85.5 -64q-12 -9 -46.5 -35.5t-50.5 -39t-39 -32t-40 -36.5v-4h600v-281h-1090q0 88 22 162.5t51.5 128.5t99 121.5
t125 112.5t169.5 130q68 51 108.5 85t81 77.5t59 86t18.5 89.5q0 83 -41 128.5t-123 45.5q-104 0 -158.5 -63.5t-54.5 -204.5z" />
    <glyph glyph-name="three.tf" horiz-adv-x="1638" 
d="M621 981h-336q0 206 147.5 336.5t398.5 130.5q146 0 263 -44t188.5 -134t71.5 -211q0 -204 -205 -309v-5q246 -78 246 -339q0 -212 -148.5 -325.5t-406.5 -113.5q-284 0 -440 139t-156 394h336q0 -127 58 -189.5t189 -62.5q111 0 161 43.5t50 128.5q0 98 -63 142t-189 44
h-71v240h63q99 0 159 43.5t60 130.5q0 71 -44 109t-130 38q-90 0 -146 -45t-56 -141z" />
    <glyph glyph-name="four.tf" horiz-adv-x="1638" 
d="M1208 0h-348v299h-641v342l641 774h348v-835h209v-281h-209v-299zM860 1036l-385 -456h385v456z" />
    <glyph glyph-name="five.tf" horiz-adv-x="1638" 
d="M932 961q213 0 341 -128.5t128 -353.5q0 -125 -42 -223t-116.5 -161t-174 -95.5t-218.5 -32.5q-280 0 -431 127.5t-159 343.5h336q8 -82 68 -136t165 -54q100 0 157.5 60t57.5 175t-55 176.5t-166 61.5q-133 0 -215 -103h-327l163 797h895v-280h-657l-53 -271v-4
q129 101 303 101z" />
    <glyph glyph-name="six.tf" horiz-adv-x="1638" 
d="M580 848l8 -6q130 123 330 123q216 0 351.5 -137t135.5 -343q0 -236 -150.5 -377t-404.5 -141q-136 0 -243.5 40t-176.5 107t-115 161t-65 196t-19 217q0 374 163.5 567t443.5 193q203 0 347.5 -109.5t178.5 -281.5h-352q-4 21 -15 41.5t-30.5 42t-54.5 34.5t-81 13
q-126 0 -187 -85.5t-64 -232.5v-22zM829 227q111 0 175.5 67.5t64.5 172.5q0 104 -64.5 171t-175.5 67q-112 0 -176.5 -67t-64.5 -171q0 -106 64 -173t177 -67z" />
    <glyph glyph-name="seven.tf" horiz-adv-x="1638" 
d="M301 1415h1038v-260q-117 -94 -204.5 -227t-139 -286t-76 -313t-24.5 -329h-369q0 335 126.5 650.5t318.5 479.5v5h-670v280z" />
    <glyph glyph-name="eight.tf" horiz-adv-x="1638" 
d="M819 -33q-165 0 -295.5 48t-210.5 149t-80 242q0 239 267 356v4q-205 109 -205 299q0 119 71 207t188.5 132t264.5 44t264.5 -44t188.5 -132t71 -207q0 -189 -204 -299v-4q266 -118 266 -356q0 -141 -80 -242t-210.5 -149t-295.5 -48zM819 858q102 0 155.5 49.5
t53.5 126.5q0 74 -53.5 124t-155.5 50t-155.5 -50t-53.5 -124q0 -77 53.5 -126.5t155.5 -49.5zM819 227q108 0 169 60.5t61 150.5q0 88 -61 147.5t-169 59.5t-168.5 -59.5t-60.5 -147.5q0 -91 60.5 -151t168.5 -60z" />
    <glyph glyph-name="nine.tf" horiz-adv-x="1638" 
d="M1055 567l-8 6q-129 -122 -330 -122q-143 0 -255.5 63.5t-172.5 172t-60 243.5q0 236 150.5 377t404.5 141q136 0 243.5 -40t176.5 -107t115 -161t65 -196t19 -217q0 -374 -163 -567t-443 -193q-203 0 -348 109.5t-179 281.5h353q4 -21 14.5 -41.5t30 -42t54.5 -34.5
t81 -13q126 0 187.5 85.5t64.5 232.5v22zM805 1188q-111 0 -175.5 -67.5t-64.5 -172.5q0 -104 64.5 -170.5t175.5 -66.5q113 0 177.5 66.5t64.5 170.5q0 106 -64.5 173t-177.5 67z" />
    <glyph glyph-name="uni2007.tf" horiz-adv-x="1638" 
 />
    <glyph glyph-name="parenleft.case" horiz-adv-x="739" 
d="M397 1663h287q-199 -453 -199 -928q0 -477 199 -930h-287q-108 174 -184 422.5t-76 507.5q0 266 75 509t185 419z" />
    <glyph glyph-name="parenright.case" horiz-adv-x="739" 
d="M342 -195h-287q199 453 199 928q0 477 -199 930h287q108 -174 184 -422.5t76 -507.5q0 -266 -75 -509t-185 -419z" />
    <glyph glyph-name="hyphen.case" horiz-adv-x="679" 
d="M61 872h557v-280h-557v280z" />
    <glyph glyph-name="bracketleft.case" horiz-adv-x="856" 
d="M139 1663h629v-281h-281v-1296h281v-281h-629v1858z" />
    <glyph glyph-name="bracketright.case" horiz-adv-x="856" 
d="M717 -195h-629v281h281v1296h-281v281h629v-1858z" />
    <glyph glyph-name="braceleft.case" horiz-adv-x="856" 
d="M72 874q83 -1 111 27t28 107v258q0 85 14 148.5t44.5 107t70 71.5t100 43.5t123.5 21t150 5.5h55v-281h-55q-154 0 -154 -190v-238q0 -87 -33.5 -137.5t-109.5 -81.5v-4q76 -31 109.5 -82t33.5 -139v-225q0 -199 154 -199h55v-281h-55q-86 0 -150 6.5t-123.5 22.5
t-99.5 45t-70.5 73.5t-44.5 109t-14 149.5v250q0 76 -28 103.5t-111 27.5v282z" />
    <glyph glyph-name="braceright.case" horiz-adv-x="856" 
d="M784 594q-83 1 -111 -26.5t-28 -106.5v-258q0 -102 -22 -173.5t-60.5 -115t-104 -68t-138 -33t-177.5 -8.5h-55v281h55q154 0 154 190v238q0 87 33.5 137.5t109.5 81.5v4q-76 31 -109.5 82t-33.5 139v226q0 198 -154 198h-55v281h55q86 0 150 -6.5t123.5 -22.5t99.5 -45
t70.5 -73.5t44.5 -109t14 -149.5v-249q0 -76 28 -103.5t111 -27.5v-283z" />
    <glyph glyph-name="guillemotleft.case" horiz-adv-x="999" 
d="M82 571v322l385 317v-315l-229 -162v-4l229 -166v-307zM512 571v322l385 317v-315l-229 -162v-4l229 -166v-307z" />
    <glyph glyph-name="uni00AD.case" horiz-adv-x="679" 
d="M61 874h557v-280h-557v280z" />
    <glyph glyph-name="periodcentered.case" horiz-adv-x="434" 
d="M61 889h312v-311h-312v311z" />
    <glyph glyph-name="guillemotright.case" horiz-adv-x="999" 
d="M918 895v-322l-386 -317v315l230 162v4l-230 166v307zM487 895v-322l-385 -317v315l230 162v4l-230 166v307z" />
    <glyph glyph-name="endash.case" horiz-adv-x="1146" 
d="M61 872h1024v-280h-1024v280z" />
    <glyph glyph-name="emdash.case" horiz-adv-x="2170" 
d="M61 874h2048v-280h-2048v280z" />
    <glyph glyph-name="bullet.case" horiz-adv-x="696" 
d="M61 446v574h574v-574h-574z" />
    <glyph glyph-name="guilsinglleft.case" horiz-adv-x="571" 
d="M72 571v322l407 315v-319l-227 -154v-6l227 -154v-319z" />
    <glyph glyph-name="guilsinglright.case" horiz-adv-x="571" 
d="M500 893v-322l-408 -315v319l227 154v6l-227 154v319z" />
    <glyph glyph-name="s_s" horiz-adv-x="2103" 
d="M549 -33q-254 0 -384 103t-138 278h307q15 -155 205 -155q139 0 139 90q0 24 -11 43t-25 30t-43 21.5t-50.5 15.5t-62.5 14t-64 15q-61 14 -109.5 31t-100.5 45t-86.5 62.5t-56.5 86t-22 113.5q0 148 113.5 234.5t314.5 86.5q119 0 213 -32.5t169.5 -102.5t134 -160
t120.5 -223q93 -203 205.5 -286.5t265.5 -83.5q82 0 118 21.5t36 68.5q0 20 -5.5 36t-20 28t-27 20t-41 16.5t-45 12.5t-57 12.5t-60.5 13.5q-82 19 -145 44.5t-117.5 65t-83.5 96.5t-29 130q0 150 120 236.5t337 86.5q122 0 215 -29t148 -79.5t83.5 -112t32.5 -133.5h-307
q-8 65 -46.5 97t-117.5 32q-129 0 -129 -84q0 -44 34 -60.5t139 -39.5q9 -2 14.5 -3t14.5 -3t17 -4q51 -12 88.5 -22t83.5 -26.5t78 -34.5t64.5 -45t52.5 -58.5t32.5 -74.5t12.5 -94q0 -163 -116.5 -251.5t-326.5 -88.5q-80 0 -144 12.5t-118 42.5t-95.5 66.5t-83.5 97.5
t-75.5 121.5t-77.5 151.5q-47 98 -101.5 171t-104.5 115t-106 68t-101 34.5t-95 8.5q-145 0 -145 -82q0 -41 40.5 -60t178.5 -52q72 -17 123.5 -33t110 -45.5t94.5 -65.5t60 -92t24 -127q0 -162 -119.5 -247t-345.5 -85z" />
    <glyph glyph-name="w_w_w" horiz-adv-x="4608" 
d="M20 1049h328l158 -639h4l176 639h287l176 -639h6l158 639h514l158 -639h4l176 639h286l177 -639h6l157 639h514l158 -639h4l176 639h287l176 -639h6l158 639h318l-293 -1049h-308l-202 664h-4l-203 -664h-307l-228 813l-227 -813h-307l-203 664h-4l-203 -664h-307
l-227 813l-228 -813h-307l-203 664h-4l-202 -664h-308z" />
    <glyph glyph-name="zero.zero" horiz-adv-x="1382" 
d="M692 -33q-155 0 -275.5 56t-195.5 156.5t-113 233.5t-38 294q0 128 23.5 239t73.5 204t122.5 159t175 102.5t227.5 36.5q155 0 275 -56t195 -156.5t113 -234t38 -294.5t-38 -294t-113 -233.5t-195 -156.5t-275 -56zM416 707q0 -197 45 -312l303 785q-46 8 -72 8
q-63 0 -111 -24.5t-79 -66.5t-50.5 -104.5t-27.5 -131.5t-8 -154zM692 227q78 0 133 36t85.5 103.5t43.5 150.5t13 190q0 176 -35 288l-297 -762q27 -6 57 -6z" />
    <glyph glyph-name="zero.tf.zero" horiz-adv-x="1638" 
d="M821 -33q-155 0 -275.5 56t-195.5 156.5t-113 233.5t-38 294q0 128 23.5 239t73.5 204t122.5 159t175 102.5t227.5 36.5q155 0 275 -56t195 -156.5t113 -234t38 -294.5t-38 -294t-113 -233.5t-195 -156.5t-275 -56zM545 707q0 -197 45 -312l303 785q-46 8 -72 8
q-63 0 -111 -24.5t-79 -66.5t-50.5 -104.5t-27.5 -131.5t-8 -154zM821 227q78 0 133 36t85.5 103.5t43.5 150.5t13 190q0 176 -35 288l-297 -762q27 -6 57 -6z" />
    <glyph glyph-name="a.ss01" horiz-adv-x="1218" 
d="M805 944h4v105h328v-1049h-328v104h-4q-38 -51 -119 -94t-184 -43q-210 0 -333.5 150t-123.5 407t123.5 407t333.5 150q103 0 184 -43t119 -94zM592 213q101 0 156 79.5t55 231.5t-55 232t-156 80t-156 -80t-55 -232t55 -231.5t156 -79.5z" />
    <glyph glyph-name="agrave.ss01" horiz-adv-x="1218" 
d="M590 1489l108 -311h-245l-191 311h328zM805 944h4v105h328v-1049h-328v104h-4q-38 -51 -119 -94t-184 -43q-210 0 -333.5 150t-123.5 407t123.5 407t333.5 150q103 0 184 -43t119 -94zM592 213q101 0 156 79.5t55 231.5t-55 232t-156 80t-156 -80t-55 -232t55 -231.5
t156 -79.5z" />
    <glyph glyph-name="aacute.ss01" horiz-adv-x="1218" 
d="M565 1485h369l-232 -311h-245zM805 944h4v105h328v-1049h-328v104h-4q-38 -51 -119 -94t-184 -43q-210 0 -333.5 150t-123.5 407t123.5 407t333.5 150q103 0 184 -43t119 -94zM592 213q101 0 156 79.5t55 231.5t-55 232t-156 80t-156 -80t-55 -232t55 -231.5t156 -79.5z
" />
    <glyph glyph-name="acircumflex.ss01" horiz-adv-x="1218" 
d="M201 1174l219 311h319l219 -311h-284l-92 165h-4l-93 -165h-284zM805 944h4v105h328v-1049h-328v104h-4q-38 -51 -119 -94t-184 -43q-210 0 -333.5 150t-123.5 407t123.5 407t333.5 150q103 0 184 -43t119 -94zM592 213q101 0 156 79.5t55 231.5t-55 232t-156 80
t-156 -80t-55 -232t55 -231.5t156 -79.5z" />
    <glyph glyph-name="atilde.ss01" horiz-adv-x="1218" 
d="M213 1143q0 301 182 301q59 0 150.5 -41t128.5 -41q71 0 71 82h177q0 -301 -183 -301q-59 0 -150.5 40t-127.5 40q-70 0 -70 -80h-178zM805 944h4v105h328v-1049h-328v104h-4q-38 -51 -119 -94t-184 -43q-210 0 -333.5 150t-123.5 407t123.5 407t333.5 150q103 0 184 -43
t119 -94zM592 213q101 0 156 79.5t55 231.5t-55 232t-156 80t-156 -80t-55 -232t55 -231.5t156 -79.5z" />
    <glyph glyph-name="adieresis.ss01" horiz-adv-x="1218" 
d="M203 1464h327v-290h-327v290zM629 1464h327v-290h-327v290zM805 944h4v105h328v-1049h-328v104h-4q-38 -51 -119 -94t-184 -43q-210 0 -333.5 150t-123.5 407t123.5 407t333.5 150q103 0 184 -43t119 -94zM592 213q101 0 156 79.5t55 231.5t-55 232t-156 80t-156 -80
t-55 -232t55 -231.5t156 -79.5z" />
    <glyph glyph-name="aring.ss01" horiz-adv-x="1218" 
d="M580 1104q-94 0 -160 60.5t-66 160.5q0 98 66 159.5t160 61.5q95 0 160 -61t65 -160q0 -100 -65 -160.5t-160 -60.5zM580 1231q42 0 65 24.5t23 69.5t-23 69.5t-65 24.5q-38 0 -62 -25t-24 -69t24 -69t62 -25zM805 944h4v105h328v-1049h-328v104h-4q-38 -51 -119 -94
t-184 -43q-210 0 -333.5 150t-123.5 407t123.5 407t333.5 150q103 0 184 -43t119 -94zM592 213q101 0 156 79.5t55 231.5t-55 232t-156 80t-156 -80t-55 -232t55 -231.5t156 -79.5z" />
    <glyph glyph-name="amacron.ss01" horiz-adv-x="1218" 
d="M287 1378h585v-204h-585v204zM805 944h4v105h328v-1049h-328v104h-4q-38 -51 -119 -94t-184 -43q-210 0 -333.5 150t-123.5 407t123.5 407t333.5 150q103 0 184 -43t119 -94zM592 213q101 0 156 79.5t55 231.5t-55 232t-156 80t-156 -80t-55 -232t55 -231.5t156 -79.5z
" />
    <glyph glyph-name="abreve.ss01" horiz-adv-x="1218" 
d="M580 1157q-141 0 -232.5 85t-95.5 226h188q5 -52 40 -81t100 -29q129 0 139 110h188q-6 -139 -95.5 -225t-231.5 -86zM805 944h4v105h328v-1049h-328v104h-4q-38 -51 -119 -94t-184 -43q-210 0 -333.5 150t-123.5 407t123.5 407t333.5 150q103 0 184 -43t119 -94z
M592 213q101 0 156 79.5t55 231.5t-55 232t-156 80t-156 -80t-55 -232t55 -231.5t156 -79.5z" />
    <glyph glyph-name="aogonek.ss01" horiz-adv-x="1218" 
d="M934 -360q-115 0 -174.5 44t-59.5 128q0 65 42 113t98 75h-31v104h-4q-38 -51 -119 -94t-184 -43q-210 0 -333.5 150t-123.5 407t123.5 407t333.5 150q103 0 184 -43t119 -94h4v105h328v-1049h-88q-37 -32 -51 -44.5t-30 -35.5t-16 -43q0 -45 64 -45q33 0 84 14v-184
q-86 -22 -166 -22zM592 213q101 0 156 79.5t55 231.5t-55 232t-156 80t-156 -80t-55 -232t55 -231.5t156 -79.5z" />
    <glyph glyph-name="exclam.ss02" horiz-adv-x="573" 
d="M113 1464h348v-319l-92 -666h-164l-92 666v319zM123 156q0 69 45.5 117.5t122.5 48.5q75 0 120.5 -48.5t45.5 -117.5q0 -70 -45 -118t-121 -48q-79 0 -123.5 47.5t-44.5 118.5z" />
    <glyph glyph-name="comma.ss02" horiz-adv-x="444" 
d="M68 -291v129q80 13 127 52.5t47 105.5q-83 -19 -138 22.5t-55 126.5q0 77 45.5 124.5t118.5 47.5q83 0 128.5 -63t45.5 -172q0 -145 -81.5 -250t-237.5 -123z" />
    <glyph glyph-name="period.ss02" horiz-adv-x="436" 
d="M51 156q0 69 45.5 117.5t122.5 48.5q75 0 120.5 -48.5t45.5 -117.5q0 -70 -45 -118t-121 -48q-79 0 -123.5 47.5t-44.5 118.5z" />
    <glyph glyph-name="colon.ss02" horiz-adv-x="458" 
d="M63 791q0 69 45.5 117t122.5 48q75 0 120.5 -48t45.5 -117q0 -70 -45 -118t-121 -48q-79 0 -123.5 47.5t-44.5 118.5zM63 156q0 69 45.5 117.5t122.5 48.5q75 0 120.5 -48.5t45.5 -117.5q0 -70 -45 -118t-121 -48q-79 0 -123.5 47.5t-44.5 118.5z" />
    <glyph glyph-name="semicolon.ss02" horiz-adv-x="458" 
d="M63 791q0 69 45.5 117t122.5 48q75 0 120.5 -48t45.5 -117q0 -70 -45 -118t-121 -48q-79 0 -123.5 47.5t-44.5 118.5zM80 -291v129q80 13 127 52.5t47 105.5q-83 -19 -138 22.5t-55 126.5q0 77 45.5 124.5t118.5 47.5q83 0 128.5 -63t45.5 -172q0 -145 -81.5 -250
t-237.5 -123z" />
    <glyph glyph-name="question.ss02" horiz-adv-x="1138" 
d="M399 479q0 69 1.5 110t10.5 81t19 62t35 50.5t51.5 49.5t75.5 57q90 65 119.5 103t29.5 100q0 54 -35.5 89.5t-115.5 35.5q-96 0 -144.5 -61t-48.5 -177h-348q0 109 35 202t101.5 164t173 111.5t241.5 40.5q215 0 352.5 -110t137.5 -287q0 -119 -56 -200t-168 -144
q-115 -64 -155.5 -117t-40.5 -160h-271zM371 156q0 69 45.5 117.5t122.5 48.5q75 0 120.5 -48.5t45.5 -117.5q0 -70 -45 -118t-121 -48q-79 0 -123.5 47.5t-44.5 118.5z" />
    <glyph glyph-name="f_f_i.ss02" horiz-adv-x="1841" 
d="M29 803v246h141v73q0 191 77 276t247 85q81 0 186 -21v-231q-58 6 -82 6q-51 0 -75.5 -23t-24.5 -100v-65h297v73q0 191 76.5 276t246.5 85q82 0 187 -21v-231q-59 6 -82 6q-51 0 -76 -23t-25 -100v-65h183v-246h-183v-803h-327v803h-297v-803h-328v803h-141zM1423 1311
q0 72 46.5 122t125.5 50q80 0 126 -49.5t46 -122.5q0 -74 -46 -123t-126 -49t-126 49t-46 123zM1432 0v1049h327v-1049h-327z" />
    <glyph glyph-name="f_i.ss02" horiz-adv-x="1216" 
d="M498 0h-328v803h-141v246h141v73q0 191 77 276t247 85q81 0 186 -21v-231q-58 6 -82 6q-51 0 -75.5 -23t-24.5 -100v-65h182v-246h-182v-803zM799 1311q0 72 46.5 122t125.5 50q80 0 126 -49.5t46 -122.5q0 -74 -46 -123t-126 -49t-126 49t-46 123zM807 0v1049h328v-1049
h-328z" />
    <glyph glyph-name="i.ss02" horiz-adv-x="491" 
d="M74 1311q0 72 46.5 122t125.5 50q80 0 126 -49.5t46 -122.5q0 -74 -46 -123t-126 -49t-126 49t-46 123zM82 0v1049h328v-1049h-328z" />
    <glyph glyph-name="j.ss02" horiz-adv-x="495" 
d="M86 1311q0 69 44.5 116.5t119.5 47.5t119.5 -47.5t44.5 -116.5t-44.5 -115.5t-119.5 -46.5q-77 0 -120.5 46.5t-43.5 115.5zM86 -375q-83 0 -182 21v250q58 -7 76 -7q55 0 80.5 23.5t25.5 101.5v1035h328v-1018q0 -200 -77 -303t-251 -103z" />
    <glyph glyph-name="exclamdown.ss02" horiz-adv-x="573" 
d="M121 1040q0 69 45.5 117.5t122.5 48.5q75 0 120.5 -48.5t45.5 -117.5q0 -70 -45 -118t-121 -48q-79 0 -123.5 47.5t-44.5 118.5zM113 -266v319l92 666h164l92 -666v-319h-348z" />
    <glyph glyph-name="periodcentered.ss02" horiz-adv-x="434" 
d="M51 156q0 69 45.5 117.5t122.5 48.5q75 0 120.5 -48.5t45.5 -117.5q0 -70 -45 -118t-121 -48q-79 0 -123.5 47.5t-44.5 118.5z" />
    <glyph glyph-name="questiondown.ss02" horiz-adv-x="1138" 
d="M436 1040q0 69 45.5 117.5t122.5 48.5q75 0 120.5 -48.5t45.5 -117.5q0 -70 -45 -118t-121 -48q-79 0 -123.5 47.5t-44.5 118.5zM739 723q0 -69 -1.5 -110t-10 -81t-18.5 -62t-35 -50.5t-51.5 -49.5t-75.5 -57q-91 -66 -120.5 -103.5t-29.5 -98.5q0 -54 36 -89.5
t116 -35.5q192 0 192 237h349q0 -109 -35 -202t-101.5 -164t-173 -111.5t-241.5 -40.5q-215 0 -352.5 110t-137.5 287q0 119 55.5 200t167.5 144q115 64 156 117t41 160h270z" />
    <glyph glyph-name="Adieresis.ss02" horiz-adv-x="1525" 
d="M403 1735q0 66 42.5 110.5t115.5 44.5q72 0 114 -44.5t42 -110.5t-42 -111t-114 -45q-74 0 -116 45t-42 111zM803 1735q0 66 42.5 110.5t115.5 44.5q72 0 113.5 -44.5t41.5 -110.5t-41.5 -111t-113.5 -45q-74 0 -116 45t-42 111zM1010 305h-502l-94 -305h-396l557 1464
h371l561 -1464h-403zM592 586h336l-166 540h-4z" />
    <glyph glyph-name="Edieresis.ss02" horiz-adv-x="1316" 
d="M328 1735q0 66 42.5 110.5t114.5 44.5t114 -44.5t42 -110.5t-42 -111t-114 -45q-74 0 -115.5 45t-41.5 111zM727 1735q0 66 42.5 110.5t115.5 44.5q72 0 113.5 -44.5t41.5 -110.5t-41.5 -111t-113.5 -45q-74 0 -116 45t-42 111zM492 903h638v-301h-638v-301h753v-301
h-1122v1464h1110v-301h-741v-260z" />
    <glyph glyph-name="Idieresis.ss02" horiz-adv-x="614" 
d="M-49 1735q0 66 42.5 110.5t115.5 44.5q72 0 113.5 -44.5t41.5 -110.5t-41.5 -111t-113.5 -45q-74 0 -116 45t-42 111zM350 1735q0 66 42.5 110.5t115.5 44.5q72 0 114 -44.5t42 -110.5t-42 -111t-114 -45q-74 0 -116 45t-42 111zM123 1464h369v-1464h-369v1464z" />
    <glyph glyph-name="Odieresis.ss02" horiz-adv-x="1572" 
d="M430 1735q0 66 42.5 110.5t115.5 44.5q72 0 113.5 -44.5t41.5 -110.5t-41.5 -111t-113.5 -45q-74 0 -116 45t-42 111zM829 1735q0 66 42.5 110.5t115.5 44.5q72 0 114 -44.5t42 -110.5t-42 -111t-114 -45q-74 0 -116 45t-42 111zM786 -33q-171 0 -309 57.5t-228.5 160
t-139 242.5t-48.5 306q0 222 83 393t249 271t393 100q225 0 391 -99.5t250 -271.5t84 -393q0 -166 -49 -306.5t-140 -242.5t-228.5 -159.5t-307.5 -57.5zM786 268q97 0 166.5 36t108.5 101.5t56.5 146t17.5 181.5q0 100 -17.5 180t-56.5 145.5t-108.5 101.5t-166.5 36
q-348 0 -348 -463q0 -465 348 -465z" />
    <glyph glyph-name="Udieresis.ss02" horiz-adv-x="1449" 
d="M369 1735q0 66 42.5 110.5t114.5 44.5t114 -44.5t42 -110.5t-42 -111t-114 -45q-74 0 -115.5 45t-41.5 111zM768 1735q0 66 42.5 110.5t115.5 44.5q72 0 113.5 -44.5t41.5 -110.5t-41.5 -111t-113.5 -45q-74 0 -116 45t-42 111zM1337 528q0 -282 -144.5 -421.5
t-467.5 -139.5t-467.5 139.5t-144.5 421.5v936h368v-936q0 -139 59.5 -199.5t184.5 -60.5t184.5 60.5t59.5 199.5v936h368v-936z" />
    <glyph glyph-name="adieresis.ss02" horiz-adv-x="1146" 
d="M221 1319q0 66 43 111t115 45t114 -45t42 -111t-42 -111t-114 -45q-74 0 -116 45t-42 111zM621 1319q0 66 42.5 111t114.5 45t114 -45t42 -111t-42 -111t-114 -45q-74 0 -115.5 45t-41.5 111zM375 -33q-153 0 -243.5 83.5t-90.5 223.5q0 63 21 115t55.5 88t87.5 65
t109 47.5t128 33.5q15 3 50.5 10t55.5 11.5t50.5 13t48.5 18t36.5 22.5t27 30.5t8.5 39.5q0 44 -35 69t-104 25q-90 0 -134.5 -37t-52.5 -114h-311q4 78 35 143.5t91 117.5t158.5 81.5t227.5 29.5q222 0 332 -101t110 -335v-405q0 -44 7.5 -62t31.5 -18q15 0 27 2v-156
q-99 -18 -180 -18q-94 0 -139 34t-58 103h-4q-59 -73 -148 -116.5t-198 -43.5zM512 193q94 0 150.5 68t56.5 163v88q-55 -20 -178 -49q-88 -21 -126 -58.5t-38 -95.5q0 -116 135 -116z" />
    <glyph glyph-name="edieresis.ss02" 
d="M229 1319q0 66 43 111t115 45t114 -45t42 -111t-42 -111t-114 -45q-74 0 -116 45t-42 111zM629 1319q0 66 42.5 111t114.5 45t114 -45t42 -111t-42 -111t-114 -45q-74 0 -115.5 45t-41.5 111zM590 -35q-251 0 -398 154.5t-147 404.5q0 116 36 217t103.5 177.5t172 120.5
t233.5 44q265 0 400.5 -153t135.5 -445v-49h-753q1 -105 65 -165t160 -60q146 0 186 106h334q-46 -165 -179.5 -258.5t-348.5 -93.5zM590 846q-95 0 -152 -53.5t-63 -153.5h422q0 100 -55 153.5t-152 53.5z" />
    <glyph glyph-name="idieresis.ss02" horiz-adv-x="491" 
d="M-111 1319q0 66 43 111t115 45t114 -45t42 -111t-42 -111t-114 -45q-74 0 -116 45t-42 111zM289 1319q0 66 42.5 111t114.5 45t114 -45t42 -111t-42 -111t-114 -45q-74 0 -115.5 45t-41.5 111zM82 1049h328v-1049h-328v1049z" />
    <glyph glyph-name="odieresis.ss02" horiz-adv-x="1210" 
d="M250 1319q0 66 43 111t115 45t113.5 -45t41.5 -111t-41.5 -111t-113.5 -45q-74 0 -116 45t-42 111zM649 1319q0 66 43 111t115 45t114 -45t42 -111t-42 -111t-114 -45q-74 0 -116 45t-42 111zM602 -35q-257 0 -407 152.5t-150 404.5q0 251 151.5 406t411.5 155
q257 0 407 -152.5t150 -402.5q0 -253 -151.5 -408t-411.5 -155zM606 211q109 0 168.5 80.5t59.5 232.5t-59.5 233t-168.5 81q-110 0 -169.5 -81t-59.5 -233t59 -232.5t170 -80.5z" />
    <glyph glyph-name="divide.ss02" horiz-adv-x="1200" 
d="M434 1081q0 69 45.5 117.5t122.5 48.5q75 0 120.5 -48.5t45.5 -117.5q0 -70 -45 -118t-121 -48q-79 0 -123.5 47.5t-44.5 118.5zM102 815h996v-283h-996v283zM434 264q0 69 45.5 117.5t122.5 48.5q75 0 120.5 -48.5t45.5 -117.5q0 -70 -45 -118t-121 -48
q-79 0 -123.5 47.5t-44.5 118.5z" />
    <glyph glyph-name="udieresis.ss02" 
d="M223 1319q0 66 43 111t115 45t114 -45t42 -111t-42 -111t-114 -45q-74 0 -116 45t-42 111zM623 1319q0 66 42.5 111t114.5 45t114 -45t42 -111t-42 -111t-114 -45q-74 0 -115.5 45t-41.5 111zM406 444q0 -115 39.5 -163t123.5 -48q197 0 197 209v607h328v-1049h-328v152
h-4q-106 -185 -344 -185q-155 0 -247.5 98t-92.5 275v709h328v-605z" />
    <glyph glyph-name="ydieresis.ss02" horiz-adv-x="1157" 
d="M227 1319q0 66 43 111t115 45t114 -45t42 -111t-42 -111t-114 -45q-74 0 -116 45t-42 111zM627 1319q0 66 42.5 111t114.5 45t114 -45t42 -111t-42 -111t-114 -45q-74 0 -115.5 45t-41.5 111zM432 14l-418 1035h338l246 -691h4l225 691h324l-383 -1051
q-46 -126 -97.5 -201.5t-131.5 -117t-193 -41.5q-96 0 -196 20v250q52 -6 98 -6q21 0 34 0.5t34.5 3.5t36.5 10.5t31.5 19t28.5 31.5t19 47z" />
    <glyph glyph-name="cdotaccent.ss02" horiz-adv-x="1128" 
d="M414 1311q0 69 44.5 116.5t119.5 47.5t119 -47.5t44 -116.5t-44 -115.5t-119 -46.5q-77 0 -120.5 46.5t-43.5 115.5zM762 657q-21 181 -178 181q-100 0 -151.5 -82t-51.5 -232t51 -231.5t152 -81.5q159 0 178 184h330q-12 -191 -148 -310.5t-358 -119.5
q-246 0 -393.5 155t-147.5 404q0 247 146 403t387 156q221 0 357 -118t157 -308h-330z" />
    <glyph glyph-name="Edotaccent.ss02" horiz-adv-x="1316" 
d="M520 1726q0 69 44.5 116.5t119.5 47.5t119.5 -47.5t44.5 -116.5t-44 -115t-120 -46q-77 0 -120.5 46t-43.5 115zM492 903h638v-301h-638v-301h753v-301h-1122v1464h1110v-301h-741v-260z" />
    <glyph glyph-name="edotaccent.ss02" 
d="M422 1311q0 69 44.5 116.5t119.5 47.5t119.5 -47.5t44.5 -116.5t-44.5 -115.5t-119.5 -46.5q-77 0 -120.5 46.5t-43.5 115.5zM590 -35q-251 0 -398 154.5t-147 404.5q0 116 36 217t103.5 177.5t172 120.5t233.5 44q265 0 400.5 -153t135.5 -445v-49h-753q1 -105 65 -165
t160 -60q146 0 186 106h334q-46 -165 -179.5 -258.5t-348.5 -93.5zM590 846q-95 0 -152 -53.5t-63 -153.5h422q0 100 -55 153.5t-152 53.5z" />
    <glyph glyph-name="gdotaccent.ss02" horiz-adv-x="1185" 
d="M391 1311q0 69 44.5 116.5t119.5 47.5t119.5 -47.5t44.5 -116.5t-44.5 -115.5t-119.5 -46.5q-77 0 -120.5 46.5t-43.5 115.5zM776 125v61h-4q-40 -54 -112 -95.5t-175 -41.5q-199 0 -319.5 143.5t-120.5 372.5t120.5 372.5t319.5 143.5q103 0 175 -41.5t112 -95.5h4v105
h328v-924q0 -138 -36 -236t-106 -155t-163.5 -83t-218.5 -26q-117 0 -211.5 29t-155 78.5t-96.5 108t-51 124.5h331q36 -104 183 -104q109 0 152.5 61t43.5 203zM575 836q-98 0 -146 -70t-48 -201q0 -270 194 -270q98 0 146.5 70t48.5 200t-48.5 200.5t-146.5 70.5z" />
    <glyph glyph-name="uni0122.ss02" horiz-adv-x="1546" 
d="M1053 979q-12 44 -29 77.5t-48.5 67.5t-85.5 53t-126 19q-326 0 -326 -463q0 -108 17.5 -190t56 -145.5t105.5 -96.5t161 -33q127 0 208.5 69t84.5 175h-278v266h659v-778h-264l-37 186h-4q-55 -104 -160.5 -161.5t-261.5 -57.5q-153 0 -278.5 57.5t-210 159.5t-130 243
t-45.5 306q0 222 80 393t242 271t387 100q146 0 266.5 -41t201.5 -113t130 -164.5t62 -199.5h-377zM612 -584v105q82 9 130.5 38.5t48.5 78.5q-85 -15 -141 21t-56 110q0 64 46 101.5t120 37.5q86 0 132 -51t46 -140q0 -117 -83.5 -202t-242.5 -99z" />
    <glyph glyph-name="uni0123.ss02" horiz-adv-x="1185" 
d="M532 1399q78 14 127.5 -17.5t49.5 -95.5q0 -54 -38 -87.5t-102 -33.5q-81 0 -124.5 52.5t-43.5 134.5q0 104 72.5 173.5t218.5 82.5v-95q-74 -9 -117 -37.5t-43 -76.5zM776 125v61h-4q-40 -54 -112 -95.5t-175 -41.5q-199 0 -319.5 143.5t-120.5 372.5t120.5 372.5
t319.5 143.5q103 0 175 -41.5t112 -95.5h4v105h328v-924q0 -138 -36 -236t-106 -155t-163.5 -83t-218.5 -26q-117 0 -211.5 29t-155 78.5t-96.5 108t-51 124.5h331q36 -104 183 -104q109 0 152.5 61t43.5 203zM575 836q-98 0 -146 -70t-48 -201q0 -270 194 -270
q98 0 146.5 70t48.5 200t-48.5 200.5t-146.5 70.5z" />
    <glyph glyph-name="iogonek.ss02" horiz-adv-x="491" 
d="M82 1311q0 69 44.5 116.5t119.5 47.5t119.5 -47.5t44.5 -116.5t-44.5 -115.5t-119.5 -46.5q-77 0 -120.5 46.5t-43.5 115.5zM244 -360q-115 0 -174.5 44t-59.5 128q0 65 42 113t98 75h-68v1049h328v-1049h-52q-28 -24 -38.5 -33.5t-28 -27.5t-23.5 -32.5t-6 -29.5
q0 -45 64 -45q33 0 84 14v-184q-86 -22 -166 -22z" />
    <glyph glyph-name="Idotaccent.ss02" horiz-adv-x="614" 
d="M143 1726q0 69 44.5 116.5t119.5 47.5t119.5 -47.5t44.5 -116.5t-44 -115t-120 -46q-77 0 -120.5 46t-43.5 115zM123 1464h369v-1464h-369v1464z" />
    <glyph glyph-name="uni0136.ss02" horiz-adv-x="1470" 
d="M123 0v1464h369v-624l524 624h395l-551 -641l592 -823h-430l-379 571l-151 -176v-395h-369zM594 -584v105q178 21 178 117q-85 -15 -141 21t-56 110q0 64 46 101.5t120 37.5q86 0 132.5 -51t46.5 -140q0 -117 -83.5 -202t-242.5 -99z" />
    <glyph glyph-name="uni0137.ss02" horiz-adv-x="1165" 
d="M82 0v1464h328v-805l350 390h348l-371 -394l414 -655h-379l-248 432l-114 -121v-311h-328zM463 -584v105q178 21 178 117q-85 -15 -141 21t-56 110q0 64 46 101.5t120 37.5q86 0 132 -51t46 -140q0 -75 -33.5 -138t-109 -108t-182.5 -55z" />
    <glyph glyph-name="uni013B.ss02" horiz-adv-x="1183" 
d="M123 1464h369v-1163h651v-301h-1020v1464zM479 -584v105q178 21 178 117q-84 -15 -140 21t-56 110q0 64 46 101.5t120 37.5q86 0 132 -51t46 -140q0 -117 -83.5 -202t-242.5 -99z" />
    <glyph glyph-name="uni013C.ss02" horiz-adv-x="491" 
d="M82 1464h328v-1464h-328v1464zM92 -584v105q178 21 178 117q-84 -15 -140 21t-56 110q0 64 46 101.5t120 37.5q86 0 132 -51t46 -140q0 -117 -83.5 -202t-242.5 -99z" />
    <glyph glyph-name="uni0145.ss02" horiz-adv-x="1499" 
d="M123 0v1464h369l512 -870h4v870h368v-1464h-368l-512 870h-4v-870h-369zM596 -584v105q178 21 178 117q-84 -15 -140 21t-56 110q0 64 45.5 101.5t119.5 37.5q86 0 132.5 -51t46.5 -140q0 -117 -83.5 -202t-242.5 -99z" />
    <glyph glyph-name="uni0146.ss02" 
d="M82 0v1049h328v-152h4q105 184 344 184q155 0 247.5 -97.5t92.5 -274.5v-709h-328v604q0 115 -39.5 163t-124.5 48q-196 0 -196 -209v-606h-328zM436 -584v105q178 21 178 117q-84 -15 -140 21t-56 110q0 64 46 101.5t120 37.5q86 0 132 -51t46 -140q0 -117 -83.5 -202
t-242.5 -99z" />
    <glyph glyph-name="uni0156.ss02" horiz-adv-x="1421" 
d="M123 0v1464h690q246 0 384 -109.5t138 -307.5q0 -150 -78.5 -242.5t-218.5 -124.5v-4q75 -13 128.5 -54.5t80.5 -98.5t43 -123.5t21.5 -131t9 -118.5t11.5 -89.5t24 -40.5v-20h-383q-16 14 -22 59t-5.5 100.5t-8.5 118t-27.5 114t-66.5 85t-122 33.5h-229v-510h-369z
M492 1163v-352h249q226 0 226 176t-226 176h-249zM586 -584v105q178 21 178 117q-85 -15 -141 21t-56 110q0 64 46 101.5t120 37.5q86 0 132 -51t46 -140q0 -75 -33.5 -138t-109 -108t-182.5 -55z" />
    <glyph glyph-name="uni0157.ss02" horiz-adv-x="798" 
d="M82 1049h328v-172h4q39 85 105 132.5t151 47.5q53 0 90 -8v-287q-40 6 -68 6q-118 0 -200 -73.5t-82 -207.5v-487h-328v1049zM92 -584v105q178 21 178 117q-84 -15 -140 21t-56 110q0 64 46 101.5t120 37.5q86 0 132 -51t46 -140q0 -117 -83.5 -202t-242.5 -99z" />
    <glyph glyph-name="Ydieresis.ss02" horiz-adv-x="1394" 
d="M346 1735q0 66 42.5 110.5t115.5 44.5q72 0 113.5 -44.5t41.5 -110.5t-41.5 -111t-113.5 -45q-74 0 -116 45t-42 111zM745 1735q0 66 42.5 110.5t115.5 44.5q72 0 114 -44.5t42 -110.5t-42 -111t-114 -45q-74 0 -116 45t-42 111zM16 1464h398l284 -622h4l287 622h389
l-493 -923v-541h-369v541z" />
    <glyph glyph-name="Zdotaccent.ss02" horiz-adv-x="1290" 
d="M502 1726q0 69 44.5 116.5t119.5 47.5t119 -47.5t44 -116.5t-44 -115t-119 -46q-77 0 -120.5 46t-43.5 115zM115 1464h1079v-301l-670 -858v-4h690v-301h-1140v301l669 858v4h-628v301z" />
    <glyph glyph-name="zdotaccent.ss02" horiz-adv-x="1042" 
d="M356 1311q0 69 44.5 116.5t119.5 47.5t119.5 -47.5t44.5 -116.5t-44.5 -115.5t-119.5 -46.5q-77 0 -120.5 46.5t-43.5 115.5zM51 236l510 563v4h-469v246h879v-236l-510 -563v-4h530v-246h-940v236z" />
    <glyph glyph-name="uni0218.ss02" horiz-adv-x="1325" 
d="M723 893q213 -63 297 -102q189 -86 241 -226q23 -61 23 -135q0 -213 -153.5 -338t-425.5 -125q-193 0 -344 62t-239.5 183.5t-88.5 285.5h373q0 -121 80 -177.5t214 -56.5q100 0 153.5 36t53.5 95q0 28 -9 51.5t-30.5 42t-44.5 32.5t-62.5 28.5t-72 25t-85.5 26.5
q-29 8 -44 13q-85 25 -149 49t-130 62t-107.5 82t-68 107t-26.5 139q0 93 28.5 168t79.5 126t122.5 85t154.5 49.5t180 15.5q172 0 310 -56.5t222 -166t89 -254.5h-373q-12 85 -77 132.5t-171 47.5q-87 0 -137.5 -30t-50.5 -91q0 -69 57.5 -105t210.5 -81zM549 -584v105
q178 21 178 117q-85 -15 -141 21t-56 110q0 64 46 101.5t120 37.5q86 0 132 -51t46 -140q0 -75 -33.5 -138t-109 -108t-182.5 -55z" />
    <glyph glyph-name="uni0219.ss02" horiz-adv-x="1044" 
d="M602 662q51 -12 88.5 -22t83.5 -26.5t78 -34.5t64.5 -45t52.5 -58.5t32.5 -74.5t12.5 -94q0 -164 -121 -252t-348 -88q-133 0 -234 30t-160.5 84t-90 120.5t-33.5 146.5h307q15 -155 205 -155q139 0 139 90q0 15 -3.5 28t-12 23.5t-16.5 18.5t-25 15.5t-29.5 12t-36.5 11
t-39 10t-45.5 10t-48.5 10.5q-62 15 -110.5 30.5t-100.5 43t-86 61t-56 83.5t-22 112q0 150 120.5 239.5t338.5 89.5q121 0 214 -29t147.5 -79.5t83 -112t32.5 -133.5h-307q-8 65 -46.5 97t-117.5 32q-129 0 -129 -84q0 -44 34 -60.5t139 -39.5q9 -2 14.5 -3t14.5 -3t17 -4z
M401 -584v105q82 9 130.5 38.5t48.5 78.5q-85 -15 -141 21t-56 110q0 64 46 101.5t120 37.5q86 0 132 -51t46 -140q0 -117 -83.5 -202t-242.5 -99z" />
    <glyph glyph-name="uni021A.ss02" horiz-adv-x="1316" 
d="M475 0v1163h-426v301h1219v-301h-424v-1163h-369zM506 -584v105q178 21 178 117q-85 -15 -141 21t-56 110q0 64 46 101.5t120 37.5q86 0 132 -51t46 -140q0 -75 -33.5 -138t-109 -108t-182.5 -55z" />
    <glyph glyph-name="uni021B.ss02" horiz-adv-x="733" 
d="M20 1049h146v292h328v-292h182v-246h-182v-455q0 -78 25.5 -100.5t80.5 -22.5q36 0 88 8v-231q-96 -22 -194 -22q-173 0 -250.5 84.5t-77.5 275.5v463h-146v246zM311 -563v104q178 21 178 117q-84 -15 -140 21t-56 110q0 64 46 101.5t120 37.5q86 0 132 -50.5t46 -139.5
q0 -117 -83.5 -202t-242.5 -99z" />
    <glyph glyph-name="uni0307.ss02" horiz-adv-x="0" 
d="M82 1311q0 69 44.5 116.5t119.5 47.5t119.5 -47.5t44.5 -116.5t-44.5 -115.5t-119.5 -46.5q-77 0 -120.5 46.5t-43.5 115.5z" />
    <glyph glyph-name="uni0308.ss02" horiz-adv-x="0" 
d="M117 1319q0 66 42.5 111t114.5 45t114 -45t42 -111t-42 -111t-114 -45q-74 0 -115.5 45t-41.5 111zM516 1319q0 66 43 111t115 45t113.5 -45t41.5 -111t-41.5 -111t-113.5 -45q-74 0 -116 45t-42 111z" />
    <glyph glyph-name="uni0312.ss02" horiz-adv-x="0" 
d="M213 1399q78 14 127 -17.5t49 -95.5q0 -55 -37.5 -88t-101.5 -33q-81 0 -124.5 52.5t-43.5 134.5q0 104 72.5 173.5t218.5 82.5v-95q-74 -9 -117 -37.5t-43 -76.5z" />
    <glyph glyph-name="uni0326.ss02" horiz-adv-x="0" 
d="M84 -584v105q178 21 178 117q-84 -15 -140 21t-56 110q0 64 45.5 101.5t119.5 37.5q86 0 132.5 -51t46.5 -140q0 -117 -83.5 -202t-242.5 -99z" />
    <glyph glyph-name="Wdieresis.ss02" horiz-adv-x="1966" 
d="M627 1735q0 66 42.5 110.5t114.5 44.5t114 -44.5t42 -110.5t-42 -111t-114 -45q-74 0 -115.5 45t-41.5 111zM1026 1735q0 66 42.5 110.5t115.5 44.5q72 0 113.5 -44.5t41.5 -110.5t-41.5 -111t-113.5 -45q-74 0 -116 45t-42 111zM20 1464h369l189 -993h4l227 993h348
l227 -993h5l188 993h369l-373 -1464h-369l-219 913h-4l-219 -913h-369z" />
    <glyph glyph-name="wdieresis.ss02" horiz-adv-x="1650" 
d="M469 1319q0 66 43 111t115 45t113.5 -45t41.5 -111t-41.5 -111t-113.5 -45q-74 0 -116 45t-42 111zM868 1319q0 66 43 111t115 45t114 -45t42 -111t-42 -111t-114 -45q-74 0 -116 45t-42 111zM20 1049h328l158 -639h4l176 639h287l176 -639h6l158 639h317l-293 -1049
h-307l-203 664h-4l-202 -664h-308z" />
    <glyph glyph-name="quoteleft.ss02" horiz-adv-x="505" 
d="M424 1470v-139q-89 -14 -141 -57t-52 -115q92 20 152.5 -24.5t60.5 -137.5q0 -84 -50.5 -135t-129.5 -51q-92 0 -142 68.5t-50 187.5q0 75 21.5 142t63.5 122.5t110.5 92t156.5 46.5z" />
    <glyph glyph-name="quoteright.ss02" horiz-adv-x="505" 
d="M82 811v139q89 14 140.5 57t51.5 115q-92 -20 -152.5 24.5t-60.5 137.5q0 84 51 135t130 51q92 0 142 -68.5t50 -187.5q0 -75 -21.5 -142t-63.5 -122.5t-110.5 -92t-156.5 -46.5z" />
    <glyph glyph-name="quotesinglbase.ss02" horiz-adv-x="444" 
d="M68 -291v129q80 13 127 52.5t47 105.5q-83 -19 -138 22.5t-55 126.5q0 77 45.5 124.5t118.5 47.5q83 0 128.5 -63t45.5 -172q0 -145 -81.5 -250t-237.5 -123z" />
    <glyph glyph-name="quotedblleft.ss02" horiz-adv-x="915" 
d="M424 1470v-139q-89 -14 -141 -57t-52 -115q92 20 152.5 -24.5t60.5 -137.5q0 -84 -50.5 -135t-129.5 -51q-92 0 -142 68.5t-50 187.5q0 75 21.5 142t63.5 122.5t110.5 92t156.5 46.5zM834 1470v-139q-89 -14 -141 -57t-52 -115q92 20 152.5 -24.5t60.5 -137.5
q0 -84 -50.5 -135t-129.5 -51q-92 0 -142.5 68.5t-50.5 187.5q0 75 21.5 142t63.5 122.5t111 92t157 46.5z" />
    <glyph glyph-name="quotedblright.ss02" horiz-adv-x="913" 
d="M82 811v139q89 14 140.5 57t51.5 115q-92 -20 -152.5 24.5t-60.5 137.5q0 84 51 135t130 51q92 0 142 -68.5t50 -187.5q0 -75 -21.5 -142t-63.5 -122.5t-110.5 -92t-156.5 -46.5zM489 811v139q89 14 141 57t52 115q-92 -20 -152.5 24.5t-60.5 137.5q0 84 50.5 135
t129.5 51q92 0 142.5 -68.5t50.5 -187.5q0 -75 -21.5 -142t-63.5 -122.5t-111 -92t-157 -46.5z" />
    <glyph glyph-name="quotedblbase.ss02" horiz-adv-x="854" 
d="M477 -291v129q80 13 127 52.5t47 105.5q-83 -19 -137.5 22.5t-54.5 126.5q0 77 45.5 124.5t118.5 47.5q83 0 128.5 -63t45.5 -172q0 -145 -82 -250t-238 -123zM68 -291v129q80 13 127 52.5t47 105.5q-83 -19 -138 22.5t-55 126.5q0 77 45.5 124.5t118.5 47.5
q83 0 128.5 -63t45.5 -172q0 -145 -81.5 -250t-237.5 -123z" />
    <glyph glyph-name="bullet.ss02" horiz-adv-x="696" 
d="M348 315q-128 0 -209.5 81.5t-81.5 209.5t81.5 209.5t209.5 81.5t209.5 -81.5t81.5 -209.5t-81.5 -209.5t-209.5 -81.5z" />
    <glyph glyph-name="ellipsis.ss02" horiz-adv-x="1302" 
d="M51 156q0 69 45.5 117.5t122.5 48.5q75 0 120.5 -48.5t45.5 -117.5q0 -70 -45 -118t-121 -48q-79 0 -123.5 47.5t-44.5 118.5zM485 156q0 69 45.5 117.5t122.5 48.5q75 0 120.5 -48.5t45.5 -117.5q0 -70 -45 -118t-121 -48q-79 0 -123.5 47.5t-44.5 118.5zM920 156
q0 69 45 117.5t122 48.5q75 0 120.5 -48.5t45.5 -117.5q0 -70 -45 -118t-121 -48q-79 0 -123 47.5t-44 118.5z" />
    <glyph glyph-name="i.latn_TRK.ss02" horiz-adv-x="491" 
d="M74 1311q0 72 46.5 122t125.5 50q80 0 126 -49.5t46 -122.5q0 -74 -46 -123t-126 -49t-126 49t-46 123zM82 0v1049h328v-1049h-328z" />
    <glyph glyph-name="periodcentered.case.ss02" horiz-adv-x="434" 
d="M51 733q0 69 45.5 117.5t122.5 48.5q75 0 120.5 -48.5t45.5 -117.5q0 -70 -45 -118t-121 -48q-79 0 -123.5 47.5t-44.5 118.5z" />
    <glyph glyph-name="bullet.case.ss02" horiz-adv-x="696" 
d="M348 397q-128 0 -209.5 81.5t-81.5 209.5t81.5 209.5t209.5 81.5t209.5 -81.5t81.5 -209.5t-81.5 -209.5t-209.5 -81.5z" />
    <glyph glyph-name="adieresis.ss01.ss02" horiz-adv-x="1218" 
d="M223 1319q0 66 43 111t115 45t114 -45t42 -111t-42 -111t-114 -45q-74 0 -116 45t-42 111zM623 1319q0 66 42.5 111t114.5 45t114 -45t42 -111t-42 -111t-114 -45q-74 0 -115.5 45t-41.5 111zM805 944h4v105h328v-1049h-328v104h-4q-38 -51 -119 -94t-184 -43
q-210 0 -333.5 150t-123.5 407t123.5 407t333.5 150q103 0 184 -43t119 -94zM592 213q101 0 156 79.5t55 231.5t-55 232t-156 80t-156 -80t-55 -232t55 -231.5t156 -79.5z" />
    <glyph glyph-name="logo" horiz-adv-x="1458" 
d="M840 770h331q58 0 98 43t40 102q0 60 -43 103t-103 43q-78 0 -121 -66l7 -28q0 -34 -25.5 -59t-60.5 -25q-34 0 -59 24.5t-25 59.5t25 60.5t59 25.5q10 0 26 -4q26 15 47 51q19 36 19 69q0 38 -19 70q-19 35 -53 55.5t-74 20.5q-58 0 -101.5 -40t-43.5 -97v-332
q0 -31 22.5 -53.5t53.5 -22.5zM287 770h331q31 0 53.5 22.5t22.5 53.5v332q0 57 -43.5 97t-101.5 40q-40 0 -74 -20.5t-53 -55.5q-19 -32 -19 -70q0 -33 19 -69q21 -36 47 -51q16 4 27 4q34 0 59 -25.5t25 -60.5t-25 -59.5t-59 -24.5q-35 0 -60.5 25t-25.5 59q0 4 6 28
q-43 66 -121 66q-60 0 -102.5 -43t-42.5 -103q0 -59 39.5 -102t97.5 -43zM764 297q0 -57 43.5 -97t101.5 -40q40 0 74 20.5t53 55.5q19 32 19 69q0 34 -19 70q-21 36 -47 51q-16 -4 -26 -4q-34 0 -59 25.5t-25 60.5t25 59.5t59 24.5q35 0 60.5 -25t25.5 -59q0 -1 -7 -29
q43 -65 121 -65q60 0 103 42.5t43 102.5q0 59 -40 102.5t-98 43.5h-331q-31 0 -53.5 -22.5t-22.5 -53.5v-332zM422 236q19 -35 53 -55.5t74 -20.5q58 0 101.5 40t43.5 97v332q0 31 -22.5 53.5t-53.5 22.5h-331q-58 0 -97.5 -43.5t-39.5 -102.5q0 -60 42.5 -102.5
t102.5 -42.5q78 0 121 65q-6 24 -6 29q0 34 25.5 59t60.5 25q34 0 59 -24.5t25 -59.5t-25 -60.5t-59 -25.5q-11 0 -27 4q-26 -15 -47 -51q-19 -36 -19 -70q0 -37 19 -69zM547 92q-93 0 -157.5 66.5t-59.5 150.5l2 31h-33q-90 0 -153.5 63.5t-63.5 153.5q0 54 26.5 102
t71.5 78q-45 29 -71.5 78t-26.5 103q0 90 63.5 153.5t153.5 63.5q3 0 10 -0.5t13 -0.5t10 1l-2 30q-5 84 59.5 150.5t157.5 66.5q55 0 103 -26.5t79 -71.5q31 45 79 71.5t103 26.5q93 0 157.5 -66.5t59.5 -150.5l-2 -30h33q90 0 153.5 -63.5t63.5 -153.5q0 -54 -26.5 -103
t-71.5 -78q45 -30 71.5 -78t26.5 -102q0 -90 -63.5 -153.5t-153.5 -63.5h-33l2 -31q5 -84 -59.5 -150.5t-157.5 -66.5q-55 0 -103 26.5t-79 71.5q-31 -45 -79 -71.5t-103 -26.5z" />
    <glyph glyph-name="smallLogo" horiz-adv-x="942" 
d="M539 1139h198q35 0 58.5 25t23.5 61q0 37 -25.5 62.5t-60.5 25.5q-49 0 -74 -39q5 -15 5 -19q0 -20 -15 -34.5t-37 -14.5q-21 0 -36 14t-15 35t15.5 36.5t35.5 15.5q11 0 17 -2q17 11 26 30q13 23 13 43q0 22 -13 41q-23 45 -75 45q-35 0 -60.5 -23.5t-25.5 -58.5v-198
q0 -19 13 -32t32 -13zM205 1139h198q19 0 32.5 13t13.5 32v198q0 34 -26 58t-61 24q-52 0 -75 -45q-13 -19 -13 -41q0 -20 13 -43q9 -19 26 -30q6 2 17 2q20 0 35.5 -15.5t15.5 -36.5t-15 -35t-36 -14q-22 0 -36.5 14.5t-14.5 34.5q0 7 4 19q-25 39 -74 39
q-35 0 -60.5 -25.5t-25.5 -62.5q0 -36 23.5 -61t58.5 -25zM494 854q0 -35 25.5 -58.5t60.5 -23.5q52 0 75 45q13 19 13 41q0 20 -13 43q-10 21 -26 31q-6 -2 -17 -2q-21 0 -36 15t-15 36t15 35t36 14q22 0 37 -14.5t15 -34.5q0 -3 -5 -18q25 -39 74 -39q35 0 60.5 25.5
t25.5 62.5q0 36 -23.5 61t-58.5 25h-198q-19 0 -32 -13t-13 -32v-199zM287 817q23 -45 75 -45q35 0 61 24t26 58v199q0 19 -13.5 32t-32.5 13h-198q-35 0 -58.5 -25t-23.5 -61q0 -37 25.5 -62.5t60.5 -25.5q49 0 74 39q-4 12 -4 18q0 20 14.5 34.5t36.5 14.5q21 0 36 -14
t15 -35t-15 -36t-36 -15q-11 0 -17 2q-16 -10 -26 -31q-13 -23 -13 -43q0 -22 13 -41zM360 731q-58 0 -95 42t-34 108q-71 0 -110 36.5t-39 92.5q0 71 59 108q-27 17 -43 46.5t-16 62.5q0 56 39 92.5t110 36.5q-3 66 34 107.5t95 41.5q71 0 111 -59q40 59 111 59
q58 0 95 -41.5t34 -107.5q71 0 110 -36.5t39 -92.5q0 -33 -16 -62.5t-43 -46.5q59 -37 59 -108q0 -56 -39 -92.5t-110 -36.5q3 -66 -34 -108t-95 -42q-70 0 -111 60q-41 -60 -111 -60z" />
    <glyph glyph-name="topLogoCircle" horiz-adv-x="1204" 
d="M602 498q-209 0 -354.5 143t-145.5 356t145.5 356.5t354.5 143.5t354.5 -143.5t145.5 -356.5t-145.5 -356t-354.5 -143z" />
    <glyph glyph-name="zero.slash" horiz-adv-x="1382" 
d="M692 -33q-155 0 -275.5 56t-195.5 156.5t-113 233.5t-38 294q0 128 23.5 239t73.5 204t122.5 159t175 102.5t227.5 36.5q155 0 275 -56t195 -156.5t113 -234t38 -294.5t-38 -294t-113 -233.5t-195 -156.5t-275 -56zM416 707q0 -197 45 -312l303 785q-46 8 -72 8
q-63 0 -111 -24.5t-79 -66.5t-50.5 -104.5t-27.5 -131.5t-8 -154zM692 227q78 0 133 36t85.5 103.5t43.5 150.5t13 190q0 176 -35 288l-297 -762q27 -6 57 -6z" />
    <glyph glyph-name="uni030C.alt" horiz-adv-x="0" 
d="M133 1464h348l-174 -422h-225z" />
    </font>
</defs>
</svg>
